<?xml version="1.0" encoding="UTF-8"?>
<svg width="167px" height="145px" viewBox="0 0 167 145" version="1.1" xmlns="http://www.w3.org/2000/svg" xmlns:xlink="http://www.w3.org/1999/xlink">
    <!-- Generator: Sketch 41.2 (35397) - http://www.bohemiancoding.com/sketch -->
    <title>conception</title>
    <desc>Created with Sketch.</desc>
    <defs>
        <filter x="-50%" y="-50%" width="200%" height="200%" filterUnits="objectBoundingBox" id="filter-1">
            <feOffset dx="0" dy="2" in="SourceAlpha" result="shadowOffsetOuter1"></feOffset>
            <feGaussianBlur stdDeviation="2" in="shadowOffsetOuter1" result="shadowBlurOuter1"></feGaussianBlur>
            <feColorMatrix values="0 0 0 0 0   0 0 0 0 0   0 0 0 0 0  0 0 0 0.16 0" type="matrix" in="shadowBlurOuter1" result="shadowMatrixOuter1"></feColorMatrix>
            <feMerge>
                <feMergeNode in="shadowMatrixOuter1"></feMergeNode>
                <feMergeNode in="SourceGraphic"></feMergeNode>
            </feMerge>
        </filter>
    </defs>
    <g id="wireframe" stroke="none" stroke-width="1" fill="none" fill-rule="evenodd">
        <g id="Desktop-HD-Copy" transform="translate(-137.000000, -1111.000000)">
            <g id="prototype" transform="translate(0.000000, 587.000000)">
                <g id="conception" transform="translate(141.000000, 526.000000)">
                    <g id="Group-3-Copy" transform="translate(0.000000, 96.000000)">
                        <text id="1000-+-Heures" font-family="AvenirNext-Medium, Avenir Next" font-size="24" font-weight="400" fill="#000000">
                            <tspan x="0" y="46">1000 + Heures </tspan>
                        </text>
                        <text id="Conception" font-family="AvenirNext-Bold, Avenir Next" font-size="16" font-weight="bold" fill="#ADADAD">
                            <tspan x="0" y="16">Conception</tspan>
                        </text>
                    </g>
                    <g id="conception_icon" filter="url(#filter-1)">
                        <circle id="Oval-3-Copy-2" fill="#F7E100" cx="40" cy="40" r="40"></circle>
                        <g id="noun_898940_cc-copy" transform="translate(19.000000, 19.000000)" fill="#000000">
                            <rect id="Rectangle-path" x="20.34375" y="20.34375" width="1.3125" height="1.3125"></rect>
                            <rect id="Rectangle-path" x="22.96875" y="20.34375" width="1.3125" height="1.3125"></rect>
                            <rect id="Rectangle-path" x="17.71875" y="20.34375" width="1.3125" height="1.3125"></rect>
                            <path d="M7.875,20.34375 C6.69375,20.34375 5.64375,20.60625 4.659375,21.065625 C4.921875,17.259375 6.5625,13.65 9.1875,10.89375 L9.1875,12.46875 L10.5,12.46875 L10.5,9.7125 L10.5,9.7125 L10.5,9.7125 L10.5,8.53125 L6.5625,8.53125 L6.5625,9.84375 L8.4,9.84375 C5.25,13.059375 3.4125,17.325 3.28125,21.853125 C1.3125,23.23125 0,25.59375 0,28.21875 C0,32.55 3.54375,36.09375 7.875,36.09375 C12.20625,36.09375 15.75,32.55 15.75,28.21875 C15.75,23.8875 12.20625,20.34375 7.875,20.34375 Z M8.53125,32.8125 L7.21875,32.8125 L7.21875,31.5 L8.53125,31.5 L8.53125,32.8125 Z M8.53125,28.809375 L8.53125,30.1875 L7.21875,30.1875 L7.21875,27.5625 L7.875,27.5625 C8.596875,27.5625 9.1875,26.971875 9.1875,26.25 C9.1875,25.528125 8.596875,24.9375 7.875,24.9375 C7.153125,24.9375 6.5625,25.528125 6.5625,26.25 L5.25,26.25 C5.25,24.80625 6.43125,23.625 7.875,23.625 C9.31875,23.625 10.5,24.80625 10.5,26.25 C10.5,27.496875 9.646875,28.48125 8.53125,28.809375 Z" id="Shape"></path>
                            <path d="M34.125,20.34375 C29.79375,20.34375 26.25,23.8875 26.25,28.21875 C26.25,31.434375 28.153125,34.190625 30.909375,35.371875 C26.709375,38.5875 21.328125,39.50625 16.275,37.996875 L17.915625,37.340625 L17.45625,36.09375 L13.453125,37.66875 L15.815625,41.60625 L16.93125,40.95 L15.88125,39.24375 C17.5875,39.76875 19.29375,39.965625 21,39.965625 C25.06875,39.965625 29.071875,38.521875 32.353125,35.83125 C32.94375,35.9625 33.534375,36.028125 34.125,36.028125 C38.45625,36.028125 42,32.484375 42,28.153125 C42,23.821875 38.45625,20.34375 34.125,20.34375 Z M37.209375,30.384375 L36.290625,31.303125 L34.125,29.1375 L31.959375,31.303125 L31.040625,30.384375 L33.20625,28.21875 L31.040625,26.053125 L31.959375,25.134375 L34.125,27.3 L36.290625,25.134375 L37.209375,26.053125 L35.04375,28.21875 L37.209375,30.384375 Z" id="Shape"></path>
                            <path d="M21,15.75 C25.33125,15.75 28.875,12.271875 28.875,7.940625 C32.353125,9.84375 34.978125,12.928125 36.35625,16.603125 L34.321875,15.815625 L33.8625,17.0625 L37.734375,18.6375 L39.309375,14.765625 L38.0625,14.30625 L37.40625,15.88125 C35.765625,11.746875 32.68125,8.4 28.678125,6.496875 C28.021875,2.75625 24.80625,0 21,0 C16.66875,0 13.125,3.54375 13.125,7.875 C13.125,12.20625 16.66875,15.75 21,15.75 Z M18.178125,6.759375 L20.34375,8.925 L23.821875,5.446875 L24.740625,6.365625 L20.34375,10.7625 L17.259375,7.678125 L18.178125,6.759375 Z" id="Shape"></path>
                        </g>
                    </g>
                </g>
            </g>
        </g>
    </g>
</svg>