<?xml version="1.0" encoding="UTF-8"?>
<svg width="88px" height="88px" viewBox="0 0 88 88" version="1.1" xmlns="http://www.w3.org/2000/svg" xmlns:xlink="http://www.w3.org/1999/xlink">
    <!-- Generator: Sketch 41.2 (35397) - http://www.bohemiancoding.com/sketch -->
    <title>gas_icon</title>
    <desc>Created with Sketch.</desc>
    <defs>
        <filter x="-50%" y="-50%" width="200%" height="200%" filterUnits="objectBoundingBox" id="filter-1">
            <feOffset dx="0" dy="2" in="SourceAlpha" result="shadowOffsetOuter1"></feOffset>
            <feGaussianBlur stdDeviation="2" in="shadowOffsetOuter1" result="shadowBlurOuter1"></feGaussianBlur>
            <feColorMatrix values="0 0 0 0 0   0 0 0 0 0   0 0 0 0 0  0 0 0 0.16 0" type="matrix" in="shadowBlurOuter1" result="shadowMatrixOuter1"></feColorMatrix>
            <feMerge>
                <feMergeNode in="shadowMatrixOuter1"></feMergeNode>
                <feMergeNode in="SourceGraphic"></feMergeNode>
            </feMerge>
        </filter>
    </defs>
    <g id="wireframe" stroke="none" stroke-width="1" fill="none" fill-rule="evenodd">
        <g id="Desktop-HD-Copy" transform="translate(-500.000000, -1111.000000)">
            <g id="prototype" transform="translate(0.000000, 587.000000)">
                <g id="consommation" transform="translate(504.000000, 526.000000)">
                    <g id="gas_icon" filter="url(#filter-1)">
                        <circle id="Oval-3-Copy" fill="#F7E100" cx="40" cy="40" r="40"></circle>
                        <g id="noun_693071_cc-(1)-copy" transform="translate(21.000000, 17.000000)" fill="#000000">
                            <path d="M29.9602527,1.56648137 C30.8107595,2.5357628 32.1960751,3.87029666 33.1054973,4.94195259 C33.5511192,5.47696916 33.9848327,6.05452146 34.3732338,6.63769981 C32.4146111,6.65510521 30.8107338,8.26479806 30.8107338,10.2211656 C30.8107338,12.18813 32.4322554,13.8046314 34.4053284,13.8046314 C34.9577149,13.8046314 35.4764611,13.6782887 35.9458689,13.4526839 C35.9458535,21.6914046 35.9458689,31.6284577 35.9458689,31.7219861 C35.9458689,32.6716046 35.0848814,33.2577572 34.4053284,33.2577572 C33.7458641,33.2577572 32.8647878,32.6654615 32.8647878,31.7219861 L32.8647878,16.5562213 C32.8648135,15.8457787 32.3513,15.333855 31.7255068,15.3417386 L28.7567568,15.3417386 L28.7567568,8.7027027 C28.7567619,3.95583911 25.3029316,0 21.0540541,0 L7.7027027,0 C3.45377378,0 0,3.95583911 0,8.7027027 L0,44.0254577 C3.59459459e-05,44.5615442 0.489285946,45.0492539 1.02702703,45.0493051 L27.7297297,45.0493051 C28.2674708,45.0492539 28.7567208,44.5615442 28.7567568,44.0254577 L28.7567568,17.3894334 L30.8108108,17.3894334 L30.8108108,31.7233171 C30.8108108,33.8513839 32.60324,35.306783 34.4054054,35.306783 C36.2150168,35.306783 38,33.8452408 38,31.7233171 C37.9999486,24.0365782 37.9999486,16.3577024 37.9999486,9.70269444 C37.8360814,7.45212432 36.1883705,5.44466677 34.6782351,3.63158665 C33.6378105,2.43204706 32.5363035,1.26127758 31.5811324,0.320464229 C30.8107595,-0.0238556439 30.5664195,0.0503732909 30.1553159,0.245365024 C29.7715622,0.600435294 29.7837324,0.999991733 29.9602527,1.56648649 L29.9602527,1.56648137 Z M7.70265135,2.04635863 L21.0540027,2.04635863 C23.9941911,2.04635863 26.7026565,4.94010967 26.7026514,8.70136658 L26.7026514,43.0002793 L2.0540027,43.0002793 L2.0540027,8.70136658 C2.0540027,4.94010967 4.76239108,2.04635863 7.70265135,2.04635863 Z M4.10805676,6.12577612 L4.10805676,19.435792 L24.6485973,19.435792 L24.6485973,6.12577612 L4.10805676,6.12577612 Z M6.16211081,8.17347087 L22.5945432,8.17347087 L22.5945432,17.3880973 L6.16211081,17.3880973 L6.16211081,8.17347087 Z M34.4053541,8.68539456 C35.4323811,8.67873955 35.9458946,9.19077075 35.9458432,10.2372963 C35.9375243,11.0900076 35.2629422,11.7570954 34.4053027,11.7570954 C33.5423227,11.7570954 32.8647622,11.0816121 32.8647622,10.2213243 C32.8648135,9.19077075 33.6801549,8.70690048 34.4053541,8.68539456 Z M14.378327,24.5550545 C13.8648135,24.5483995 13.0772686,25.4678144 12.7254554,26.138844 C11.7945068,28.5657206 10.2963619,31.1037359 10.2702189,33.7056904 C10.2702189,35.9767375 12.1113754,37.8650704 14.378327,37.8650704 C16.6452786,37.8650704 18.4864351,35.9767375 18.4864351,33.7056904 C18.1314432,31.0645737 17.2303041,28.5256882 16.0311986,26.138844 C15.6625832,25.3730574 14.8918405,24.5485019 14.378327,24.5550545 L14.378327,24.5550545 Z M14.378327,27.4666205 C15.2754608,29.4907155 16.1141978,31.4510761 16.4323811,33.7056904 C16.4323811,34.8901283 15.5145322,35.8173756 14.378327,35.8173756 C13.2421219,35.8173756 12.324273,34.8901283 12.324273,33.7056904 C12.6714389,31.5403044 13.4441997,29.4432602 14.378327,27.4666205 L14.378327,27.4666205 Z" id="Shape"></path>
                        </g>
                    </g>
                </g>
            </g>
        </g>
    </g>
</svg>