<?xml version="1.0" encoding="UTF-8"?>
<svg width="88px" height="88px" viewBox="0 0 88 88" version="1.1" xmlns="http://www.w3.org/2000/svg" xmlns:xlink="http://www.w3.org/1999/xlink">
    <!-- Generator: Sketch 41.2 (35397) - http://www.bohemiancoding.com/sketch -->
    <title>weight_icon</title>
    <desc>Created with Sketch.</desc>
    <defs>
        <filter x="-50%" y="-50%" width="200%" height="200%" filterUnits="objectBoundingBox" id="filter-1">
            <feOffset dx="0" dy="2" in="SourceAlpha" result="shadowOffsetOuter1"></feOffset>
            <feGaussianBlur stdDeviation="2" in="shadowOffsetOuter1" result="shadowBlurOuter1"></feGaussianBlur>
            <feColorMatrix values="0 0 0 0 0   0 0 0 0 0   0 0 0 0 0  0 0 0 0.16 0" type="matrix" in="shadowBlurOuter1" result="shadowMatrixOuter1"></feColorMatrix>
            <feMerge>
                <feMergeNode in="shadowMatrixOuter1"></feMergeNode>
                <feMergeNode in="SourceGraphic"></feMergeNode>
            </feMerge>
        </filter>
    </defs>
    <g id="wireframe" stroke="none" stroke-width="1" fill="none" fill-rule="evenodd">
        <g id="Desktop-HD-Copy" transform="translate(-144.000000, -930.000000)">
            <g id="prototype" transform="translate(7.000000, 587.000000)">
                <g id="poids" transform="translate(141.000000, 345.000000)">
                    <g id="weight_icon" filter="url(#filter-1)">
                        <circle id="Oval-3" fill="#F7E100" cx="40" cy="40" r="40"></circle>
                        <g id="Group" transform="translate(18.000000, 17.000000)" fill="#000000">
                            <path d="M43.835,39.0157895 L35.255,14.2026316 C34.925,13.3184211 34.1,12.7657895 33.165,12.7657895 L28.93,12.7657895 C29.81,11.3842105 30.25,9.83684211 30.195,8.17894737 C30.085,3.86842105 26.565,0.276315789 22.275,0.110526316 C20.02,-1.58761893e-14 17.875,0.828947368 16.225,2.43157895 C14.575,4.03421053 13.695,6.13421053 13.695,8.4 C13.695,10.0026316 14.135,11.4947368 14.96,12.8210526 L10.725,12.8210526 C9.79,12.8210526 8.965,13.4289474 8.635,14.3131579 L0.165,39.0157895 C-0.11,39.6789474 2.69088571e-13,40.4526316 0.44,41.0605263 C0.825,41.6684211 1.54,42 2.255,42 L41.745,42 C42.46,42 43.12,41.6684211 43.56,41.0605263 C44,40.4526316 44.055,39.6789474 43.835,39.0157895 Z M17.435,14.9763158 C17.875,14.9763158 18.315,14.7 18.48,14.2578947 C18.645,13.8157895 18.48,13.3184211 18.15,13.0421053 C16.775,11.8815789 15.95,10.1684211 15.95,8.34473684 C15.95,6.68684211 16.61,5.13947368 17.82,3.97894737 C19.03,2.81842105 20.57,2.21052632 22.275,2.26578947 C25.41,2.37631579 27.995,5.02894737 28.05,8.17894737 C28.105,10.0578947 27.28,11.8263158 25.85,12.9868421 C25.52,13.2631579 25.355,13.7605263 25.52,14.2026316 C25.685,14.6447368 26.07,14.9210526 26.565,14.9210526 L33.22,14.9210526 L41.745,39.7342105 L2.255,39.7342105 L10.78,14.9763158 C10.78,14.9763158 17.435,14.9763158 17.435,14.9763158 Z" id="Shape"></path>
                            <path d="M22,12.4342105 C24.255,12.4342105 26.125,10.6105263 26.125,8.28947368 C26.125,5.96842105 24.31,4.14473684 22,4.14473684 C19.69,4.14473684 17.875,5.96842105 17.875,8.28947368 C17.875,10.6105263 19.745,12.4342105 22,12.4342105 Z M22,6.41052632 C23.045,6.41052632 23.925,7.29473684 23.925,8.34473684 C23.925,9.39473684 23.045,10.2789474 22,10.2789474 C20.955,10.2789474 20.075,9.39473684 20.075,8.34473684 C20.075,7.23947368 20.955,6.41052632 22,6.41052632 Z" id="Shape"></path>
                        </g>
                    </g>
                </g>
            </g>
        </g>
    </g>
</svg>