<?xml version="1.0" encoding="UTF-8"?>
<svg width="20px" height="20px" viewBox="0 0 20 20" version="1.1" xmlns="http://www.w3.org/2000/svg" xmlns:xlink="http://www.w3.org/1999/xlink">
    <!-- Generator: Sketch 41.2 (35397) - http://www.bohemiancoding.com/sketch -->
    <title>canada</title>
    <desc>Created with Sketch.</desc>
    <defs></defs>
    <g id="wireframe" stroke="none" stroke-width="1" fill="none" fill-rule="evenodd">
        <g id="Desktop-HD-Copy" transform="translate(-871.000000, -5657.000000)" fill="#8D8B8C">
            <g id="canada" transform="translate(871.000000, 5657.000000)">
                <path d="M9.13711111,6.53888889 C9.07244444,6.65044444 8.92888889,6.68866667 8.81711111,6.62466667 L8.17355556,6.25333333 L8.52466667,8.22044444 C8.54333333,8.32311111 8.49511111,8.42088889 8.40311111,8.46911111 C8.31066667,8.51733333 8.20266667,8.50044444 8.12911111,8.42711111 L7.34466667,7.642 L7.20733333,8.15555556 C7.17533333,8.27266667 7.06133333,8.346 6.94222222,8.32555556 L5.766,8.12622222 L6.12777778,9.47644444 C6.15711111,9.58755556 6.10444444,9.70111111 5.99977778,9.74911111 L5.53511111,9.96444444 L7.74133333,11.9013333 C7.80866667,11.9604444 7.82844444,12.0531111 7.792,12.1346667 L7.52622222,12.722 C8.30177778,12.6288889 9.07733333,12.5797778 9.85377778,12.5748889 L9.85377778,14.904 L10.1397778,14.904 L10.1397778,12.5742222 C10.9155556,12.5797778 11.6913333,12.6288889 12.4675556,12.7213333 L12.1531111,12.1993333 C12.1028889,12.1157778 12.1184444,12.0102222 12.1913333,11.946 L14.4648889,9.92622222 L14,9.71155556 C13.8955556,9.66333333 13.8422222,9.54977778 13.8722222,9.43844444 L14.2337778,8.08844444 L13.0573333,8.28777778 C12.9386667,8.30777778 12.824,8.23444444 12.7933333,8.11755556 L12.656,7.60333333 L11.8111111,8.44866667 C11.7384444,8.52088889 11.6328889,8.53822222 11.5408889,8.49222222 C11.4482222,8.44622222 11.3995556,8.35088889 11.4142222,8.24977778 L11.71,6.20488889 L11.0875556,6.56422222 C10.9768889,6.62888889 10.8322222,6.59022222 10.7675556,6.47888889 L9.96955556,5.09577778 L9.13711111,6.53888889 Z" id="Shape"></path>
                <path d="M9.99933333,0.0277777778 C7.74688889,0.0277777778 5.66666667,0.779555556 3.99511111,2.044 L3.99511111,2.02066667 C3.04466667,2.73977778 2.23177778,3.63022222 1.59555556,4.642 C1.53866667,4.73111111 1.48177778,4.82022222 1.42777778,4.91133333 C1.42488889,4.91666667 1.42177778,4.922 1.41866667,4.92733333 C0.536222222,6.41444444 0.0273333333,8.14866667 0.0273333333,9.99977778 C0.0273333333,12.6633333 1.06422222,15.1671111 2.94777778,17.0511111 C4.83088889,18.9348889 7.33511111,19.9724444 9.99933333,19.9724444 C12.6633333,19.9724444 15.1677778,18.9348889 17.0506667,17.0511111 C18.9344444,15.1686667 19.972,12.6642222 19.972,9.99977778 C19.9708889,4.50088889 15.4971111,0.0277777778 9.99933333,0.0277777778 Z M15.8126667,17.6775556 C14.1482222,18.9437778 12.1271111,19.6308889 9.99933333,19.6308889 C7.78911111,19.6308889 5.69422222,18.8897778 3.99511111,17.5291111 L3.99511111,2.478 C5.64333333,1.16022222 7.72977778,0.368888889 9.99933333,0.368888889 C12.1813333,0.368888889 14.1957778,1.1 15.8126667,2.328 L15.8126667,17.6775556 Z" id="Shape"></path>
            </g>
        </g>
    </g>
</svg>