<?xml version="1.0" encoding="UTF-8"?>
<svg width="19px" height="19px" viewBox="0 0 19 19" version="1.1" xmlns="http://www.w3.org/2000/svg" xmlns:xlink="http://www.w3.org/1999/xlink">
    <!-- Generator: Sketch 41.2 (35397) - http://www.bohemiancoding.com/sketch -->
    <title>linkedin</title>
    <desc>Created with Sketch.</desc>
    <defs></defs>
    <g id="wireframe" stroke="none" stroke-width="1" fill="none" fill-rule="evenodd">
        <g id="Desktop-HD-Copy" transform="translate(-778.000000, -5656.000000)" fill="#0076B7">
            <g id="footer" transform="translate(0.000000, 5639.000000)">
                <path d="M795.555761,36 L779.401538,36 C778.627229,36 778,35.3896133 778,34.6369084 L778,18.3620374 C778,17.6103867 778.627229,17 779.401538,17 L795.555761,17 C796.329122,17 796.95635,17.6103867 796.95635,18.3620374 L796.95635,34.6369084 C796.95635,35.3896133 796.329122,36 795.555761,36 L795.555761,36 Z M781.285122,32.8700549 L784.076812,32.8700549 L784.076812,24.2919603 L781.285122,24.2919603 L781.285122,32.8700549 L781.285122,32.8700549 Z M782.699945,20.1573545 C781.744394,20.1573545 781.120961,20.7972591 781.120961,21.6395717 C781.120961,22.4618543 781.726365,23.1217888 782.662938,23.1217888 L782.680967,23.1217888 C783.654547,23.1217888 784.259951,22.4618543 784.259951,21.6395717 C784.242871,20.7972591 783.654547,20.1573545 782.699945,20.1573545 L782.699945,20.1573545 Z M794.142836,27.9521722 C794.142836,25.3166509 792.76502,24.0906064 790.928882,24.0906064 C789.446686,24.0906064 788.784348,24.922377 788.413325,25.5074627 L788.413325,24.2919603 L785.621635,24.2919603 C785.658643,25.0973756 785.621635,32.8700549 785.621635,32.8700549 L788.413325,32.8700549 L788.413325,28.0797315 C788.413325,27.824613 788.431354,27.5673861 788.505369,27.385008 C788.706537,26.8726627 789.166758,26.3423958 789.937272,26.3423958 C790.94786,26.3423958 791.351146,27.1288354 791.351146,28.2821395 L791.351146,32.8700549 L794.142836,32.8700549 L794.142836,27.9521722 L794.142836,27.9521722 Z M788.394347,25.5359263 C788.40004,25.5264384 788.407631,25.5169506 788.413325,25.5074627 L788.413325,25.5359263 L788.394347,25.5359263 L788.394347,25.5359263 Z" id="linkedin"></path>
            </g>
        </g>
    </g>
</svg>