<?xml version="1.0" encoding="UTF-8"?>
<svg width="20px" height="20px" viewBox="0 0 20 20" version="1.1" xmlns="http://www.w3.org/2000/svg" xmlns:xlink="http://www.w3.org/1999/xlink">
    <!-- Generator: Sketch 41.2 (35397) - http://www.bohemiancoding.com/sketch -->
    <title>usa</title>
    <desc>Created with Sketch.</desc>
    <defs></defs>
    <g id="wireframe" stroke="none" stroke-width="1" fill="none" fill-rule="evenodd">
        <g id="Desktop-HD-Copy" transform="translate(-903.000000, -5657.000000)" fill="#8D8B8C">
            <g id="usa" transform="translate(903.000000, 5657.000000)">
                <polygon id="Shape" points="6.26078804 0.900434783 6.2576087 0.901847826 6.26008152 0.901847826"></polygon>
                <path d="M9.29217391,19.8258696 L10.6415217,19.8258696 C12.2671739,19.7165217 13.8163043,19.2123913 15.1763043,18.36 L4.75695652,18.36 C6.1173913,19.2123913 7.66630435,19.7165217 9.29217391,19.8258696 Z" id="Shape"></path>
                <path d="M2.71978261,16.6636957 L17.2126087,16.6636957 C17.6341304,16.2067391 18.0065217,15.7156522 18.3297826,15.1976087 L1.60434783,15.1976087 C1.92630435,15.7156522 2.29978261,16.2069565 2.71978261,16.6636957 Z" id="Shape"></path>
                <path d="M19.7671739,9.17 L15.3021739,9.17 L15.3021739,7.515 L19.4821739,7.515 C19.3491304,7.00934783 19.1776087,6.51934783 18.9695652,6.04891304 L15.3021739,6.04891304 L15.3021739,4.48891304 L18.1032609,4.48891304 C17.7443478,3.96108696 17.3354348,3.47108696 16.8832609,3.0226087 L15.3021739,3.0226087 L15.3021739,1.75043478 C14.9671739,1.53326087 14.6180435,1.33630435 14.2569565,1.16086957 L14.3806522,1.62673913 L13.9984783,1.34782609 L13.6167391,1.62673913 L13.7636957,1.17782609 L13.3806522,0.9 L13.6758696,0.900869565 C12.531087,0.43326087 11.2791304,0.173913043 9.96695652,0.173913043 C8.75369565,0.173913043 7.59130435,0.395434783 6.51804348,0.79826087 L6.55065217,0.900652174 L7.02347826,0.899565217 L6.64086957,1.17717391 L6.78804348,1.62630435 L6.40586957,1.3473913 L6.02347826,1.62630435 L6.17065217,1.17717391 L5.9623913,1.02695652 C4.44,1.70782609 3.12086957,2.76521739 2.12456522,4.07978261 L2.50586957,4.08043478 L2.65108696,3.63065217 L2.79695652,4.08043478 L3.26978261,4.07978261 L2.88695652,4.3573913 L3.03391304,4.80717391 L2.65152174,4.5276087 L2.26956522,4.80717391 L2.41652174,4.3573913 L2.0926087,4.1226087 C1.86717391,4.42282609 1.65934783,4.7373913 1.46869565,5.0626087 L1.49869565,5.15673913 L1.97195652,5.15565217 L1.58891304,5.43217391 L1.73586957,5.88217391 L1.35369565,5.60326087 L1.07565217,5.80695652 C0.623695652,6.75717391 0.321086957,7.79108696 0.195652174,8.87913043 L0.195652174,9.16956522 L0.195652174,10.6356522 L15.3026087,10.6356522 L19.7843478,10.6356522 C19.7976087,10.428913 19.8043478,10.2202174 19.8043478,10.0113043 C19.8036957,9.72804348 19.791087,9.44804348 19.7671739,9.17 Z M1.73456522,10.1263043 L1.35217391,9.84630435 L0.97,10.1263043 L1.1173913,9.67630435 L0.734130435,9.39847826 L1.2073913,9.4 L1.3526087,8.94934783 L1.4976087,9.4 L1.97086957,9.39847826 L1.58782609,9.67630435 L1.73456522,10.1263043 Z M1.5876087,7.52478261 L1.73478261,7.97456522 L1.3523913,7.69586957 L0.970217391,7.97456522 L1.1176087,7.52478261 L0.734130435,7.24782609 L1.2073913,7.24869565 L1.3526087,6.79804348 L1.4976087,7.24869565 L1.97086957,7.24782609 L1.5876087,7.52478261 Z M3.0326087,9.14413043 L2.65021739,8.86521739 L2.26804348,9.14413043 L2.415,8.69434783 L2.03217391,8.41782609 L2.50543478,8.41847826 L2.65065217,7.96869565 L2.79630435,8.41847826 L3.26913043,8.41782609 L2.88630435,8.69434783 L3.0326087,9.14413043 Z M2.88565217,6.60369565 L3.0326087,7.05347826 L2.65021739,6.775 L2.26804348,7.05347826 L2.415,6.60369565 L2.03217391,6.32586957 L2.50543478,6.32652174 L2.65065217,5.87717391 L2.79630435,6.32652174 L3.26913043,6.32586957 L2.88565217,6.60369565 Z M4.97804348,2.07152174 L5.12326087,1.62130435 L5.26891304,2.07152174 L5.74173913,2.07043478 L5.35804348,2.3473913 L5.505,2.79717391 L5.12282609,2.51869565 L4.74086957,2.79717391 L4.88782609,2.3473913 L4.505,2.07043478 L4.97804348,2.07152174 Z M3.78673913,2.91173913 L3.93173913,2.46130435 L4.0773913,2.91173913 L4.55021739,2.91086957 L4.16717391,3.18782609 L4.31434783,3.6376087 L3.93195652,3.35804348 L3.54978261,3.6376087 L3.69695652,3.18782609 L3.31391304,2.91086957 L3.78673913,2.91173913 Z M3.78673913,5.1576087 L3.93173913,4.7076087 L4.0773913,5.1576087 L4.55021739,5.15673913 L4.16717391,5.43326087 L4.31434783,5.88326087 L3.93195652,5.60434783 L3.54978261,5.88326087 L3.69695652,5.43326087 L3.31391304,5.15673913 L3.78673913,5.1576087 Z M3.78673913,7.24891304 L3.93173913,6.79826087 L4.0773913,7.24891304 L4.55021739,7.24804348 L4.16717391,7.525 L4.31434783,7.97478261 L3.93195652,7.69608696 L3.54978261,7.97478261 L3.69695652,7.525 L3.31391304,7.24804348 L3.78673913,7.24891304 Z M4.31391304,10.1263043 L3.93152174,9.84630435 L3.54934783,10.1263043 L3.69630435,9.67630435 L3.31347826,9.39847826 L3.78673913,9.4 L3.93173913,8.94934783 L4.0773913,9.4 L4.55021739,9.39847826 L4.16717391,9.67630435 L4.31391304,10.1263043 Z M5.50521739,9.14413043 L5.12304348,8.86521739 L4.74108696,9.14413043 L4.88804348,8.69434783 L4.50521739,8.41782609 L4.97804348,8.41847826 L5.12326087,7.96869565 L5.26891304,8.41847826 L5.74173913,8.41782609 L5.35869565,8.69434783 L5.50521739,9.14413043 Z M5.35826087,6.60369565 L5.50521739,7.05347826 L5.12304348,6.775 L4.74108696,7.05347826 L4.88804348,6.60369565 L4.50521739,6.32586957 L4.97804348,6.32652174 L5.12326087,5.87717391 L5.26891304,6.32652174 L5.74173913,6.32586957 L5.35826087,6.60369565 Z M5.35826087,4.35782609 L5.50521739,4.8076087 L5.12304348,4.52804348 L4.74152174,4.80782609 L4.88869565,4.35804348 L4.50565217,4.08043478 L4.97847826,4.08108696 L5.12369565,3.63130435 L5.26956522,4.08108696 L5.74217391,4.08043478 L5.35826087,4.35782609 Z M6.7873913,10.1263043 L6.405,9.84630435 L6.02282609,10.1263043 L6.17,9.67630435 L5.78695652,9.39847826 L6.25956522,9.4 L6.40521739,8.94934783 L6.55021739,9.4 L7.02304348,9.39847826 L6.64043478,9.67630435 L6.7873913,10.1263043 Z M6.64021739,7.52478261 L6.7873913,7.97456522 L6.405,7.69586957 L6.02282609,7.97456522 L6.17,7.52478261 L5.78695652,7.24782609 L6.25956522,7.24869565 L6.40521739,6.79804348 L6.55021739,7.24869565 L7.02304348,7.24782609 L6.64021739,7.52478261 Z M6.64021739,5.43326087 L6.7873913,5.88326087 L6.405,5.60434783 L6.02282609,5.88326087 L6.17,5.43326087 L5.78695652,5.15673913 L6.25956522,5.1576087 L6.40521739,4.7076087 L6.55021739,5.1576087 L7.02304348,5.15673913 L6.64021739,5.43326087 Z M6.64021739,3.18782609 L6.7873913,3.6376087 L6.405,3.35804348 L6.02282609,3.6376087 L6.17,3.18782609 L5.78695652,2.91086957 L6.25956522,2.91173913 L6.40521739,2.46130435 L6.55021739,2.91173913 L7.02304348,2.91086957 L6.64021739,3.18782609 Z M11.3795652,0.901304348 L11.5252174,0.451521739 L11.6708696,0.901304348 L12.1441304,0.900434783 L11.7613043,1.17804348 L11.9082609,1.62717391 L11.5252174,1.34826087 L11.1434783,1.62717391 L11.2904348,1.17804348 L10.9076087,0.900434783 L11.3795652,0.901304348 Z M11.3795652,2.91173913 L11.5252174,2.46130435 L11.6708696,2.91173913 L12.1441304,2.91086957 L11.7613043,3.18782609 L11.9082609,3.6376087 L11.5252174,3.35804348 L11.1434783,3.6376087 L11.2904348,3.18782609 L10.9076087,2.91086957 L11.3795652,2.91173913 Z M11.3795652,5.1576087 L11.5252174,4.7076087 L11.6708696,5.1576087 L12.1441304,5.15673913 L11.7613043,5.43326087 L11.9082609,5.88326087 L11.5252174,5.60434783 L11.1434783,5.88326087 L11.2904348,5.43326087 L10.9076087,5.15673913 L11.3795652,5.1576087 Z M11.3795652,7.24891304 L11.5252174,6.79826087 L11.6708696,7.24891304 L12.1441304,7.24804348 L11.7613043,7.525 L11.9082609,7.97478261 L11.5252174,7.69608696 L11.1434783,7.97478261 L11.2904348,7.525 L10.9076087,7.24804348 L11.3795652,7.24891304 Z M8.04630435,9.14413043 L7.66391304,8.86521739 L7.28173913,9.14413043 L7.42891304,8.69434783 L7.04586957,8.41782609 L7.51913043,8.41847826 L7.66413043,7.96869565 L7.80913043,8.41847826 L8.28217391,8.41782609 L7.89913043,8.69434783 L8.04630435,9.14413043 Z M7.89978261,6.60369565 L8.04673913,7.05347826 L7.66456522,6.775 L7.28217391,7.05347826 L7.42934783,6.60369565 L7.04630435,6.32586957 L7.51956522,6.32652174 L7.66456522,5.87717391 L7.80956522,6.32652174 L8.28282609,6.32586957 L7.89978261,6.60369565 Z M7.89978261,4.35782609 L8.04673913,4.8076087 L7.66456522,4.52804348 L7.28217391,4.8076087 L7.42934783,4.35782609 L7.04630435,4.08021739 L7.51956522,4.08086957 L7.66456522,3.63108696 L7.80956522,4.08086957 L8.28282609,4.08021739 L7.89978261,4.35782609 Z M7.89978261,2.3473913 L8.04673913,2.79717391 L7.66456522,2.51869565 L7.28217391,2.79717391 L7.42934783,2.3473913 L7.04630435,2.07043478 L7.51956522,2.07152174 L7.66456522,1.62130435 L7.80956522,2.07152174 L8.28282609,2.07043478 L7.89978261,2.3473913 Z M9.32826087,10.1263043 L8.94565217,9.84630435 L8.56391304,10.1263043 L8.71108696,9.67630435 L8.32826087,9.39847826 L8.80108696,9.4 L8.94608696,8.94934783 L9.09152174,9.4 L9.56456522,9.39847826 L9.18173913,9.67630435 L9.32826087,10.1263043 Z M9.18086957,7.52478261 L9.32826087,7.97456522 L8.94565217,7.69586957 L8.56391304,7.97456522 L8.71108696,7.52478261 L8.32826087,7.24782609 L8.80108696,7.24869565 L8.94608696,6.79804348 L9.09152174,7.24869565 L9.56456522,7.24782609 L9.18086957,7.52478261 Z M9.18086957,5.43326087 L9.32826087,5.88326087 L8.94565217,5.60434783 L8.56391304,5.88326087 L8.71108696,5.43326087 L8.32826087,5.15673913 L8.80108696,5.1576087 L8.94608696,4.7076087 L9.09152174,5.1576087 L9.56456522,5.15673913 L9.18086957,5.43326087 Z M9.18086957,3.18782609 L9.32826087,3.6376087 L8.94565217,3.35804348 L8.56391304,3.6376087 L8.71108696,3.18782609 L8.32826087,2.91086957 L8.80108696,2.91173913 L8.94608696,2.46130435 L9.09152174,2.91173913 L9.56456522,2.91086957 L9.18086957,3.18782609 Z M9.18086957,1.17782609 L9.32826087,1.62695652 L8.94565217,1.34804348 L8.56391304,1.62695652 L8.71108696,1.17782609 L8.32826087,0.900434783 L8.80108696,0.901304348 L8.94608696,0.451521739 L9.09152174,0.901304348 L9.56456522,0.900434783 L9.18086957,1.17782609 Z M10.6263043,9.14413043 L10.2445652,8.86521739 L9.86173913,9.14413043 L10.008913,8.69434783 L9.62586957,8.41782609 L10.0991304,8.41847826 L10.2445652,7.96869565 L10.3902174,8.41847826 L10.8623913,8.41782609 L10.48,8.69434783 L10.6263043,9.14413043 Z M10.4793478,6.60369565 L10.6263043,7.05347826 L10.2445652,6.775 L9.86173913,7.05347826 L10.008913,6.60369565 L9.62586957,6.32586957 L10.0991304,6.32652174 L10.2445652,5.87717391 L10.3902174,6.32652174 L10.8623913,6.32586957 L10.4793478,6.60369565 Z M10.4793478,4.35782609 L10.6263043,4.8076087 L10.2445652,4.52804348 L9.86173913,4.8076087 L10.008913,4.35782609 L9.62586957,4.08021739 L10.0991304,4.08086957 L10.2445652,3.63108696 L10.3902174,4.08086957 L10.8623913,4.08021739 L10.4793478,4.35782609 Z M10.4793478,2.3473913 L10.6263043,2.79717391 L10.2445652,2.51869565 L9.86173913,2.79717391 L10.008913,2.3473913 L9.62586957,2.07043478 L10.0991304,2.07152174 L10.2445652,1.62130435 L10.3902174,2.07152174 L10.8623913,2.07043478 L10.4793478,2.3473913 Z M11.9073913,10.1263043 L11.525,9.84630435 L11.1426087,10.1263043 L11.2902174,9.67630435 L10.9065217,9.39847826 L11.38,9.4 L11.525,8.94934783 L11.6713043,9.4 L12.1447826,9.39847826 L11.761087,9.67630435 L11.9073913,10.1263043 Z M13.0995652,9.14413043 L12.7165217,8.86521739 L12.3347826,9.14413043 L12.4826087,8.69434783 L12.098913,8.41782609 L12.5715217,8.41847826 L12.7171739,7.96869565 L12.8621739,8.41847826 L13.3354348,8.41782609 L12.9532609,8.69434783 L13.0995652,9.14413043 Z M12.9526087,6.60369565 L13.0995652,7.05347826 L12.7165217,6.775 L12.3347826,7.05347826 L12.4826087,6.60369565 L12.098913,6.32586957 L12.5715217,6.32652174 L12.7171739,5.87717391 L12.8621739,6.32652174 L13.3354348,6.32586957 L12.9526087,6.60369565 Z M12.9526087,4.35782609 L13.0995652,4.8076087 L12.7165217,4.52804348 L12.3347826,4.8076087 L12.4826087,4.35782609 L12.098913,4.08021739 L12.5715217,4.08086957 L12.7171739,3.63108696 L12.8621739,4.08086957 L13.3354348,4.08021739 L12.9526087,4.35782609 Z M12.9526087,2.3473913 L13.0995652,2.79717391 L12.7165217,2.51869565 L12.3347826,2.79717391 L12.4826087,2.3473913 L12.098913,2.07043478 L12.5715217,2.07152174 L12.7171739,1.62130435 L12.8621739,2.07152174 L13.3354348,2.07043478 L12.9526087,2.3473913 Z M14.3804348,10.1263043 L13.9976087,9.84630435 L13.6165217,10.1263043 L13.7634783,9.67630435 L13.3797826,9.39847826 L13.8532609,9.4 L13.9982609,8.94934783 L14.143913,9.4 L14.6165217,9.39847826 L14.2341304,9.67630435 L14.3804348,10.1263043 Z M14.2336957,7.52478261 L14.3806522,7.97456522 L13.9978261,7.69586957 L13.6167391,7.97456522 L13.7636957,7.52478261 L13.38,7.24782609 L13.8534783,7.24869565 L13.9984783,6.79804348 L14.1441304,7.24869565 L14.6167391,7.24782609 L14.2336957,7.52478261 Z M14.2336957,5.43326087 L14.3806522,5.88326087 L13.9978261,5.60434783 L13.6167391,5.88326087 L13.7636957,5.43326087 L13.38,5.15673913 L13.8534783,5.1576087 L13.9984783,4.7076087 L14.1441304,5.1576087 L14.6167391,5.15673913 L14.2336957,5.43326087 Z M14.2336957,3.18782609 L14.3806522,3.6376087 L13.9978261,3.35804348 L13.6167391,3.6376087 L13.7636957,3.18782609 L13.38,2.91086957 L13.8534783,2.91173913 L13.9984783,2.46130435 L14.1441304,2.91173913 L14.6167391,2.91086957 L14.2336957,3.18782609 Z" id="Shape"></path>
                <path d="M0.845217391,13.7084783 L19.0878261,13.7084783 C19.2806522,13.2345652 19.4356522,12.7445652 19.551087,12.2432609 L0.382608696,12.2432609 C0.498043478,12.7445652 0.65326087,13.2345652 0.845217391,13.7084783 Z" id="Shape"></path>
            </g>
        </g>
    </g>
</svg>