<?xml version="1.0" encoding="UTF-8"?>
<svg width="20px" height="20px" viewBox="0 0 20 20" version="1.1" xmlns="http://www.w3.org/2000/svg" xmlns:xlink="http://www.w3.org/1999/xlink">
    <!-- Generator: Sketch 41.2 (35397) - http://www.bohemiancoding.com/sketch -->
    <title>usa</title>
    <desc>Created with Sketch.</desc>
    <defs></defs>
    <g id="wireframe" stroke="none" stroke-width="1" fill="none" fill-rule="evenodd">
        <g id="Desktop-HD-Copy" transform="translate(-989.000000, -5742.000000)">
            <g id="usa" transform="translate(989.000000, 5742.000000)">
                <polygon id="Shape" fill="#8D8B8C" points="6.0074788 0.726484468 6.00555081 0.727341355 6.00705036 0.727341355"></polygon>
                <path d="M8.99587207,19.3759865 L10.3255464,19.3759865 C11.9274966,19.2682329 13.4540407,18.7714527 14.7942119,17.9314893 L4.52677814,17.9314893 C5.86737778,18.7714527 7.39370768,19.2682329 8.99587207,19.3759865 Z" id="Shape" fill="#F01515"></path>
                <path d="M2.51930621,16.2599171 L16.8008269,16.2599171 C17.2162029,15.809623 17.5831647,15.325696 17.9017125,14.8152056 L1.42013446,14.8152056 C1.73739686,15.325696 2.10542981,15.8098372 2.51930621,16.2599171 Z" id="Shape" fill="#F01515"></path>
                <path d="M19.3181466,8.87547946 L14.9182463,8.87547946 L14.9182463,7.24460935 L19.0373019,7.24460935 C18.9061982,6.74632958 18.7371773,6.26347378 18.5321671,5.79989794 L14.9182463,5.79989794 L14.9182463,4.26264273 L17.6784934,4.26264273 C17.3248133,3.74251234 16.9218622,3.25965654 16.476281,2.81771709 L14.9182463,2.81771709 L14.9182463,1.56409147 C14.5881306,1.35008395 14.2440905,1.15599906 13.8882682,0.983122112 L14.0101603,1.4421993 L13.6335585,1.16735281 L13.2573851,1.4421993 L13.402199,0.999831408 L13.0247403,0.726056024 L13.3156535,0.726912911 C12.1875618,0.266121949 10.9538588,0.010555413 9.66081636,0.010555413 C8.46524482,0.010555413 7.31980118,0.228847366 6.26218845,0.62580025 L6.29432171,0.72669869 L6.760254,0.725627581 L6.38322373,0.999188743 L6.52825185,1.44177086 L6.15165003,1.16692437 L5.77483399,1.44177086 L5.91986211,0.999188743 L5.71463768,0.851161521 C4.21444284,1.52210401 2.91454532,2.56407855 1.93276709,3.85947742 L2.30851202,3.86012008 L2.45161214,3.4168953 L2.59535493,3.86012008 L3.06128721,3.85947742 L2.68404273,4.13303858 L2.82885662,4.57626336 L2.45204058,4.3007742 L2.07565299,4.57626336 L2.22046688,4.13303858 L1.90127649,3.9016791 C1.67912855,4.19751932 1.47433256,4.50749818 1.2864601,4.8279739 L1.3160227,4.92073191 L1.78238342,4.91966081 L1.40492472,5.19215086 L1.54973861,5.63558986 L1.1731368,5.36074337 L0.89914719,5.56146914 C0.453780193,6.49783236 0.155583531,7.51667096 0.031977587,8.58885077 L0.031977587,8.87505101 L0.031977587,10.3197624 L14.9186747,10.3197624 L19.3350701,10.3197624 C19.3481377,10.1160376 19.3547785,9.91038468 19.3547785,9.70451759 C19.3541359,9.42538666 19.341711,9.14946906 19.3181466,8.87547946 Z M1.54845328,9.81784089 L1.17163724,9.54192329 L0.795035425,9.81784089 L0.940277764,9.37440189 L0.562604837,9.10062651 L1.02896556,9.10212606 L1.17206569,8.65804439 L1.31495159,9.10212606 L1.78131232,9.10062651 L1.40385361,9.37440189 L1.54845328,9.81784089 Z M1.40363939,7.25424933 L1.54866751,7.69747411 L1.17185147,7.42284184 L0.795249646,7.69747411 L0.940491986,7.25424933 L0.562604837,6.98133083 L1.02896556,6.98218772 L1.17206569,6.53810605 L1.31495159,6.98218772 L1.78131232,6.98133083 L1.40363939,7.25424933 Z M2.82757129,8.84998707 L2.45075525,8.57514058 L2.07415343,8.84998707 L2.21896733,8.40676229 L1.84172285,8.13427224 L2.30808357,8.1349149 L2.4511837,7.69169012 L2.59471226,8.1349149 L3.06064455,8.13427224 L2.68340006,8.40676229 L2.82757129,8.84998707 Z M2.6827574,6.34659182 L2.82757129,6.7898166 L2.45075525,6.51539855 L2.07415343,6.7898166 L2.21896733,6.34659182 L1.84172285,6.07281643 L2.30808357,6.0734591 L2.4511837,5.63066276 L2.59471226,6.0734591 L3.06064455,6.07281643 L2.6827574,6.34659182 Z M4.74464164,1.88049698 L4.88774177,1.43684376 L5.03127033,1.88049698 L5.49720262,1.87942587 L5.11910125,2.15234437 L5.26391514,2.59556915 L4.88731332,2.3211511 L4.51092573,2.59556915 L4.65573962,2.15234437 L4.27849514,1.87942587 L4.74464164,1.88049698 Z M3.57070651,2.70846401 L3.71359241,2.26459656 L3.85712098,2.70846401 L4.32305326,2.70760712 L3.94559455,2.98052562 L4.09062267,3.4237504 L3.71380663,3.14826124 L3.33720481,3.4237504 L3.48223293,2.98052562 L3.10477423,2.70760712 L3.57070651,2.70846401 Z M3.57070651,4.9215888 L3.71359241,4.4781498 L3.85712098,4.9215888 L4.32305326,4.92073191 L3.94559455,5.19322197 L4.09062267,5.63666097 L3.71380663,5.36181448 L3.33720481,5.63666097 L3.48223293,5.19322197 L3.10477423,4.92073191 L3.57070651,4.9215888 Z M3.57070651,6.98240194 L3.71359241,6.53832027 L3.85712098,6.98240194 L4.32305326,6.98154505 L3.94559455,7.25446355 L4.09062267,7.69768833 L3.71380663,7.42305606 L3.33720481,7.69768833 L3.48223293,7.25446355 L3.10477423,6.98154505 L3.57070651,6.98240194 Z M4.09019423,9.81784089 L3.71337819,9.54192329 L3.33677637,9.81784089 L3.48159027,9.37440189 L3.10434578,9.10062651 L3.57070651,9.10212606 L3.71359241,8.65804439 L3.85712098,9.10212606 L4.32305326,9.10062651 L3.94559455,9.37440189 L4.09019423,9.81784089 Z M5.26412936,8.84998707 L4.88752755,8.57514058 L4.51113995,8.84998707 L4.65595384,8.40676229 L4.27870936,8.13427224 L4.74464164,8.1349149 L4.88774177,7.69169012 L5.03127033,8.1349149 L5.49720262,8.13427224 L5.11974391,8.40676229 L5.26412936,8.84998707 Z M5.11931547,6.34659182 L5.26412936,6.7898166 L4.88752755,6.51539855 L4.51113995,6.7898166 L4.65595384,6.34659182 L4.27870936,6.07281643 L4.74464164,6.0734591 L4.88774177,5.63066276 L5.03127033,6.0734591 L5.49720262,6.07281643 L5.11931547,6.34659182 Z M5.11931547,4.13346702 L5.26412936,4.5766918 L4.88752755,4.30120264 L4.51156839,4.57690602 L4.65659651,4.13368124 L4.2791378,3.86012008 L4.74507009,3.86076275 L4.88817021,3.41753797 L5.031913,3.86076275 L5.49763106,3.86012008 L5.11931547,4.13346702 Z M6.52760919,9.81784089 L6.15079315,9.54192329 L5.77419133,9.81784089 L5.91921944,9.37440189 L5.54176074,9.10062651 L6.0074788,9.10212606 L6.15100737,8.65804439 L6.29389327,9.10212606 L6.75982555,9.10062651 L6.38279529,9.37440189 L6.52760919,9.81784089 Z M6.38258107,7.25424933 L6.52760919,7.69747411 L6.15079315,7.42284184 L5.77419133,7.69747411 L5.91921944,7.25424933 L5.54176074,6.98133083 L6.0074788,6.98218772 L6.15100737,6.53810605 L6.29389327,6.98218772 L6.75982555,6.98133083 L6.38258107,7.25424933 Z M6.38258107,5.19322197 L6.52760919,5.63666097 L6.15079315,5.36181448 L5.77419133,5.63666097 L5.91921944,5.19322197 L5.54176074,4.92073191 L6.0074788,4.9215888 L6.15100737,4.4781498 L6.29389327,4.9215888 L6.75982555,4.92073191 L6.38258107,5.19322197 Z M6.38258107,2.98052562 L6.52760919,3.4237504 L6.15079315,3.14826124 L5.77419133,3.4237504 L5.91921944,2.98052562 L5.54176074,2.70760712 L6.0074788,2.70846401 L6.15100737,2.26459656 L6.29389327,2.70846401 L6.75982555,2.70760712 L6.38258107,2.98052562 Z M11.0528292,0.727341355 L11.1963578,0.284116575 L11.3398864,0.727341355 L11.8062471,0.726484468 L11.4290026,1.00004563 L11.5738165,1.44262774 L11.1963578,1.16778125 L10.8201844,1.44262774 L10.9649983,1.00004563 L10.5877538,0.726484468 L11.0528292,0.727341355 Z M11.0528292,2.70846401 L11.1963578,2.26459656 L11.3398864,2.70846401 L11.8062471,2.70760712 L11.4290026,2.98052562 L11.5738165,3.4237504 L11.1963578,3.14826124 L10.8201844,3.4237504 L10.9649983,2.98052562 L10.5877538,2.70760712 L11.0528292,2.70846401 Z M11.0528292,4.9215888 L11.1963578,4.4781498 L11.3398864,4.9215888 L11.8062471,4.92073191 L11.4290026,5.19322197 L11.5738165,5.63666097 L11.1963578,5.36181448 L10.8201844,5.63666097 L10.9649983,5.19322197 L10.5877538,4.92073191 L11.0528292,4.9215888 Z M11.0528292,6.98240194 L11.1963578,6.53832027 L11.3398864,6.98240194 L11.8062471,6.98154505 L11.4290026,7.25446355 L11.5738165,7.69768833 L11.1963578,7.42305606 L10.8201844,7.69768833 L10.9649983,7.25446355 L10.5877538,6.98154505 L11.0528292,6.98240194 Z M7.76816728,8.84998707 L7.39135124,8.57514058 L7.01474942,8.84998707 L7.15977754,8.40676229 L6.78231884,8.13427224 L7.24867956,8.1349149 L7.39156546,7.69169012 L7.53445136,8.1349149 L8.00059787,8.13427224 L7.62313916,8.40676229 L7.76816728,8.84998707 Z M7.62378183,6.34659182 L7.76859573,6.7898166 L7.39199391,6.51539855 L7.01517787,6.7898166 L7.16020598,6.34659182 L6.78274728,6.07281643 L7.24910801,6.0734591 L7.39199391,5.63066276 L7.53487981,6.0734591 L8.00124054,6.07281643 L7.62378183,6.34659182 Z M7.62378183,4.13346702 L7.76859573,4.5766918 L7.39199391,4.30120264 L7.01517787,4.5766918 L7.16020598,4.13346702 L6.78274728,3.85990586 L7.24910801,3.86054852 L7.39199391,3.41732374 L7.53487981,3.86054852 L8.00124054,3.85990586 L7.62378183,4.13346702 Z M7.62378183,2.15234437 L7.76859573,2.59556915 L7.39199391,2.3211511 L7.01517787,2.59556915 L7.16020598,2.15234437 L6.78274728,1.87942587 L7.24910801,1.88049698 L7.39199391,1.43684376 L7.53487981,1.88049698 L8.00124054,1.87942587 L7.62378183,2.15234437 Z M9.03143288,9.81784089 L8.65440262,9.54192329 L8.27822925,9.81784089 L8.42325736,9.37440189 L8.04601288,9.10062651 L8.51194516,9.10212606 L8.65483106,8.65804439 L8.79814541,9.10212606 L9.26429191,9.10062651 L8.88704743,9.37440189 L9.03143288,9.81784089 Z M8.88619054,7.25424933 L9.03143288,7.69747411 L8.65440262,7.42284184 L8.27822925,7.69747411 L8.42325736,7.25424933 L8.04601288,6.98133083 L8.51194516,6.98218772 L8.65483106,6.53810605 L8.79814541,6.98218772 L9.26429191,6.98133083 L8.88619054,7.25424933 Z M8.88619054,5.19322197 L9.03143288,5.63666097 L8.65440262,5.36181448 L8.27822925,5.63666097 L8.42325736,5.19322197 L8.04601288,4.92073191 L8.51194516,4.9215888 L8.65483106,4.4781498 L8.79814541,4.9215888 L9.26429191,4.92073191 L8.88619054,5.19322197 Z M8.88619054,2.98052562 L9.03143288,3.4237504 L8.65440262,3.14826124 L8.27822925,3.4237504 L8.42325736,2.98052562 L8.04601288,2.70760712 L8.51194516,2.70846401 L8.65483106,2.26459656 L8.79814541,2.70846401 L9.26429191,2.70760712 L8.88619054,2.98052562 Z M8.88619054,0.999831408 L9.03143288,1.44241352 L8.65440262,1.16756703 L8.27822925,1.44241352 L8.42325736,0.999831408 L8.04601288,0.726484468 L8.51194516,0.727341355 L8.65483106,0.284116575 L8.79814541,0.727341355 L9.26429191,0.726484468 L8.88619054,0.999831408 Z M10.3105509,8.84998707 L9.93437752,8.57514058 L9.55713303,8.84998707 L9.70216115,8.40676229 L9.32470245,8.13427224 L9.79106317,8.1349149 L9.93437752,7.69169012 L10.0779061,8.1349149 L10.5431957,8.13427224 L10.1663797,8.40676229 L10.3105509,8.84998707 Z M10.165737,6.34659182 L10.3105509,6.7898166 L9.93437752,6.51539855 L9.55713303,6.7898166 L9.70216115,6.34659182 L9.32470245,6.07281643 L9.79106317,6.0734591 L9.93437752,5.63066276 L10.0779061,6.0734591 L10.5431957,6.07281643 L10.165737,6.34659182 Z M10.165737,4.13346702 L10.3105509,4.5766918 L9.93437752,4.30120264 L9.55713303,4.5766918 L9.70216115,4.13346702 L9.32470245,3.85990586 L9.79106317,3.86054852 L9.93437752,3.41732374 L10.0779061,3.86054852 L10.5431957,3.85990586 L10.165737,4.13346702 Z M10.165737,2.15234437 L10.3105509,2.59556915 L9.93437752,2.3211511 L9.55713303,2.59556915 L9.70216115,2.15234437 L9.32470245,1.87942587 L9.79106317,1.88049698 L9.93437752,1.43684376 L10.0779061,1.88049698 L10.5431957,1.87942587 L10.165737,2.15234437 Z M11.5729596,9.81784089 L11.1961436,9.54192329 L10.8193275,9.81784089 L10.9647841,9.37440189 L10.5866827,9.10062651 L11.0532577,9.10212606 L11.1961436,8.65804439 L11.3403148,9.10212606 L11.8068897,9.10062651 L11.4287884,9.37440189 L11.5729596,9.81784089 Z M12.7477516,8.84998707 L12.3702929,8.57514058 L11.9941195,8.84998707 L12.1397903,8.40676229 L11.761689,8.13427224 L12.227407,8.1349149 L12.3709356,7.69169012 L12.5138215,8.1349149 L12.9801822,8.13427224 L12.6035804,8.40676229 L12.7477516,8.84998707 Z M12.6029377,6.34659182 L12.7477516,6.7898166 L12.3702929,6.51539855 L11.9941195,6.7898166 L12.1397903,6.34659182 L11.761689,6.07281643 L12.227407,6.0734591 L12.3709356,5.63066276 L12.5138215,6.0734591 L12.9801822,6.07281643 L12.6029377,6.34659182 Z M12.6029377,4.13346702 L12.7477516,4.5766918 L12.3702929,4.30120264 L11.9941195,4.5766918 L12.1397903,4.13346702 L11.761689,3.85990586 L12.227407,3.86054852 L12.3709356,3.41732374 L12.5138215,3.86054852 L12.9801822,3.85990586 L12.6029377,4.13346702 Z M12.6029377,2.15234437 L12.7477516,2.59556915 L12.3702929,2.3211511 L11.9941195,2.59556915 L12.1397903,2.15234437 L11.761689,1.87942587 L12.227407,1.88049698 L12.3709356,1.43684376 L12.5138215,1.88049698 L12.9801822,1.87942587 L12.6029377,2.15234437 Z M14.0099461,9.81784089 L13.6327016,9.54192329 L13.2571709,9.81784089 L13.4019848,9.37440189 L13.0238835,9.10062651 L13.4904584,9.10212606 L13.6333443,8.65804439 L13.7768729,9.10212606 L14.2425909,9.10062651 L13.8657749,9.37440189 L14.0099461,9.81784089 Z M13.8653464,7.25424933 L14.0101603,7.69747411 L13.6329159,7.42284184 L13.2573851,7.69747411 L13.402199,7.25424933 L13.0240977,6.98133083 L13.4906726,6.98218772 L13.6335585,6.53810605 L13.7770871,6.98218772 L14.2428052,6.98133083 L13.8653464,7.25424933 Z M13.8653464,5.19322197 L14.0101603,5.63666097 L13.6329159,5.36181448 L13.2573851,5.63666097 L13.402199,5.19322197 L13.0240977,4.92073191 L13.4906726,4.9215888 L13.6335585,4.4781498 L13.7770871,4.9215888 L14.2428052,4.92073191 L13.8653464,5.19322197 Z M13.8653464,2.98052562 L14.0101603,3.4237504 L13.6329159,3.14826124 L13.2573851,3.4237504 L13.402199,2.98052562 L13.0240977,2.70760712 L13.4906726,2.70846401 L13.6335585,2.26459656 L13.7770871,2.70846401 L14.2428052,2.70760712 L13.8653464,2.98052562 Z" id="Shape" fill="#0063B6"></path>
                <path d="M0.672072146,13.3477867 L18.6487037,13.3477867 C18.8387184,12.8807833 18.9914585,12.3979275 19.1052102,11.9039322 L0.216208283,11.9039322 C0.329960027,12.3979275 0.48291435,12.8807833 0.672072146,13.3477867 Z" id="Shape" fill="#F01515"></path>
                <g id="3-stripes" transform="translate(14.795622, 2.733974)" fill="#F01515">
                    <path d="M0.126618043,6.13278681 L0.126618043,7.58700632 L4.54283001,7.58700632 C4.54283001,7.58700632 4.60625462,6.67596923 4.52070408,6.13278681 L0.126618043,6.13278681 Z" id="Path-3"></path>
                    <path d="M0.125083551,3.0556176 L0.125083551,4.51503334 L4.29131692,4.51503334 C4.29131692,4.51503334 4.04088084,3.5713153 3.78284894,3.0556176 L0.125083551,3.0556176 Z" id="Path-3-Copy"></path>
                    <path d="M0.119652619,0.0804827473 L0.119652619,1.53168836 L2.8968938,1.53168836 C2.8968938,1.53168836 2.22485257,0.584985923 1.69157558,0.0804827473 L0.119652619,0.0804827473 Z" id="Path-3-Copy-3"></path>
                </g>
            </g>
        </g>
    </g>
</svg>