<svg xmlns="http://www.w3.org/2000/svg" viewBox="0 0 350.32 151.53"><defs><style>.cls-1{fill:#334798;}.cls-2{fill:#fff;}.cls-3{fill:#231f20;}.cls-4{fill:#050505;}</style></defs><title>ABC final_REV (1)</title><g id="LOGO_ABC_1" data-name="LOGO ABC 1"><path class="cls-1" d="M236.8,113.36a29,29,0,0,1-10.6-23.12c0-1.26.06-2.55.2-3.84a54.53,54.53,0,0,1,19.95-37.62C258,38.95,272.8,34.1,289.42,34.14c9.53,0,18.08,1.58,25.45,5.1l-3.26,6.83,3.26-6.83,6.33,3L309.8,71.79,302,66.9A23.71,23.71,0,0,0,289.23,63c-7.86.06-13.46,2.19-18.29,6.51a24.1,24.1,0,0,0-8.14,16.35,6.71,6.71,0,0,0,0,.86,6,6,0,0,0,1.75,4.47c1.41,1.41,2.85,2.19,6.43,2.26,5.54,0,13.43-2,23.12-6.75l14.39-7-8.83,36.87-4,1.32a91.1,91.1,0,0,1-28.47,4.6h-.05c-12.1,0-22.51-2.72-30.29-9.16" transform="translate(-8.72 -6.53)"/><path class="cls-1" d="M84.42,122.52c-10.54,0-19.72-2.38-26.44-8.42a26.77,26.77,0,0,1-8.7-20.6,34.5,34.5,0,0,1,.18-3.74c1.42-15.31,8.76-28.87,21-39.41,12.26-10.75,27.5-16.25,44.35-16.21,15.16,0,26.1,1,34.07,3.72l7,2.45L139.24,90.69,132,88.31l7.18,2.42a16.35,16.35,0,0,0-.73,3.74c-.35,3.54-.52,6.59-.52,9.1a22.12,22.12,0,0,0,.79,7.14l4.39,10.49h-24.1a14.55,14.55,0,0,1-9.89-3.72c-.16-.14-.31-.29-.46-.44a53.18,53.18,0,0,1-24.14,5.49h-.14M86,93c.11.16,1.68.93,5.06.91,3.2-.05,6.31-1.35,10.44-6.11l5.78,4.89-5.78-4.89c2.91-3.27,7.05-11.92,11.24-25.08h-1c-7.17.1-12.19,2.39-17.19,8a35,35,0,0,0-8.7,20.16,6.27,6.27,0,0,0,0,.82A3.16,3.16,0,0,0,85.91,93l0,0h0Z" transform="translate(-8.72 -6.53)"/><path class="cls-1" d="M156.77,118l-4.25,3.21H121.87l6.62-11.38c6.06-10.42,10.33-19.64,12.84-27.48l24-75.81h35.76l-8.79,28.06a60.67,60.67,0,0,1,7.48-.44c12.2-.06,23,3.41,30.43,11.11l-5.42,5.29,5.42-5.28a32.68,32.68,0,0,1,9.18,23.53,42.23,42.23,0,0,1-.21,4.37c-1.28,14-8.85,26.18-21.06,35.35-12.2,9.32-26.76,14-42.66,14h-.21c-6.9,0-13.33-1.33-18.49-4.54m19.54-24.25c8.08-.05,13.81-2.19,18.59-6.37a21.54,21.54,0,0,0,7.42-14.67c.06-.69.09-1.32.09-1.88-.11-3.54-.81-4.41-2-5.42s-4.37-2.22-9.92-2.19a13.71,13.71,0,0,0-8.26,2.62l-9,27.68A17.14,17.14,0,0,0,176.31,93.73Z" transform="translate(-8.72 -6.53)"/><path class="cls-2" d="M239.22,110.44A25.1,25.1,0,0,1,230,90.23a34.08,34.08,0,0,1,.17-3.47,50.72,50.72,0,0,1,18.61-35.08c11-9.21,24.7-13.77,40.64-13.75,9.11,0,17.09,1.52,23.82,4.74l-1.64,3.41,1.64-3.41,3.16,1.51-8.49,22L304,63.71a27.37,27.37,0,0,0-14.8-4.5c-8.61,0-15.3,2.51-20.84,7.49A28,28,0,0,0,259,85.48a11.46,11.46,0,0,0-.06,1.23,9.85,9.85,0,0,0,2.78,7.06c2.16,2.27,4.87,3.43,9.18,3.47,6.41,0,14.77-2.26,24.78-7.12l7.2-3.49-6.47,27-2,.66a87.39,87.39,0,0,1-27.28,4.41c-11.59,0-21-2.6-27.93-8.29" transform="translate(-8.72 -6.53)"/><path class="cls-2" d="M84.41,118.73c-10,0-18.15-2.27-23.89-7.45-5-4.41-7.5-10.72-7.44-17.78a33.23,33.23,0,0,1,.16-3.37c1.37-14.36,8.1-26.88,19.69-36.93s25.79-15.3,41.86-15.27c14.95,0,25.68,1.06,32.83,3.51l3.51,1.22L135.64,89.51,132,88.31l3.6,1.2a20.06,20.06,0,0,0-.92,4.57c-.36,3.63-.54,6.81-.53,9.47,0,4.24.5,7.24,1.09,8.6l2.2,5.25H119.06a10.73,10.73,0,0,1-7.35-2.74,12.23,12.23,0,0,1-2.08-2.47,48.4,48.4,0,0,1-25.13,6.53h-.09m7.23-50.5A38.81,38.81,0,0,0,82,90.48c0,.42-.06.83-.07,1.22.06,2.49.63,3.44,1.72,4.33s3.51,1.69,7.35,1.68c4.54,0,8.8-2.13,13.34-7.44l2.88,2.45-2.88-2.45c3.88-4.51,8.61-15,13.32-30.86a41.16,41.16,0,0,0-6-.47C103.53,59,97.2,61.91,91.64,68.23Z" transform="translate(-8.72 -6.53)"/><path class="cls-2" d="M156.7,113.28l-5.46,4.13H128.46l3.32-5.69c6.16-10.6,10.55-20,13.16-28.24l23.19-73.16H196L186.8,39.47a51.72,51.72,0,0,1,13-1.54c11.58,0,21.11,3.17,27.72,10l-2.71,2.64,2.71-2.64a28.9,28.9,0,0,1,8.11,20.88,39.73,39.73,0,0,1-.2,4c-1.22,12.84-8,24-19.58,32.7s-25.2,13.25-40.38,13.23h-.09c-7.62,0-14.06-1.66-18.67-5.45m13.54-16.74a15.5,15.5,0,0,0,6.06,1c8.8,0,15.61-2.48,21.12-7.33a25.39,25.39,0,0,0,8.65-17.12h0a19.19,19.19,0,0,0,.12-2.25c-.06-4.31-1.21-6.64-3.4-8.41s-6.25-3-12.26-3A17.74,17.74,0,0,0,179,63.5l-10.37,32A5.5,5.5,0,0,0,170.24,96.54Z" transform="translate(-8.72 -6.53)"/><path class="cls-3" d="M311.61,46.07q-9.13-4.37-22.19-4.36-22.86,0-38.21,12.86a46.86,46.86,0,0,0-17.27,32.54q-1.26,13,7.69,20.4t25.52,7.42a83.25,83.25,0,0,0,26.11-4.22l4.12-17.2Q281.86,101,270.94,101q-7.59,0-12-4.67a14,14,0,0,1-3.73-11.28,31.83,31.83,0,0,1,10.6-21.19q9.35-8.48,23.38-8.48A31.17,31.17,0,0,1,306,60.5l5.57-14.42" transform="translate(-8.72 -6.53)"/><path class="cls-3" d="M224.8,50.55q-8.62-8.84-25-8.83-10.94,0-18.91,3.95l9.92-31.57H170.89L148.55,84.62q-4.12,12.86-13.52,29H150l7-5.34q5.48,6.67,18.45,6.66,21.71,0,38.1-12.46t18.09-30.05Q233,58.92,224.8,50.55m-15,22.87A29.17,29.17,0,0,1,200,93q-9.37,8.3-23.64,8.3-9.23,0-11.82-5.14l11.29-34.87a21.77,21.77,0,0,1,14.75-5.66Q211.58,55.62,209.85,73.42Z" transform="translate(-8.72 -6.53)"/><path class="cls-3" d="M132,88.31,146.36,45q-9.48-3.3-31.58-3.29-22.93,0-39.38,14.34T57,90.49q-1.12,11.53,6,18t21.37,6.46q15.58,0,26.84-8.38,2.08,7.05,7.8,7.05h12.73q-2.25-5.39-.83-19.9A24.06,24.06,0,0,1,132,88.31m-24.8,4.4Q99.84,101.5,91,101.49q-13.89,0-12.78-11.41A42.69,42.69,0,0,1,88.78,65.74a29.1,29.1,0,0,1,22.9-10.58,48.48,48.48,0,0,1,10.8,1.31Q114.68,84,107.25,92.72Z" transform="translate(-8.72 -6.53)"/><path class="cls-1" d="M325.86,106.65s27.73,4.49,33.18,8.5v-18c-5.45-4-33.18-8.51-33.18-8.51v18.05" transform="translate(-8.72 -6.53)"/><path class="cls-1" d="M41.91,106.64s-27.73,4.49-33.19,8.5v-18c5.45-4,33.19-8.51,33.19-8.51v18" transform="translate(-8.72 -6.53)"/><path class="cls-1" d="M183.89,84.59c-43.17,0-142,5-147.1,13v-19c5.13-8,103.92-13,147.1-13s142,5,147.09,13v19c-5.12-8-103.92-13-147.09-13" transform="translate(-8.72 -6.53)"/><path class="cls-2" d="M50.58,81.38c-.24-.61-1.33-.8-3-.51-2.36.41-2.51,1.78-2.27,2.82s1,2.14,3.31,1.75c1.73-.29,2.63-.82,2.57-1.5l4.33-.72c.46,1.74-3,3-6.59,3.57-4.64.78-7.44-.1-8-2.44s1.68-4,6.32-4.82c3.61-.62,7.33-.63,7.66,1.13l-4.33.73" transform="translate(-8.72 -6.53)"/><polyline class="cls-2" points="53.64 75.6 47.21 71.78 52.05 71.23 55.79 73.82 58.73 70.47 63.03 69.99 57.8 75.13 58.2 77.72 54.02 78.18 53.64 75.6"/><path class="cls-2" d="M83.39,77.79c-.18-.63-1.24-.9-3-.75-2.4.21-2.68,1.56-2.56,2.61s.74,2.2,3.11,2c1.75-.15,2.72-.59,2.71-1.28L88.07,80c.28,1.78-3.28,2.72-6.94,3-4.71.4-7.39-.7-7.67-3.07s2.11-3.87,6.81-4.3c3.66-.32,7.37,0,7.51,1.75l-4.38.38" transform="translate(-8.72 -6.53)"/><polyline class="cls-2" points="81.87 75.58 81.18 68.5 85.38 68.2 85.93 73.91 92.78 73.44 92.91 74.81 81.87 75.58"/><polyline class="cls-2" points="94.68 74.69 94.11 67.59 105.65 66.91 105.76 68.29 98.42 68.73 98.54 70.19 105.29 69.78 105.39 71.17 98.64 71.56 98.77 73.07 106.11 72.63 106.23 74 94.68 74.69"/><path class="cls-2" d="M125.17,75c0-.27-.2-.46-.59-.6a4.35,4.35,0,0,0-1.63-.14c-1,0-1.78.38-1.75.73,0,.53,1.38.63,2.5.71,2.56.17,6.26.12,6.4,2,.09,1.49-3,2.36-6.51,2.53s-6.67-.15-6.86-2.07l4.2-.21c0,.68,1.1,1,2.6.9,1,0,2.19-.34,2.16-.81-.06-1-3.15-.6-6.49-1.12-1.56-.24-2.35-.85-2.4-1.62.05-1.69,3.16-2.31,6.32-2.47s6.38.21,6.25,1.94l-4.2.2" transform="translate(-8.72 -6.53)"/><path class="cls-2" d="M153.3,77.38a3.73,3.73,0,0,0,2.18-2.48l-3.63.12c0,.49-.5.93-1,1.32l-2.22-.93c1.32-.48,3.09-1.15,3-2-.07-1.41-3.29-1.63-6-1.54-2.24.07-5.59.55-5.53,1.86,0,.69,1.07,1.28,2.17,1.66-1.8.39-3.5,1-3.45,2,.07,1.57,3.42,2,6.26,1.89a20.2,20.2,0,0,0,5.31-.79l.89.44,5.11-.17-3.16-1.42M145.74,73c.88,0,1.69.08,1.7.54s-1,.75-1.65,1c-.36-.16-1.43-.57-1.43-.85C144.34,73.16,145.14,73,145.74,73Zm-.09,5c-.9,0-2.34-.17-2.36-.61,0-.59.82-.77,1.82-1l2.87,1.2A6.78,6.78,0,0,1,145.65,78Z" transform="translate(-8.72 -6.53)"/><path class="cls-2" d="M173.09,73.46c0-.27-.18-.47-.56-.62a4.49,4.49,0,0,0-1.63-.2c-1,0-1.79.32-1.78.66,0,.53,1.35.68,2.47.8,2.55.26,6.25.33,6.28,2.26,0,1.49-3.1,2.25-6.62,2.28s-6.65-.38-6.76-2.31l4.21-.05c0,.66,1.05,1,2.56,1,1,0,2.21-.26,2.2-.74,0-1-3.13-.72-6.43-1.36-1.55-.29-2.31-.94-2.32-1.7.13-1.68,3.27-2.19,6.45-2.23s6.35.44,6.14,2.16l-4.21,0" transform="translate(-8.72 -6.53)"/><path class="cls-2" d="M187.35,71.38l-7-.07-.07,7.11,4.2,0,0-2.55,2.77,0c3.72,0,6.17-.51,6.18-2.23s-2.41-2.31-6.14-2.35m-.63,3.18h-2.17l0-1.81,2.15,0c1.66,0,2.36.4,2.35.93S188.37,74.54,186.71,74.56Z" transform="translate(-8.72 -6.53)"/><path class="cls-2" d="M202.91,71.51c-5-.13-7.91,1.17-8,3.5s2.71,3.78,7.73,3.89,7.91-1.16,8-3.5-2.72-3.78-7.75-3.9m-.2,6c-2.86-.08-3.41-1.33-3.37-2.38s.66-2.34,3.53-2.27,3.4,1.34,3.36,2.44S205.57,77.61,202.71,77.54Z" transform="translate(-8.72 -6.53)"/><path class="cls-2" d="M225.32,77.8c-.22-1.11-.69-1.77-3.38-1.9v0c2.13,0,3.9-.53,4-1.6.07-1.5-3.23-1.95-5.8-2l-7-.26L212.74,79l4.2.16.14-2.7,1.57,0c2.14.08,2.21.43,2.33,1.3a7.35,7.35,0,0,0,.38,1.53l4.56.16a4.67,4.67,0,0,1-.6-1.74m-6.53-2.61-1.64-.06.08-1.64,1.64.06c1.34,0,2.63.19,2.61.92S220.14,75.22,218.79,75.19Z" transform="translate(-8.72 -6.53)"/><polyline class="cls-2" points="223 67.55 218.36 67.33 218.44 65.96 232.02 66.58 231.94 67.97 227.2 67.75 226.85 73.46 222.64 73.28 223 67.55"/><path class="cls-2" d="M250.51,75.76c0-.27-.14-.5-.5-.66a4.69,4.69,0,0,0-1.61-.32c-.95,0-1.82.19-1.85.55,0,.52,1.29.76,2.4,1,2.53.44,6.2.77,6.05,2.69-.11,1.5-3.31,2-6.83,1.82s-6.59-.86-6.5-2.79l4.2.25c-.07.66,1,1.09,2.47,1.18,1,.05,2.21-.11,2.25-.58.07-1-3-.94-6.3-1.8-1.5-.41-2.21-1.09-2.15-1.87.3-1.67,3.48-2,6.64-1.77s6.3.88,5.92,2.57l-4.2-.23" transform="translate(-8.72 -6.53)"/><polyline class="cls-2" points="255.22 75.11 255.93 68.03 260.12 68.35 259.55 74.06 266.4 74.56 266.25 75.93 255.22 75.11"/><polyline class="cls-2" points="272.1 70.68 267.49 70.27 267.65 68.9 281.19 70.1 281.01 71.47 276.29 71.05 275.6 76.74 271.41 76.37 272.1 70.68"/><polyline class="cls-2" points="289.39 70.24 286.93 69.98 289.31 68.8 293.65 69.29 293.64 69.31 289.39 70.24"/><polyline class="cls-2" points="281.92 77.33 282.99 70.27 294.44 71.56 294.24 72.94 286.94 72.11 286.72 73.57 293.44 74.32 293.23 75.69 286.52 74.94 286.29 76.43 293.6 77.25 293.39 78.62 281.92 77.33"/><polyline class="cls-2" points="295.73 78.9 297.2 71.91 308.58 73.68 308.29 75.03 301.07 73.9 300.75 75.35 307.41 76.4 307.13 77.74 300.46 76.71 300.16 78.18 307.39 79.33 307.11 80.68 295.73 78.9"/><polyline class="cls-4" points="60.65 151.36 60.66 143.04 67.46 143.04 69.99 148.66 70.03 148.66 72.48 143.04 79.16 143.04 79.16 151.36 75.4 151.36 75.4 144.4 75.36 144.39 71.73 151.36 67.87 151.36 64.46 144.32 64.41 144.34 64.41 151.36 60.65 151.36"/><polyline class="cls-4" points="120.08 143.04 126.09 143.04 131.29 149.24 131.33 149.21 131.33 143.04 135.2 143.04 135.2 151.36 129.25 151.36 124 144.99 123.95 144.99 123.95 151.36 120.08 151.36 120.08 143.04"/><polyline class="cls-4" points="154.32 144.65 149.57 144.65 149.57 143.04 163.45 143.04 163.45 144.65 158.6 144.65 158.6 151.36 154.32 151.36 154.32 144.65"/><path class="cls-4" d="M199.91,155.87c-.28-1.29-.79-2-3.54-2.08v0c2.16-.14,3.94-.8,3.94-2,0-1.75-3.39-2.15-6-2.15h-7.16v8.32h4.29v-3.18H193c2.19,0,2.27.41,2.45,1.41a8.62,8.62,0,0,0,.47,1.76h4.66a6.39,6.39,0,0,1-.71-2m-6.81-2.78h-1.67v-1.92h1.67c1.38,0,2.7.11,2.7,1S194.48,153.09,193.1,153.09Z" transform="translate(-8.72 -6.53)"/><polyline class="cls-4" points="208.35 151.36 208.35 143.04 220.15 143.04 220.15 144.65 212.63 144.65 212.63 146.37 219.56 146.37 219.55 147.98 212.63 147.98 212.63 149.74 220.15 149.74 220.15 151.36 208.35 151.36"/><polyline class="cls-4" points="208.35 151.36 208.35 143.04 220.15 143.04 220.15 144.65 212.63 144.65 212.63 146.37 219.56 146.37 219.55 147.98 212.63 147.98 212.63 149.74 220.15 149.74 220.15 151.36 208.35 151.36"/><polyline class="cls-4" points="214.83 142.18 212.3 142.18 214.52 140.52 218.99 140.52 218.99 140.54 214.83 142.18"/><polyline class="cls-4" points="266.33 151.36 266.33 143.04 270.61 143.04 270.61 149.74 277.64 149.74 277.64 151.36 266.33 151.36"/><polyline class="cls-4" points="266.33 151.36 266.33 143.04 270.61 143.04 270.61 149.74 277.64 149.74 277.64 151.36 266.33 151.36"/><path class="cls-4" d="M107.45,149.39c-5.13,0-8,1.59-8,4.33s2.9,4.33,8,4.33,8-1.59,8-4.33-2.89-4.33-8-4.33m0,7.57c-3.52,0-4-2-4-3.19s.54-3.28,4-3.28,4,2.05,4,3.28S111,157,107.45,157Z" transform="translate(-8.72 -6.53)"/><path class="cls-4" d="M254.62,149.57h-5.24l-6.12,8.32h4.29l1-1.63h6.29l1,1.63h4.86l-6.12-8.32m-5,5.07,2.11-3.44h.07l2,3.44Z" transform="translate(-8.72 -6.53)"/></g></svg>