<?xml version="1.0" encoding="utf-8"?>
<!-- Generator: Adobe Illustrator 21.1.0, SVG Export Plug-In . SVG Version: 6.00 Build 0)  -->
<svg version="1.1" id="Layer_1" xmlns="http://www.w3.org/2000/svg" xmlns:xlink="http://www.w3.org/1999/xlink" x="0px" y="0px"
	 viewBox="0 0 513.2 112.2" style="enable-background:new 0 0 513.2 112.2;" xml:space="preserve">
<style type="text/css">
	.st0{fill:#D2542C;}
	.st1{fill:#FFFFFF;}
</style>
<g>
	<g>
		<g>
			<polygon class="st0" points="282.5,41.1 282.5,26.8 238.9,41.1 199.1,41.1 199.1,85.4 340.1,85.4 340.1,41.1 282.5,41.1 			"/>
		</g>
		<g>
			<path class="st1" d="M218.6,65.6l2.4-8h0.5l2.4,8H218.6L218.6,65.6z M217.3,50.8l-8.5,24.9h6.5l1.5-4.6h8.9l1.5,4.6h6.6
				l-8.5-24.9H217.3L217.3,50.8z"/>
		</g>
		<g>
			<polygon class="st1" points="238.5,75.7 257.2,75.7 257.2,70.2 245.2,70.2 245.2,65.7 255.8,65.7 255.8,60.6 245.2,60.6 
				245.2,56.3 257.2,56.3 257.2,50.8 238.5,50.8 238.5,75.7 			"/>
		</g>
		<g>
			<polygon class="st1" points="263.8,75.7 282.5,75.7 282.5,70.2 270.5,70.2 270.5,65.7 281,65.7 281,60.6 270.5,60.6 270.5,56.3 
				282.5,56.3 282.5,50.8 263.8,50.8 263.8,75.7 			"/>
		</g>
		<g>
			<polygon class="st1" points="287.3,56.3 293.8,56.3 293.8,75.7 300.2,75.7 300.2,56.3 306.7,56.3 306.7,50.8 287.3,50.8 
				287.3,56.3 			"/>
		</g>
		<g>
			<path class="st1" d="M321.4,60.1c-2.6-0.6-4.7-0.9-4.7-2.5c0-1.1,1-1.8,2.9-1.8c1.6,0,4.2,0.5,6.8,1.9l2-5.1
				c-2.7-1.3-5.6-2.2-8.4-2.2c-5.3,0-9.5,3-9.5,7.9c0,5.3,5,6.8,8.3,7.6c3.2,0.8,5.2,1.1,5.2,2.8c0,1.3-1.3,1.8-3.2,1.8
				c-4,0-7.6-1.9-8.8-2.7l-2.2,5c2,1.3,5.8,3.1,10.4,3.1c5.7,0,10-2.6,10-7.9C330.2,63.3,326.6,61.3,321.4,60.1L321.4,60.1z"/>
		</g>
	</g>
</g>
</svg>
