<?xml version="1.0" encoding="UTF-8"?>
<svg width="139px" height="111px" viewBox="0 0 139 111" version="1.1" xmlns="http://www.w3.org/2000/svg" xmlns:xlink="http://www.w3.org/1999/xlink">
    <!-- Generator: Sketch 41.2 (35397) - http://www.bohemiancoding.com/sketch -->
    <title>click copy</title>
    <desc>Created with Sketch.</desc>
    <defs>
        <polygon id="path-1" points="0 110.749366 138.682 110.749366 138.682 0 0 0"></polygon>
    </defs>
    <g id="wireframe" stroke="none" stroke-width="1" fill="none" fill-rule="evenodd">
        <g id="click-copy" transform="translate(0.000000, 0.176556)">
            <path d="M86.4742,30.2448575 L86.4742,36.3362945 C86.4742,38.969966 86.3392,40.7079269 86.0232,41.493691 C85.7042,42.3409848 84.9542,42.8180919 83.8492,42.8180919 C82.7182,42.8180919 81.9412,42.3510716 81.6132,41.4876389 C81.4562,41.0700441 81.4192,40.4557562 81.4082,39.6972265 C81.3982,38.9366795 81.4192,37.9612829 81.4192,36.7871758 L81.4192,12.8571787 C81.4192,11.6336462 81.3982,10.6209284 81.4082,9.81499059 C81.4192,9.03124385 81.4562,8.40081693 81.6132,7.97717004 C81.9412,7.07641606 82.7492,6.61948263 83.9352,6.61948263 C84.9822,6.61948263 85.7322,6.99975615 86.0482,7.77845948 C86.3512,8.45225977 86.4742,10.0318575 86.4742,12.4708531 L86.4742,17.611102 L97.7302,17.611102 L97.7302,16.2988054 C97.7302,14.0413726 97.7532,12.0804928 97.6872,10.412131 C97.6222,8.76091679 97.4642,7.42138567 97.1132,6.39454631 C96.4122,4.33784153 94.9922,2.9398068 92.5172,1.58211939 C91.0742,0.786268452 89.7472,0.389856006 88.3472,0.19719754 C86.9152,0.000504341534 85.4082,0.000504341534 83.6482,0.000504341534 C81.0402,0.000504341534 79.1732,0.120537627 76.7532,1.11509913 C74.6442,1.97853184 73.3672,2.6180369 72.2752,4.14720043 C71.1522,5.73890232 70.3162,7.38002967 70.0992,9.06453039 C69.8672,10.7924045 69.9372,13.3948068 69.9372,16.8677026 L69.9372,32.4478213 C69.9372,37.1997272 70.0812,40.7180137 70.8162,43.0430282 C71.5312,45.2883567 73.1152,46.697487 75.3722,48.0017142 C76.0422,48.3991353 76.7962,48.7007315 77.6112,48.9448329 L90.4562,48.9448329 C91.3862,48.6492887 92.3062,48.2629631 93.2182,47.6900311 C95.5722,46.2375275 96.8472,44.7174421 97.4922,42.7041107 C98.0932,40.8894899 97.9582,32.0927648 97.9252,30.2448575 L86.4742,30.2448575 Z M52.3522,42.1614392 L43.0482,42.1614392 L43.0482,0.517958755 L31.1592,0.517958755 L31.1592,48.9448329 L52.3522,48.9448329 L52.3522,42.1614392 Z M112.3532,25.6745145 L118.4682,48.9529023 L130.1672,48.9529023 L122.6622,21.3361686 L129.5482,0.509889291 L118.0622,0.509889291 L112.3532,20.4434841 L112.3532,0.484672214 L100.4582,0.484672214 L100.4582,48.9448329 L112.3532,48.9448329 L112.3532,25.6745145 Z M1.3622,43.0430282 C2.0782,45.2883567 3.6612,46.697487 5.9132,48.0017142 C6.5922,48.3991353 7.3452,48.7007315 8.1592,48.9448329 L21.0022,48.9448329 C21.9302,48.6492887 22.8472,48.2629631 23.7602,47.6900311 C26.1152,46.2375275 27.3932,44.7174421 28.0392,42.7041107 C28.6362,40.8894899 28.5052,32.0927648 28.4732,30.2448575 L17.0222,30.2448575 L17.0222,36.3362945 C17.0222,38.969966 16.8822,40.7079269 16.5682,41.493691 C16.2472,42.3409848 15.5042,42.8180919 14.3982,42.8180919 C13.2582,42.8180919 12.4832,42.3510716 12.1622,41.4876389 C12.0032,41.0700441 11.9672,40.4557562 11.9562,39.6972265 C11.9462,38.9366795 11.9672,37.9612829 11.9672,36.7871758 L11.9672,12.8571787 C11.9672,11.6336462 11.9462,10.6209284 11.9562,9.81499059 C11.9672,9.03124385 12.0032,8.40081693 12.1622,7.97717004 C12.4832,7.07641606 13.2962,6.61948263 14.4842,6.61948263 C15.5322,6.61948263 16.2792,6.99975615 16.5932,7.77845948 C16.8932,8.45225977 17.0222,10.0318575 17.0222,12.4708531 L17.0222,17.611102 L28.2782,17.611102 L28.2782,16.2988054 C28.2782,14.0413726 28.2982,12.0804928 28.2362,10.412131 C28.1632,8.76091679 28.0122,7.42138567 27.6592,6.39454631 C26.9592,4.33784153 25.5392,2.9398068 23.0652,1.58211939 C21.6182,0.786268452 20.2932,0.389856006 18.8942,0.19719754 C17.4572,0.000504341534 15.9492,0.000504341534 14.1902,0.000504341534 C11.5872,0.000504341534 9.7162,0.120537627 7.2962,1.11509913 C5.1922,1.97853184 3.9072,2.6180369 2.8172,4.14720043 C1.6992,5.73890232 0.8652,7.38002967 0.6422,9.06453039 C0.4122,10.7924045 0.4842,13.3948068 0.4842,16.8677026 L0.4842,32.4478213 C0.4842,37.1997272 0.6242,40.7180137 1.3622,43.0430282 Z M55.3412,48.9448329 L67.2282,48.9448329 L67.2282,0.517958755 L55.3412,0.517958755 L55.3412,48.9448329 Z M87.2032,87.1113828 L81.0502,58.734102 L64.6162,58.734102 L64.6162,109.032083 L75.2242,109.032083 L75.2142,73.880487 L83.5742,109.032083 L97.6652,109.032083 L97.6652,58.734102 L87.2032,58.734102 L87.2032,87.1113828 Z M118.0052,94.0400268 C118.0052,97.3696896 117.7962,99.5212106 117.3062,100.366487 C116.7442,101.319692 115.3122,101.689879 113.3722,101.689879 L112.9392,101.689879 L112.9392,65.1977431 L113.3722,65.1977431 C114.8292,65.1977431 115.9392,65.3419848 116.5912,65.7242757 C117.2422,66.0884103 117.6152,66.6421773 117.7792,67.3472467 C117.9312,68.0230644 118.0052,69.5209588 118.0052,71.7904957 L118.0052,94.0400268 Z M130.1522,76.4748198 C130.1522,74.0973538 130.1792,71.7562004 130.1632,70.1584465 C130.1462,68.5929703 130.0992,67.4027243 129.9542,66.604856 C129.6712,65.026267 128.9562,63.5999891 127.8242,62.317953 C126.7012,61.051047 125.1462,60.08372 122.9702,59.5198661 C120.7852,58.9590384 119.7202,58.734102 113.3432,58.734102 L100.5562,58.734102 L100.5562,109.032083 L113.3632,109.032083 C119.7472,109.032083 120.7852,108.810173 122.9702,108.248336 C125.1462,107.684483 126.7012,106.712112 127.8242,105.447224 C128.9562,104.168213 129.6712,102.733866 129.9542,101.162338 C130.0992,100.358418 130.1462,99.176241 130.1632,97.6016867 C130.1792,96.0019153 130.1522,93.6698401 130.1522,91.2954001 L130.1522,76.4748198 Z M49.7152,94.7672873 C49.7152,97.7146592 49.5962,100.212158 49.3252,101.047348 C49.0362,101.964241 48.3052,102.4938 47.1702,102.4938 C46.0912,102.4938 45.3542,102.044936 45.0492,101.212772 C44.7932,100.478451 44.6882,98.0434899 44.6882,95.1495781 L44.6882,71.0824001 C44.6882,68.5415275 44.8562,66.8741744 45.2732,66.2619038 C45.7232,65.6193726 46.3962,65.2673423 47.2632,65.2673423 C48.2932,65.2673423 48.9822,65.7081368 49.2922,66.5019703 C49.5922,67.2110745 49.7152,68.7583944 49.7152,71.0824001 L49.7152,94.7672873 Z M59.5862,62.5781932 C58.0902,60.8422496 56.8042,59.9949559 54.3742,59.1476621 C53.8932,58.9923249 53.4412,58.8662395 53.0022,58.7421715 L41.1382,58.7421715 C40.7202,58.8722916 40.2932,59.017542 39.8372,59.1991049 C37.4552,60.1502931 36.1542,60.9542135 34.6952,62.712348 C33.1332,64.5834551 32.8942,66.216513 32.6452,68.326678 C32.4112,70.4065825 32.4212,97.5330962 32.6722,99.5978705 C32.9202,101.630367 33.5512,103.496431 34.8352,105.19707 C36.0902,106.873501 37.8792,107.773247 40.0262,108.663914 C42.1212,109.493051 44.5022,109.734127 47.2032,109.734127 C50.0502,109.734127 52.4872,109.45573 54.5532,108.56708 C56.7022,107.641109 58.4702,106.727242 59.6642,105.077037 C60.9002,103.392536 61.5022,101.532525 61.7312,99.4778372 C61.9842,97.3696896 61.9842,70.2351064 61.7312,68.1713408 C61.4802,66.1045492 61.1832,64.4452656 59.5862,62.5781932 Z M17.6152,78.0977909 C17.1542,78.9017113 16.1012,79.2386114 14.7232,79.2386114 C14.4122,79.2386114 13.9802,79.2466809 13.4212,79.2668546 L12.9652,79.2819848 L12.9652,65.2824725 L13.3992,65.2824725 C14.7922,65.2824725 15.7642,65.3974624 16.3172,65.5941556 C16.9622,65.8130398 17.4082,66.3304942 17.7162,67.0042945 C18.0482,67.7043205 18.1902,70.9785058 18.1902,72.5167475 C18.1902,75.4721889 18.0162,77.3735564 17.6152,78.0977909 Z M18.1902,96.6252815 C18.1902,98.6204566 17.9442,100.029587 17.3042,100.660014 C16.6642,101.319692 15.2822,101.603132 13.4212,101.662645 L12.9652,101.679792 L12.9652,85.7718517 L13.4212,85.7799211 C15.3582,85.8505289 16.7892,86.0905955 17.3982,86.6978227 C17.9782,87.2586505 18.1902,88.7192236 18.1902,90.8273712 L18.1902,96.6252815 Z M30.0302,93.0293263 C30.0302,89.7551411 29.4982,87.3363191 28.4402,85.7637822 C27.3782,84.1660282 24.4272,83.0252077 21.4452,82.3413205 C24.1182,81.7209805 25.5612,81.2519428 27.2692,79.6622583 C29.4612,77.6408575 29.5792,75.9977127 29.5792,73.0604276 C29.5792,68.715021 29.4012,65.560869 28.1172,63.6161281 C26.8292,61.6441527 25.1382,60.3399255 23.0322,59.7014291 C20.9502,59.0518372 17.8792,58.734102 13.8222,58.734102 L0.4992,58.734102 L0.4992,109.04217 L12.1412,109.04217 C17.3272,109.04217 20.7542,108.740574 22.4312,108.134355 C24.1002,107.539232 26.3472,106.528532 27.9372,104.782501 C30.1612,102.345523 30.0302,100.627736 30.0302,97.2294826 L30.0302,93.0293263 Z" id="Fill-1" fill="#000000"></path>
            <mask id="mask-2" fill="white">
                <use xlink:href="#path-1"></use>
            </mask>
            <g id="Clip-4"></g>
            <polygon id="Fill-3" fill="#F01B23" mask="url(#mask-2)" points="0.5 58.7426758 130.172 58.7426758 130.172 48.9453372 0.5 48.9453372"></polygon>
            <polygon id="Stroke-5" stroke="#F01B23" mask="url(#mask-2)" points="0.5 58.7426758 130.172 58.7426758 130.172 48.9453372 0.5 48.9453372"></polygon>
            <text id="R" mask="url(#mask-2)" font-family="Arial-BoldMT, Arial" font-size="4.8293" font-weight="bold" fill="#FEFEFE">
                <tspan x="132.2842" y="107.473096">R</tspan>
            </text>
            <path d="M129.9839,107.200214 C129.9839,105.292794 131.9289,103.738414 134.3339,103.738414 C136.7359,103.738414 138.6809,105.292794 138.6809,107.200214 C138.6809,109.116712 136.7359,110.664032 134.3339,110.664032 C131.9289,110.664032 129.9839,109.116712 129.9839,107.200214" id="Fill-6" fill="#FEFEFE" mask="url(#mask-2)"></path>
        </g>
    </g>
</svg>