<?xml version="1.0" encoding="utf-8"?>
<!-- Generator: Adobe Illustrator 21.1.0, SVG Export Plug-In . SVG Version: 6.00 Build 0)  -->
<svg version="1.1" xmlns="http://www.w3.org/2000/svg" xmlns:xlink="http://www.w3.org/1999/xlink" x="0px" y="0px"
	 viewBox="0 0 1224 792" style="enable-background:new 0 0 1224 792;" xml:space="preserve">
<g id="Layer_1">
</g>
<g id="Layer_2">
	<g>
		<g>
			<path d="M711.5,479.1h-231V214.5h185.4l-0.4,11.5l11.5,24.1l21.9,9.6l12.7-2.2V479.1z M498.7,460.9h194.5v-198l-18.8-10.6
				l-12.3-19.5H498.7V460.9z"/>
		</g>
		<path d="M559.9,302.6h95.7c2.1,0,4.2,1.8,4.2,4.2v8.4c0,2.4-2.1,4.2-4.2,4.2h-95.7c-7.4,0-13.4,6-13.4,13.7
			c0,7.4,6.1,13.4,13.4,13.4h95.7c2.1,0,4.2,1.8,4.2,4.2v8.4c0,2.4-2.1,4.2-4.2,4.2h-95.7c-7.4,0-13.4,6-13.4,13.4
			c0,7.6,6.1,13.7,13.4,13.7h95.7c2.1,0,4.2,1.8,4.2,4.2v8.4c0,2.1-2.1,4.2-4.2,4.2h-95.7c-16.6,0-30.2-13.7-30.2-30.5
			c0-8.4,3.7-16.3,9.5-21.8c-5.8-5.5-9.5-13.4-9.5-21.8C529.7,316.3,543.3,302.6,559.9,302.6"/>
		<g>
			<path d="M700.5,266.6c-23.7,0-43-19.3-43-43c0-23.7,19.3-43,43-43c23.7,0,43,19.3,43,43C743.5,247.3,724.2,266.6,700.5,266.6z
				 M700.5,193.8c-16.5,0-29.9,13.4-29.9,29.9c0,16.5,13.4,29.9,29.9,29.9c16.5,0,29.9-13.4,29.9-29.9
				C730.4,207.1,717,193.8,700.5,193.8z"/>
		</g>
		<polygon points="686.9,208.4 712.4,220.2 701.8,226.2 714.5,238.6 688.6,226.9 699.2,220.9 		"/>
	</g>
	<g>
		<path d="M487.5,511.5v16.2h9.3c1,0,1.7,0.8,1.7,1.7v3.4c0,1-0.8,1.7-1.7,1.7h-9.3v16.3h9.3c1,0,1.7,0.7,1.7,1.7v3.4
			c0,1-0.8,1.7-1.7,1.7H484c-1.9,0-3.4-1.6-3.4-3.4V508c0-1.9,1.5-3.4,3.4-3.4h12.7c1,0,1.7,0.8,1.7,1.7v3.4c0,1-0.8,1.7-1.7,1.7
			H487.5z"/>
		<path d="M532.1,552.5v3.4c0,0.9-0.7,1.7-1.7,1.7h-21.3c-1,0-1.7-0.9-1.7-1.7v-10.5c0-3.4,0-3.4,2.6-6.9l15-19.8
			c0.3-0.4,0.3-0.4,0.3-1.8c0-3-2.5-5.5-5.6-5.5c-3,0-5.5,2.5-5.5,5.5v3.7c0,0.9-0.8,1.7-1.7,1.7h-3.4c-1,0-1.7-0.9-1.7-1.7v-3.7
			c0-6.7,5.6-12.3,12.3-12.3c6.9,0,12.4,5.6,12.4,12.3c0,3.5,0,3.5-2.6,6.9l-15,19.9c-0.3,0.3-0.3,0.3-0.3,1.7v5.4h16.2
			C531.4,550.8,532.1,551.5,532.1,552.5z"/>
		<path d="M558.8,529.6v3.4c0,1-0.8,1.7-1.7,1.7h-17.6c-1,0-1.7-0.8-1.7-1.7v-3.4c0-0.9,0.8-1.7,1.7-1.7h17.6
			C558,527.9,558.8,528.7,558.8,529.6z"/>
		<path d="M584.4,520.6v-3.6c0-3-2.5-5.5-5.5-5.5s-5.5,2.5-5.5,5.5c0,1.4,0,1.4,0.3,1.8l14.9,19.7c2.6,3.4,2.6,3.4,2.6,6.9
			c0,6.7-5.6,12.3-12.3,12.3c-6.7,0-12.3-5.6-12.3-12.3v-3.6c0-1,0.8-1.7,1.7-1.7h3.4c1,0,1.7,0.7,1.7,1.7v3.6c0,3,2.5,5.5,5.5,5.5
			s5.5-2.5,5.5-5.5c0-1.4,0-1.4-0.3-1.8l-14.9-19.7c-2.6-3.4-2.6-3.4-2.6-6.9c0-6.7,5.6-12.3,12.3-12.3c6.7,0,12.3,5.6,12.3,12.3
			v3.6c0,1-0.8,1.7-1.7,1.7h-3.4C585.1,522.3,584.4,521.5,584.4,520.6z"/>
		<path d="M623.8,516.9v5.1c0,6.9-5.6,12.4-12.3,12.4h-5.6v21.4c0,0.9-0.8,1.7-1.7,1.7h-3.4c-0.9,0-1.7-0.9-1.7-1.7v-21.4v-6.9
			v-21.3c0-1,0.9-1.7,1.7-1.7h10.7C618.2,504.6,623.8,510.2,623.8,516.9z M616.9,516.9c0-3-2.5-5.5-5.5-5.5h-5.6v16.2h5.6
			c3,0,5.5-2.5,5.5-5.6V516.9z"/>
		<path d="M655.1,516.9v28.3c0,6.9-5.6,12.4-12.3,12.4c-6.9,0-12.4-5.6-12.4-12.4v-28.3c0-6.7,5.6-12.3,12.4-12.3
			C649.6,504.6,655.1,510.2,655.1,516.9z M648.3,516.9c0-3-2.5-5.5-5.5-5.5c-3.1,0-5.6,2.5-5.6,5.5v28.3c0,3.1,2.5,5.6,5.6,5.6
			c3,0,5.5-2.5,5.5-5.6V516.9z"/>
		<path d="M686.5,522.1c0,3.5-1.4,6.7-3.7,9c2.4,2.2,3.7,5.4,3.7,8.9v16c0,0.9-0.7,1.7-1.7,1.7h-3.4c-1,0-1.7-0.9-1.7-1.7v-16
			c0-3-2.5-5.5-5.5-5.5h-5.5v21.4c0,0.9-0.9,1.7-1.7,1.7h-3.4c-1,0-1.7-0.9-1.7-1.7V508c0-1.9,1.5-3.4,3.4-3.4h8.9
			c6.9,0,12.3,5.6,12.3,12.3V522.1z M679.7,516.9c0-3-2.5-5.5-5.5-5.5h-5.5v16.2h5.5c3,0,5.5-2.5,5.5-5.6V516.9z"/>
		<path d="M711,506.3v3.4c0,1-0.8,1.7-1.7,1.7h-4.8v44.4c0,0.9-0.8,1.7-1.7,1.7h-3.4c-1,0-1.7-0.9-1.7-1.7v-44.4h-4.8
			c-1,0-1.7-0.7-1.7-1.7v-3.4c0-1,0.8-1.7,1.7-1.7h16.5C710.3,504.6,711,505.4,711,506.3z"/>
	</g>
</g>
<g id="Layer_3">
</g>
</svg>
