<?xml version="1.0" encoding="utf-8"?>
<!-- Generator: Adobe Illustrator 21.1.0, SVG Export Plug-In . SVG Version: 6.00 Build 0)  -->
<svg version="1.1" id="Layer_1" xmlns="http://www.w3.org/2000/svg" xmlns:xlink="http://www.w3.org/1999/xlink" x="0px" y="0px"
	 viewBox="0 0 612 792" style="enable-background:new 0 0 612 792;" xml:space="preserve">
<style type="text/css">
	.st0{fill:url(#SVGID_1_);}
	.st1{fill:#EF3E42;}
	.st2{fill:#636466;}
	.st3{fill:#FFFFFF;}
	.st4{fill:url(#SVGID_2_);}
</style>
<g>
	<g>
		<linearGradient id="SVGID_1_" gradientUnits="userSpaceOnUse" x1="227.5709" y1="326.0677" x2="239.8007" y2="326.0677">
			<stop  offset="0" style="stop-color:#EF3E42"/>
			<stop  offset="1" style="stop-color:#FFFFFF;stop-opacity:0"/>
		</linearGradient>
		<path class="st0" d="M191.3,318.8c0.3,5.8,11.4,10.9,28.7,13.2c4.2,0.6,7,0.8,11.6,1.1c2.1,0.1,8.2,0.4,8.2,0.4l0.1-1.3
			c0,0-7.1-0.3-9.2-0.4c-2.9-0.1-5-0.2-8.6-0.7c-19.1-2.4-29.1-8-29.4-12.3L191.3,318.8z"/>
		<g>
			<path class="st1" d="M393.2,305.7c-0.3-5.5-10.8-9.4-31.4-11.6c-9.9-1.1-21.6-1.6-34.8-1.6l0,0c-11.4,0-23.6,0.4-36.2,1.2
				c-21.9,1.4-44.5,4.4-63.4,8.4c-1.6,0.3-3.1,0.7-4.5,1.1c-0.8,0.2-1.6,0.4-2.5,0.6c-13.5,3.3-29.5,8.5-29.2,15l1.5-0.1
				c-0.2-4.2,10.3-9.2,28.1-13.5c1.4-0.3,2.8-0.6,4.2-0.9c0.9-0.2,1.8-0.4,2.8-0.6c16.6-3.5,38.5-6.2,63.2-7.8
				c11.4-0.7,22.6-1.1,33.4-1.1c13.8,0,26.3,0.6,37.1,1.8c20.5,2.2,28,6.3,28.2,9.3L393.2,305.7z"/>
		</g>
		<g>
			<path class="st2" d="M269.9,281.7l-47.1,0l-21.1,84.5h47.5l3.2-13.1h-31.6l6.1-24.2h27l3.3-13h-27.2l5.2-21h31.3L269.9,281.7
				L269.9,281.7z"/>
		</g>
		<g>
			<path class="st2" d="M265.2,260.9L265.2,260.9c-1.9,0-3.7,1-7.1,2.9l-0.3,0.2l-16.7,10l-2.3,1.4l2.7,0.3l3.6,0.3l0.2,0l0.2-0.1
				l19-5.9c2.2-0.5,4.4-1.3,5-3.7c0.3-1,0.1-2.2-0.5-3.2c-0.6-1-1.5-1.7-2.5-2C266.1,260.9,265.7,260.9,265.2,260.9L265.2,260.9z"/>
		</g>
		<g>
			<path class="st1" d="M268.1,279.6H221l-21.1,84.5h47.5l3.2-13.1H219l6.1-24.2h27l3.3-13h-27.2l5.2-21h31.3L268.1,279.6
				L268.1,279.6z"/>
		</g>
		<g>
			<path class="st1" d="M263.4,258.7L263.4,258.7c-1.9,0-3.7,1-7.1,2.9l-0.3,0.2l-16.7,10l-2.3,1.4l2.7,0.3l3.6,0.3l0.2,0l0.2-0.1
				l19-5.9c2.2-0.5,4.4-1.3,5.1-3.7c0.3-1,0.1-2.2-0.5-3.2c-0.6-1-1.5-1.7-2.5-2C264.3,258.8,263.9,258.7,263.4,258.7L263.4,258.7z"
				/>
		</g>
		<path class="st2" d="M300.9,333.3c-0.8,0.1-1.6,0.1-2.4,0.2l-5.1,20.4l-0.2,0.7h-0.7h-12.7l-0.5,2.1h15.7L300.9,333.3z"/>
		<polygon class="st2" points="273.9,283.2 273.4,285.3 294.7,285.3 295.3,283.2 		"/>
		<path class="st2" d="M336,272.2l-2.6,10.3l-0.2,0.7h-0.7H311l-11,44.1c0.8-0.1,1.6-0.1,2.4-0.2l10.4-41.8h22.3l3.3-13.1H336z"/>
		<path class="st1" d="M293,333.9c-1.6,0.1-4.6,0.3-8.2,0.6c-0.8,0.1-1.6,0.1-2.4,0.2l-4.9,19.9h15.7l5.2-21.1
			C296.7,333.6,294.9,333.8,293,333.9z"/>
		<path class="st1" d="M274.8,270l-3.3,13.1h23.7l-0.5,2.1L284,328.6c0.8-0.1,1.6-0.1,2.4-0.2c2.7-0.2,5-0.4,6.3-0.4
			c2.5-0.2,4.9-0.4,7.4-0.6l11-44.1h22.3l2.7-11l0.5-2.1H274.8z"/>
		<line class="st3" x1="302.4" y1="327.1" x2="302.4" y2="327.1"/>
		<path class="st2" d="M375.2,325.8c0,13.4-10.1,26.9-29.3,26.9c-7.8,0-15.3-2-21.9-5.7l-0.1,0.3l-0.2,0.6l0.5,0.3
			c6.9,4.3,15,6.6,23.4,6.6c19.3,0,29.3-13.5,29.3-26.9c0-3.1-0.5-5.8-1.3-8.1c-0.4,0.1-0.7,0.2-1.1,0.4
			C374.9,321.9,375.2,323.8,375.2,325.8z"/>
		<path class="st2" d="M350.8,311.8c-1.9-1.7-4-3.5-5.9-5.6c2.4,3,5.2,5.5,7.7,7.8c1.1,1,2.2,2.1,3.2,3.2
			C354.4,315.2,352.5,313.5,350.8,311.8z"/>
		<path class="st2" d="M372.9,314.4c-1-1.5-2.1-2.9-3.3-4.1c1,1.3,2,2.7,2.8,4.3C372.6,314.5,372.8,314.5,372.9,314.4"/>
		<path class="st2" d="M386.7,271.9c-0.5-0.3-1-0.6-1.5-0.9l-3,12l-0.4,1.5l-1.1-1c-6.1-5.7-12-6.6-14.9-6.6
			c-8,0-12.4,6.1-12.4,11.8c0,4.1,2.2,7.5,5,10.4c-1.9-2.4-3.1-5.1-3.1-8.3c0-5.7,4.3-11.8,12.4-11.8c3,0,8.9,0.9,14.9,6.6l1.1,1
			l0.4-1.5l3-12.3l0.2-0.6L386.7,271.9z"/>
		<path class="st1" d="M384.8,269.8c-7.8-4.7-15.2-5.6-20-5.6c-8.1,0-15.1,2.7-20.1,7.8c-4.5,4.5-7,10.8-7,17.2
			c0,7.5,3.3,12.8,7.2,17.1c1.9,2.1,4,3.9,5.9,5.6c1.8,1.7,3.6,3.4,5.1,5.3c0.4,0.5,0.8,1.1,1.1,1.6c0.1,0,0.2,0,0.3-0.1
			c1.7-0.4,3.4-0.8,5-1.2c3.7-1,7.2-1.9,10.2-2.9c-0.8-1.6-1.8-3-2.8-4.3c-1.5-1.9-3.1-3.5-4.7-5.1l-0.1-0.1l-2.5-2.4
			c-1.4-1.2-2.7-2.4-4-3.7c-2.8-2.9-5-6.3-5-10.4c0-5.7,4.3-11.8,12.4-11.8c3,0,8.9,0.9,14.9,6.6l1.1,1l0.4-1.5l3-12l0.1-0.3
			l0.2-0.6L384.8,269.8z"/>
		<path class="st1" d="M374.5,320.2c-3.2,1.1-6.8,2.1-10.8,3.1c-1.1,0.3-2.3,0.6-3.5,0.9c-0.4,0.1-0.9,0.2-1.3,0.3
			c0.1,0.6,0.1,1.1,0.1,1.7c0,6.8-4.3,13.6-14,13.6c-6.5,0-12.7-2.8-18.3-8.2l-1.1-1.1l-0.4,1.5l-3.3,13.1l-0.2,0.6l0.5,0.3
			c0.5,0.3,1,0.6,1.5,0.9c6.6,3.7,14.1,5.7,21.9,5.7c19.3,0,29.3-13.5,29.3-26.9C375.2,323.8,374.9,321.9,374.5,320.2z"/>
		
			<linearGradient id="SVGID_2_" gradientUnits="userSpaceOnUse" x1="252.1127" y1="323.4506" x2="335.8757" y2="317.2715" gradientTransform="matrix(0.9999 -1.220000e-02 1.220000e-02 0.9999 -1.4004 6.6173)">
			<stop  offset="0" style="stop-color:#FFFFFF;stop-opacity:0"/>
			<stop  offset="2.558327e-02" style="stop-color:#FEF1EB;stop-opacity:2.558327e-02"/>
			<stop  offset="0.1268" style="stop-color:#FBC8BA;stop-opacity:0.1268"/>
			<stop  offset="0.2328" style="stop-color:#F8A493;stop-opacity:0.2328"/>
			<stop  offset="0.3416" style="stop-color:#F58877;stop-opacity:0.3416"/>
			<stop  offset="0.4541" style="stop-color:#F37163;stop-opacity:0.4541"/>
			<stop  offset="0.5714" style="stop-color:#F15D54;stop-opacity:0.5714"/>
			<stop  offset="0.6955" style="stop-color:#F04C4A;stop-opacity:0.6955"/>
			<stop  offset="0.8312" style="stop-color:#EF4144;stop-opacity:0.8312"/>
			<stop  offset="1" style="stop-color:#EF3E42"/>
		</linearGradient>
		<path class="st4" d="M389.7,305.9c0.1,1.9-5.4,6.9-27.2,12.4c-18.5,4.7-43.3,8.4-69.7,10.5c-5.7,0.4-29.9,2.1-35.7,2.3l-0.4,0
			l-0.5,4.4l0.5,0c5.7-0.3,30.2-2,36.4-2.4c18.8-1.4,37-3.8,52.6-6.7c6.4-1.2,12.5-2.5,17.9-3.9c20.3-5.2,30.1-10.7,29.7-16.8
			L389.7,305.9z"/>
	</g>
	<g>
		<path d="M185.2,399.9h-9.4v-16.8h2.2v15.1h8.2L185.2,399.9z"/>
		<path d="M195.5,399.8c-0.4,0.1-1.2,0.4-2.6,0.4c-3.5,0-6.2-2-6.2-6.1c0-3.7,2.3-6.2,5.4-6.2c1.5,0,2.9,0.6,3.8,1.8
			c1,1.4,1,3.3,1.1,4.2h-8.1c0,0.7,0,2.3,1,3.4c0.9,0.9,2.2,1.3,3.4,1.3c1.4,0,2.6-0.4,3.2-0.7L195.5,399.8z M194.8,392.4
			c0-0.5-0.1-1.4-0.8-2.1c-0.4-0.4-1-0.8-1.9-0.8c-1.4,0-2.6,0.9-3,2.9H194.8z"/>
		<path d="M212.6,399.2c-0.5,0.1-1.1,0.3-2,0.3c-3.5,0-5.5-2.3-5.5-5.5c0-3,1.9-6.1,6.3-6.1c0.7,0,2.6,0.1,4.3,0.9v9.6
			c0,1.3,0,2.4-0.7,3.6c-1,1.7-2.8,2.7-5.1,2.7c-0.7,0-2.6-0.1-4.3-1.1v-2.1c0.3,0.3,0.6,0.5,1.4,0.9c0.9,0.4,2,0.6,2.9,0.6
			c1.6,0,3-0.6,3.5-2.2c0.3-0.9,0.3-1.8,0.3-3.2L212.6,399.2z M213.6,389.9c-0.6-0.2-1.5-0.4-2.3-0.4c-2.4,0-4.1,1.6-4.1,4.3
			c0,2.8,1.6,4.1,3.7,4.1c1.3,0,2.4-0.5,2.8-0.7V389.9z"/>
		<path d="M226.6,399.8c-0.4,0.1-1.2,0.4-2.6,0.4c-3.5,0-6.2-2-6.2-6.1c0-3.7,2.3-6.2,5.4-6.2c1.5,0,2.9,0.6,3.8,1.8
			c1,1.4,1,3.3,1.1,4.2H220c0,0.7,0,2.3,1,3.4c0.9,0.9,2.2,1.3,3.4,1.3c1.4,0,2.6-0.4,3.2-0.7L226.6,399.8z M225.9,392.4
			c0-0.5-0.1-1.4-0.8-2.1c-0.4-0.4-1-0.8-1.9-0.8c-1.4,0-2.6,0.9-3,2.9H225.9z M221.7,386.6V385l4.4-1.7v1.6L221.7,386.6z"/>
		<path d="M230,399.9v-11.7h2v1.9l1.2-1.8c1-0.4,2.2-0.4,2.5-0.4c0.6,0,1.9,0.1,2.9,1c1.2,1,1.2,2.3,1.2,3.3v7.7h-2V393
			c0-2-0.4-3.5-2.8-3.5c-0.9,0-2.1,0.3-3.1,1v9.4H230z"/>
		<path d="M245,384c0,0.7-0.5,1.2-1.1,1.2c-0.6,0-1.1-0.5-1.1-1.2c0-0.6,0.5-1.2,1.1-1.2C244.4,382.9,245,383.4,245,384z
			 M244.8,399.9h-2v-11.7h2V399.9z"/>
		<path d="M255.8,399.8c-0.4,0.1-1.2,0.4-2.6,0.4c-3.5,0-6.2-2-6.2-6.1c0-3.7,2.3-6.2,5.4-6.2c1.5,0,2.9,0.6,3.8,1.8
			c1,1.4,1,3.3,1.1,4.2h-8.1c0,0.7,0,2.3,1,3.4c0.9,0.9,2.2,1.3,3.4,1.3c1.4,0,2.6-0.4,3.2-0.7L255.8,399.8z M255.1,392.4
			c0-0.5-0.1-1.4-0.8-2.1c-0.4-0.4-1-0.8-1.9-0.8c-1.4,0-2.6,0.9-3,2.9H255.1z"/>
		<path d="M269.2,388.2c0.4-0.1,1-0.3,1.9-0.3c3.5,0,5.6,2.3,5.6,5.9c0,3.7-2.2,6.4-5.7,6.4c-1.4,0-2.3-0.4-2.9-0.7v5.4h-2v-16.8h2
			v1.7L269.2,388.2z M268.1,397.8c0.3,0.2,1.2,0.8,2.6,0.8c2.7,0,3.9-2.2,3.9-4.7c0-1.4-0.4-2.4-0.9-3.1c-0.7-0.9-1.8-1.3-2.9-1.3
			c-1.2,0-2.2,0.4-2.7,0.7V397.8z"/>
		<path d="M283.6,400.2c-3.3,0-5.4-2.3-5.4-6c0-3.6,2.1-6.3,5.6-6.3c3.2,0,5.3,2.4,5.3,6.1S287,400.2,283.6,400.2z M286.9,394
			c0-2.1-0.9-4.5-3.3-4.5c-2,0-3.3,1.8-3.3,4.6c0,0.9,0.1,2.2,0.8,3.2c0.6,0.9,1.6,1.4,2.5,1.4C286,398.6,286.9,396.2,286.9,394z"/>
		<path d="M301.2,399.9h-2V398l-1.2,1.8c-1.1,0.4-2.2,0.4-2.5,0.4c-3.1,0-4.2-1.9-4.2-4.2v-7.8h2v7.1c0,1.9,0.4,3.3,2.8,3.3
			c0.9,0,2.2-0.3,3.1-1v-9.4h2V399.9z"/>
		<path d="M306.2,399.9h-2.1v-11.7h2.1v1.8l1.1-1.6c0.3-0.1,1-0.4,2.1-0.4c0.6,0,0.9,0.1,1.3,0.2v1.9c-0.5-0.2-1-0.5-1.9-0.5
			c-1.1,0-2.1,0.5-2.6,0.9V399.9z"/>
		<path d="M321,399.9h-2v-16.8h2V399.9z"/>
		<path d="M324.2,387.5h-1.4l1.8-4.4h1.9L324.2,387.5z"/>
		<path d="M331,384c0,0.7-0.5,1.2-1.1,1.2c-0.6,0-1.1-0.5-1.1-1.2c0-0.6,0.5-1.2,1.1-1.2C330.4,382.9,331,383.4,331,384z
			 M330.8,399.9h-2v-11.7h2V399.9z"/>
		<path d="M333.8,399.9v-11.7h2v1.9l1.2-1.8c1-0.4,2.2-0.4,2.5-0.4c0.6,0,1.9,0.1,2.9,1c1.2,1,1.2,2.3,1.2,3.3v7.7h-2V393
			c0-2-0.4-3.5-2.8-3.5c-0.9,0-2.1,0.3-3.1,1v9.4H333.8z"/>
		<path d="M356.5,399.9h-2v-1.6l-1.1,1.6c-0.5,0.1-0.9,0.3-1.8,0.3c-3.8,0-5.7-2.5-5.7-5.9c0-3.3,2-6.4,5.7-6.4c0.6,0,1.8,0.1,3,0.7
			v-5.5h2V399.9z M354.5,390.3c-0.8-0.5-1.7-0.7-2.7-0.7c-0.4,0-1.4,0-2.3,0.8c-1.2,0.9-1.6,2.5-1.6,4c0,2.7,1.5,4.2,3.8,4.2
			c1.2,0,2.3-0.4,2.7-0.6V390.3z"/>
		<path d="M369.4,399.9h-2V398l-1.2,1.8c-1.1,0.4-2.2,0.4-2.5,0.4c-3.1,0-4.2-1.9-4.2-4.2v-7.8h2v7.1c0,1.9,0.4,3.3,2.8,3.3
			c0.9,0,2.2-0.3,3.1-1v-9.4h2V399.9z"/>
		<path d="M376.5,393.3c1.1,0.5,2.5,1.2,2.5,3.2c0,1.9-1.5,3.6-4.1,3.6c-1.1,0-2.2-0.3-3.2-0.8v-1.9c0.3,0.2,0.6,0.4,1.1,0.6
			c0.5,0.2,1.2,0.4,1.9,0.4c1.5,0,2.2-1,2.2-1.9c0-1.2-1.1-1.7-1.8-2l-0.8-0.3c-0.9-0.4-2.5-1-2.5-3.1c0-2,1.7-3.5,4-3.5
			c1.4,0,2.3,0.5,2.7,0.7v1.8c-0.7-0.6-1.5-0.9-2.4-0.9c-1.6,0-2.2,0.9-2.2,1.8c0,1,0.8,1.4,1.5,1.7L376.5,393.3z"/>
		<path d="M385.3,400c-0.3,0.1-0.7,0.1-1,0.1c-0.8,0-1.6-0.3-2.1-0.9c-0.6-0.7-0.6-1.4-0.6-2.6v-7h-1.4l1.1-1.5h0.3v-2.3l2-0.6v2.9
			h2.4v1.5h-2.4v6.1c0,1.3,0,1.4,0,1.7c0.2,1.1,1,1.2,1.4,1.2c0.2,0,0.7,0,1.4-0.3L385.3,400z"/>
		<path d="M389.7,399.9h-2.1v-11.7h2.1v1.8l1.1-1.6c0.3-0.1,1-0.4,2.1-0.4c0.6,0,0.9,0.1,1.3,0.2v1.9c-0.5-0.2-1-0.5-1.9-0.5
			c-1.1,0-2.1,0.5-2.6,0.9V399.9z"/>
		<path d="M397.7,384c0,0.7-0.5,1.2-1.1,1.2c-0.6,0-1.1-0.5-1.1-1.2c0-0.6,0.5-1.2,1.1-1.2C397.2,382.9,397.7,383.4,397.7,384z
			 M397.6,399.9h-2v-11.7h2V399.9z"/>
		<path d="M408.5,399.8c-0.4,0.1-1.2,0.4-2.6,0.4c-3.5,0-6.2-2-6.2-6.1c0-3.7,2.3-6.2,5.4-6.2c1.5,0,2.9,0.6,3.8,1.8
			c1,1.4,1,3.3,1.1,4.2h-8.1c0,0.7,0,2.3,1,3.4c0.9,0.9,2.2,1.3,3.4,1.3c1.4,0,2.6-0.4,3.2-0.7L408.5,399.8z M407.8,392.4
			c0-0.5-0.1-1.4-0.8-2.1c-0.4-0.4-1-0.8-1.9-0.8c-1.4,0-2.6,0.9-3,2.9H407.8z"/>
	</g>
</g>
</svg>
