<?xml version="1.0" encoding="UTF-8"?>
<svg width="200px" height="131px" viewBox="0 0 200 131" version="1.1" xmlns="http://www.w3.org/2000/svg" xmlns:xlink="http://www.w3.org/1999/xlink">
    <!-- Generator: Sketch 41.2 (35397) - http://www.bohemiancoding.com/sketch -->
    <title>fdets copy</title>
    <desc>Created with Sketch.</desc>
    <defs>
        <polygon id="path-1" points="0 1.08973819e-14 0 95.3912167 3.91543726 95.3912167 3.91543726 0 1.03061043e-20 0"></polygon>
        <polygon id="path-3" points="0 0 0 103.37627 33.9801521 103.37627 33.9801521 0 5.15305215e-21 0"></polygon>
        <polygon id="path-5" points="0 130.036059 199.711787 130.036059 199.711787 0 0 0"></polygon>
    </defs>
    <g id="wireframe" stroke="none" stroke-width="1" fill="none" fill-rule="evenodd">
        <g id="fdets-copy" transform="translate(0.000000, 0.176556)">
            <g id="Group-3" transform="translate(0.000000, 34.948509)">
                <mask id="mask-2" fill="white">
                    <use xlink:href="#path-1"></use>
                </mask>
                <g id="Clip-2"></g>
                <path d="M0,0 L0,95.3912167 L0.00456273764,95.3912167 C0.965019011,91.8798789 2.29657795,88.554882 3.91558935,85.4430652 L3.8243346,0 L0,0 Z" id="Fill-1" fill="#EC4047" mask="url(#mask-2)"></path>
            </g>
            <g id="Group-6" transform="translate(0.000000, 8.876116)">
                <mask id="mask-4" fill="white">
                    <use xlink:href="#path-3"></use>
                </mask>
                <g id="Clip-5"></g>
                <path d="M30.3201521,0 L30.408365,67.2069602 C30.408365,68.7774384 30.1292776,69.8249351 29.661597,70.7689091 C29.1034221,72.3416879 28.0775665,73.0747822 27.0501901,73.0747822 L18.0022814,73.0747822 C16.6965779,73.0747822 15.8570342,72.3416879 15.2022814,70.7689091 C14.8288973,69.8249351 14.738403,68.7774384 14.738403,67.2069602 L14.738403,42.0869766 C14.738403,40.722777 15.0174905,39.3608779 15.3908745,38.4146034 C16.043346,36.8441251 16.8806084,36.1110308 18.0965779,36.1110308 L25.1855513,36.1110308 L25.1855513,0 L0,0 L0,19.2997053 L3.8243346,19.2997053 L3.8243346,9.4474082 C3.8243346,7.97815218 3.91787072,6.72054265 4.38403042,5.77656866 C5.0365019,3.8909212 6.71558935,3.46992874 7.83498099,3.68080839 L17.9809886,3.8909212 L17.9809886,10.7050177 L8.95513308,10.8100741 L8.95513308,19.2997053 L15.18327,19.2997053 L15.18327,25.6966436 L8.95513308,25.6966436 L8.95513308,103.37627 C15.339924,95.3896831 24.0904943,89.8377971 33.9802281,88.1568946 L33.9802281,0 L30.3201521,0 Z" id="Fill-4" fill="#EC4047" mask="url(#mask-4)"></path>
            </g>
            <mask id="mask-6" fill="white">
                <use xlink:href="#path-5"></use>
            </mask>
            <g id="Clip-8"></g>
            <polygon id="Fill-7" fill="#EC4047" mask="url(#mask-6)" points="19.7718631 75.3783548 25.3688213 75.3783548 25.3688213 52.1447855 19.7718631 52.1447855"></polygon>
            <path d="M45.1939163,6.89691472 L45.1939163,3.59722336 L53.513308,0 L53.513308,3.29892452 L45.1939163,6.89691472 Z M57.1140684,44.2870264 L39.5437262,44.2870264 L39.5437262,8.94819856 L57.1140684,8.94819856 L57.1140684,12.4963445 L43.6357414,12.4963445 L43.6357414,23.8915138 L55.3794677,23.8915138 L55.3794677,27.4918045 L43.6357414,27.4918045 L43.6357414,40.6882694 L59.026616,40.6882694 L57.1140684,44.2870264 Z" id="Fill-9" fill="#000000" mask="url(#mask-6)"></path>
            <polygon id="Fill-10" fill="#000000" mask="url(#mask-6)" points="77.9330798 44.4925382 73.886692 44.4925382 73.886692 12.7494001 63.878327 12.7494001 63.878327 9.20202097 87.9437262 9.20202097 87.9437262 12.7494001 77.9330798 12.7494001"></polygon>
            <path d="M91.2547529,38.8279275 C92.4547529,39.6760471 95.6570342,41.9259412 99.3939163,41.9259412 C104.109506,41.9259412 106.288973,38.4276396 106.288973,35.4783919 C106.288973,34.1302958 105.843346,32.7277544 105.130038,31.7776458 C104.109506,30.3804722 102.373384,29.5300521 100.818251,28.8314654 L98.7269962,27.8299788 C96.9026616,26.9289475 94.8577947,25.8814508 93.3885932,23.8309338 C92.1444867,22.1830052 91.5209125,20.1823325 91.5209125,18.1348828 C91.5209125,12.8345187 95.4365019,8.43518589 101.931559,8.43518589 C104.419772,8.43518589 106.869202,9.03561776 109.135361,10.1843367 L109.135361,14.9318127 C107.979468,13.9333934 105.711027,12.0331761 101.974144,12.0331761 C97.7026616,12.0331761 95.7908745,14.981657 95.7908745,17.7345949 C95.7908745,21.5818065 99.1277567,23.1814245 101.576426,24.332444 L103.663118,25.3807075 C106.556654,26.9289475 110.692015,29.1796085 110.692015,35.1770257 C110.692015,40.9781331 106.376426,45.5239314 99.3939163,45.5239314 C95.4365019,45.5239314 92.3201521,44.0761468 91.2547529,43.5761703 L91.2547529,38.8279275 Z" id="Fill-11" fill="#000000" mask="url(#mask-6)"></path>
            <polygon id="Fill-12" fill="#000000" mask="url(#mask-6)" points="43.1984791 72.6346189 40.3041825 72.6346189 40.3041825 55.2121258 49.513308 55.2121258 49.513308 57.6775006 43.1984791 57.6775006 43.1984791 62.5315667 48.6577947 62.5315667 48.6577947 65.0191797 43.1984791 65.0191797"></polygon>
            <path d="M56.3444867,61.8828242 C55.4676806,61.9081298 54.7657795,62.3275885 54.2836502,63.2623605 C53.8007605,64.1511224 53.6920152,65.1855829 53.6920152,66.2192766 C53.6920152,67.1816546 53.8007605,68.3150369 54.304943,69.2014982 C54.8091255,70.0879596 55.5771863,70.4836465 56.3673004,70.4836465 C58.1863118,70.4836465 59.0197719,68.4147254 59.0197719,66.1471941 C59.0197719,63.9049683 58.2745247,61.8828242 56.3885932,61.8828242 L56.3444867,61.8828242 Z M56.3231939,72.5786399 C52.7703422,72.5786399 50.9505703,69.7927281 50.9505703,66.3189651 C50.9505703,62.6711307 53.0121673,59.8131363 56.4547529,59.8131363 C59.5908745,59.8131363 61.7376426,62.2792779 61.7376426,66.096583 C61.7376426,69.6945732 59.8973384,72.5786399 56.3231939,72.5786399 L56.3231939,72.5786399 Z" id="Fill-13" fill="#000000" mask="url(#mask-6)"></path>
            <path d="M64.6387833,60.1099015 L67.2045627,60.1099015 L67.2045627,62.4257434 L68.6076046,60.2088232 C69.4638783,59.8637474 70.38327,59.8131363 70.8007605,59.8131363 C73.9140684,59.8131363 74.5285171,62.032357 74.5285171,64.5698143 L74.5285171,72.2826416 L71.9627376,72.2826416 L71.9627376,65.3596545 C71.9627376,63.5092814 71.6555133,62.0553621 69.660076,62.0553621 C68.8707224,62.0553621 67.9490494,62.3774328 67.2045627,62.9678958 L67.2045627,72.2826416 L64.6387833,72.2826416 L64.6387833,60.1099015 Z" id="Fill-14" fill="#000000" mask="url(#mask-6)"></path>
            <path d="M85.5262357,63.0714186 C84.6707224,62.4564168 83.8821293,62.3574951 83.3992395,62.3574951 C83.0045627,62.3574951 82.2806084,62.4318781 81.5794677,63.0476467 C80.6136882,63.9088025 80.2851711,65.3381831 80.2851711,66.7422581 C80.2851711,67.2851773 80.3292776,67.8288634 80.4828897,68.3464771 C80.8326996,69.6754023 81.7764259,70.7344015 83.3764259,70.7344015 C84.1224335,70.7344015 84.8463878,70.5127862 85.5262357,70.1439385 L85.5262357,63.0714186 Z M88.113308,72.6085465 L85.5262357,72.6085465 L85.5262357,70.5871692 L84.2752852,72.6085465 C83.9034221,72.7320069 83.3764259,72.9045448 82.6311787,72.9045448 C79.0365019,72.9045448 77.5665399,69.8732457 77.5665399,66.7192531 C77.5665399,63.2194177 79.5178707,60.1390412 82.7847909,60.1390412 C83.7946768,60.1390412 84.6707224,60.386729 85.5262357,60.9518864 L85.5262357,55.2121258 L88.113308,55.2121258 L88.113308,72.6085465 Z" id="Fill-15" fill="#000000" mask="url(#mask-6)"></path>
            <path d="M97.313308,62.9425903 C97.0068441,62.6220532 96.2174905,61.8345136 94.9026616,61.8345136 C93.5422053,61.8345136 93.1475285,62.7700524 93.1475285,63.4111265 C93.1475285,64.3236603 93.8714829,64.6672024 94.4859316,64.9639676 L95.5825095,65.4570425 C96.1513308,65.7507403 96.5688213,65.975423 96.9414449,66.3442707 C97.2707224,66.6648078 97.8844106,67.4278087 97.8844106,68.7582675 C97.8844106,70.7298005 96.4813688,72.5786399 93.78327,72.5786399 C92.8190114,72.5786399 91.7011407,72.3554909 90.4942966,71.7404892 L90.4942966,69.3264923 C91.2403042,69.9169553 92.4676806,70.5074184 93.3673004,70.5074184 C94.660076,70.5074184 95.165019,69.5711127 95.165019,68.8326505 C95.165019,67.7483457 94.2874525,67.3541925 93.6311787,67.0581942 L92.7969582,66.7131184 C92.0730038,66.4163532 90.4942966,65.7031966 90.4942966,63.5591257 C90.4942966,61.6612089 91.8532319,59.8131363 94.4425856,59.8131363 C95.8889734,59.8131363 96.8752852,60.3299832 97.313308,60.5776709 L97.313308,62.9425903 Z" id="Fill-16" fill="#000000" mask="url(#mask-6)"></path>
            <path d="M115.944487,63.0714186 C115.088213,62.4564168 114.30038,62.3574951 113.81597,62.3574951 C113.422814,62.3574951 112.698859,62.4318781 111.996198,63.0476467 C111.031179,63.9088025 110.703422,65.3381831 110.703422,66.7422581 C110.703422,67.2851773 110.746768,67.8288634 110.90038,68.3464771 C111.251711,69.6754023 112.193916,70.7344015 113.794677,70.7344015 C114.539924,70.7344015 115.263878,70.5127862 115.944487,70.1439385 L115.944487,63.0714186 Z M118.530038,72.6085465 L115.944487,72.6085465 L115.944487,70.5871692 L114.693536,72.6085465 C114.321673,72.7320069 113.794677,72.9045448 113.05019,72.9045448 C109.452471,72.9045448 107.984791,69.8732457 107.984791,66.7192531 C107.984791,63.2194177 109.935361,60.1390412 113.202281,60.1390412 C114.212167,60.1390412 115.088213,60.386729 115.944487,60.9518864 L115.944487,55.2121258 L118.530038,55.2121258 L118.530038,72.6085465 Z" id="Fill-17" fill="#000000" mask="url(#mask-6)"></path>
            <path d="M129.149049,64.5690475 C129.127757,64.1242831 129.085171,63.2140499 128.513308,62.5231315 C128.119392,62.0561289 127.570342,61.7823688 126.935361,61.7823688 C125.596958,61.7823688 124.743726,62.9663622 124.479087,64.5690475 L129.149049,64.5690475 Z M130.159696,72.2074917 C129.302662,72.4789513 128.425095,72.6031786 127.54981,72.6031786 C123.646388,72.6031786 121.673004,69.9407272 121.673004,66.2698877 C121.673004,62.4978259 123.73384,59.8131363 126.889734,59.8131363 C127.658555,59.8131363 128.425095,59.9611355 129.127757,60.33075 C131.736882,61.6849807 131.758935,64.9141233 131.780228,66.3933481 L124.434981,66.3933481 C124.501141,67.1793541 124.589354,68.4860411 125.488213,69.4484191 C126.23346,70.2374924 127.285932,70.5074184 128.315589,70.5074184 C129.78403,70.5074184 130.968821,69.9667996 131.406844,69.7681893 L130.159696,72.2074917 Z" id="Fill-18" fill="#000000" mask="url(#mask-6)"></path>
            <path d="M47.5041825,87.6116748 C46.6486692,86.9959063 45.8593156,86.8969845 45.3771863,86.8969845 C44.981749,86.8969845 44.2577947,86.9713675 43.5574144,87.5871361 C42.5923954,88.4498256 42.2631179,89.8784393 42.2631179,91.2825144 C42.2631179,91.8254336 42.3072243,92.367586 42.461597,92.8851997 C42.8106464,94.2164254 43.7543726,95.273891 45.3543726,95.273891 C46.1003802,95.273891 46.8235741,95.0530425 47.5041825,94.6826611 L47.5041825,87.6116748 Z M50.0904943,97.1488027 L47.5041825,97.1488027 L47.5041825,95.1274255 L46.2539924,97.1488027 C45.8813688,97.2699627 45.3543726,97.4448011 44.6098859,97.4448011 C41.0136882,97.4448011 39.5437262,94.4127352 39.5437262,91.2587425 C39.5437262,87.759674 41.495057,84.6792975 44.7619772,84.6792975 C45.7718631,84.6792975 46.6486692,84.9269852 47.5041825,85.4921427 L47.5041825,79.7508484 L50.0904943,79.7508484 L50.0904943,97.1488027 Z" id="Fill-19" fill="#000000" mask="url(#mask-6)"></path>
            <path d="M56.7406844,83.7920693 L56.7406844,81.6978427 L61.2790875,79.7508484 L61.2790875,81.82207 L56.7406844,83.7920693 Z M60.7087452,89.5855083 C60.686692,89.1392103 60.643346,88.2274434 60.0722433,87.5380587 C59.6790875,87.0695224 59.1307985,86.797296 58.4942966,86.797296 C57.1574144,86.797296 56.3011407,87.9812893 56.0387833,89.5855083 L60.7087452,89.5855083 Z M61.7178707,97.2224189 C60.8623574,97.4923449 59.9855513,97.617339 59.1087452,97.617339 C55.2053232,97.617339 53.2319392,94.9541207 53.2319392,91.2832812 C53.2319392,87.5119863 55.2942966,84.8280635 58.4494297,84.8280635 C59.2174905,84.8280635 59.9855513,84.9752958 60.686692,85.3441435 C63.295057,86.6999079 63.3186312,89.9267499 63.339924,91.4075085 L55.9946768,91.4075085 C56.0608365,92.1935144 56.148289,93.5002014 57.0463878,94.4625794 C57.7931559,95.2501191 58.8448669,95.5223455 59.8768061,95.5223455 C61.3452471,95.5223455 62.5285171,94.9794263 62.9673004,94.7823497 L61.7178707,97.2224189 Z" id="Fill-20" fill="#000000" mask="url(#mask-6)"></path>
            <polygon id="Fill-21" fill="#000000" mask="url(#mask-6)" points="71.5239544 97.2929677 68.78327 97.2929677 64.6387833 85.118694 67.4456274 85.118694 70.2524715 94.3613572 72.9498099 85.118694 75.6030418 85.118694"></polygon>
            <path d="M84.2828897,89.1093037 C84.261597,88.6630057 84.2174905,87.7512388 83.6471483,87.0618541 C83.2532319,86.5940847 82.704943,86.3210914 82.0676806,86.3210914 C80.7315589,86.3210914 79.8760456,87.5050848 79.6129278,89.1093037 L84.2828897,89.1093037 Z M85.2920152,96.7462143 C84.4372624,97.0169071 83.5589354,97.1419012 82.6828897,97.1419012 C78.7794677,97.1419012 76.8060837,94.4779161 76.8060837,90.8070766 C76.8060837,87.0357817 78.8676806,84.3518589 82.0235741,84.3518589 C82.791635,84.3518589 83.5589354,84.4990912 84.261597,84.8687057 C86.8692015,86.2237033 86.8927757,89.4505454 86.9140684,90.9313039 L79.5688213,90.9313039 C79.634981,91.7173099 79.7231939,93.0239968 80.6212928,93.9863749 C81.3673004,94.7746813 82.4190114,95.0461409 83.4501901,95.0461409 C84.9178707,95.0461409 86.1034221,94.5032217 86.5414449,94.3061451 L85.2920152,96.7462143 Z" id="Fill-22" fill="#000000" mask="url(#mask-6)"></path>
            <polygon id="Fill-23" fill="#000000" mask="url(#mask-6)" points="89.7338403 97.1480359 92.2996198 97.1480359 92.2996198 79.7508484 89.7338403 79.7508484"></polygon>
            <path d="M100.450951,86.42078 C99.5741445,86.4468523 98.8714829,86.8663111 98.3908745,87.8010831 C97.9079848,88.6890781 97.7984791,89.7235386 97.7984791,90.7579992 C97.7984791,91.7203772 97.9079848,92.8537594 98.4121673,93.7402208 C98.9163498,94.6266822 99.6836502,95.0223691 100.473004,95.0223691 C102.292015,95.0223691 103.125475,92.953448 103.125475,90.6851498 C103.125475,88.4429241 102.380228,86.42078 100.495057,86.42078 L100.450951,86.42078 Z M100.429658,97.1173625 C96.8768061,97.1173625 95.0570342,94.329917 95.0570342,90.8553872 C95.0570342,87.2098533 97.1193916,84.3518589 100.561217,84.3518589 C103.697338,84.3518589 105.844106,86.8157 105.844106,90.6353056 C105.844106,94.2325289 104.003042,97.1173625 100.429658,97.1173625 L100.429658,97.1173625 Z" id="Fill-24" fill="#000000" mask="url(#mask-6)"></path>
            <path d="M111.331559,94.1596796 C111.594677,94.3552225 112.318631,94.8989086 113.459316,94.8989086 C115.563498,94.8989086 116.596198,92.953448 116.596198,90.5616894 C116.596198,89.3056135 116.287452,88.3194636 115.848669,87.7029282 C115.434221,87.1109315 114.664639,86.4966966 113.459316,86.4966966 C112.714068,86.4966966 111.990875,86.7175451 111.331559,87.0871596 L111.331559,94.1596796 Z M112.581749,84.6716291 C113.020532,84.4998581 113.438023,84.3518589 114.270722,84.3518589 C117.44943,84.3518589 119.291255,86.8417724 119.291255,90.4873064 C119.291255,94.4794498 117.120152,97.1173625 114.028897,97.1173625 C112.735361,97.1173625 111.902662,96.6480594 111.331559,96.3275224 L111.331559,101.969128 L108.745247,101.969128 L108.745247,84.6470904 L111.331559,84.6470904 L111.331559,86.6914727 L112.581749,84.6716291 Z" id="Fill-25" fill="#000000" mask="url(#mask-6)"></path>
            <path d="M125.019011,94.1596796 C125.28289,94.3552225 126.006844,94.8989086 127.147529,94.8989086 C129.251711,94.8989086 130.284411,92.953448 130.284411,90.5616894 C130.284411,89.3056135 129.975665,88.3194636 129.536882,87.7029282 C129.122433,87.1109315 128.352852,86.4966966 127.147529,86.4966966 C126.402281,86.4966966 125.678327,86.7175451 125.019011,87.0871596 L125.019011,94.1596796 Z M126.269962,84.6716291 C126.707985,84.4998581 127.126236,84.3518589 127.958935,84.3518589 C131.137643,84.3518589 132.978707,86.8417724 132.978707,90.4873064 C132.978707,94.4794498 130.808365,97.1173625 127.71711,97.1173625 C126.423574,97.1173625 125.590875,96.6480594 125.019011,96.3275224 L125.019011,101.969128 L122.43346,101.969128 L122.43346,84.6470904 L125.019011,84.6470904 L125.019011,86.6914727 L126.269962,84.6716291 Z" id="Fill-26" fill="#000000" mask="url(#mask-6)"></path>
            <path d="M142.838783,89.1093037 C142.819011,88.6630057 142.772624,87.7512388 142.203802,87.0618541 C141.809886,86.5940847 141.260837,86.3210914 140.623574,86.3210914 C139.288973,86.3210914 138.431939,87.5050848 138.168061,89.1093037 L142.838783,89.1093037 Z M143.847909,96.7462143 C142.992395,97.0169071 142.115589,97.1419012 141.237262,97.1419012 C137.335361,97.1419012 135.361217,94.4779161 135.361217,90.8070766 C135.361217,87.0357817 137.422814,84.3518589 140.580228,84.3518589 C141.348289,84.3518589 142.115589,84.4990912 142.819011,84.8687057 C145.426616,86.2237033 145.44943,89.4505454 145.470722,90.9313039 L138.124715,90.9313039 C138.192395,91.7173099 138.279848,93.0239968 139.176426,93.9863749 C139.923954,94.7746813 140.974144,95.0461409 142.006844,95.0461409 C143.475285,95.0461409 144.658555,94.5032217 145.098859,94.3061451 L143.847909,96.7462143 Z" id="Fill-27" fill="#000000" mask="url(#mask-6)"></path>
            <path d="M147.528517,84.6233185 L150.114829,84.6233185 L150.114829,86.7911613 L151.365019,84.8219288 C152.109506,84.5251636 152.790875,84.3518589 153.580228,84.3518589 C155.092776,84.3518589 156.606844,85.0657824 157.044867,86.9399273 L158.404563,84.7958564 C158.73384,84.6470904 159.49962,84.3518589 160.618251,84.3518589 C161.144487,84.3518589 162.636502,84.4032369 163.536882,85.6332403 C164.236502,86.5940847 164.259316,87.6776227 164.259316,88.9605377 L164.259316,96.8213642 L161.672243,96.8213642 L161.672243,89.6000782 C161.672243,87.8762329 161.319392,86.5940847 159.587072,86.5940847 C158.514068,86.5940847 157.571103,87.2351588 157.132319,87.531924 C157.153612,87.8263887 157.175665,88.122387 157.175665,89.1093037 L157.175665,96.8213642 L154.610646,96.8213642 L154.610646,89.6261506 C154.590114,87.9506159 154.279848,86.5940847 152.485171,86.5940847 C151.519392,86.5940847 150.662357,87.0879265 150.114829,87.4076967 L150.114829,96.8213642 L147.528517,96.8213642 L147.528517,84.6233185 Z" id="Fill-28" fill="#000000" mask="url(#mask-6)"></path>
            <path d="M174.777947,89.1093037 C174.756654,88.6630057 174.711787,87.7512388 174.142966,87.0618541 C173.748289,86.5940847 173.197719,86.3210914 172.562738,86.3210914 C171.225856,86.3210914 170.370342,87.5050848 170.105703,89.1093037 L174.777947,89.1093037 Z M175.787072,96.7462143 C174.931559,97.0169071 174.054753,97.1419012 173.176426,97.1419012 C169.273764,97.1419012 167.30038,94.4779161 167.30038,90.8070766 C167.30038,87.0357817 169.361217,84.3518589 172.519392,84.3518589 C173.285932,84.3518589 174.054753,84.4990912 174.756654,84.8687057 C177.363498,86.2237033 177.388593,89.4505454 177.409886,90.9313039 L170.064639,90.9313039 C170.130798,91.7173099 170.218251,93.0239968 171.114829,93.9863749 C171.861597,94.7746813 172.913308,95.0461409 173.945247,95.0461409 C175.412928,95.0461409 176.597719,94.5032217 177.035741,94.3061451 L175.787072,96.7462143 Z" id="Fill-29" fill="#000000" mask="url(#mask-6)"></path>
            <path d="M180.228137,84.6470904 L182.793916,84.6470904 L182.793916,86.9636992 L184.198479,84.7460121 C185.052471,84.4032369 185.974144,84.3518589 186.390875,84.3518589 C189.504183,84.3518589 190.117871,86.5703128 190.117871,89.1085369 L190.117871,96.8213642 L187.553612,96.8213642 L187.553612,89.8968434 C187.553612,88.048004 187.244106,86.5940847 185.24943,86.5940847 C184.461597,86.5940847 183.538403,86.9153886 182.793916,87.5050848 L182.793916,96.8213642 L180.228137,96.8213642 L180.228137,84.6470904 Z" id="Fill-30" fill="#000000" mask="url(#mask-6)"></path>
            <path d="M197.853232,97.5483238 C197.549049,97.6250073 197.155133,97.723929 196.561217,97.723929 C195.947529,97.723929 195.070722,97.6250073 194.390875,96.7853229 C193.732319,95.9471722 193.732319,95.0852495 193.755133,94.0017116 L193.798479,87.3233448 L192.395437,87.3233448 L193.558935,85.2291182 L193.843346,85.2291182 L193.843346,82.9355145 L196.385551,82.0513537 L196.385551,85.2291182 L198.819772,85.2291182 L198.819772,87.3233448 L196.342966,87.3233448 L196.298099,92.6459471 C196.298099,93.9771728 196.298099,94.4955534 196.561217,94.9364835 C196.758175,95.2577874 197.174905,95.6028632 197.89962,95.6028632 C198.380989,95.6028632 198.885171,95.454864 199.346768,95.2846267 L197.853232,97.5483238 Z" id="Fill-31" fill="#000000" mask="url(#mask-6)"></path>
        </g>
    </g>
</svg>