<?xml version="1.0" encoding="UTF-8"?>
<svg width="211px" height="47px" viewBox="0 0 211 47" version="1.1" xmlns="http://www.w3.org/2000/svg" xmlns:xlink="http://www.w3.org/1999/xlink">
    <!-- Generator: Sketch 41.2 (35397) - http://www.bohemiancoding.com/sketch -->
    <title>Group 12 Copy</title>
    <desc>Created with Sketch.</desc>
    <defs></defs>
    <g id="wireframe" stroke="none" stroke-width="1" fill="none" fill-rule="evenodd">
        <g id="Group-12-Copy" fill="#000000">
            <path d="M66.9132563,13.7090689 L81.8652083,13.7090689 L81.8652083,17.9491577 L72.9874868,17.9491577 L72.9874868,21.3950712 L80.5702624,21.3950712 L80.5702624,25.3794086 L72.9874868,25.3794086 L72.9874868,33.4423077 L66.9132563,33.4423077 L66.9132563,13.7090689 Z M85.1225978,13.7090689 L91.1701284,13.7090689 L91.1701284,28.5830313 L100.608548,28.5830313 L100.608548,33.4423077 L85.1225978,33.4423077 L85.1225978,13.7090689 Z M103.345289,13.7090689 L119.552137,13.7090689 L119.552137,17.9222365 L109.40617,17.9222365 L109.40617,21.0585562 L118.81789,21.0585562 L118.81789,25.0832754 L109.40617,25.0832754 L109.40617,28.9733887 L119.845836,28.9733887 L119.845836,33.4423077 L103.345289,33.4423077 L103.345289,13.7090689 Z M121.75488,13.7090689 L128.416509,13.7090689 L131.887498,19.7797992 L135.251687,13.7090689 L141.846566,13.7090689 L135.758985,23.2660945 L142.420614,33.4423077 L135.625486,33.4423077 L131.767348,27.1023653 L127.89586,33.4423077 L121.140782,33.4423077 L127.89586,23.1584097 L121.75488,13.7090689 Z M144.343008,13.7090689 L154.395525,13.7090689 C156.584929,13.7090689 158.224733,14.234027 159.314984,15.283959 C160.405236,16.333891 160.950354,17.8280026 160.950354,19.7663386 C160.950354,21.7585173 160.356287,23.3154444 159.168135,24.4371667 C157.979983,25.5588889 156.166632,26.1197416 153.728027,26.1197416 L150.417238,26.1197416 L150.417238,33.4423077 L144.343008,33.4423077 L144.343008,13.7090689 Z M150.417238,22.1219435 L151.899083,22.1219435 C153.064985,22.1219435 153.883775,21.9177932 154.355475,21.5094863 C154.827176,21.1011794 155.063023,20.5784647 155.063023,19.9413264 C155.063023,19.3221358 154.858326,18.7971776 154.448925,18.3664363 C154.039524,17.935695 153.269685,17.7203275 152.139383,17.7203275 L150.417238,17.7203275 L150.417238,22.1219435 Z M164.354593,13.7090689 L170.415474,13.7090689 L170.415474,33.4423077 L164.354593,33.4423077 L164.354593,13.7090689 Z M174.72751,13.7090689 L184.780028,13.7090689 C186.969432,13.7090689 188.609235,14.234027 189.699487,15.283959 C190.789739,16.333891 191.334857,17.8280026 191.334857,19.7663386 C191.334857,21.7585173 190.740789,23.3154444 189.552637,24.4371667 C188.364485,25.5588889 186.551134,26.1197416 184.11253,26.1197416 L180.80174,26.1197416 L180.80174,33.4423077 L174.72751,33.4423077 L174.72751,13.7090689 Z M180.80174,22.1219435 L182.283586,22.1219435 C183.449488,22.1219435 184.268277,21.9177932 184.739978,21.5094863 C185.211679,21.1011794 185.447526,20.5784647 185.447526,19.9413264 C185.447526,19.3221358 185.242828,18.7971776 184.833428,18.3664363 C184.424027,17.935695 183.654187,17.7203275 182.523885,17.7203275 L180.80174,17.7203275 L180.80174,22.1219435 Z M194.485446,13.7090689 L210.692294,13.7090689 L210.692294,17.9222365 L200.546327,17.9222365 L200.546327,21.0585562 L209.958047,21.0585562 L209.958047,25.0832754 L200.546327,25.0832754 L200.546327,28.9733887 L210.985993,28.9733887 L210.985993,33.4423077 L194.485446,33.4423077 L194.485446,13.7090689 Z" id="FLEXPIPE"></path>
            <path d="M73.6206249,46.0961538 L72.4931007,46.0961538 L72.0448923,44.9204477 L69.9929382,44.9204477 L69.5692412,46.0961538 L68.46973,46.0961538 L70.4691596,40.9202224 L71.5651692,40.9202224 L73.6206249,46.0961538 Z M71.7122376,44.0483774 L71.0049087,42.1277043 L70.3115864,44.0483774 L71.7122376,44.0483774 Z M73.9077584,44.4120343 L74.9162273,44.3131761 C74.9769225,44.6544739 75.1000619,44.9051474 75.2856491,45.0652043 C75.4712363,45.2252612 75.7216002,45.3052885 76.0367483,45.3052885 C76.3705719,45.3052885 76.622103,45.2340878 76.7913492,45.0916842 C76.9605954,44.9492806 77.0452172,44.7827534 77.0452172,44.5920974 C77.0452172,44.4697009 77.0096177,44.3655478 76.9384176,44.2796349 C76.8672174,44.193722 76.7429109,44.1189907 76.5654942,44.0554387 C76.4441038,44.0130707 76.1674779,43.9377509 75.7356083,43.8294772 C75.1800139,43.6906043 74.7901698,43.5199579 74.5660645,43.3175331 C74.2509164,43.0327259 74.0933447,42.6855489 74.0933447,42.2759916 C74.0933447,42.0123685 74.1674618,41.7658139 74.3156981,41.5363206 C74.4639344,41.3068273 74.6775316,41.1320619 74.956496,41.0120192 C75.2354605,40.8919766 75.572197,40.8319561 75.9667158,40.8319561 C76.6110185,40.8319561 77.0959892,40.9743576 77.4216422,41.2591647 C77.7472953,41.5439718 77.9182897,41.9241012 77.9346307,42.3995643 L76.8981488,42.4454627 C76.8537946,42.1794858 76.758668,41.9882443 76.6127661,41.8717323 C76.4668642,41.7552203 76.2480147,41.6969651 75.9562109,41.6969651 C75.6550693,41.6969651 75.4192954,41.7593393 75.248882,41.8840895 C75.1391638,41.964118 75.0843055,42.0712133 75.0843055,42.2053786 C75.0843055,42.3277751 75.1356622,42.4325166 75.2383771,42.5196064 C75.3691052,42.6302339 75.686583,42.7455673 76.19082,42.86561 C76.6950569,42.9856526 77.0679766,43.1098126 77.3095901,43.2380934 C77.5512037,43.3663743 77.7402897,43.5417282 77.8768539,43.7641602 C78.0134181,43.9865922 78.0816991,44.2613916 78.0816991,44.5885667 C78.0816991,44.8851427 77.9999953,45.1628843 77.8365852,45.4217999 C77.673175,45.6807154 77.4420699,45.8731339 77.1432628,45.999061 C76.8444557,46.1249881 76.4721196,46.1879507 76.0262434,46.1879507 C75.3772718,46.1879507 74.8788784,46.0367228 74.5310482,45.7342623 C74.1832181,45.4318019 73.9754569,44.9910636 73.9077584,44.4120343 Z M78.6909824,44.4120343 L79.6994513,44.3131761 C79.7601465,44.6544739 79.8832859,44.9051474 80.0688731,45.0652043 C80.2544603,45.2252612 80.5048242,45.3052885 80.8199723,45.3052885 C81.1537958,45.3052885 81.4053269,45.2340878 81.5745731,45.0916842 C81.7438194,44.9492806 81.8284412,44.7827534 81.8284412,44.5920974 C81.8284412,44.4697009 81.7928417,44.3655478 81.7216415,44.2796349 C81.6504414,44.193722 81.5261348,44.1189907 81.3487181,44.0554387 C81.2273278,44.0130707 80.9507019,43.9377509 80.5188323,43.8294772 C79.9632378,43.6906043 79.5733938,43.5199579 79.3492885,43.3175331 C79.0341404,43.0327259 78.8765687,42.6855489 78.8765687,42.2759916 C78.8765687,42.0123685 78.9506858,41.7658139 79.0989221,41.5363206 C79.2471584,41.3068273 79.4607556,41.1320619 79.73972,41.0120192 C80.0186845,40.8919766 80.355421,40.8319561 80.7499397,40.8319561 C81.3942425,40.8319561 81.8792132,40.9743576 82.2048662,41.2591647 C82.5305192,41.5439718 82.7015137,41.9241012 82.7178547,42.3995643 L81.6813728,42.4454627 C81.6370186,42.1794858 81.541892,41.9882443 81.3959901,41.8717323 C81.2500882,41.7552203 81.0312386,41.6969651 80.7394348,41.6969651 C80.4382933,41.6969651 80.2025194,41.7593393 80.032106,41.8840895 C79.9223877,41.964118 79.8675295,42.0712133 79.8675295,42.2053786 C79.8675295,42.3277751 79.9188862,42.4325166 80.0216011,42.5196064 C80.1523292,42.6302339 80.469807,42.7455673 80.9740439,42.86561 C81.4782809,42.9856526 81.8512006,43.1098126 82.0928141,43.2380934 C82.3344277,43.3663743 82.5235137,43.5417282 82.6600779,43.7641602 C82.796642,43.9865922 82.8649231,44.2613916 82.8649231,44.5885667 C82.8649231,44.8851427 82.7832193,45.1628843 82.6198091,45.4217999 C82.456399,45.6807154 82.2252939,45.8731339 81.9264868,45.999061 C81.6276797,46.1249881 81.2553436,46.1879507 80.8094674,46.1879507 C80.1604958,46.1879507 79.6621023,46.0367228 79.3142722,45.7342623 C78.9664421,45.4318019 78.7586809,44.9910636 78.6909824,44.4120343 Z M83.7368285,46.0961538 L83.7368285,40.9202224 L87.5430982,40.9202224 L87.5430982,41.7958233 L84.7733104,41.7958233 L84.7733104,42.9432843 L87.3505087,42.9432843 L87.3505087,43.8153546 L84.7733104,43.8153546 L84.7733104,45.2240835 L87.6411438,45.2240835 L87.6411438,46.0961538 L83.7368285,46.0961538 Z M88.506046,46.0961538 L88.506046,40.9202224 L90.0572672,40.9202224 L90.9887003,44.4508714 L91.9096285,40.9202224 L93.4643513,40.9202224 L93.4643513,46.0961538 L92.5014036,46.0961538 L92.5014036,42.0217849 L91.4824298,46.0961538 L90.4844658,46.0961538 L89.4689937,42.0217849 L89.4689937,46.0961538 L88.506046,46.0961538 Z M94.4973316,40.9202224 L96.5492857,40.9202224 C96.9554766,40.9202224 97.2583644,40.937287 97.4579582,40.9714168 C97.657552,41.0055465 97.8361332,41.0767473 97.9937073,41.185021 C98.1512813,41.2932948 98.2825911,41.4374615 98.3876404,41.6175255 C98.4926898,41.7975895 98.5452137,41.999423 98.5452137,42.2230319 C98.5452137,42.465471 98.4804342,42.6878996 98.3508734,42.8903245 C98.2213125,43.0927494 98.0456492,43.2445658 97.8238783,43.3457782 C98.136692,43.4375756 98.3771347,43.5940995 98.5452137,43.8153546 C98.7132927,44.0366097 98.7973309,44.2966982 98.7973309,44.595628 C98.7973309,44.8310058 98.7430562,45.0599072 98.6345052,45.2823392 C98.5259542,45.5047712 98.3777201,45.6824788 98.1897985,45.8154672 C98.0018768,45.9484557 97.7701881,46.0302482 97.4947253,46.0608474 C97.3219774,46.0796776 96.9052879,46.0914463 96.2446441,46.0961538 L94.4973316,46.0961538 L94.4973316,40.9202224 Z M95.5338136,41.7817007 L95.5338136,42.9785907 L96.2131294,42.9785907 C96.6169859,42.9785907 96.8679334,42.9727064 96.9659794,42.9609375 C97.1433962,42.9397535 97.2828763,42.8779678 97.384424,42.7755784 C97.4859717,42.6731891 97.5367448,42.5384373 97.5367448,42.3713191 C97.5367448,42.2112622 97.4929749,42.0812179 97.4054338,41.9811824 C97.3178926,41.8811468 97.1877501,41.820538 97.0150022,41.799354 C96.9122873,41.7875851 96.6169863,41.7817007 96.1290903,41.7817007 L95.5338136,41.7817007 Z M95.5338136,43.8400691 L95.5338136,45.2240835 L96.4932596,45.2240835 C96.8667685,45.2240835 97.1037096,45.2134917 97.2040902,45.1923077 C97.3581626,45.1640624 97.4836363,45.0952154 97.5805152,44.9857647 C97.677394,44.8763141 97.7258327,44.7297936 97.7258327,44.5461989 C97.7258327,44.3908496 97.6884824,44.25904 97.6137806,44.1507662 C97.5390789,44.0424924 97.4311131,43.9636421 97.28988,43.9142127 C97.148647,43.8647834 96.8422576,43.8400691 96.3707027,43.8400691 L95.5338136,43.8400691 Z M99.700751,46.0961538 L99.700751,40.9625901 L100.737233,40.9625901 L100.737233,45.2240835 L103.314431,45.2240835 L103.314431,46.0961538 L99.700751,46.0961538 Z M104.053275,46.0961538 L104.053275,40.9202224 L107.859544,40.9202224 L107.859544,41.7958233 L105.089757,41.7958233 L105.089757,42.9432843 L107.666955,42.9432843 L107.666955,43.8153546 L105.089757,43.8153546 L105.089757,45.2240835 L107.95759,45.2240835 L107.95759,46.0961538 L104.053275,46.0961538 Z M108.391792,46.0961538 L108.391792,45.1534706 L111.088046,41.7958233 L108.696434,41.7958233 L108.696434,40.9202224 L112.453681,40.9202224 L112.453681,41.7322716 L109.641873,45.2240835 L112.562231,45.2240835 L112.562231,46.0961538 L108.391792,46.0961538 Z M118.493989,44.193134 L119.498956,44.5144231 C119.344884,45.0793297 119.088684,45.4988843 118.730349,45.7730995 C118.372014,46.0473146 117.91739,46.1844201 117.366465,46.1844201 C116.684811,46.1844201 116.124556,45.9496343 115.685683,45.4800556 C115.24681,45.0104769 115.027377,44.3684937 115.027377,43.5540865 C115.027377,42.6926039 115.247978,42.0235526 115.689185,41.5469126 C116.130392,41.0702726 116.710489,40.8319561 117.429494,40.8319561 C118.057456,40.8319561 118.567521,41.0190787 118.959706,41.3933293 C119.193149,41.6145844 119.368228,41.9323397 119.48495,42.3466046 L118.458973,42.59375 C118.398278,42.3254193 118.271637,42.1135825 118.079046,41.9582332 C117.886456,41.8028838 117.652432,41.7252103 117.37697,41.7252103 C116.996457,41.7252103 116.687734,41.8629043 116.450789,42.1382963 C116.213844,42.4136883 116.095374,42.8597225 116.095374,43.4764123 C116.095374,44.1307625 116.212093,44.5968035 116.445537,44.8745493 C116.67898,45.1522951 116.982451,45.2911659 117.35596,45.2911659 C117.631423,45.2911659 117.868364,45.2029005 118.06679,45.0263672 C118.265217,44.8498339 118.407615,44.5720922 118.493989,44.193134 Z M120.38837,46.0961538 L120.38837,40.9202224 L124.19464,40.9202224 L124.19464,41.7958233 L121.424852,41.7958233 L121.424852,42.9432843 L124.00205,42.9432843 L124.00205,43.8153546 L121.424852,43.8153546 L121.424852,45.2240835 L124.292685,45.2240835 L124.292685,46.0961538 L120.38837,46.0961538 Z M131.295941,45.4394531 C131.550394,45.6230478 131.82702,45.7689798 132.125827,45.8772536 L131.74415,46.6151593 C131.587743,46.5680837 131.43484,46.5033558 131.285436,46.4209736 C131.252754,46.4044971 131.022816,46.2515039 130.595616,45.9619892 C130.259458,46.1102772 129.887122,46.1844201 129.478596,46.1844201 C128.689559,46.1844201 128.071528,45.9502227 127.624484,45.4818209 C127.177441,45.0134191 126.953922,44.3555481 126.953922,43.5081881 C126.953922,42.6631819 127.178024,42.0058993 127.626235,41.5363206 C128.074446,41.0667419 128.682556,40.8319561 129.450583,40.8319561 C130.211608,40.8319561 130.815049,41.0667419 131.260925,41.5363206 C131.706801,42.0058993 131.929736,42.6631819 131.929736,43.5081881 C131.929736,43.9554059 131.867874,44.3484809 131.74415,44.6874249 C131.650772,44.9463404 131.501371,45.197014 131.295941,45.4394531 Z M130.462554,44.8498347 C130.595616,44.6921316 130.695412,44.5014785 130.761943,44.2778696 C130.828474,44.0542607 130.861739,43.7977028 130.861739,43.5081881 C130.861739,42.9103285 130.731013,42.4637059 130.469557,42.1683068 C130.208101,41.8729077 129.866112,41.7252103 129.44358,41.7252103 C129.021048,41.7252103 128.678476,41.8734961 128.415852,42.1700721 C128.153229,42.4666481 128.021919,42.9126823 128.021919,43.5081881 C128.021919,44.113109 128.153229,44.565616 128.415852,44.8657227 C128.678476,45.1658293 129.010543,45.3158804 129.412065,45.3158804 C129.561469,45.3158804 129.7027,45.2911661 129.835762,45.2417368 C129.625664,45.1028639 129.412066,44.9945917 129.194964,44.9169171 L129.4856,44.3202374 C129.826426,44.4379263 130.152075,44.614457 130.462554,44.8498347 Z M132.73511,40.9202224 L133.771592,40.9202224 L133.771592,43.7235577 C133.771592,44.1684217 133.784432,44.4567552 133.81011,44.5885667 C133.854464,44.8004067 133.960096,44.9704646 134.127008,45.0987455 C134.293919,45.2270264 134.522107,45.2911659 134.811576,45.2911659 C135.105714,45.2911659 135.327482,45.230557 135.476885,45.1093374 C135.626289,44.9881179 135.716163,44.8392437 135.746511,44.6627103 C135.776858,44.486177 135.792032,44.1931361 135.792032,43.7835787 L135.792032,40.9202224 L136.828514,40.9202224 L136.828514,43.6388221 C136.828514,44.2602195 136.800501,44.6991924 136.744475,44.9557542 C136.688448,45.212316 136.585151,45.4288603 136.434581,45.6053936 C136.28401,45.781927 136.082668,45.9225631 135.83055,46.0273062 C135.578431,46.1320493 135.249281,46.1844201 134.843091,46.1844201 C134.35286,46.1844201 133.981108,46.1273418 133.727822,46.0131836 C133.474536,45.8990254 133.274362,45.7507396 133.127293,45.5683218 C132.980224,45.385904 132.883346,45.1946625 132.836658,44.9945913 C132.768959,44.6980153 132.73511,44.2602192 132.73511,43.6811899 L132.73511,40.9202224 Z M137.889507,46.0961538 L137.889507,40.9202224 L138.925989,40.9202224 L138.925989,46.0961538 L137.889507,46.0961538 Z M143.215483,46.0961538 L141.38063,40.9202224 L142.504653,40.9202224 L143.803757,44.7509766 L145.060841,40.9202224 L146.160353,40.9202224 L144.321998,46.0961538 L143.215483,46.0961538 Z M146.479001,43.5399639 C146.479001,43.0127177 146.557203,42.5702141 146.71361,42.2124399 C146.830331,41.9488168 146.989654,41.7122657 147.191582,41.5027794 C147.39351,41.2932932 147.614694,41.1379462 147.855141,41.0367338 C148.174958,40.9002147 148.543792,40.8319561 148.961655,40.8319561 C149.71801,40.8319561 150.323202,41.0685072 150.777249,41.5416166 C151.231296,42.0147259 151.458316,42.6725969 151.458316,43.5152494 C151.458316,44.3508405 151.233047,45.0045925 150.782502,45.4765249 C150.331957,45.9484574 149.729683,46.1844201 148.975662,46.1844201 C148.212303,46.1844201 147.60536,45.9496343 147.154815,45.4800556 C146.70427,45.0104769 146.479001,44.3637862 146.479001,43.5399639 Z M147.546997,43.5046575 C147.546997,44.0907481 147.681225,44.535017 147.949685,44.8374775 C148.218144,45.1399379 148.558966,45.2911659 148.97216,45.2911659 C149.385354,45.2911659 149.724425,45.1411148 149.989383,44.8410081 C150.254341,44.5409014 150.386818,44.0907482 150.386818,43.4905349 C150.386818,42.8973829 150.257842,42.4548793 149.999888,42.1630108 C149.741933,41.8711424 149.399361,41.7252103 148.97216,41.7252103 C148.544959,41.7252103 148.200636,41.8729077 147.93918,42.1683068 C147.677723,42.4637059 147.546997,42.9091517 147.546997,43.5046575 Z M152.260189,40.9202224 L153.296671,40.9202224 L153.296671,43.7235577 C153.296671,44.1684217 153.30951,44.4567552 153.335189,44.5885667 C153.379543,44.8004067 153.485174,44.9704646 153.652086,45.0987455 C153.818998,45.2270264 154.047185,45.2911659 154.336654,45.2911659 C154.630792,45.2911659 154.85256,45.230557 155.001963,45.1093374 C155.151367,44.9881179 155.241241,44.8392437 155.271589,44.6627103 C155.301936,44.486177 155.31711,44.1931361 155.31711,43.7835787 L155.31711,40.9202224 L156.353592,40.9202224 L156.353592,43.6388221 C156.353592,44.2602195 156.325579,44.6991924 156.269553,44.9557542 C156.213527,45.212316 156.11023,45.4288603 155.959659,45.6053936 C155.809088,45.781927 155.607746,45.9225631 155.355628,46.0273062 C155.103509,46.1320493 154.77436,46.1844201 154.368169,46.1844201 C153.877938,46.1844201 153.506186,46.1273418 153.2529,46.0131836 C152.999615,45.8990254 152.79944,45.7507396 152.652371,45.5683218 C152.505302,45.385904 152.408425,45.1946625 152.361736,44.9945913 C152.294037,44.6980153 152.260189,44.2602192 152.260189,43.6811899 L152.260189,40.9202224 Z M157.183478,44.4120343 L158.191947,44.3131761 C158.252642,44.6544739 158.375781,44.9051474 158.561368,45.0652043 C158.746956,45.2252612 158.99732,45.3052885 159.312468,45.3052885 C159.646291,45.3052885 159.897822,45.2340878 160.067069,45.0916842 C160.236315,44.9492806 160.320937,44.7827534 160.320937,44.5920974 C160.320937,44.4697009 160.285337,44.3655478 160.214137,44.2796349 C160.142937,44.193722 160.01863,44.1189907 159.841214,44.0554387 C159.719823,44.0130707 159.443197,43.9377509 159.011328,43.8294772 C158.455733,43.6906043 158.065889,43.5199579 157.841784,43.3175331 C157.526636,43.0327259 157.369064,42.6855489 157.369064,42.2759916 C157.369064,42.0123685 157.443181,41.7658139 157.591417,41.5363206 C157.739654,41.3068273 157.953251,41.1320619 158.232215,41.0120192 C158.51118,40.8919766 158.847916,40.8319561 159.242435,40.8319561 C159.886738,40.8319561 160.371709,40.9743576 160.697362,41.2591647 C161.023015,41.5439718 161.194009,41.9241012 161.21035,42.3995643 L160.173868,42.4454627 C160.129514,42.1794858 160.034387,41.9882443 159.888486,41.8717323 C159.742584,41.7552203 159.523734,41.6969651 159.23193,41.6969651 C158.930789,41.6969651 158.695015,41.7593393 158.524601,41.8840895 C158.414883,41.964118 158.360025,42.0712133 158.360025,42.2053786 C158.360025,42.3277751 158.411382,42.4325166 158.514096,42.5196064 C158.644825,42.6302339 158.962302,42.7455673 159.466539,42.86561 C159.970776,42.9856526 160.343696,43.1098126 160.585309,43.2380934 C160.826923,43.3663743 161.016009,43.5417282 161.152573,43.7641602 C161.289137,43.9865922 161.357418,44.2613916 161.357418,44.5885667 C161.357418,44.8851427 161.275715,45.1628843 161.112305,45.4217999 C160.948894,45.6807154 160.717789,45.8731339 160.418982,45.999061 C160.120175,46.1249881 159.747839,46.1879507 159.301963,46.1879507 C158.652991,46.1879507 158.154598,46.0367228 157.806768,45.7342623 C157.458937,45.4318019 157.251176,44.9910636 157.183478,44.4120343 Z M164.225252,46.0961538 L164.225252,40.9202224 L166.406766,40.9202224 C166.955357,40.9202224 167.353955,40.9667088 167.602572,41.059683 C167.851189,41.1526572 168.050196,41.3180076 168.1996,41.5557392 C168.349003,41.7934707 168.423704,42.065328 168.423704,42.3713191 C168.423704,42.7596924 168.310486,43.0803899 168.084046,43.333421 C167.857606,43.5864521 167.519119,43.7459181 167.068574,43.8118239 C167.292679,43.9436355 167.47768,44.0883906 167.623582,44.2460938 C167.769484,44.4037969 167.966157,44.6838922 168.213606,45.0863882 L168.840398,46.0961538 L167.600821,46.0961538 L166.851473,44.9698768 C166.585348,44.5673808 166.403265,44.313765 166.305219,44.2090219 C166.207173,44.1042788 166.103292,44.0324897 165.993574,43.9936523 C165.883856,43.954815 165.709943,43.9353966 165.471832,43.9353966 L165.261734,43.9353966 L165.261734,46.0961538 L164.225252,46.0961538 Z M165.261734,43.1092248 L166.02859,43.1092248 C166.525824,43.1092248 166.836299,43.0880411 166.960023,43.0456731 C167.083748,43.0033051 167.180626,42.9303391 167.250659,42.8267728 C167.320691,42.7232066 167.355707,42.5937508 167.355707,42.4384014 C167.355707,42.2642219 167.309603,42.1235858 167.217393,42.0164889 C167.125183,41.909392 166.995041,41.8417219 166.826962,41.8134766 C166.742922,41.8017077 166.490807,41.7958233 166.07061,41.7958233 L165.261734,41.7958233 L165.261734,43.1092248 Z M169.400658,46.0961538 L169.400658,40.9202224 L173.206928,40.9202224 L173.206928,41.7958233 L170.43714,41.7958233 L170.43714,42.9432843 L173.014338,42.9432843 L173.014338,43.8153546 L170.43714,43.8153546 L170.43714,45.2240835 L173.304974,45.2240835 L173.304974,46.0961538 L169.400658,46.0961538 Z M173.92126,44.4120343 L174.929729,44.3131761 C174.990424,44.6544739 175.113564,44.9051474 175.299151,45.0652043 C175.484738,45.2252612 175.735102,45.3052885 176.05025,45.3052885 C176.384074,45.3052885 176.635605,45.2340878 176.804851,45.0916842 C176.974097,44.9492806 177.058719,44.7827534 177.058719,44.5920974 C177.058719,44.4697009 177.023119,44.3655478 176.951919,44.2796349 C176.880719,44.193722 176.756413,44.1189907 176.578996,44.0554387 C176.457605,44.0130707 176.18098,43.9377509 175.74911,43.8294772 C175.193516,43.6906043 174.803671,43.5199579 174.579566,43.3175331 C174.264418,43.0327259 174.106846,42.6855489 174.106846,42.2759916 C174.106846,42.0123685 174.180963,41.7658139 174.3292,41.5363206 C174.477436,41.3068273 174.691033,41.1320619 174.969998,41.0120192 C175.248962,40.8919766 175.585699,40.8319561 175.980217,40.8319561 C176.62452,40.8319561 177.109491,40.9743576 177.435144,41.2591647 C177.760797,41.5439718 177.931791,41.9241012 177.948132,42.3995643 L176.91165,42.4454627 C176.867296,42.1794858 176.77217,41.9882443 176.626268,41.8717323 C176.480366,41.7552203 176.261516,41.6969651 175.969713,41.6969651 C175.668571,41.6969651 175.432797,41.7593393 175.262384,41.8840895 C175.152665,41.964118 175.097807,42.0712133 175.097807,42.2053786 C175.097807,42.3277751 175.149164,42.4325166 175.251879,42.5196064 C175.382607,42.6302339 175.700085,42.7455673 176.204322,42.86561 C176.708559,42.9856526 177.081478,43.1098126 177.323092,43.2380934 C177.564705,43.3663743 177.753791,43.5417282 177.890356,43.7641602 C178.02692,43.9865922 178.095201,44.2613916 178.095201,44.5885667 C178.095201,44.8851427 178.013497,45.1628843 177.850087,45.4217999 C177.686677,45.6807154 177.455572,45.8731339 177.156764,45.999061 C176.857957,46.1249881 176.485621,46.1879507 176.039745,46.1879507 C175.390773,46.1879507 174.89238,46.0367228 174.54455,45.7342623 C174.19672,45.4318019 173.988959,44.9910636 173.92126,44.4120343 Z M178.704484,44.4120343 L179.712953,44.3131761 C179.773648,44.6544739 179.896788,44.9051474 180.082375,45.0652043 C180.267962,45.2252612 180.518326,45.3052885 180.833474,45.3052885 C181.167298,45.3052885 181.418829,45.2340878 181.588075,45.0916842 C181.757321,44.9492806 181.841943,44.7827534 181.841943,44.5920974 C181.841943,44.4697009 181.806343,44.3655478 181.735143,44.2796349 C181.663943,44.193722 181.539637,44.1189907 181.36222,44.0554387 C181.240829,44.0130707 180.964204,43.9377509 180.532334,43.8294772 C179.97674,43.6906043 179.586895,43.5199579 179.36279,43.3175331 C179.047642,43.0327259 178.89007,42.6855489 178.89007,42.2759916 C178.89007,42.0123685 178.964187,41.7658139 179.112424,41.5363206 C179.26066,41.3068273 179.474257,41.1320619 179.753222,41.0120192 C180.032186,40.8919766 180.368923,40.8319561 180.763441,40.8319561 C181.407744,40.8319561 181.892715,40.9743576 182.218368,41.2591647 C182.544021,41.5439718 182.715015,41.9241012 182.731356,42.3995643 L181.694874,42.4454627 C181.65052,42.1794858 181.555394,41.9882443 181.409492,41.8717323 C181.26359,41.7552203 181.04474,41.6969651 180.752937,41.6969651 C180.451795,41.6969651 180.216021,41.7593393 180.045608,41.8840895 C179.935889,41.964118 179.881031,42.0712133 179.881031,42.2053786 C179.881031,42.3277751 179.932388,42.4325166 180.035103,42.5196064 C180.165831,42.6302339 180.483309,42.7455673 180.987546,42.86561 C181.491783,42.9856526 181.864702,43.1098126 182.106316,43.2380934 C182.347929,43.3663743 182.537015,43.5417282 182.67358,43.7641602 C182.810144,43.9865922 182.878425,44.2613916 182.878425,44.5885667 C182.878425,44.8851427 182.796721,45.1628843 182.633311,45.4217999 C182.469901,45.6807154 182.238796,45.8731339 181.939988,45.999061 C181.641181,46.1249881 181.268845,46.1879507 180.822969,46.1879507 C180.173997,46.1879507 179.675604,46.0367228 179.327774,45.7342623 C178.979944,45.4318019 178.772183,44.9910636 178.704484,44.4120343 Z M183.75033,46.0961538 L183.75033,40.9202224 L187.5566,40.9202224 L187.5566,41.7958233 L184.786812,41.7958233 L184.786812,42.9432843 L187.36401,42.9432843 L187.36401,43.8153546 L184.786812,43.8153546 L184.786812,45.2240835 L187.654645,45.2240835 L187.654645,46.0961538 L183.75033,46.0961538 Z M188.519548,46.0961538 L188.519548,40.9202224 L190.070769,40.9202224 L191.002202,44.4508714 L191.92313,40.9202224 L193.477853,40.9202224 L193.477853,46.0961538 L192.514905,46.0961538 L192.514905,42.0217849 L191.495932,46.0961538 L190.497968,46.0961538 L189.482495,42.0217849 L189.482495,46.0961538 L188.519548,46.0961538 Z M194.510833,40.9202224 L196.562787,40.9202224 C196.968978,40.9202224 197.271866,40.937287 197.47146,40.9714168 C197.671054,41.0055465 197.849635,41.0767473 198.007209,41.185021 C198.164783,41.2932948 198.296093,41.4374615 198.401142,41.6175255 C198.506191,41.7975895 198.558715,41.999423 198.558715,42.2230319 C198.558715,42.465471 198.493936,42.6878996 198.364375,42.8903245 C198.234814,43.0927494 198.059151,43.2445658 197.83738,43.3457782 C198.150194,43.4375756 198.390636,43.5940995 198.558715,43.8153546 C198.726794,44.0366097 198.810833,44.2966982 198.810833,44.595628 C198.810833,44.8310058 198.756558,45.0599072 198.648007,45.2823392 C198.539456,45.5047712 198.391222,45.6824788 198.2033,45.8154672 C198.015378,45.9484557 197.78369,46.0302482 197.508227,46.0608474 C197.335479,46.0796776 196.91879,46.0914463 196.258146,46.0961538 L194.510833,46.0961538 L194.510833,40.9202224 Z M195.547315,41.7817007 L195.547315,42.9785907 L196.226631,42.9785907 C196.630488,42.9785907 196.881435,42.9727064 196.979481,42.9609375 C197.156898,42.9397535 197.296378,42.8779678 197.397926,42.7755784 C197.499473,42.6731891 197.550246,42.5384373 197.550246,42.3713191 C197.550246,42.2112622 197.506477,42.0812179 197.418935,41.9811824 C197.331394,41.8811468 197.201252,41.820538 197.028504,41.799354 C196.925789,41.7875851 196.630488,41.7817007 196.142592,41.7817007 L195.547315,41.7817007 Z M195.547315,43.8400691 L195.547315,45.2240835 L196.506761,45.2240835 C196.88027,45.2240835 197.117211,45.2134917 197.217592,45.1923077 C197.371664,45.1640624 197.497138,45.0952154 197.594017,44.9857647 C197.690896,44.8763141 197.739334,44.7297936 197.739334,44.5461989 C197.739334,44.3908496 197.701984,44.25904 197.627282,44.1507662 C197.552581,44.0424924 197.444615,43.9636421 197.303382,43.9142127 C197.162149,43.8647834 196.855759,43.8400691 196.384204,43.8400691 L195.547315,43.8400691 Z M199.714253,46.0961538 L199.714253,40.9625901 L200.750735,40.9625901 L200.750735,45.2240835 L203.327933,45.2240835 L203.327933,46.0961538 L199.714253,46.0961538 Z M204.066776,46.0961538 L204.066776,40.9202224 L207.873046,40.9202224 L207.873046,41.7958233 L205.103258,41.7958233 L205.103258,42.9432843 L207.680457,42.9432843 L207.680457,43.8153546 L205.103258,43.8153546 L205.103258,45.2240835 L207.971092,45.2240835 L207.971092,46.0961538 L204.066776,46.0961538 Z" id="ASSEMBLEZ-CE-QUI-VOU"></path>
            <g id="+">
                <rect id="Rectangle-8" x="19.1668064" y="0" width="9.41237632" height="46.5480769"></rect>
                <rect id="Rectangle-8-Copy" transform="translate(23.872995, 23.274038) rotate(-90.000000) translate(-23.872995, -23.274038) " x="19.1668064" y="-7.81597009e-14" width="9.41237632" height="46.5480769"></rect>
                <rect id="Rectangle-8-Copy-2" transform="translate(40.232601, 4.745192) rotate(-90.000000) translate(-40.232601, -4.745192) " x="35.5264129" y="-2.48557692" width="9.41237632" height="14.4615385"></rect>
            </g>
        </g>
    </g>
</svg>