<?xml version="1.0" encoding="utf-8"?>
<!-- Generator: Adobe Illustrator 21.1.0, SVG Export Plug-In . SVG Version: 6.00 Build 0)  -->
<svg version="1.1" id="Layer_1" xmlns="http://www.w3.org/2000/svg" xmlns:xlink="http://www.w3.org/1999/xlink" x="0px" y="0px"
	 viewBox="0 0 612 792" style="enable-background:new 0 0 612 792;" xml:space="preserve">
<style type="text/css">
	.st0{fill-rule:evenodd;clip-rule:evenodd;fill:#F47820;}
</style>
<g>
	<polygon class="st0" points="306.3,381.3 329.4,381.3 326.7,389 319.8,389 312.1,410.9 302.8,410.9 310.6,389 303.6,389 
		306.3,381.3 	"/>
	<polygon class="st0" points="332.8,381.4 341.8,381.4 331.1,410.9 322.1,410.9 332.8,381.4 	"/>
	<path class="st0" d="M370.5,381.4h17.3l-2.9,8.2h-8.1l-1.7,4.6h8.2l-1.5,4.3c-2.8,0-8.2,0-8.2,0l-1.7,4.5h8.2l-2.9,8h-17.3
		L370.5,381.4L370.5,381.4z"/>
	<polygon class="st0" points="345,381.3 368,381.3 365.3,389 358.5,389 350.7,410.9 341.5,410.9 349.2,389 342.2,389 345,381.3 	"/>
	<polygon class="st0" points="298.7,388 299.5,385.6 298.5,385.4 297.6,387.6 298.7,388 	"/>
	<polygon class="st0" points="293,408.5 293.8,406.1 292.8,405.9 292,408.1 293,408.5 	"/>
	<path class="st0" d="M238.5,386h1.3c-2.2,6.4-6.9,19.6-6.9,19.6h10l-0.3,1.1h-11.5L238.5,386L238.5,386z M234.6,381.3h12.3l-7,20
		h8.9l-3.5,9.5h-20.9C224.9,408.9,233.4,384.7,234.6,381.3L234.6,381.3z"/>
	<path class="st0" d="M264.6,390.6c4.2,0,1.6,11.1-2.5,11.1C257.9,401.7,260.6,390.6,264.6,390.6L264.6,390.6z M264.9,385.7
		c-4.6,0-8.9,4.3-9.6,10.1c-0.7,5.9,2.4,10.5,6.8,10.5c4.4,0,9-4,9.9-9.8C272.9,390.6,269.3,385.7,264.9,385.7L264.9,385.7z
		 M264.9,384.6c5.4,0,9.2,5.9,8.2,12.1c-0.9,6.3-6,10.8-11,10.8c-5.4,0-8.7-5.6-8-11.8C254.9,389.4,259.5,384.6,264.9,384.6
		L264.9,384.6z M264.4,380.2c17.4-1.5,19.2,26.9,0.7,31.5c-2.2,0.5-4.4,0.4-6.6-0.3C243.2,406,249.2,381.6,264.4,380.2L264.4,380.2z
		"/>
	<path class="st0" d="M298,387l-0.2-0.1c-2.7-0.7-5-0.2-7.4,1.6c-4.6,3.3-6.6,9.8-3.8,14.8c1.1,1.8,3.8,3.4,5.9,3.1l0.2,1.1
		c-2.6,0.3-5.8-1.4-7-3.6c-3.2-5.6-1-12.7,4-16.3c1.9-1.4,3.8-2,5.6-2.1c1.4,0,2.9,0.3,3.1,0.5L298,387L298,387z M297.7,380.2
		c2.7,0.4,4.8,1.2,6.2,2.9l-3.8,10c-1.1-1.2-2.9-1.6-4.2-1.6c-3,0-5.6,2.4-5.6,5.5c0,3,2.4,5.2,5.4,5.2c0.7,0,1.6-0.1,2.3-0.3
		c0.1-0.1,0.3-0.1,0.6-0.2h0.1c-1.2,3.1-2.3,6.5-3.5,9.6c-0.7,0.3-1.2,0.5-2.1,0.7c-0.7,0.1-1.1,0.3-1.9,0.3c-0.8,0.1-1.3,0.1-2.1,0
		c-1-0.1-1.5-0.3-2.5-0.7c-4-1.3-6.8-5.4-7.6-10.2c-0.1-0.6-0.1-0.9-0.1-1.6c-0.1-0.8-0.1-1.3,0-2.1c0-0.7,0-0.8,0.1-1.7
		c0.1-0.5,0.1-0.9,0.3-1.4c0.5-2.1,1.1-3.7,1.9-5.3c1.1-2.1,2.6-4,4.6-5.6c1.5-1.2,4.8-3.1,8.2-3.5
		C295.5,380.1,296.3,380,297.7,380.2L297.7,380.2z"/>
	<path class="st0" d="M383.4,408h0.5l0.9,1.5h0.7l-1-1.5c0.5-0.1,0.9-0.3,0.9-1c0-0.7-0.5-0.9-1.3-0.9h-1.3v3.4h0.6V408L383.4,408z
		 M383.4,407.5v-1h0.7c0.3,0,0.7,0.1,0.7,0.5c0,0.5-0.3,0.5-0.8,0.5H383.4L383.4,407.5z M387.1,407.7c0-1.9-1.4-3.1-3.1-3.1
		c-1.7,0-3.1,1.2-3.1,3.1c0,1.7,1.3,3.1,3.1,3.1C385.7,410.8,387.1,409.6,387.1,407.7L387.1,407.7z M386.5,407.7
		c0,1.5-1.1,2.5-2.4,2.5c-1.5,0-2.4-1.1-2.4-2.5c0-1.5,1.1-2.6,2.4-2.6C385.4,405.1,386.5,406.2,386.5,407.7L386.5,407.7z"/>
</g>
</svg>
