<?xml version="1.0" encoding="utf-8"?>
<!-- Generator: Adobe Illustrator 21.1.0, SVG Export Plug-In . SVG Version: 6.00 Build 0)  -->
<svg version="1.1" id="Calque_1" xmlns="http://www.w3.org/2000/svg" xmlns:xlink="http://www.w3.org/1999/xlink" x="0px" y="0px"
	 viewBox="0 0 1559 573" style="enable-background:new 0 0 1559 573;" xml:space="preserve">
<style type="text/css">
	.st0{fill:#FCFCFC;}
	.st1{fill:#030303;}
	.st2{fill:#FAF020;}
</style>
<g>
	<path class="st0" d="M781.1,574c-258.5,0-516.9,0-775.4,0.1c-4.2,0-4.8-1-4.8-4.9C1,381.4,1,193.6,0.9,5.7c0-4.1,0.8-4.9,4.9-4.9
		C522.5,1,1039.3,1,1556.1,0.9c4.4,0,5,1.2,5,5.2c-0.1,187.8-0.1,375.6,0,563.4c0,3.8-0.9,4.6-4.6,4.6
		C1298,574,1039.6,574,781.1,574z M519.1,372.1c-0.6-0.9-1.3-1.8-2-2.7c-8.9-12.6-17.9-25.2-26.8-37.9
		C418.9,231.1,347.6,130.8,276.3,30.4c-2.9-4.2-4-3.5-6.5,0.1c-31.4,43.4-62.9,86.8-94.3,130.1C127.3,226.9,79,293.3,30.8,359.6
		c-4,5.5-4,5.5,1.5,9.4c79.6,56.6,159.2,113.2,238.7,170c3.6,2.6,5.7,2.5,9.3,0c49.7-34.8,99.6-69.4,149.4-104
		c28.7-19.9,57.4-39.9,86.1-59.9C516.9,374.3,518.5,373.9,519.1,372.1z M1479.1,307.4c0.1-14.6-1.6-28.9-5-43
		c-13.1-54.4-66-108.2-134-106.7c-57.3,1.2-110.7,38.2-129.9,92.6c-9,25.6-11,51.9-8.3,78.8c3.4,32.9,15,62.2,37.8,86.7
		c34.3,36.9,77,49.1,125.7,40.9c31.8-5.3,57.3-22.4,78.1-46.8C1468.6,380.4,1478.9,345.6,1479.1,307.4z M584.8,308.9
		c0,31.5,0,63,0,94.5c0,5.7-0.3,11.3-0.9,17c-1.4,14.5-8.9,22.1-23.3,24.1c-4.3,0.6-8.7,0.6-13,0.4c-3.3-0.2-3.7,1.1-3.7,4
		c0,2.8,0.3,4.1,3.7,4.1c38.3-0.1,76.6-0.1,115,0c3.7,0,3.4-1.8,3.5-4.3c0-2.4,0-4-3.3-3.9c-5.5,0.3-11,0.3-16.4-0.7
		c-11.1-2.2-17.2-8.2-19.5-19.2c-1.1-5.1-1.6-10.2-1.6-15.4c-0.1-29.3,0-58.6-0.3-88c0-4.1,1.6-3.7,4.4-3.2c14.7,3,29.5,5.1,44.6,5
		c19.1-0.2,37.3-3.6,53.8-14c41.1-25.9,49.7-101-7.9-132.2c-18.4-10-38.6-12.5-59-12.8c-37.8-0.6-75.6-0.2-113.5-0.4
		c-3.7,0-3.4,1.9-3.4,4.3c0,2.4-0.1,4.2,3.3,3.9c4-0.3,8-0.2,12,0.1c14,1,21.5,7.7,24.1,21.3c1.2,6.4,1.5,12.9,1.5,19.4
		C584.8,244.9,584.8,276.9,584.8,308.9z M1169.7,235.7C1169.7,235.7,1169.7,235.7,1169.7,235.7c-1.5-24.3-3.3-48.5-4.5-72.8
		c-0.2-4.8-2-5.1-5.8-5.1c-3.4,0-3.1,2.4-3.7,4.3c-5.1,15.1-13.2,18.6-27.3,11.8c-0.7-0.4-1.5-0.8-2.2-1.2
		c-65.5-33.3-147-8.6-183.2,55.4c-20.1,35.6-26,73.8-19.7,113.8c5.5,34.4,21,63.6,47.3,86.6c22.6,19.8,49.6,28.6,79.1,30.2
		c25.2,1.4,49.5-2.1,72-14.4c23.9-13.1,40.2-33.3,53.7-56.3c2.4-4-0.1-4.6-2.2-6.3c-2.7-2.3-3.5-0.2-4.8,1.6c-2.1,3-4.3,5.9-6.6,8.8
		c-10.3,12.9-21,25.5-35.1,34.4c-17.8,11.3-37.6,14.7-58.4,13.4c-39.9-2.6-69.4-20.9-86.3-57.8c-8.3-18.1-11.7-37.4-12.6-57.2
		c-1.3-31,1.2-61.5,12.6-90.8c21.1-54,69.1-68.4,111.9-58.1c27.2,6.5,45.7,24,58.1,48.7c4.6,9.1,8.3,18.5,11.1,28.3
		c1,3.6,3.5,2.9,5.8,2.8c3.3-0.1,1.7-2.7,1.7-4.1C1170.5,246.4,1170.1,241,1169.7,235.7z M860.4,309.9c0-32,0-64,0-96
		c0-7,0.5-14,1.5-20.9c1.5-10.4,7.6-16.6,17.4-19.6c5.9-1.8,11.9-1.5,17.9-1.3c3.4,0.1,4-1,4.1-4.1c0-3.3-0.9-4.1-4.1-4.1
		c-37.8,0.1-75.6,0.1-113.5,0c-2.8,0-4.5,0.1-4.5,3.9c0.1,3.7,1.3,4.5,4.6,4.3c8.6-0.6,16.9,0.4,24.6,4.7c6.2,3.5,9.9,8.4,10.7,15.8
		c0.8,7.8,1.1,15.6,1.1,23.4c0,61.2,0,122.3,0,183.5c0,7.5-0.2,15-1.1,22.4c-1.6,12.8-8.3,20-21.1,22.2c-5.1,0.9-10.3,0.9-15.4,0.7
		c-3.4-0.2-3.3,1.6-3.3,4c0,2.3-0.2,4.1,3.2,4.1c38.5-0.1,77-0.1,115.5,0c3.6,0,3.1-1.9,3.1-4c0-2.1,0.6-4.3-3-4.1
		c-5.1,0.3-10.3,0.2-15.4-0.9c-13.8-2.8-20.5-10.2-21.5-24.1c-0.4-5.8-0.7-11.6-0.7-17.5C860.4,371.5,860.4,340.7,860.4,309.9z
		 M1467.7,191.9c-0.1,17.2,13.1,30.9,29.8,31.1c17.5,0.2,31.4-13.2,31.5-30.4c0.1-17.5-13.3-31.2-30.7-31.2
		C1481.1,161.3,1467.8,174.5,1467.7,191.9z"/>
	<path class="st1" d="M519.1,372.1c-0.6,1.8-2.2,2.2-3.3,3c-28.7,20-57.4,39.9-86.1,59.9c-49.8,34.6-99.7,69.2-149.4,104
		c-3.5,2.5-5.6,2.6-9.3,0c-79.5-56.8-159.1-113.3-238.7-170c-5.5-3.9-5.5-3.9-1.5-9.4c48.2-66.4,96.5-132.7,144.7-199.1
		c31.5-43.3,63-86.7,94.3-130.1c2.6-3.6,3.6-4.2,6.5-0.1c71.2,100.4,142.6,200.7,213.9,301.1c9,12.6,17.9,25.2,26.8,37.9
		C517.8,370.3,518.5,371.2,519.1,372.1z M477.7,367.7c-0.5-0.7-1-1.4-1.4-2.1c-2.8-4.5-5.8-9-8.9-13.1c-13.5-17.7-26-36-38.9-54.1
		c-41.9-58.8-83.7-117.7-125.5-176.5c-12.7-17.8-25.4-35.7-38.1-53.5c-3.5-4.9-3.8-4.9-7.3-0.1c-39.7,54.6-79.3,109.1-119,163.7
		c-18.4,25.3-36.8,50.6-55.2,76c-12.2,16.8-24.4,33.7-36.7,50.5c-1.9,2.6-1.9,4.1,1,5.7c1.2,0.6,2.2,1.6,3.2,2.3
		c50.9,36.2,101.8,72.3,152.6,108.5c18.9,13.4,37.7,26.9,56.5,40.2c1.4,1,3.1,3.4,5.1,1c2.5-3.1,6.2-4.1,9.3-6.3
		c38.5-26.9,77-53.6,115.6-80.4c28.1-19.6,56.3-39.1,84.4-58.7C475.6,369.8,477.2,369.3,477.7,367.7z"/>
	<path class="st1" d="M1479.1,307.4c-0.1,38.2-10.5,73-35.6,102.4c-20.7,24.3-46.2,41.4-78.1,46.8c-48.8,8.2-91.4-4-125.7-40.9
		c-22.8-24.5-34.4-53.8-37.8-86.7c-2.8-26.9-0.8-53.2,8.3-78.8c19.2-54.4,72.7-91.4,129.9-92.6c68-1.5,120.9,52.3,134,106.7
		C1477.4,278.5,1479.1,292.9,1479.1,307.4z M1431,312.2c-0.3-26.8-2.4-52.6-11.2-77.4c-12.1-34-33.5-57.7-71.7-61.2
		c-24.6-2.3-46.5,3.5-64.4,21.5c-15.1,15.2-23.6,34.1-28.6,54.5c-7.1,29-7.6,58.4-4.5,87.9c2.6,25.2,9.1,49.4,23.4,70.8
		c12.7,19.1,29.9,31.7,53,34.6c42,5.3,78.8-17.8,93.1-57.7C1428.5,361.3,1430.7,336.5,1431,312.2z"/>
	<path class="st1" d="M584.8,308.9c0-32,0-64,0-96c0-6.5-0.3-13-1.5-19.4c-2.6-13.6-10.1-20.3-24.1-21.3c-4-0.3-8-0.4-12-0.1
		c-3.4,0.2-3.3-1.5-3.3-3.9c0-2.4-0.3-4.3,3.4-4.3c37.8,0.2,75.6-0.3,113.5,0.4c20.3,0.3,40.6,2.8,59,12.8
		c57.6,31.3,48.9,106.3,7.9,132.2c-16.5,10.4-34.7,13.9-53.8,14c-15.1,0.2-29.9-2-44.6-5c-2.8-0.6-4.4-0.9-4.4,3.2
		c0.2,29.3,0.2,58.6,0.3,88c0,5.2,0.6,10.3,1.6,15.4c2.3,10.9,8.5,17,19.5,19.2c5.5,1.1,11,1,16.4,0.7c3.3-0.2,3.3,1.5,3.3,3.9
		c0,2.5,0.2,4.3-3.5,4.3c-38.3-0.2-76.6-0.2-115,0c-3.4,0-3.7-1.3-3.7-4.1c0-2.9,0.4-4.2,3.7-4c4.3,0.3,8.6,0.2,13-0.4
		c14.4-2,21.9-9.6,23.3-24.1c0.6-5.6,0.9-11.3,0.9-17C584.9,371.9,584.8,340.4,584.8,308.9z M625,245.5c0,18.7,0.1,37.3-0.1,56
		c0,3,0.7,4.2,3.9,4.8c7.9,1.4,15.8,2.6,23.7,3.3c23.5,2.1,40.7-8.2,51.9-28.3c9.8-17.7,9.8-36.7,4.8-55.8
		c-5.5-20.8-17.6-35.9-39-42.2c-14.6-4.2-29-2.1-43.4,1.3c-2.8,0.7-1.8,2.9-1.8,4.4C625,207.9,625,226.7,625,245.5z"/>
	<path class="st1" d="M1169.7,235.7c0.4,5.3,0.8,10.6,1,15.9c0,1.4,1.6,4-1.7,4.1c-2.3,0.1-4.8,0.9-5.8-2.8
		c-2.8-9.8-6.6-19.2-11.1-28.3c-12.3-24.6-30.8-42.2-58.1-48.7c-42.8-10.2-90.8,4.1-111.9,58.1c-11.4,29.3-13.9,59.8-12.6,90.8
		c0.8,19.8,4.3,39.1,12.6,57.2c16.9,36.9,46.5,55.2,86.3,57.8c20.7,1.4,40.5-2.1,58.4-13.4c14.1-8.9,24.8-21.5,35.1-34.4
		c2.3-2.9,4.5-5.8,6.6-8.8c1.3-1.8,2.1-4,4.8-1.6c2,1.7,4.5,2.3,2.2,6.3c-13.6,23-29.8,43.3-53.7,56.3c-22.5,12.3-46.8,15.7-72,14.4
		c-29.6-1.6-56.5-10.4-79.1-30.2c-26.3-23.1-41.9-52.3-47.3-86.6c-6.4-40.1-0.5-78.2,19.7-113.8c36.2-64,117.7-88.7,183.2-55.4
		c0.7,0.4,1.5,0.8,2.2,1.2c14.2,6.8,22.3,3.3,27.3-11.8c0.6-1.9,0.3-4.2,3.7-4.3c3.8,0,5.6,0.3,5.8,5.1
		C1166.4,187.2,1168.2,211.5,1169.7,235.7C1169.7,235.7,1169.7,235.7,1169.7,235.7z"/>
	<path class="st1" d="M860.4,309.9c0,30.8,0,61.7,0,92.5c0,5.8,0.3,11.7,0.7,17.5c1,14,7.7,21.3,21.5,24.1c5.1,1,10.3,1.2,15.4,0.9
		c3.6-0.2,3,1.9,3,4.1c0,2.2,0.4,4-3.1,4c-38.5-0.1-77-0.1-115.5,0c-3.4,0-3.2-1.8-3.2-4.1c0-2.4-0.1-4.2,3.3-4
		c5.1,0.2,10.3,0.2,15.4-0.7c12.8-2.2,19.5-9.4,21.1-22.2c0.9-7.5,1.1-14.9,1.1-22.4c0-61.2,0-122.3,0-183.5
		c0-7.8-0.3-15.6-1.1-23.4c-0.8-7.4-4.5-12.3-10.7-15.8c-7.7-4.3-16-5.3-24.6-4.7c-3.3,0.2-4.5-0.6-4.6-4.3
		c-0.1-3.8,1.6-3.9,4.5-3.9c37.8,0.1,75.6,0.1,113.5,0c3.2,0,4.2,0.8,4.1,4.1c0,3.1-0.7,4.3-4.1,4.1c-6-0.3-12-0.5-17.9,1.3
		c-9.8,3-15.9,9.2-17.4,19.6c-1,6.9-1.5,13.9-1.5,20.9C860.4,245.9,860.4,277.9,860.4,309.9z"/>
	<path class="st1" d="M1467.7,191.9c0.1-17.4,13.4-30.7,30.7-30.6c17.3,0.1,30.8,13.8,30.7,31.2c-0.1,17.2-14,30.6-31.5,30.4
		C1480.8,222.8,1467.6,209.1,1467.7,191.9z M1498.2,220c15.3,0,27.9-12.2,28-27.3c0.1-15.9-12.1-28.5-27.8-28.6
		c-15.4,0-28,12.4-28.1,27.8C1470.1,207.4,1482.7,220,1498.2,220z"/>
	<path class="st2" d="M477.7,367.7c-0.5,1.6-2.1,2.1-3.3,2.9c-28.1,19.6-56.3,39.2-84.4,58.7c-38.5,26.8-77.1,53.5-115.6,80.4
		c-3.1,2.1-6.8,3.2-9.3,6.3c-1.9,2.4-3.6,0-5.1-1c-18.9-13.4-37.7-26.8-56.5-40.2c-50.9-36.2-101.8-72.3-152.6-108.5
		c-1.1-0.8-2.1-1.7-3.2-2.3c-2.9-1.5-2.9-3-1-5.7c12.3-16.7,24.5-33.6,36.7-50.5c18.4-25.3,36.8-50.6,55.2-76
		c39.7-54.6,79.3-109.1,119-163.7c3.5-4.8,3.8-4.8,7.3,0.1c12.7,17.8,25.4,35.6,38.1,53.5c41.8,58.8,83.6,117.8,125.5,176.5
		c12.9,18.1,25.4,36.5,38.9,54.1c3.2,4.1,6.1,8.6,8.9,13.1C476.7,366.3,477.2,367,477.7,367.7z M254,293.7
		c-24.2,4.2-42.2,16.1-51.7,39c-6.2,14.8-7,30.4-4.4,46.1c4.2,25.6,19,42.4,43.8,49.8c17,5.1,34.3,4.6,51.2-0.7
		c17.1-5.4,29-16.4,32.4-34.5c5-26.5-4.6-49.6-33.6-52.9c-27.9-3.2-46.7,11.6-47.8,40.3c-0.4,10,3.2,18.9,9.5,26.8
		c-2.4,0.6-4-0.5-5.7-1.1c-24.5-9.1-38.2-42-30.1-69c6.2-20.8,21-33.3,40.4-41.4c1.5-0.6,3.5-0.6,4.4-2.7c-2.4-0.9-4.5-1.8-6.7-2.7
		c-30.5-12.5-46.3-41.4-38.6-71.3c4.4-17.1,13.3-30.8,30.4-37.8c1.4-0.6,3.1-1.6,4.2-0.3c1,1.2-0.7,2.3-1.4,3.3
		c-13.8,20.5-5.9,59.2,27.5,62.8c16.6,1.8,31.7-1.1,42-15.8c6.7-9.7,7.4-20.8,6.2-32.1c-1.5-15.3-8.7-27.2-22.3-34.5
		c-18.9-10.2-39.1-11.1-59.6-6.2c-21.3,5.1-36,18-43.3,38.8c-5.2,14.8-5.6,30.1-2.3,45.3c5.9,26.5,21.9,43.5,48.9,49.2
		C249.6,292.7,251.8,293.2,254,293.7z M316.2,295.7c0-10.3-8.2-18.5-18.3-18.4c-10.2,0-18.4,8.3-18.3,18.6
		c0.1,10.4,8.2,18.4,18.4,18.4C308.3,314.1,316.2,306.1,316.2,295.7z"/>
	<path class="st0" d="M1431,312.2c-0.3,24.4-2.4,49.1-11,73c-14.3,39.9-51.1,63-93.1,57.7c-23.1-2.9-40.3-15.5-53-34.6
		c-14.3-21.5-20.7-45.6-23.4-70.8c-3.1-29.5-2.6-58.9,4.5-87.9c5-20.5,13.5-39.3,28.6-54.5c17.9-18,39.8-23.8,64.4-21.5
		c38.2,3.6,59.5,27.2,71.7,61.2C1428.6,259.6,1430.6,285.4,1431,312.2z"/>
	<path class="st0" d="M625,245.5c0-18.8,0-37.6,0.1-56.5c0-1.6-1-3.7,1.8-4.4c14.4-3.4,28.8-5.5,43.4-1.3
		c21.4,6.2,33.5,21.3,39,42.2c5,19.1,5,38.1-4.8,55.8c-11.2,20.1-28.4,30.4-51.9,28.3c-7.9-0.7-15.8-2-23.7-3.3
		c-3.3-0.6-4-1.7-3.9-4.8C625.1,282.8,625,264.2,625,245.5z"/>
	<path class="st0" d="M1498.2,220c-15.5,0-28-12.6-27.9-28c0.1-15.4,12.7-27.9,28.1-27.8c15.7,0,27.9,12.6,27.8,28.6
		C1526,207.8,1513.5,220,1498.2,220z M1501.4,192.8c1.5-0.7,2.5-1.1,3.5-1.6c4.3-1.9,6.4-5.3,5.8-10c-0.6-4.5-3.6-7.6-7.8-8
		c-7.1-0.6-14.3-0.2-21.5-0.2c4,1.9,3.9,5.1,3.8,8.6c-0.2,6,0,12-0.1,18c0,4.2,1.5,9-5.8,10.9c6.8,1.2,13.7,1.1,18-0.6
		c-7,0-5.7-4.5-5.8-8.3c0-1.5-0.1-3,0.1-4.5c0.1-1.4-0.9-3.2,1.1-3.9c2.1-0.7,2.9,1.2,3.8,2.5c2.8,3.9,5.6,7.9,8.4,11.8
		c3.2,4.5,4.8,4.9,10.3,2.7C1509.1,205.8,1506.1,198.9,1501.4,192.8z"/>
	<path class="st1" d="M254,293.7c-2.2-0.5-4.3-1-6.5-1.4c-27-5.7-43-22.6-48.9-49.2c-3.4-15.2-2.9-30.5,2.3-45.3
		c7.3-20.8,22.1-33.7,43.3-38.8c20.5-4.9,40.7-4,59.6,6.2c13.6,7.3,20.8,19.3,22.3,34.5c1.1,11.3,0.5,22.5-6.2,32.1
		c-10.3,14.8-25.4,17.7-42,15.8c-33.4-3.6-41.3-42.4-27.5-62.8c0.7-1,2.4-2.1,1.4-3.3c-1.1-1.3-2.8-0.3-4.2,0.3
		c-17.1,7-26,20.7-30.4,37.8c-7.7,29.9,8.1,58.8,38.6,71.3c2.1,0.9,4.3,1.7,6.7,2.7c-0.9,2-2.9,2-4.4,2.7
		c-19.4,8-34.1,20.6-40.4,41.4c-8.1,27,5.6,59.9,30.1,69c1.7,0.6,3.3,1.7,5.7,1.1c-6.3-7.9-9.9-16.8-9.5-26.8
		c1.1-28.7,19.9-43.5,47.8-40.3c29.1,3.3,38.6,26.4,33.6,52.9c-3.4,18.2-15.3,29.1-32.4,34.5c-16.9,5.4-34.2,5.8-51.2,0.7
		c-24.8-7.4-39.6-24.2-43.8-49.8c-2.6-15.7-1.8-31.3,4.4-46.1C211.8,309.8,229.7,297.9,254,293.7z M270,382.4
		c-0.1,10.1,8.1,18.5,18.2,18.6c10.1,0.1,18.4-8.1,18.6-18.3c0.2-10-8.1-18.5-18.1-18.7C278.7,363.7,270.4,372.2,270,382.4z
		 M270,204.3c0.1,10,8.5,18.3,18.5,18.3c9.8,0,18.4-8.7,18.3-18.6c-0.1-10-8.6-18.6-18.3-18.6C278.4,185.4,269.9,194,270,204.3z"/>
	<path class="st1" d="M316.2,295.7c0,10.4-7.9,18.4-18.2,18.5c-10.2,0.1-18.3-8-18.4-18.4c-0.1-10.2,8.1-18.5,18.3-18.6
		C308,277.2,316.2,285.5,316.2,295.7z"/>
	<path class="st1" d="M1501.4,192.8c4.7,6.1,7.7,13,13.9,17.6c-5.4,2.2-7.1,1.7-10.3-2.7c-2.8-3.9-5.6-7.9-8.4-11.8
		c-0.9-1.3-1.7-3.2-3.8-2.5c-2,0.6-1,2.5-1.1,3.9c-0.1,1.5-0.1,3-0.1,4.5c0.1,3.7-1.3,8.3,5.8,8.3c-4.4,1.7-11.2,1.8-18,0.6
		c7.3-1.8,5.8-6.7,5.8-10.9c0.1-6-0.1-12,0.1-18c0.1-3.4,0.1-6.6-3.8-8.6c7.2,0,14.4-0.4,21.5,0.2c4.2,0.3,7.2,3.5,7.8,8
		c0.6,4.7-1.4,8.1-5.8,10C1503.9,191.7,1502.9,192.1,1501.4,192.8z M1494.9,174.1c-1.8-0.1-3.4,0.5-3.2,3.3c0.2,3.6,0.1,7.3,0,10.9
		c0,1.4,0.1,2.4,2,2.7c4.8,0.6,9.9-3.2,10.2-7.9C1504.1,178.2,1500.2,174.1,1494.9,174.1z"/>
	<path class="st2" d="M270,382.4c0.4-10.1,8.6-18.6,18.7-18.4c10.1,0.3,18.4,8.8,18.1,18.7c-0.2,10.2-8.6,18.4-18.6,18.3
		C278.1,400.9,269.9,392.5,270,382.4z"/>
	<path class="st2" d="M270,204.3c-0.1-10.2,8.4-18.9,18.5-18.9c9.8,0,18.2,8.6,18.3,18.6c0.1,9.9-8.5,18.6-18.3,18.6
		C278.5,222.6,270.1,214.3,270,204.3z"/>
	<path class="st0" d="M1494.9,174.1c5.3,0,9.2,4.1,9,9c-0.2,4.7-5.4,8.5-10.2,7.9c-1.9-0.2-2-1.3-2-2.7c0-3.6,0.1-7.3,0-10.9
		C1491.5,174.6,1493,174,1494.9,174.1z"/>
</g>
</svg>
