<?xml version="1.0" encoding="UTF-8"?>
<svg width="158px" height="56px" viewBox="0 0 158 56" version="1.1" xmlns="http://www.w3.org/2000/svg" xmlns:xlink="http://www.w3.org/1999/xlink">
    <!-- Generator: Sketch 41.2 (35397) - http://www.bohemiancoding.com/sketch -->
    <title>sae copy</title>
    <desc>Created with Sketch.</desc>
    <defs>
        <polygon id="path-1" points="54.018 24.1050036 54.018 0.234518813 0.9363 0.234518813 0.9363 24.1050036 54.018 24.1050036"></polygon>
    </defs>
    <g id="wireframe" stroke="none" stroke-width="1" fill="none" fill-rule="evenodd">
        <g id="sae-copy" transform="translate(0.000000, -0.823444)">
            <polygon id="Fill-1" fill="#000000" points="81.8045 15.8398546 82.7245 25.806652 98.0935 25.806652 93.9975 1.93616715 74.6885 1.93616715 60.0125 25.806652 76.5375 25.806652"></polygon>
            <g id="Group-9" transform="translate(0.000000, 0.692461)">
                <path d="M42.4241,23.957635 C39.6291,22.5656524 36.0731,21.1777045 31.7531,19.5527161 C28.1991,18.3947479 25.9121,17.4677682 25.1501,16.5387711 C24.1341,15.8437884 23.6271,15.1477971 23.6271,14.221826 C23.6271,13.0618405 24.1341,12.1368781 25.4021,11.2098984 C26.6741,10.5139071 28.1991,10.0489042 30.2301,10.0489042 C35.5631,10.0489042 38.3591,12.3698839 38.8691,17.0027653 L55.6361,16.0778029 C54.6181,5.64902865 46.2331,0.317129957 30.4831,0.317129957 C25.4021,0.317129957 21.3391,1.01110391 17.7821,2.40006049 C13.9711,3.79708654 11.4321,5.88001708 9.3991,8.42795051 C7.6231,10.9809274 6.6041,13.7568232 6.6041,16.7717768 C6.6041,19.9198767 7.8021,22.6291994 9.9631,25.1135858 L44.4701,25.1135858 C43.8261,24.7030518 43.1411,24.3137001 42.4241,23.957635" id="Fill-2" fill="#000000"></path>
                <path d="M100.992,42.0065055 L98.888,29.7530236 L83.151,29.7530236 L83.58,34.3859049 L71.639,34.3859049 L74.089,29.7530236 L57.162,29.7530236 L51.789,38.4892276 C51.809,38.2057877 51.827,37.9203304 51.827,37.6298297 C51.827,34.3828789 50.929,31.9459006 49.362,29.7530236 L17.587,29.7530236 C20.011,30.7949932 22.944,31.8783188 26.419,32.994931 C29.978,34.3859049 32.519,35.3108673 33.278,36.2418818 C34.293,37.1678528 34.803,38.0928152 34.803,39.2528007 C34.803,40.6407486 34.041,42.0317226 32.519,43.1927168 C30.993,44.3527023 28.96,44.8126618 25.912,44.8126618 C23.117,44.8126618 21.084,44.1227226 19.308,42.7317486 C17.782,41.339766 17.021,39.0197949 17.021,35.7768789 L0,36.7028499 L0,38.0928152 C0,43.1927168 2.029,47.3636213 5.842,50.6085547 C9.651,53.8544968 16.257,55.4774679 25.402,55.4774679 C32.008,55.4774679 37.089,54.5504881 40.647,52.69552 C41.993,52.081232 43.231,51.3670844 44.359,50.5803116 L41.915,54.5504881 L61.226,54.5504881 L65.799,45.7426676 L84.85,45.7426676 L85.613,54.5504881 L147.859,54.5504881 L150.906,42.4957168 L118.896,42.4957168 L121.432,33.4589252 L149.635,33.4589252 L150.4,29.7530236 L103.852,29.7530236 L100.992,42.0065055 Z" id="Fill-4" fill="#000000"></path>
                <g id="Group-8" transform="translate(104.000000, 1.008683)">
                    <mask id="mask-2" fill="white">
                        <use xlink:href="#path-1"></use>
                    </mask>
                    <g id="Clip-7"></g>
                    <polygon id="Fill-6" fill="#000000" mask="url(#mask-2)" points="51.4793 11.5943075 54.0183 0.234518813 6.5103 0.234518813 0.9363 24.1050036 47.3603 24.1050036 48.1733 20.1691223 19.7243 20.1691223 21.7523 11.5943075"></polygon>
                </g>
            </g>
        </g>
    </g>
</svg>