<?xml version="1.0" encoding="UTF-8"?>
<svg width="212px" height="85px" viewBox="0 0 212 85" version="1.1" xmlns="http://www.w3.org/2000/svg" xmlns:xlink="http://www.w3.org/1999/xlink">
    <!-- Generator: Sketch 41.2 (35397) - http://www.bohemiancoding.com/sketch -->
    <title>sandvik copy</title>
    <desc>Created with Sketch.</desc>
    <defs>
        <polygon id="path-1" points="0 84.1791869 211.295663 84.1791869 211.295663 0.423234245 0 0.423234245"></polygon>
    </defs>
    <g id="wireframe" stroke="none" stroke-width="1" fill="none" fill-rule="evenodd">
        <g id="sandvik-copy" transform="translate(0.000000, 0.176556)">
            <polygon id="Fill-1" fill="#FFF200" points="0 84.5353896 211.294886 84.5353896 211.294886 0.780216353 0 0.780216353"></polygon>
            <g id="Group-21" transform="translate(0.000000, 0.356203)">
                <path d="M35.1627238,11.0142231 C36.0479985,12.7601618 36.0479985,14.9410262 36.1287604,17.0361527 L29.2849656,17.0361527 C29.2849656,15.290214 28.8819326,13.7196486 27.7551487,12.4101946 C25.7353245,9.63384028 22.3596322,10.0547362 19.4607458,10.3158476 C18.0124674,10.6650353 16.3956762,11.5380047 15.668819,13.0204937 C15.02583,14.0688363 15.02583,15.6401812 15.3481011,16.7742619 C16.9004381,20.843702 22.1942256,20.0182783 26.8108557,20.6379307 C29.0333612,20.9356756 33.4053758,21.7119947 35.5657568,25.5008376 C36.8532879,28.7300447 36.8532879,33.7044111 34.9212147,36.6725069 C29.4255223,43.8737246 18.2928044,42.0724459 14.5498007,40.3366399 C10.805244,38.6016133 8.75202784,35.1011621 8.34899487,31.3505116 C8.26900952,30.4767629 8.26900952,29.5164966 8.26900952,28.5562303 L15.1019326,28.5562303 C15.1019326,30.3879071 15.353537,32.2242604 16.3203502,33.5305967 C17.9317055,35.6249437 20.8290388,36.6725069 23.7287018,36.4963542 C25.9822696,36.3233192 28.3189289,35.6249437 29.3649509,33.1798501 C29.8479692,31.6981405 29.7571121,29.9701289 29.1032513,28.591305 C28.4478374,27.207025 26.1437934,26.4611039 24.3724674,26.2872894 C18.8969656,25.2397262 11.8116615,26.6349183 9.07352234,20.090766 C7.78599121,16.722819 8.00963956,12.237939 9.55731722,9.96743928 C13.8097421,3.72492902 25.7353245,4.17856131 30.5724967,6.4755619 C33.1397934,7.69538067 34.3566579,9.007173 35.1627238,11.0142231 Z" id="Fill-2" fill="#ED1C24"></path>
                <polygon id="Fill-4" fill="#ED1C24" points="137.391764 5.92582504 146.121815 33.88033 154.858856 5.92582504 161.541127 5.92582504 150.760966 41.214052 141.339002 41.2109342 130.630284 5.92582504"></polygon>
                <mask id="mask-2" fill="white">
                    <use xlink:href="#path-1"></use>
                </mask>
                <g id="Clip-7"></g>
                <polygon id="Fill-6" fill="#ED1C24" mask="url(#mask-2)" points="163.823194 41.2103886 170.42781 41.2103886 170.42781 5.92527944 163.823194 5.92527944"></polygon>
                <polygon id="Fill-8" fill="#ED1C24" mask="url(#mask-2)" points="182.834391 5.92582504 182.861571 19.3913772 195.558274 5.95154646 204.494889 5.95154646 188.953659 22.884034 205.731944 41.2109342 196.602743 41.2070371 182.855358 26.4881503 182.834391 41.2109342 175.990596 41.2109342 175.990596 5.92582504"></polygon>
                <path d="M80.1256718,5.95170235 C83.9106095,14.2433523 87.4532615,22.5342227 91.3189612,30.8250932 L91.3150784,5.92208375 L97.7597231,5.95170235 L97.7597231,41.2103107 L89.5460821,41.2103107 L76.5830198,13.8941645 L76.55817,41.2103107 L70.0607194,41.2103107 L70.0607194,5.95170235 L80.1256718,5.95170235 Z" id="Fill-9" fill="#ED1C24" mask="url(#mask-2)"></path>
                <path d="M110.559631,12.2366919 L110.559631,35.3625852 C110.559631,35.3625852 116.208305,35.3898655 116.208305,35.3976599 C118.732114,35.3976599 121.095953,34.98222 122.799719,32.5722011 C125.295572,28.2081338 124.892539,21.224379 123.362722,16.5119034 C122.111689,12.8251668 119.244642,12.2374714 116.152393,12.2164266 C116.208305,12.2078528 110.559631,12.2366919 110.559631,12.2366919 L110.559631,12.2366919 Z M116.207528,5.93650333 C121.016744,5.93572389 125.418268,7.10176152 128.515953,12.0613186 C132.139367,18.6070298 132.058605,28.9041709 128.595938,35.5371791 C125.725008,40.3743646 121.240393,41.2068032 116.208305,41.1943322 C116.208305,41.2068032 103.957345,41.2107004 103.957345,41.2107004 L103.957345,5.95209207 L116.207528,5.93650333 Z" id="Fill-10" fill="#ED1C24" mask="url(#mask-2)"></path>
                <path d="M56.7667663,26.8975885 L52.208378,12.5855679 L47.6608615,26.8975885 L56.7667663,26.8975885 Z M68.3118359,41.2142858 L61.3274842,41.2103886 L58.7516454,33.0933326 L45.7078212,33.0933326 L43.1273231,41.218183 L36.1856821,41.2142858 L47.3246125,5.92216169 L57.200085,5.92216169 L68.3118359,41.2142858 Z" id="Fill-11" fill="#ED1C24" mask="url(#mask-2)"></path>
                <polygon id="Fill-12" fill="#ED1C24" mask="url(#mask-2)" points="5.60829304 78.1268593 205.703678 78.1268593 205.703678 45.3133446 5.60829304 45.3133446"></polygon>
                <path d="M61.1815692,57.1814408 C60.6364264,54.1954179 58.4271223,52.6895458 55.7262579,52.6895458 C51.0894374,52.6895458 49.1255253,56.8299147 49.1255253,61.2337333 C49.1255253,66.0522123 51.0894374,70.070989 55.7542139,70.070989 C59.1632982,70.070989 61.1272103,67.4700081 61.3726022,63.9820279 L63.9639722,63.9820279 C63.4731883,69.2447859 60.4453934,72.4365801 55.5352249,72.4365801 C49.4804117,72.4365801 46.5349319,67.5884825 46.5349319,61.4410635 C46.5349319,55.3217043 49.7529832,50.3247342 55.7542139,50.3247342 C59.8179355,50.3247342 63.1718842,52.6895458 63.7721626,57.1814408 L61.1815692,57.1814408 Z" id="Fill-13" fill="#FEFEFE" mask="url(#mask-2)"></path>
                <path d="M72.8883179,70.071067 C75.316611,70.071067 77.2805231,68.0040003 77.2805231,64.3079104 C77.2805231,60.5845403 75.316611,58.5104587 72.8883179,58.5104587 C70.461578,58.5104587 68.4976659,60.5845403 68.4976659,64.3079104 C68.4976659,68.0040003 70.461578,70.071067 72.8883179,70.071067 M72.8883179,56.2960784 C77.3620615,56.2960784 79.735219,59.8136772 79.735219,64.3079104 C79.735219,68.7725251 77.3620615,72.288565 72.8883179,72.288565 C68.4161275,72.288565 66.04297,68.7725251 66.04297,64.3079104 C66.04297,59.8136772 68.4161275,56.2960784 72.8883179,56.2960784" id="Fill-14" fill="#FEFEFE" mask="url(#mask-2)"></path>
                <path d="M82.3866945,56.6516575 L84.568819,56.6516575 L84.568819,59.8754086 L84.623178,59.8754086 C85.7414198,57.4186234 87.296863,56.2073785 89.8059179,56.2962343 L89.8059179,58.9572319 C86.0699033,58.9572319 84.705493,61.2628063 84.705493,65.1358283 L84.705493,71.9340771 L82.3866945,71.9340771 L82.3866945,56.6516575 Z" id="Fill-15" fill="#FEFEFE" mask="url(#mask-2)"></path>
                <path d="M97.6315912,70.071067 C100.058331,70.071067 102.02302,68.0040003 102.02302,64.3079104 C102.02302,60.5845403 100.058331,58.5104587 97.6315912,58.5104587 C95.2040747,58.5104587 93.2401626,60.5845403 93.2401626,64.3079104 C93.2401626,68.0040003 95.2040747,70.071067 97.6315912,70.071067 M97.6315912,56.2960784 C102.104558,56.2960784 104.477716,59.8136772 104.477716,64.3079104 C104.477716,68.7725251 102.104558,72.288565 97.6315912,72.288565 C93.1578476,72.288565 90.7854667,68.7725251 90.7854667,64.3079104 C90.7854667,59.8136772 93.1578476,56.2960784 97.6315912,56.2960784" id="Fill-16" fill="#FEFEFE" mask="url(#mask-2)"></path>
                <path d="M107.211118,56.6516575 L109.394019,56.6516575 L109.394019,58.8972152 L109.447601,58.8972152 C110.483528,57.1816746 112.066151,56.2962343 114.002884,56.2962343 C115.721404,56.2962343 117.30325,57.034361 117.876349,58.8972152 C118.830737,57.2705304 120.494898,56.2962343 122.293404,56.2962343 C125.103763,56.2962343 126.986136,57.5682753 126.986136,60.7312303 L126.986136,71.9340771 L124.667338,71.9340771 L124.667338,61.9120772 C124.667338,60.0219427 124.203733,58.5106145 121.94007,58.5106145 C119.70281,58.5106145 118.258415,60.0531202 118.258415,62.4148141 L118.258415,71.9340771 L115.93884,71.9340771 L115.93884,61.9120772 C115.93884,59.9330869 115.366517,58.5106145 113.293887,58.5106145 C110.53944,58.5106145 109.529916,61.2628063 109.529916,62.4148141 L109.529916,71.9340771 L107.211118,71.9340771 L107.211118,56.6516575 Z" id="Fill-17" fill="#FEFEFE" mask="url(#mask-2)"></path>
                <path d="M139.210305,64.0418886 C138.307946,64.7511762 136.563023,64.7800154 135.008356,65.0777603 C133.480869,65.371608 132.172371,65.9632006 132.172371,67.8252754 C132.172371,69.4815789 133.480869,70.0708332 134.899638,70.0708332 C137.953059,70.0708332 139.210305,68.0037665 139.210305,66.6140304 L139.210305,64.0418886 Z M142.972722,71.8767885 C142.564253,72.1433559 142.045514,72.2883312 141.307008,72.2883312 C140.108781,72.2883312 139.346202,71.5790436 139.346202,69.9250785 C138.064107,71.5517633 136.345587,72.2883312 134.381675,72.2883312 C131.816708,72.2883312 129.717675,71.0490265 129.717675,68.0037665 C129.717675,64.5446254 132.090056,63.8041604 134.490393,63.302203 C137.056136,62.7698476 139.235155,62.9483386 139.235155,61.0558658 C139.235155,58.8679864 137.5741,58.5102248 136.098642,58.5102248 C134.135506,58.5102248 132.690334,59.1641724 132.58084,61.4120685 L130.263594,61.4120685 C130.399492,57.6279022 133.098803,56.2958445 136.235316,56.2958445 C138.77155,56.2958445 141.528327,56.9186146 141.528327,60.4938918 L141.528327,68.3591897 C141.528327,69.5400366 141.528327,70.0708332 142.262949,70.0708332 C142.455536,70.0708332 142.672971,70.0427734 142.972722,69.9250785 L142.972722,71.8767885 Z" id="Fill-18" fill="#FEFEFE" mask="url(#mask-2)"></path>
                <path d="M145.130075,56.6516575 L147.312976,56.6516575 L147.312976,59.0749269 L147.365782,59.0749269 C148.350456,57.1816746 149.932302,56.2962343 151.950573,56.2962343 C155.657078,56.2962343 156.805606,58.5994703 156.805606,61.8832381 L156.805606,71.9340771 L154.487584,71.9340771 L154.487584,61.5878315 C154.487584,59.7241978 153.396522,58.5106145 151.624419,58.5106145 C148.81406,58.5106145 147.448097,60.5535187 147.448097,63.3018133 L147.448097,71.9340771 L145.130075,71.9340771 L145.130075,56.6516575 Z" id="Fill-19" fill="#FEFEFE" mask="url(#mask-2)"></path>
                <path d="M163.516765,56.6516575 L166.327124,56.6516575 L166.327124,58.8683761 L163.516765,58.8683761 L163.516765,68.3595794 C163.516765,69.5108077 163.818069,69.7196968 165.264018,69.7196968 L166.327124,69.7196968 L166.327124,71.9340771 L164.554245,71.9340771 C162.154684,71.9340771 161.198743,71.4009423 161.198743,68.5949694 L161.198743,58.8683761 L158.799182,58.8683761 L158.799182,56.6516575 L161.198743,56.6516575 L161.198743,52.067789 L163.516765,52.067789 L163.516765,56.6516575 Z" id="Fill-20" fill="#FEFEFE" mask="url(#mask-2)"></path>
            </g>
        </g>
    </g>
</svg>