<?xml version="1.0" encoding="utf-8"?>
<!-- Generator: Adobe Illustrator 21.1.0, SVG Export Plug-In . SVG Version: 6.00 Build 0)  -->
<svg version="1.1" id="Layer_1" xmlns="http://www.w3.org/2000/svg" xmlns:xlink="http://www.w3.org/1999/xlink" x="0px" y="0px"
	 viewBox="0 0 595.3 841.9" style="enable-background:new 0 0 595.3 841.9;" xml:space="preserve">
<style type="text/css">
	.st0{fill:#ED1C24;}
	.st1{fill:#FFF200;}
</style>
<g>
	<path class="st0" d="M167,556.2l-9.8-78c-25.4-18-45.1-32.9-68.8-50.3c-11-82,9.4-126.6,39.7-168.9c37.7-47.8,98-83.5,170.4-83.5
		c72.4,0.6,133.1,37.1,168.8,85c33.5,45.3,51.3,102.3,38.3,169.8l-65.1,47.9l-9.7,78H327.4c-6.3,5.2-15,9.8-28.9,10.2
		c-13.5-0.4-22-5-29-10.2H167z"/>
	<path class="st1" d="M298.5,448.1c-5.4-72.7-6.9-162.4-11.4-234.4c-7.8-1.9-18.6-1.3-27.7,0.2c-9.2,2.8-15.8,5.2-23.5,9.6
		c14.1,69.2,30.6,157.1,44.5,225.6c-18.9-66.5-44.5-150.2-63.5-216.6c-8.9,1.8-17.8,6.9-24.3,12.2c-6.7,5.4-10.8,9.3-17,18.9
		c27.4,58.5,60.3,133.1,87.9,191.2c-31.9-52.9-70.8-122.5-102.8-175c-6.3,5.5-10.9,9.4-17.1,19.9c-5.3,8.5-7.9,18.5-9.1,28.2
		c35.1,42.8,77,94.2,112.3,136.9c-36.7-35.4-82.2-81.1-118.6-116.7c-3.7,7.2-5.9,13.2-6.9,25.2c-1.4,11.5,0.9,25.3,3.2,33.6
		l71.4,52.9l7.5,58.8l78.5,0.6c5.6,6.6,7.4,10.1,16.7,10.5c8.9-0.4,14.1-5.9,16.3-10.5H393l7.8-58.9l70.6-52.6
		c2.8-8.7,4.4-22,3.5-33.6c-1.2-12.4-3.5-18.6-6.6-25.2c-36.6,35.3-82.1,81.1-118.6,116.5c35.5-42.3,77-94,112.5-137.1
		c-1.8-9.7-4.1-19.5-9.7-28c-6.6-10.5-10.4-14.5-16.5-20.2c-32.3,52.3-71.6,122.5-103.5,175c28.2-58.3,60.5-132.9,88.3-190.8
		c-6-9.3-10.4-13.9-16.5-18.9c-7.2-5.4-16.1-10.5-24.8-12.5c-19.9,66.2-44.2,150.5-63.5,216.6c13.5-68.5,30.2-155.9,43.6-224.8
		c-6.8-4.8-13.5-7.4-22.3-9.9c-10.2-2-20.2-2.2-28-0.9C304.2,286.2,304,375.6,298.5,448.1z"/>
</g>
<path d="M82.1,639.4c12.2,0,24.3,0,36.5,0c-0.4,8.1,3.5,10,5.4,11.3c2.1,0.8,17.4,1.5,24.8,0.2c3-0.6,5.9-1.7,5.9-11
	c0-3.9-1-8.3-5.5-9.2c-16.1-1.3-31.8,0.4-47.7-1.2c-16.1-3.5-18.5-7.6-19.4-20.4c1.1-17.6,7.2-22.5,25.2-23.2
	c18.8-0.5,37.5-0.5,56.1,0c19.2,0,25,7.3,25,23.4h-33.6c0-7.8-1.5-10.9-5.5-11.3c-8.1-0.6-16.2-0.6-24.6,0c-3,0-7,1.6-7,8.7
	c0,6.8,1.8,8.5,6.3,9.1c13.8,0.4,27.7,0.6,41.4,1.6c22.5,1.4,23.4,11.4,24.2,22c0.2,15-5.1,20.4-9.1,22.8
	c-3.9,1.8-22.2,3.9-25.8,3.9c0,0-28.2,0-36.4,0c-8.1,0-18.3-1-27.2-3.7C83,660.3,82.1,649.1,82.1,639.4z"/>
<rect x="426.5" y="586.4" width="32" height="80"/>
<rect x="480" y="586.4" width="31.8" height="80"/>
<path d="M407.7,624.4c-0.5-2.4-1.2-4.9-2.2-7.3c-5.5-8.9-24.3-8.9-42.6-9.4c-13.9,0-34.5,0.4-40.5,6.3c-2.4,2.7-3.8,6.6-4.5,10.4
	c-0.9,4.8-0.8,9.6-0.8,12c0,4.2,0.4,20.2,8.1,24.3c7.2,4.7,28.9,5.3,37.3,5.3c8.9,0,33.5-1,37.1-5.1c6.3-2.4,7.8-10.2,9.1-16.5
	h-31.5c0,6.3-4.9,9.9-14.8,9.5c-8.9,0.4-14-1.5-14-12.7l60.2,0.2C408.7,636.1,408.8,630.2,407.7,624.4z M377.2,629.9h-28.7
	c0-2.3,0.4-4.2,0.9-5.5c2.1-5,7.3-5.2,13-5.5c8.6,0,12.5,2.1,14,5.5C377.1,626,377.3,627.9,377.2,629.9z"/>
<path d="M208.4,666.4h31.5v-34.1c0.8-4.5,1.9-8.4,13.4-8.4c11-0.2,13.9,2.8,13.9,8.4v34.1h31.4v-34.1c0-11-0.2-17.1-7.3-20.4
	c-6.4-4.2-15.7-3.5-24.3-3.5c-9.1,0-19.4,1.2-27.1,4.8v-26.9h-31.5V666.4z"/>
</svg>
