<?xml version="1.0" encoding="UTF-8"?>
<svg width="249px" height="56px" viewBox="0 0 249 56" version="1.1" xmlns="http://www.w3.org/2000/svg" xmlns:xlink="http://www.w3.org/1999/xlink">
    <!-- Generator: Sketch 41.2 (35397) - http://www.bohemiancoding.com/sketch -->
    <title>velocity copy</title>
    <desc>Created with Sketch.</desc>
    <defs>
        <polygon id="path-1" points="30.1547976 0.610510854 0.0312385215 0.610510854 0.0312385215 41.556148 30.1547976 41.556148 30.1547976 0.610510854"></polygon>
    </defs>
    <g id="wireframe" stroke="none" stroke-width="1" fill="none" fill-rule="evenodd">
        <g id="velocity-copy">
            <polygon id="Fill-1" fill="#000000" points="60.7086001 0.818379161 43.1089965 0.885486252 42.1579752 3.69498191 52.4634248 3.56895152 21.6498451 32.7621729 33.4381049 0.818379161 7.75400459 0.818379161 6.80216766 4.07880174 14.730064 3.95113459 -0.000163125439 43.6768958 14.730064 43.6768958"></polygon>
            <g id="Group-22" transform="translate(35.887596, 0.208196)">
                <path d="M20.2228237,27.7204663 L16.7352019,37.9763939 L33.6986162,37.9763939 C33.6986162,37.9763939 31.9548053,41.5559844 28.4671834,41.5527109 L0.404714213,41.5559844 L9.2828162,17.7943454 C9.2828162,17.7943454 10.7101638,14.0903614 15.4660859,13.5788744 L42.7365811,13.5788744 L39.089912,24.3086436 C39.089912,24.3086436 37.8216117,27.6623614 33.6986162,27.7204663 L20.2228237,27.7204663 Z M21.6509054,24.6922997 L23.870227,18.7369546 C23.870227,18.7369546 24.6630166,16.6058952 26.7241065,16.6058952 L38.3843129,16.6058952 L35.9203031,22.8689509 C35.9203031,22.8689509 35.2857452,24.8126014 33.0664236,24.6922997 L21.6509054,24.6922997 Z" id="Combined-Shape" fill="#000000"></path>
                <g id="Group-6" transform="translate(35.887596, 0.000000)">
                    <mask id="mask-2" fill="white">
                        <use xlink:href="#path-1"></use>
                    </mask>
                    <g id="Clip-5"></g>
                    <path d="M0.0312385215,41.556148 L13.82431,4.38127467 C13.82431,4.38127467 15.0926103,0.610183502 20.8003694,0.610183502 L30.1547976,0.610183502 L16.3609105,37.3382219 C16.3609105,37.3382219 15.0926103,40.7926003 10.6539671,41.556148 L0.0312385215,41.556148 Z" id="Fill-4" fill="#000000" mask="url(#mask-2)"></path>
                </g>
                <path d="M69.3718659,13.5786289 L97.434335,13.5786289 L88.5831487,36.9539928 C88.5831487,36.9539928 86.4951431,41.5565572 83.4031004,41.5565572 L54.3104941,41.5565572 L63.3476434,17.4110985 C63.3476434,17.4110985 64.6151281,13.5786289 69.3718659,13.5786289 Z M80.1530708,16.7642516 L91.8858679,16.7642516 L84.5925296,35.9323283 C84.5925296,35.9323283 83.79974,37.7204868 82.5314397,37.8489723 L81.2631394,37.9766394 L70.0066685,37.9766394 L77.9337492,17.9214397 C77.9337492,17.9214397 78.5674915,16.7642516 80.1530708,16.7642516 Z" id="Combined-Shape" fill="#000000"></path>
                <path d="M131.839448,13.5786289 L104.886231,13.5786289 C104.886231,13.5786289 100.60582,13.5786289 99.1784722,16.7645789 L90.1413229,41.5565572 L118.680118,41.5565572 C118.680118,41.5565572 121.69223,41.297131 123.595088,37.9761484 L105.679021,37.9761484 L113.289638,18.4332541 C113.289638,18.4332541 113.764333,17.0109111 115.191681,16.7645789 L130.729379,16.7645789 L131.839448,13.5786289 Z" id="Fill-11" fill="#000000"></path>
                <path d="M149.279025,13.5786289 L138.498065,13.5786289 C138.498065,13.5786289 134.534932,13.8175956 133.424864,16.7645789 L124.387714,41.5565572 L135.010443,41.5565572 C135.010443,41.5565572 140.24106,41.297131 141.034665,36.5718098 L149.279025,13.5786289 Z" id="Fill-13" fill="#000000"></path>
                <polygon id="Fill-15" fill="#000000" points="137.863833 11.4072234 149.913094 11.3196569 153.401531 3.10394848"></polygon>
                <g id="Group-19" transform="translate(145.181640, 3.273517)" fill="#000000">
                    <path d="M6.000243,10.3051122 L5.20745337,13.4910623 L9.64691218,13.4910623 L0.451531214,38.2830406 L11.2324914,38.2830406 C11.2324914,38.2830406 15.0373923,37.8959473 16.4647399,34.7026318 L23.9171255,13.4910623 L30.4168586,13.4910623 L36.7583601,34.064296 L19.0005248,51.557969 L25.0255629,51.557969 L67.8720906,10.3051122 L53.72259,10.3051122 L50.7104788,13.4910623 L58.0038172,13.4910623 L47.697552,23.0783742 L43.0998615,10.3051122 L25.3428419,10.3051122 L29.0775988,0.550032634 L18.8422932,0.469013097 C18.8422932,0.469013097 14.8791606,0.852014544 13.1345341,3.79081411 L10.5979335,10.3051122 L6.000243,10.3051122 Z" id="Fill-17"></path>
                </g>
            </g>
        </g>
    </g>
</svg>