<?xml version="1.0" encoding="UTF-8"?>
<svg width="271px" height="65px" viewBox="0 0 271 65" version="1.1" xmlns="http://www.w3.org/2000/svg" xmlns:xlink="http://www.w3.org/1999/xlink">
    <!-- Generator: Sketch 41.2 (35397) - http://www.bohemiancoding.com/sketch -->
    <title>weirdmuller copy</title>
    <desc>Created with Sketch.</desc>
    <defs>
        <polygon id="path-1" points="132.66195 18.1562952 0 18.1562952 0 0.536619392 265.3239 0.536619392 265.3239 18.1562952"></polygon>
    </defs>
    <g id="wireframe" stroke="none" stroke-width="1" fill="none" fill-rule="evenodd">
        <g id="weirdmuller-copy" transform="translate(0.000000, 0.176556)">
            <path d="M4.1926,36.3932851 L10.7116,36.3932851 L17.4006,19.3747844 C17.6036,18.8653994 17.7446,17.9858278 17.9096,16.7824689 C17.8816,17.4068437 17.8336,17.8466295 17.8316,18.125026 C17.8286,18.4710043 17.8246,18.8653994 17.8656,19.2819855 L18.6886,36.3932851 L25.1856,36.3932851 L35.5956,8.1915152 L28.7456,8.1915152 L23.5886,24.3526353 C23.4746,24.7934298 23.2686,25.5338032 23.1486,26.667563 C23.1986,25.9967887 23.2026,25.5570029 23.2046,25.3714052 L23.2146,24.1902373 L22.4476,8.1915152 L15.5536,8.1915152 L8.9806,24.5150333 C8.7996,24.9780188 8.7056,25.6719928 8.6306,26.667563 C8.6396,25.6034023 8.5576,24.8620203 8.5626,24.3526353 L8.7256,8.1915152 L2.3396,8.1915152 L4.1926,36.3932851 Z" id="Fill-1" fill="#EB8C01"></path>
            <path d="M46.1393,30.2111674 C45.5433,31.5073252 44.3933,32.1791081 42.9573,32.1791081 C40.9463,32.1791081 39.7973,30.9515408 39.7973,28.5902137 L39.7973,27.8952311 L53.7193,27.8952311 C53.8953,26.7140632 54.0063,25.6952933 54.0063,24.7239315 C54.0063,18.5175046 50.6033,14.8832195 44.5933,14.8832195 C37.9413,14.8832195 33.3453,20.2776566 33.3453,27.0620589 C33.3453,33.1050792 36.9033,36.9713614 42.9133,36.9713614 C47.8853,36.9713614 51.8403,34.2388389 53.0343,30.2111674 L46.1393,30.2111674 Z M40.2623,23.6577535 C40.6813,20.8798404 42.3383,19.3052861 44.5483,19.3052861 C46.5153,19.3052861 47.6643,20.648852 47.6643,23.0797781 C47.6643,23.2643671 47.6193,23.4499648 47.6193,23.6577535 L40.2623,23.6577535 Z M55.4863,36.393386 L62.0713,36.393386 L66.3583,15.5771935 L59.7953,15.5771935 L55.4863,36.393386 Z M60.2593,13.3086653 L66.8223,13.3086653 L67.9273,8.00601838 L61.3203,8.00601838 L60.2593,13.3086653 Z M92.4553,8.21380709 L85.8703,8.21380709 L83.6393,19.0742977 C82.5343,16.2731848 80.5893,14.8832195 77.8933,14.8832195 C72.1033,14.8832195 67.7063,20.5560531 67.7063,28.4742152 C67.7063,34.0088592 70.4023,37.0873599 74.6893,37.0873599 C77.2083,37.0873599 79.3293,35.9767999 80.9653,33.707263 L80.3903,36.393386 L86.6223,36.393386 L92.4553,8.21380709 Z M77.3853,31.8553208 C75.4623,31.8553208 74.4023,30.511755 74.4023,28.0112297 C74.4023,23.704153 76.5233,20.5096537 79.1753,20.5096537 C81.1633,20.5096537 82.3793,21.92181 82.3793,24.445535 C82.3793,28.5902137 80.2133,31.8553208 77.3853,31.8553208 L77.3853,31.8553208 Z M91.3723,36.393386 L98.1123,36.393386 L100.3223,25.5339041 C101.0293,22.0831993 102.3993,20.3704554 104.6533,20.3704554 C105.9793,20.3704554 106.6643,21.1572282 106.6643,22.7549822 C106.6643,23.0333787 106.6193,23.9825495 106.3323,25.3715061 L104.0353,36.393386 L110.0003,36.393386 L112.2103,25.5339041 C112.9403,22.0831993 114.4643,20.3704554 116.7403,20.3704554 C118.0663,20.3704554 118.8403,21.1572282 118.8403,22.5925842 C118.8403,23.0797781 118.7523,24.0521486 118.4863,25.3715061 L116.2103,36.393386 L122.3973,36.393386 L124.8063,24.8621211 C125.0713,23.4963643 125.2253,22.0831993 125.2253,20.8798404 C125.2253,17.1749475 123.2373,15.0214091 119.7903,15.0214091 C117.2043,15.0214091 115.1713,16.2489764 112.8293,18.6799026 C111.9013,16.1561776 110.2663,14.9528187 107.7693,14.9528187 C105.4493,14.9528187 103.2833,16.1329779 101.2283,18.5175046 L101.8473,15.5771935 L95.6813,15.5771935 L91.3723,36.393386 Z M150.8813,15.5771935 L144.2963,15.5771935 L142.0633,26.4134757 C141.3793,29.7481819 139.5893,31.6223151 137.2683,31.6223151 C135.7443,31.6223151 135.0153,30.8365509 135.0153,29.2377883 C135.0153,28.9836001 135.1033,28.0576291 135.4133,26.552674 L137.6443,15.5771935 L131.0813,15.5771935 L128.7183,27.1084583 C128.3643,28.6820039 128.2313,30.00237 128.2313,31.0675394 C128.2313,34.795632 130.3083,36.9491703 134.1093,36.9491703 C136.6283,36.9491703 138.9043,35.7680025 141.0693,33.4288664 L140.4293,36.393386 L146.5723,36.393386 L150.8813,15.5771935 Z M136.2303,12.1738968 L140.8713,12.1738968 L141.9533,6.98825716 L137.3133,6.98825716 L136.2303,12.1738968 Z M142.9703,12.1738968 L147.6103,12.1738968 L148.6713,6.98825716 L144.0313,6.98825716 L142.9703,12.1738968 Z M151.5883,36.393386 L158.0183,36.393386 L163.8073,8.21380709 L157.4223,8.21380709 L151.5883,36.393386 Z M162.9683,36.393386 L169.3983,36.393386 L175.1663,8.21380709 L168.7793,8.21380709 L162.9683,36.393386 Z M188.1383,30.2111674 C187.5183,31.5073252 186.3913,32.1791081 184.9323,32.1791081 C182.9223,32.1791081 181.7963,30.9515408 181.7963,28.5902137 L181.7963,27.8952311 L195.6943,27.8952311 C195.8933,26.7140632 196.0043,25.6952933 196.0043,24.7239315 C196.0043,18.5175046 192.5793,14.8832195 186.5683,14.8832195 C179.9173,14.8832195 175.3203,20.2776566 175.3203,27.0620589 C175.3203,33.1050792 178.9003,36.9713614 184.9113,36.9713614 C189.8833,36.9713614 193.8393,34.2388389 195.0103,30.2111674 L188.1383,30.2111674 Z M182.2373,23.6577535 C182.6573,20.8798404 184.3373,19.3052861 186.5463,19.3052861 C188.5133,19.3052861 189.6623,20.648852 189.6623,23.0797781 C189.6623,23.2643671 189.6183,23.4499648 189.6183,23.6577535 L182.2373,23.6577535 Z M197.5063,36.393386 L204.0693,36.393386 L205.4833,29.5393845 C206.5443,24.3295365 207.6493,21.5052239 211.4943,21.5052239 C212.0683,21.5052239 212.7093,21.6202137 213.3503,21.8986103 L214.7203,15.0678085 C214.3893,15.0214091 214.1893,15.0214091 214.1243,15.0214091 C210.6543,15.0214091 208.4443,16.7119619 206.8973,20.4854453 L207.8703,15.5771935 L201.7933,15.5771935 L197.5063,36.393386 Z" id="Fill-3" fill="#EB8C01"></path>
            <g id="Group-7" transform="translate(0.000000, 46.461052)">
                <mask id="mask-2" fill="white">
                    <use xlink:href="#path-1"></use>
                </mask>
                <g id="Clip-6"></g>
                <path d="M258.0539,17.832508 L259.4679,17.832508 L260.6839,11.6270897 C261.3249,8.33979161 262.3189,6.67243849 264.2189,6.67243849 C264.4169,6.67243849 264.6599,6.69462952 265.0149,6.74102894 L265.3239,5.35207236 C264.9919,5.23708249 264.6829,5.16647467 264.3729,5.16647467 C263.3129,5.16647467 262.4499,5.8382576 261.4119,7.0890246 L261.7219,5.46807091 L260.4849,5.46807091 L258.0539,17.832508 Z M244.7949,10.515521 C245.4809,7.78400724 246.9159,6.39404197 249.1039,6.39404197 C251.0709,6.39404197 252.2419,7.76080753 252.2419,9.91333719 C252.2419,10.0525355 252.2419,10.2381331 252.2199,10.515521 L244.7949,10.515521 Z M251.5569,14.0580159 C250.9829,15.9109667 249.6789,16.9065369 247.8889,16.9065369 C245.7669,16.9065369 244.4859,15.5165716 244.4859,13.2248437 C244.4859,12.8314573 244.5079,12.3906628 244.5519,11.8358871 L253.5239,11.8358871 C253.5679,11.2558944 253.6129,10.7929088 253.6129,10.4005311 C253.6129,7.0890246 251.9329,5.19068307 248.9929,5.19068307 C245.5909,5.19068307 243.0939,8.36198263 243.0939,12.8536483 C243.0939,16.2811534 244.7949,18.1330955 247.7789,18.1330955 C250.4079,18.1330955 252.2419,16.6977395 252.9049,14.0580159 L251.5569,14.0580159 Z M227.2719,17.832508 L228.6419,17.832508 L229.9019,11.6502894 C230.6089,8.22379305 232.0449,6.44044139 234.5859,6.44044139 C236.0229,6.44044139 236.8399,7.13542402 236.8399,8.40838205 C236.8399,8.68677858 236.8189,9.10336469 236.7069,9.61274964 L235.0289,17.832508 L236.3539,17.832508 L237.9899,9.82154703 C238.1209,9.26576266 238.1649,8.80277713 238.1649,8.38619103 C238.1649,6.41825036 236.9289,5.2128741 234.8509,5.2128741 C233.3489,5.2128741 231.9789,5.93105644 230.6979,7.36641245 L231.0509,5.46807091 L229.7909,5.46807091 L227.2719,17.832508 Z M222.4329,17.832508 L222.6759,16.6049407 C222.1669,16.7673386 221.7469,16.8601375 221.3709,16.8601375 C220.5989,16.8601375 220.3559,16.6281404 220.3559,15.9331577 C220.3559,15.7939595 220.3999,15.4701722 220.4879,14.9385962 L222.1229,6.60283936 L224.3559,6.60283936 L224.5759,5.46807091 L222.4099,5.46807091 L223.1169,2.04157453 L221.7699,2.04157453 L221.0629,5.46807091 L219.2729,5.46807091 L219.0299,6.60283936 L220.7969,6.60283936 L219.2289,14.4514023 C219.0509,15.1927844 218.9629,15.8181679 218.9629,16.3275528 C218.9629,17.5087207 219.6699,18.0866961 221.0849,18.0866961 C221.5489,18.0866961 221.9689,17.9717062 222.4329,17.832508 L222.4329,17.832508 Z M208.6659,17.832508 L210.0799,17.832508 L211.2949,11.6270897 C211.9369,8.33979161 212.9309,6.67243849 214.8309,6.67243849 C215.0299,6.67243849 215.2739,6.69462952 215.6259,6.74102894 L215.9359,5.35207236 C215.6049,5.23708249 215.2949,5.16647467 214.9639,5.16647467 C213.9249,5.16647467 213.0639,5.8382576 212.0249,7.0890246 L212.3339,5.46807091 L211.0749,5.46807091 L208.6659,17.832508 Z M201.2629,16.4425427 C201.2629,17.5309117 201.7929,18.0402967 202.8319,18.0402967 C203.1859,18.0402967 203.4729,17.9938973 203.7599,17.832508 L204.0029,16.6977395 C203.6719,16.8137381 203.4069,16.8601375 203.1419,16.8601375 C202.7429,16.8601375 202.5449,16.6513401 202.5449,16.1883546 C202.5449,16.072356 202.5449,15.8645673 202.6119,15.5861708 L203.7599,9.91333719 C203.9149,9.26576266 203.9589,8.75637771 203.9589,8.43259045 C203.9589,6.44044139 202.5669,5.23708249 200.0259,5.23708249 C197.0649,5.23708249 195.4079,6.41825036 195.0319,8.917767 L196.2909,8.917767 C196.5339,7.18081476 197.6839,6.39404197 199.8049,6.39404197 C201.7269,6.39404197 202.6559,7.11222431 202.6559,8.54758032 C202.6559,10.4691216 201.7489,10.4227221 199.2309,10.6547192 C197.6399,10.7707178 196.3799,10.8393082 195.3639,11.4878915 C194.2139,12.2060738 193.5949,13.3408423 193.5949,14.7297988 C193.5949,16.6977395 194.9649,18.1562952 197.2409,18.1562952 C198.7439,18.1562952 200.0039,17.6237106 201.2629,16.4425427 L201.2629,16.4425427 Z M202.1029,11.4878915 C201.6389,15.1221766 200.1149,16.9287279 197.4619,16.9287279 C196.0039,16.9287279 195.0539,16.0491563 195.0539,14.6833994 C195.0539,13.3166339 195.8269,12.4602619 197.3079,12.1364747 C198.9209,11.8126874 200.6219,12.0436758 202.1029,11.4878915 L202.1029,11.4878915 Z M180.6019,9.08016498 L181.9499,2.11016498 L184.8669,2.11016498 C187.4299,2.11016498 188.6679,2.9907453 188.6679,5.14428365 C188.6679,7.94539653 187.1429,9.08016498 184.1589,9.08016498 L180.6019,9.08016498 Z M177.4199,17.832508 L178.9669,17.832508 L180.2919,10.4923213 L182.9889,10.4923213 C185.0879,10.4923213 186.7009,10.4691216 188.0279,9.61274964 C189.5079,8.66257019 190.1489,7.18081476 190.1489,5.00508538 C190.1489,3.54652967 189.5299,2.22616353 188.4689,1.48579016 C187.4299,0.745416787 186.1929,0.699017366 184.6909,0.699017366 L180.7119,0.699017366 L177.4199,17.832508 Z M153.3559,10.515521 C154.0409,7.78400724 155.4989,6.39404197 157.6869,6.39404197 C159.6539,6.39404197 160.8249,7.76080753 160.8249,9.91333719 C160.8249,10.0525355 160.8249,10.2381331 160.8029,10.515521 L153.3559,10.515521 Z M160.1399,14.0580159 C159.5429,15.9109667 158.2619,16.9065369 156.4499,16.9065369 C154.3509,16.9065369 153.0689,15.5165716 153.0689,13.2248437 C153.0689,12.8314573 153.0909,12.3906628 153.1349,11.8358871 L162.1069,11.8358871 C162.1509,11.2558944 162.1959,10.7929088 162.1959,10.4005311 C162.1959,7.0890246 160.5159,5.19068307 157.5759,5.19068307 C154.1519,5.19068307 151.6549,8.36198263 151.6549,12.8536483 C151.6549,16.2811534 153.3559,18.1330955 156.3389,18.1330955 C158.9909,18.1330955 160.8249,16.6977395 161.4879,14.0580159 L160.1399,14.0580159 Z M145.1359,13.7110289 C144.6059,15.7021693 143.0809,16.9065369 141.2909,16.9065369 C139.0149,16.9065369 137.7109,15.3551823 137.7109,12.8082576 C137.7109,9.28795369 139.6559,6.37185094 142.3519,6.37185094 C144.3189,6.37185094 145.5779,7.59840955 145.6439,9.58954993 L146.9479,9.58954993 C146.9259,6.83483647 145.2239,5.2128741 142.3079,5.2128741 C138.7719,5.2128741 136.2969,8.52337192 136.2969,12.8314573 C136.2969,16.1883546 138.1529,18.1562952 141.2469,18.1562952 C143.8989,18.1562952 145.9319,16.5353415 146.5939,13.7110289 L145.1359,13.7110289 Z M128.4749,16.4425427 C128.4749,17.5309117 129.0049,18.0402967 130.0429,18.0402967 C130.3969,18.0402967 130.6849,17.9938973 130.9709,17.832508 L131.2149,16.6977395 C130.8829,16.8137381 130.6179,16.8601375 130.3529,16.8601375 C129.9549,16.8601375 129.7559,16.6513401 129.7559,16.1883546 C129.7559,16.072356 129.7559,15.8645673 129.8229,15.5861708 L130.9709,9.91333719 C131.1259,9.26576266 131.1699,8.75637771 131.1699,8.43259045 C131.1699,6.44044139 129.7789,5.23708249 127.2369,5.23708249 C124.2759,5.23708249 122.6179,6.41825036 122.2429,8.917767 L123.5029,8.917767 C123.7449,7.18081476 124.8729,6.39404197 127.0159,6.39404197 C128.9389,6.39404197 129.8669,7.11222431 129.8669,8.54758032 C129.8669,10.4691216 128.9599,10.4227221 126.4189,10.6547192 C124.8499,10.7707178 123.5909,10.8393082 122.5529,11.4878915 C121.4249,12.2060738 120.8069,13.3408423 120.8069,14.7297988 C120.8069,16.6977395 122.1769,18.1562952 124.4529,18.1562952 C125.9549,18.1562952 127.1929,17.6237106 128.4749,16.4425427 L128.4749,16.4425427 Z M129.3149,11.4878915 C128.8499,15.1221766 127.3249,16.9287279 124.6739,16.9287279 C123.2149,16.9287279 122.2649,16.0491563 122.2649,14.6833994 C122.2649,13.3166339 123.0379,12.4602619 124.5189,12.1364747 C126.1319,11.8126874 127.8339,12.0436758 129.3149,11.4878915 L129.3149,11.4878915 Z M112.6969,17.832508 L114.0449,17.832508 L116.3209,6.60283936 L118.3539,6.60283936 L118.5749,5.46807091 L116.5419,5.46807091 L116.9169,3.61512012 C117.1599,2.34317077 117.3599,1.7873864 118.2869,1.7873864 C118.5079,1.7873864 118.8179,1.83378582 119.2599,1.92557598 L119.4809,0.721208394 C118.9729,0.606218524 118.5529,0.536619392 118.1549,0.536619392 C116.4749,0.536619392 115.9899,1.60078003 115.5919,3.59292909 L115.1939,5.46807091 L113.3819,5.46807091 L113.1389,6.60283936 L114.9729,6.60283936 L112.6969,17.832508 Z M102.5979,17.832508 L104.0119,17.832508 L105.2279,11.6270897 C105.8689,8.33979161 106.8629,6.67243849 108.7859,6.67243849 C108.9619,6.67243849 109.2059,6.69462952 109.5809,6.74102894 L109.8679,5.35207236 C109.5589,5.23708249 109.2279,5.16647467 108.9179,5.16647467 C107.8579,5.16647467 106.9959,5.8382576 105.9569,7.0890246 L106.2669,5.46807091 L105.0289,5.46807091 L102.5979,17.832508 Z M89.3399,10.515521 C90.0249,7.78400724 91.4839,6.39404197 93.6489,6.39404197 C95.6159,6.39404197 96.7869,7.76080753 96.7869,9.91333719 C96.7869,10.0525355 96.7869,10.2381331 96.7649,10.515521 L89.3399,10.515521 Z M96.1239,14.0580159 C95.5269,15.9109667 94.2229,16.9065369 92.4339,16.9065369 C90.3119,16.9065369 89.0309,15.5165716 89.0309,13.2248437 C89.0309,12.8314573 89.0529,12.3906628 89.1189,11.8358871 L98.0679,11.8358871 C98.1129,11.2558944 98.1569,10.7929088 98.1569,10.4005311 C98.1569,7.0890246 96.4769,5.19068307 93.5379,5.19068307 C90.1359,5.19068307 87.6379,8.36198263 87.6379,12.8536483 C87.6379,16.2811534 89.3399,18.1330955 92.3229,18.1330955 C94.9529,18.1330955 96.7869,16.6977395 97.4499,14.0580159 L96.1239,14.0580159 Z M82.2689,17.832508 L82.5119,16.6049407 C82.0259,16.7673386 81.5839,16.8601375 81.2299,16.8601375 C80.4569,16.8601375 80.1919,16.6281404 80.1919,15.9331577 C80.1919,15.7939595 80.2359,15.4701722 80.3459,14.9385962 L81.9819,6.60283936 L84.2129,6.60283936 L84.4339,5.46807091 L82.2459,5.46807091 L82.9539,2.04157453 L81.6059,2.04157453 L80.8989,5.46807091 L79.1089,5.46807091 L78.8879,6.60283936 L80.6339,6.60283936 L79.0649,14.4514023 C78.9099,15.1927844 78.8219,15.8181679 78.8219,16.3275528 C78.8219,17.5087207 79.5289,18.0866961 80.9209,18.0866961 C81.3849,18.0866961 81.8269,17.9717062 82.2689,17.832508 L82.2689,17.832508 Z M62.8229,17.832508 L64.1929,17.832508 L65.4519,11.6502894 C66.1599,8.22379305 67.5959,6.44044139 70.1369,6.44044139 C71.5739,6.44044139 72.3909,7.13542402 72.3909,8.40838205 C72.3909,8.68677858 72.3689,9.10336469 72.2589,9.61274964 L70.5569,17.832508 L71.9059,17.832508 L73.5399,9.82154703 C73.6509,9.26576266 73.6949,8.80277713 73.6949,8.38619103 C73.6949,6.41825036 72.4799,5.2128741 70.4029,5.2128741 C68.8999,5.2128741 67.5079,5.93105644 66.2479,7.36641245 L66.6019,5.46807091 L65.3419,5.46807091 L62.8229,17.832508 Z M54.7359,17.832508 L56.2599,17.832508 L59.7069,0.699017366 L58.1599,0.699017366 L54.7359,17.832508 Z M30.6489,10.515521 C31.3339,7.78400724 32.7929,6.39404197 34.9809,6.39404197 C36.9249,6.39404197 38.1179,7.76080753 38.1179,9.91333719 C38.1179,10.0525355 38.1179,10.2381331 38.0959,10.515521 L30.6489,10.515521 Z M37.4329,14.0580159 C36.8359,15.9109667 35.5329,16.9065369 33.7429,16.9065369 C31.6209,16.9065369 30.3619,15.5165716 30.3619,13.2248437 C30.3619,12.8314573 30.3839,12.3906628 30.4289,11.8358871 L39.3779,11.8358871 C39.4219,11.2558944 39.4659,10.7929088 39.4659,10.4005311 C39.4659,7.0890246 37.7859,5.19068307 34.8479,5.19068307 C31.4449,5.19068307 28.9479,8.36198263 28.9479,12.8536483 C28.9479,16.2811534 30.6489,18.1330955 33.6329,18.1330955 C36.2619,18.1330955 38.1179,16.6977395 38.7809,14.0580159 L37.4329,14.0580159 Z M13.1699,17.832508 L14.5179,17.832508 L15.7559,11.6502894 C16.4629,8.24598408 17.8989,6.44044139 20.4399,6.44044139 C21.8539,6.44044139 22.6939,7.13542402 22.6939,8.40838205 C22.6939,8.66257019 22.6499,9.08016498 22.5389,9.61274964 L20.8819,17.832508 L22.2519,17.832508 L23.8659,9.82154703 C23.9759,9.26576266 24.0199,8.80277713 24.0199,8.38619103 C24.0199,6.41825036 22.8039,5.2128741 20.7499,5.2128741 C19.2909,5.2128741 17.9429,5.88465702 16.6609,7.22721418 L17.9879,0.699017366 L16.6169,0.699017366 L13.1699,17.832508 Z M1.7679,17.832508 L3.3149,17.832508 L6.5189,2.08797395 L10.9599,2.08797395 L11.2479,0.699017366 L0.2869,0.699017366 L-0.0001,2.08797395 L4.9719,2.08797395 L1.7679,17.832508 Z" id="Fill-5" fill="#EB8C01" mask="url(#mask-2)"></path>
            </g>
            <path d="M232.3986,15.6698915 L242.3206,15.6698915 L252.6396,1.43031259 C253.1926,0.688930535 254.0766,0.389351664 254.9156,0.550740955 C255.0476,0.527541245 255.1806,0.504341534 255.3356,0.504341534 L267.2236,0.504341534 C268.6376,0.504341534 269.8096,1.73190883 269.8096,3.21265557 C269.8096,4.69541968 268.6376,5.92298698 267.2236,5.92298698 L255.8436,5.92298698 L246.8946,18.2632156 L255.8436,30.6276527 L267.2236,30.6276527 C268.6376,30.6276527 269.8096,31.85522 269.8096,33.3369754 C269.8096,34.8177221 268.6376,36.0452894 267.2236,36.0452894 L255.0476,36.0452894 C254.9606,36.0452894 254.8716,36.0230984 254.7836,36.0230984 C253.9646,36.1158973 253.1476,35.814301 252.6396,35.1193184 L242.4746,21.0653372 L232.3986,21.0653372 C230.9836,21.0653372 229.8356,19.8609696 229.8356,18.3560145 C229.8356,16.874259 230.9836,15.6698915 232.3986,15.6698915" id="Fill-8" fill="#EB8C01"></path>
            <path d="M232.3986,15.6698915 L242.3206,15.6698915 L252.6396,1.43031259 C253.1926,0.688930535 254.0766,0.389351664 254.9156,0.550740955 C255.0476,0.527541245 255.1806,0.504341534 255.3356,0.504341534 L267.2236,0.504341534 C268.6376,0.504341534 269.8096,1.73190883 269.8096,3.21265557 C269.8096,4.69541968 268.6376,5.92298698 267.2236,5.92298698 L255.8436,5.92298698 L246.8946,18.2632156 L255.8436,30.6276527 L267.2236,30.6276527 C268.6376,30.6276527 269.8096,31.85522 269.8096,33.3369754 C269.8096,34.8177221 268.6376,36.0452894 267.2236,36.0452894 L255.0476,36.0452894 C254.9606,36.0452894 254.8716,36.0230984 254.7836,36.0230984 C253.9646,36.1158973 253.1476,35.814301 252.6396,35.1193184 L242.4746,21.0653372 L232.3986,21.0653372 C230.9836,21.0653372 229.8356,19.8609696 229.8356,18.3560145 C229.8356,16.874259 230.9836,15.6698915 232.3986,15.6698915 Z" id="Stroke-10" stroke="#EB8C01"></path>
            <path d="M267.2463,20.8798404 L257.3243,20.8798404 L247.0053,35.1194192 C246.4523,35.8608013 245.5683,36.1603802 244.7283,35.9989909 C244.5963,36.0231993 244.4643,36.0453903 244.3093,36.0453903 L232.4203,36.0453903 C231.0063,36.0453903 229.8353,34.817823 229.8353,33.3370763 C229.8353,31.8553208 231.0063,30.6277535 232.4203,30.6277535 L243.8013,30.6277535 L252.7503,18.2875249 L243.8013,5.92308784 L232.4203,5.92308784 C231.0063,5.92308784 229.8353,4.69552055 229.8353,3.21275644 C229.8353,1.7320097 231.0063,0.504442402 232.4203,0.504442402 L244.5963,0.504442402 C244.6843,0.504442402 244.7723,0.527642113 244.8613,0.527642113 C245.6793,0.434843271 246.4963,0.735430825 247.0053,1.43041346 L257.1693,15.4843946 L267.2463,15.4843946 C268.6603,15.4843946 269.8093,16.6887622 269.8093,18.1937174 C269.8093,19.6764815 268.6603,20.8798404 267.2463,20.8798404" id="Fill-12" fill="#000000"></path>
            <polygon id="Fill-14" fill="#EB8C01" points="244.6848 12.4290936 250.7618 4.02373763 255.0478 4.02373763 255.0478 7.0336479 249.3468 14.8832195 244.6848 14.8832195"></polygon>
        </g>
    </g>
</svg>