<?xml version="1.0" encoding="UTF-8"?>
<svg width="324px" height="74px" viewBox="0 0 324 74" version="1.1" xmlns="http://www.w3.org/2000/svg" xmlns:xlink="http://www.w3.org/1999/xlink">
    <!-- Generator: Sketch 41.2 (35397) - http://www.bohemiancoding.com/sketch -->
    <title>wheel copy</title>
    <desc>Created with Sketch.</desc>
    <defs>
        <polygon id="path-1" points="11.19528 0.0818988895 0.609790345 0.0818988895 0.609790345 18.6146408 11.19528 18.6146408 11.19528 0.0818988895"></polygon>
    </defs>
    <g id="wireframe" stroke="none" stroke-width="1" fill="none" fill-rule="evenodd">
        <g id="wheel-copy" transform="translate(0.000000, 0.176556)">
            <path d="M14.2986041,7.71825654 C14.2986041,8.13150782 14.2405076,8.54701319 14.1250593,8.95876174 L11.7684248,8.95876174 L11.7684248,14.9711921 C11.7684248,16.0531591 12.1482869,16.5926399 12.9072662,16.5933912 C13.2037076,16.5926399 13.435349,16.549812 13.6029352,16.4626536 C13.7519007,16.4017929 13.8993766,16.3409323 14.0475972,16.2800716 C14.1056938,16.9239923 14.1637903,17.5679129 14.2211421,18.2133363 C14.0669628,18.5266559 13.7384938,18.83697 13.2357352,19.1405218 C12.7337214,19.4455764 12.1929766,19.5981037 11.6135007,19.5981037 C9.60395586,19.5981037 8.6006731,18.3876532 8.6006731,15.9644979 L8.6006731,8.95876174 L7.07452138,8.95876174 C6.93225931,8.58608422 6.86150069,8.22843402 6.86150069,7.88731388 C6.86150069,7.49735495 6.90693517,7.12167197 6.99705931,6.76327041 C7.32552828,6.76402177 7.65399724,6.76402177 7.98246621,6.76327041 C8.51650759,5.76169958 9.05054897,4.75937739 9.58533517,3.75780657 C9.95849379,3.60978748 10.3323972,3.46176838 10.7055559,3.31374929 C11.2202317,3.13943239 11.5680662,3.05227393 11.7490593,3.05227393 C11.7550179,3.14769741 11.7617214,3.24387225 11.7684248,3.3400471 L11.7684248,6.47775134 C12.5542179,6.46873495 13.3392662,6.45971856 14.1250593,6.45070217 C14.2405076,6.89851628 14.2986041,7.32303804 14.2986041,7.71825654" id="Fill-1" fill="#000000"></path>
            <g id="Group-5" transform="translate(14.151724, 0.669843)">
                <mask id="mask-2" fill="white">
                    <use xlink:href="#path-1"></use>
                </mask>
                <g id="Clip-4"></g>
                <path d="M11.19528,17.9872502 C11.1632524,18.1352693 11.1312248,18.2832884 11.0984524,18.4313075 C10.8027559,18.4921682 10.5063145,18.5537802 10.2098731,18.6146408 L9.24457655,18.6146408 L8.27853517,18.6146408 C8.00220414,18.5537802 7.72512828,18.4921682 7.44805241,18.4313075 C7.40932138,18.2832884 7.37059034,18.1352693 7.33185931,17.9872502 L7.33185931,17.7513213 L7.50838345,17.7513213 C7.55903172,17.6987257 7.60968,17.6476328 7.66032828,17.5957886 L7.66032828,17.3869088 L7.66032828,11.3218828 C7.66032828,9.43971109 7.11288,8.49975227 6.01872828,8.49900091 C5.51596966,8.49975227 5.10110069,8.74695167 4.7718869,9.24435594 C4.44490759,9.74025747 4.28030069,10.4585633 4.28030069,11.3992735 L4.28030069,17.3869088 L4.28030069,17.5957886 C4.31679724,17.6476328 4.35329379,17.6987257 4.39053517,17.7513213 L4.54471448,17.7513213 C4.55961103,17.8294634 4.57450759,17.9091082 4.58865931,17.9872502 C4.5506731,18.1352693 4.51194207,18.2832884 4.47321103,18.4313075 C4.20283862,18.4921682 3.93246621,18.5537802 3.66209379,18.6146408 L2.69679724,18.6146408 L1.69202483,18.6146408 C1.40824552,18.5537802 1.12521103,18.4921682 0.842176552,18.4313075 C0.809404138,18.3704469 0.777376552,18.3095862 0.745348966,18.2487256 C0.738645517,18.1615671 0.732686897,18.0744087 0.725983448,17.9872502 C0.738645517,17.9091082 0.752052414,17.8294634 0.764714483,17.7513213 L0.919638621,17.7513213 C0.964328276,17.6987257 1.00901793,17.6476328 1.05445241,17.5957886 C1.07381793,17.5266629 1.09318345,17.4567859 1.11254897,17.3869088 C1.11180414,12.2896422 1.11180414,7.19312687 1.11254897,2.09586021 C1.07381793,1.89524549 1.0350869,1.69387942 0.996355862,1.49401607 C0.752052414,1.42263631 0.623197241,1.28513634 0.609790345,1.07475387 C0.609790345,0.81402988 0.777376552,0.579603701 1.11254897,0.369972598 L3.65762483,0.0814480699 C3.83861793,0.0814480699 3.97566621,0.108497244 4.06653517,0.160341496 C4.15665931,0.213688479 4.26019034,0.34367479 4.37638345,0.553305892 L4.28030069,2.12065528 L4.28030069,7.71382348 C4.67952828,7.30432903 5.07875586,6.89483458 5.47798345,6.48534014 C6.16024552,5.87673371 6.78515586,5.5724305 7.35122483,5.5724305 C8.44612138,5.57318186 9.29894897,5.998455 9.91119724,6.85275809 C10.5234455,7.70706119 10.82808,8.92502541 10.8288248,10.5119103 L10.8288248,17.3869088 L10.8288248,17.5957886 C10.8787283,17.6476328 10.9293766,17.6987257 10.9800248,17.7513213 L11.1744248,17.7513213 C11.1811283,17.8294634 11.1885766,17.9091082 11.19528,17.9872502" id="Fill-3" fill="#000000" mask="url(#mask-2)"></path>
            </g>
            <path d="M32.667989,11.0480851 C32.667989,10.2396153 32.5160441,9.60546242 32.2136441,9.15013465 C31.9112441,8.69105005 31.4889269,8.46413753 30.9481821,8.46338616 C30.3433821,8.46413753 29.9054234,8.72561288 29.635051,9.24781222 C29.4160717,9.75348151 29.255189,10.4071699 29.1524028,11.208126 C29.4875752,11.2517052 29.8227476,11.2952845 30.1571752,11.3388637 L30.6785545,11.3388637 L32.4944441,11.3388637 C32.6091476,11.3388637 32.667989,11.2419375 32.667989,11.0480851 M35.6040993,12.1743826 C35.6040993,13.0467185 35.4558786,13.4817594 35.1601821,13.4817594 C33.1573407,13.4825108 31.1552441,13.4825108 29.1524028,13.4817594 C29.2298648,14.5111308 29.4227752,15.3549147 29.7318786,16.0168681 C30.0409821,16.6277287 30.594389,16.9327832 31.393589,16.9327832 C31.946251,16.9320319 32.3909131,16.7780019 32.7253407,16.4684391 C33.0605131,16.1588763 33.2981131,15.73736 33.4403752,15.207647 L33.7114924,15.207647 C33.877589,15.207647 34.0064441,15.2166634 34.0973131,15.2331934 C34.1874372,15.2512262 34.322251,15.3105841 34.5024993,15.4165267 C34.7862786,15.5562808 35.0700579,15.6952835 35.3530924,15.8342862 C35.1207062,17.018439 34.5993269,17.9433705 33.7882097,18.6060752 C32.9770924,19.2672773 31.97232,19.5978783 30.7746372,19.5978783 C29.3460579,19.5978783 28.1990234,18.9975369 27.3372579,17.7946 C26.4732579,16.5931658 26.0420028,14.9792318 26.0420028,12.9588087 C26.0427476,10.9383856 26.4985821,9.31768926 27.41472,8.09671957 C27.8765131,7.48736178 28.4120441,7.02527172 29.017589,6.71195211 C29.622389,6.39863251 30.3120993,6.24234839 31.0844855,6.24234839 C32.4356028,6.24234839 33.52752,6.78182914 34.3587476,7.86229339 C35.1884855,8.94200628 35.6040993,10.3793694 35.6040993,12.1743826" id="Fill-6" fill="#000000"></path>
            <path d="M39.7565876,40.5780446 C39.7565876,41.0138368 39.6322014,41.2820745 39.3856634,41.3805034 C39.16296,41.4150662 38.9402566,41.5660908 38.7175531,41.8320743 C38.5574152,42.0837819 38.3972772,42.3347382 38.2363945,42.5864458 C36.2707945,49.5283159 34.3051945,56.4709373 32.3388497,63.4143101 C31.3750428,64.0139002 30.4350703,64.3182034 29.5204221,64.317452 C28.6296083,64.317452 27.7402841,64.0146516 26.8502152,63.4143101 C25.5028221,58.3613741 24.1546841,53.308438 22.807291,48.2570047 C21.4099945,53.308438 20.0126979,58.3613741 18.6161462,63.4143101 C17.7260772,64.0139002 16.7987669,64.3182034 15.83496,64.317452 C14.9687255,64.317452 14.0913186,64.0169056 13.2019945,63.4173156 C11.186491,56.5055002 9.17173241,49.5936847 7.15697379,42.6818692 C7.05791172,42.1814595 6.78604966,41.8147929 6.34064276,41.5818695 C6.22891862,41.4503804 6.11793931,41.3196428 6.00621517,41.1889051 C5.98238069,41.001815 5.95780138,40.8139735 5.93322207,40.6268834 C5.98238069,40.5615145 6.01962207,40.511173 6.04420138,40.4773615 C6.16784276,40.3105583 6.34064276,40.1595337 6.56334621,40.0265419 C6.78604966,39.8927988 7.08249103,39.7921158 7.45267034,39.7244928 L12.8683117,39.7244928 C13.61016,39.7244928 13.9803393,40.0107633 13.9810841,40.5780446 C13.9803393,41.0138368 13.8194566,41.2820745 13.4991807,41.3805034 C14.6462152,45.9721008 15.7932497,50.5636982 16.9402841,55.1545442 C18.0106014,50.951403 19.0801738,46.7467591 20.1497462,42.5428665 C20.1363393,42.4068693 20.1229324,42.2701207 20.1095255,42.1333721 C20.1095255,41.9643148 19.9583255,41.7809815 19.6559255,41.5818695 C19.5322841,41.4503804 19.4086428,41.3196428 19.2842566,41.1889051 L19.2842566,40.6268834 C19.3334152,40.5615145 19.3706566,40.511173 19.3952359,40.4773615 C19.5188772,40.3105583 19.6924221,40.1595337 19.9151255,40.0265419 C20.137829,39.8927988 20.4335255,39.7921158 20.8044497,39.7244928 L26.5902703,39.7244928 C27.3313738,39.7244928 27.7022979,40.0107633 27.7022979,40.5780446 C27.7022979,41.0138368 27.5294979,41.2820745 27.1838979,41.3805034 L27.1838979,41.5818695 L27.1838979,41.8335771 C27.2583807,42.0341918 27.3328634,42.2348065 27.4073462,42.4361726 C28.4098841,46.6423192 29.4124221,50.8492172 30.41496,55.0553639 C31.4547393,50.9160888 32.4945186,46.7775651 33.5342979,42.63829 L33.8069048,41.9560497 C33.8240359,41.847853 33.8411669,41.7396563 33.8582979,41.6314596 C33.7100772,41.4646564 33.5626014,41.2971018 33.4143807,41.1302985 L33.4143807,40.6268834 C33.5626014,40.3947113 33.69816,40.2264053 33.8225462,40.1257223 C34.0936634,39.8589873 34.4526703,39.7252442 34.8980772,39.7244928 L38.6430703,39.7244928 C39.3856634,39.7244928 39.7565876,40.0107633 39.7565876,40.5780446" id="Fill-8" fill="#000000"></path>
            <path d="M59.7832883,63.1124113 C59.7214676,63.397179 59.6596469,63.6811953 59.5978262,63.965963 C59.0295228,64.0831761 58.4604745,64.2003892 57.8914262,64.3176023 L56.0375503,64.3176023 L54.1836745,64.3176023 C53.6526124,64.2003892 53.1208055,64.0831761 52.5889986,63.965963 C52.5145159,63.6811953 52.4407779,63.397179 52.3662952,63.1124113 L52.3662952,62.6608404 L52.7051917,62.6608404 C52.8020193,62.5609087 52.8995917,62.4594743 52.9964193,62.3587913 L52.9964193,61.9583132 L52.9964193,50.3151463 C52.9964193,46.701076 51.9454676,44.8925382 49.844309,44.8925382 C48.8797572,44.8932895 48.0820469,45.3719097 47.4519228,46.3238903 C46.8217986,47.2781251 46.5059917,48.6591357 46.5059917,50.4661709 L46.5059917,61.9583132 L46.5059917,62.3587913 C46.5774952,62.4594743 46.647509,62.5609087 46.7182676,62.6608404 L47.014709,62.6608404 C47.0437572,62.8118649 47.0713159,62.9621381 47.0996193,63.1124113 C47.0258814,63.397179 46.9513986,63.6811953 46.8769159,63.965963 C46.357771,64.0831761 45.8386262,64.2003892 45.3202262,64.3176023 L43.4648607,64.3176023 L41.5357572,64.3176023 C40.9920331,64.2003892 40.448309,64.0831761 39.9045848,63.965963 C39.8427641,63.8479986 39.7809434,63.7315369 39.7191228,63.6143238 L39.6818814,63.1124113 C39.7064607,62.9621381 39.7317848,62.8118649 39.7563641,62.6608404 L40.0528055,62.6608404 C40.1392055,62.5609087 40.2256055,62.4594743 40.3127503,62.3587913 L40.4237297,61.9583132 L40.4237297,32.5986884 C40.3492469,32.213989 40.275509,31.8285382 40.2002814,31.4445902 C39.7317848,31.3108471 39.4837572,31.0411067 39.4591779,30.64138 C39.4591779,30.1379648 39.7809434,29.6863939 40.4237297,29.2851645 C42.0534124,29.1010798 43.6823503,28.9169952 45.3120331,28.7329105 C45.6598676,28.7329105 45.9198124,28.783252 46.0948469,28.8839351 C46.2683917,28.9846181 46.4680055,29.2355743 46.6914538,29.6368037 C46.6296331,30.6406287 46.5678124,31.6444536 46.5059917,32.6475271 L46.5059917,43.3875522 C47.2731641,42.6016234 48.0388469,41.8156946 48.8052745,41.0305171 C50.116171,39.859889 51.3145986,39.2723208 52.4027917,39.2723208 C54.5039503,39.2723208 56.1418262,40.0928124 57.3171641,41.7315416 C58.4917572,43.3725248 59.0786814,45.7145325 59.0786814,48.758316 L59.0786814,61.9583132 L59.0786814,62.3587913 C59.175509,62.4594743 59.2723366,62.5609087 59.3691641,62.6608404 L59.7415779,62.6608404 L59.7832883,63.1124113 Z" id="Fill-10" fill="#000000"></path>
            <path d="M73.8390041,48.5026262 C73.8390041,46.9503041 73.5485214,45.734594 72.9683007,44.8562472 C72.3858455,43.9779004 71.5769628,43.5391027 70.5386731,43.5391027 C69.3759972,43.539854 68.5358317,44.0417665 68.0166869,45.0448401 C67.5958593,46.0141021 67.2867559,47.2711374 67.0893766,48.8084321 C67.7321628,48.8925851 68.374949,48.9759867 69.0177352,49.0593884 L70.0202731,49.0593884 L73.5053214,49.0593884 C73.7287697,49.0601397 73.8390041,48.8745523 73.8390041,48.5026262 M79.4766041,50.6665602 C79.4766041,52.3391008 79.1928248,53.1761225 78.6237766,53.1761225 L67.0893766,53.1761225 C67.2383421,55.1499608 67.6092662,56.7714086 68.202149,58.0434711 C68.7957766,59.215602 69.8579007,59.7994134 71.3915007,59.8001648 C72.4543697,59.8001648 73.3079421,59.5026238 73.9507283,58.907542 C74.5935145,58.3139629 75.049349,57.5069958 75.3227007,56.4866409 L75.8418455,56.4866409 C76.1628662,56.4873922 76.4108938,56.5046737 76.5836938,56.5369824 C76.7564938,56.5707939 77.0171834,56.6887583 77.3620386,56.8886217 C77.9065076,57.1568593 78.4509766,57.4243456 78.9947007,57.6910805 C78.5500386,59.9677194 77.5475007,61.740943 75.990811,63.0122542 C74.4326317,64.2835654 72.5035283,64.919221 70.2049903,64.919221 C67.4610455,64.919221 65.2593352,63.7643715 63.6035834,61.4561753 C61.9463421,59.1479791 61.1180938,56.0531027 61.1180938,52.1730489 C61.1180938,48.2899896 61.9955007,45.1785832 63.7510593,42.8365755 C64.6411283,41.665196 65.6675007,40.7785841 66.8301766,40.1759886 C67.9921076,39.5741445 69.3149214,39.2728468 70.7986179,39.2728468 C73.3943421,39.2728468 75.4895421,40.3104831 77.0849628,42.3842532 C78.6788938,44.459526 79.4766041,47.2207959 79.4766041,50.6665602" id="Fill-12" fill="#000000"></path>
            <path d="M93.0135476,48.5026262 C93.0135476,46.9503041 92.72232,45.734594 92.1420993,44.8562472 C91.560389,43.9779004 90.7507614,43.5391027 89.7124717,43.5391027 C88.5505407,43.539854 87.7103752,44.0417665 87.1904855,45.0448401 C86.7704028,46.0141021 86.4605545,47.2711374 86.2631752,48.8084321 C86.9067062,48.8925851 87.5494924,48.9759867 88.1915338,49.0593884 L89.1940717,49.0593884 L92.6798648,49.0593884 C92.9025683,49.0601397 93.0135476,48.8745523 93.0135476,48.5026262 M98.6504028,50.6665602 C98.6504028,52.3391008 98.3658786,53.1761225 97.79832,53.1761225 L86.2631752,53.1761225 C86.4121407,55.1499608 86.7830648,56.7714086 87.3766924,58.0434711 C87.97032,59.215602 89.0324441,59.7994134 90.5660441,59.8001648 C91.6281683,59.8001648 92.4817407,59.5026238 93.1252717,58.907542 C93.7673131,58.3139629 94.2246372,57.5069958 94.4972441,56.4866409 L95.0156441,56.4866409 C95.3366648,56.4873922 95.5846924,56.5046737 95.7582372,56.5369824 C95.9310372,56.5707939 96.1902372,56.6887583 96.5365821,56.8886217 C97.081051,57.1568593 97.6247752,57.4243456 98.1684993,57.6910805 C97.7238372,59.9677194 96.7220441,61.740943 95.1653545,63.0122542 C93.6071752,64.2835654 91.6788166,64.919221 89.3795338,64.919221 C86.6348441,64.919221 84.4331338,63.7643715 82.7766372,61.4561753 C81.1208855,59.1479791 80.2926372,56.0531027 80.2926372,52.1730489 C80.2918924,48.2899896 81.1700441,45.1785832 82.9256028,42.8365755 C83.8156717,41.665196 84.8412993,40.7785841 86.0039752,40.1759886 C87.1651614,39.5741445 88.4894648,39.2728468 89.9724166,39.2728468 C92.5688855,39.2728468 94.6640855,40.3104831 96.2580166,42.3842532 C97.8541821,44.459526 98.6511476,47.2207959 98.6504028,50.6665602" id="Fill-14" fill="#000000"></path>
            <path d="M108.034113,63.1124113 C107.95963,63.397179 107.885148,63.6811953 107.81141,63.965963 C107.255023,64.0831761 106.698637,64.2003892 106.141506,64.3176023 L104.213892,64.3176023 L102.248292,64.3176023 C101.679244,64.2003892 101.110941,64.0831761 100.541892,63.965963 C100.46741,63.8479986 100.393672,63.7315369 100.319189,63.6143238 L100.319189,63.1124113 C100.344513,62.9621381 100.369092,62.8118649 100.393672,62.6608404 L100.764596,62.6608404 C100.863658,62.5609087 100.96272,62.4594743 101.061782,62.3587913 C101.098279,62.2250481 101.13552,62.0920563 101.172761,61.9583132 L101.172761,32.5986884 C101.098279,32.213989 101.024541,31.8285382 100.950803,31.4445902 C100.480072,31.3439072 100.232044,31.0749182 100.208954,30.64138 C100.208954,30.1379648 100.529975,29.6863939 101.172761,29.2851645 C102.804679,29.1010798 104.435851,28.9169952 106.067768,28.7329105 C106.389534,28.7329105 106.630113,28.783252 106.791741,28.8839351 C106.952623,28.9846181 107.167879,29.2355743 107.440486,29.6368037 C107.378665,30.6406287 107.316844,31.6444536 107.255023,32.6475271 L107.255023,61.9583132 L107.255023,62.3587913 C107.364513,62.4594743 107.474003,62.5609087 107.583492,62.6608404 L107.952182,62.6608404 L108.034113,63.1124113 Z" id="Fill-16" fill="#000000"></path>
            <path d="M133.735059,52.1728986 L133.735059,50.7655902 C133.735059,48.6249486 133.43117,46.9433916 132.82637,45.7216705 C132.22008,44.5022036 131.336714,43.8905917 130.174039,43.8905917 C128.962949,43.8905917 128.023721,44.6194166 127.356356,46.0740611 C126.688246,47.529457 126.354563,49.5791833 126.354563,52.2209861 C126.354563,54.6974883 126.67037,56.6052064 127.300494,57.9441406 C127.931363,59.281572 128.876549,59.951039 130.137542,59.951039 C131.347887,59.9502877 132.251363,59.2387441 132.844246,57.8179111 C133.438618,56.3963267 133.735059,54.514155 133.735059,52.1728986 L133.735059,52.1728986 Z M140.596411,63.012104 C140.53459,63.1623771 140.47277,63.3126503 140.410949,63.4629235 C139.818066,63.6981011 138.884052,63.9069808 137.610397,64.0903141 C136.336742,64.2736474 135.255997,64.3668168 134.365183,64.3668168 C134.278783,64.1166119 134.192383,63.8656557 134.105983,63.6146995 C134.068742,63.3126503 134.031501,63.012104 133.995004,62.7100548 L133.995004,61.5559567 C133.945101,61.3560934 133.895197,61.1554787 133.846039,60.954864 C133.253156,62.0593719 132.393625,62.9963253 131.26819,63.7642213 C130.143501,64.5358741 129.062011,64.9190708 128.023721,64.9190708 C125.625377,64.9190708 123.665735,63.7146311 122.145542,61.3065032 C120.625349,58.8961212 119.86488,55.850835 119.864135,52.1728986 C119.864135,48.3574623 120.64248,45.2535695 122.201404,42.8619717 C123.758839,40.4703738 125.822756,39.2726965 128.394646,39.2726965 C129.557321,39.2719451 130.649983,39.6085571 131.677101,40.2772728 C132.702728,40.9467398 133.388714,41.6319856 133.735059,42.3352641 L133.735059,32.5983127 C133.661321,32.2143647 133.586839,31.8289139 133.513101,31.4442146 C132.993956,31.2766599 132.733266,31.009925 132.734011,30.6417557 C132.734011,30.1383405 133.10419,29.6860182 133.846039,29.2847888 C135.428052,29.1014555 137.010811,28.9173708 138.592825,28.7332862 C139.013652,28.667166 139.310094,28.7332862 139.484383,28.9346523 C139.655694,29.0691468 139.830728,29.3035729 140.003528,29.6371794 C139.941708,30.6410043 139.879887,31.6448293 139.818066,32.6479028 L139.818066,58.0936624 L139.818066,60.2012439 L140.186756,62.0586205 C140.378177,62.2269265 140.51448,62.4778828 140.596411,62.8114892 L140.596411,63.012104 Z" id="Fill-18" fill="#000000"></path>
            <path d="M154.429498,48.5026262 C154.429498,46.9503041 154.139015,45.734594 153.55805,44.8562472 C152.976339,43.9779004 152.168946,43.5391027 151.128422,43.5391027 C149.965746,43.539854 149.125581,44.0417665 148.606436,45.0448401 C148.185608,46.0141021 147.877994,47.2711374 147.67987,48.8084321 C148.322657,48.8925851 148.965443,48.9759867 149.608229,49.0593884 L150.610022,49.0593884 L154.095815,49.0593884 C154.318519,49.0601397 154.429498,48.8745523 154.429498,48.5026262 M159.21427,53.1761225 L147.67987,53.1761225 C147.828091,55.1499608 148.19827,56.7714086 148.792643,58.0434711 C149.38627,59.215602 150.44765,59.7994134 151.981994,59.8001648 C153.044119,59.8001648 153.898436,59.5026238 154.540477,58.907542 C155.184008,58.3139629 155.640588,57.5069958 155.913194,56.4866409 L156.431594,56.4866409 C156.75336,56.4873922 156.999898,56.5046737 157.174188,56.5369824 C157.346988,56.5707939 157.606188,56.6887583 157.952532,56.8886217 C158.497001,57.1568593 159.04147,57.4243456 159.585939,57.6910805 C159.139043,59.9677194 158.137994,61.740943 156.581305,63.0122542 C155.023126,64.2835654 153.094767,64.919221 150.794739,64.919221 C148.050794,64.919221 145.850574,63.7643715 144.193332,61.4561753 C142.536836,59.1479791 141.708588,56.0531027 141.708588,52.1730489 C141.708588,48.2899896 142.58525,45.1785832 144.341553,42.8365755 C145.232367,41.665196 146.25725,40.7785841 147.419926,40.1759886 C148.581857,39.5741445 149.90467,39.2728468 151.388367,39.2728468 C153.984836,39.2728468 156.079291,40.3104831 157.674712,42.3842532 C159.269388,44.459526 160.066353,47.2207959 160.066353,50.6665602 C160.066353,52.3391008 159.782574,53.1761225 159.21427,53.1761225 Z" id="Fill-20" fill="#000000"></path>
            <g id="Group-24" transform="translate(160.882759, 38.989507)" fill="#000000">
                <path d="M14.8721214,13.3315613 C14.8721214,8.24631653 13.60368,5.7044455 11.0690317,5.7044455 C9.95104552,5.70369413 9.10566621,6.33934973 8.53438345,7.6114123 C7.96235586,8.8827235 7.6770869,10.8573132 7.6770869,13.5336788 L7.6770869,14.6877769 C7.67634207,16.6954267 7.95043862,18.2169428 8.49714207,19.2553306 C9.06842483,20.2260954 9.87581793,20.7099751 10.920811,20.7099751 C12.1885076,20.7099751 13.1634869,20.0668058 13.8472386,18.7774618 C14.5295007,17.4896206 14.8721214,15.673569 14.8721214,13.3315613 M21.3618041,13.0806051 C21.3610593,16.8284185 20.5775007,19.9067648 19.0074041,22.3171468 C17.4365628,24.7260261 15.4158455,25.9297144 12.9437628,25.9297144 C11.8794041,25.928963 10.81728,25.5938538 9.75366621,24.9258895 C8.73921103,24.2233623 8.04875586,23.855193 7.6770869,23.8221329 L7.6770869,32.2021174 L7.6770869,32.6040982 C7.79774897,32.7047812 7.91990069,32.8054643 8.04056276,32.9053959 L8.44574897,32.9053959 C8.48671448,33.0511609 8.52693517,33.1969259 8.56715586,33.3434423 C8.54183172,33.5064887 8.51725241,33.6680324 8.49192828,33.8303274 C8.44276966,33.9941252 8.38243862,34.1060787 8.30795586,34.1714476 C7.70166621,34.2533465 7.09612138,34.334494 6.49057655,34.4163929 C5.87236966,34.4652317 5.25416276,34.5140705 4.63595586,34.5629092 C3.9186869,34.5118164 3.20216276,34.4622262 2.48563862,34.4118847 L0.96470069,34.1609285 L0.779238621,33.8107919 C0.766576552,33.6432373 0.753914483,33.4771854 0.741997241,33.3103822 C0.779238621,33.1593576 0.815735172,33.0083331 0.852976552,32.8588112 L1.18665931,32.8588112 C1.28572138,32.7573768 1.38478345,32.6574452 1.48310069,32.5560108 C1.52034207,32.423019 1.55758345,32.2900272 1.59408,32.1577868 L1.59408,4.64727359 C1.52257655,4.26407695 1.4510731,3.87937758 1.38031448,3.49542958 C1.25518345,3.49542958 1.09281103,3.39474654 0.893197241,3.19338046 C0.806052414,3.02582585 0.718907586,2.85902261 0.631017931,2.69297073 C0.631017931,2.42548445 0.712204138,2.17452822 0.88128,1.94010204 C1.11888,1.72295728 1.35648,1.50506115 1.59408,1.28791639 C3.21333517,1.10383173 4.83259034,0.918995704 6.45184552,0.734911044 C6.97918345,0.736413776 7.38660414,1.03696016 7.6770869,1.63805293 L7.6770869,4.04843492 C8.26848,3.11073021 9.10045241,2.25041618 10.1730041,1.46373602 C11.2463007,0.677055866 12.3613076,0.283340103 13.521749,0.283340103 C15.8880662,0.283340103 17.7873766,1.43743822 19.2167007,3.74638581 C20.6467697,6.0553334 21.3618041,9.16673983 21.3618041,13.0806051" id="Fill-22"></path>
            </g>
            <path d="M194.3352,54.7035743 L194.3352,53.4818533 C194.075255,53.345856 193.816055,53.2106102 193.556855,53.0746129 L192.480579,53.0746129 C191.318648,53.0746129 190.397297,53.4179872 189.717269,54.1047356 C189.037986,54.7899814 188.698345,55.7186697 188.698345,56.8885465 C188.698345,57.7916884 188.920303,58.5971527 189.364966,59.2981772 C189.834952,59.9338328 190.465821,60.2524119 191.256828,60.2516606 C193.309572,60.2516606 194.3352,58.4025489 194.3352,54.7035743 M201.048331,62.4080809 C201.036414,62.5260453 201.023752,62.6432584 201.01109,62.7612229 C200.763807,62.9280261 200.331062,63.1624523 199.712855,63.4629987 C199.391834,63.632056 199.058152,63.7823292 198.711807,63.915321 C197.722676,64.2481761 196.881766,64.4172334 196.190566,64.4172334 C195.818897,64.4172334 195.522455,64.1159357 195.299752,63.5148429 C195.077793,62.7612229 194.85509,62.0083542 194.632386,61.2547341 C194.113241,62.2593104 193.363945,63.1203758 192.388221,63.839433 C191.411752,64.5592416 190.378676,64.9191459 189.291972,64.9191459 C187.339034,64.9191459 185.786814,64.2571925 184.6368,62.9370425 C183.487531,61.6153898 182.912524,59.9173027 182.912524,57.8427813 C182.912524,55.3009103 183.705766,53.2602003 185.293738,51.7183974 C186.086979,50.9850642 187.03589,50.4140261 188.140469,50.013548 C189.243559,49.6123186 190.515724,49.4109525 191.954731,49.4109525 L193.070483,49.4109525 C193.49131,49.4117039 193.914372,49.2268678 194.3352,48.8594499 L194.3352,47.6542589 C194.3352,44.8110901 193.454814,43.3872516 191.692552,43.3872516 C190.947724,43.3865002 190.333241,43.6817871 189.850593,44.2671011 C189.366455,44.8531666 189.049159,45.6308304 188.901683,46.6008438 C188.032469,47.2710623 187.126759,47.6046687 186.183807,47.6054201 C185.216276,47.6054201 184.472193,47.2710623 183.950814,46.6008438 C183.950814,44.5924426 184.717241,42.8703118 186.250841,41.431446 C187.016524,40.7289188 187.900634,40.1939463 188.902428,39.8242742 C189.903476,39.4576076 191.034869,39.2720203 192.295117,39.2727716 C194.792524,39.2720203 196.739503,39.9677851 198.1368,41.3555581 C199.533352,42.7448337 200.231255,44.7765273 200.232,47.4528928 L200.232,57.390459 C200.232,58.7632046 200.268497,59.8496798 200.342979,60.6536413 C200.418207,61.4553488 200.553021,61.8753624 200.751145,61.9076711 C200.899366,62.0076028 200.985766,62.0925072 201.01109,62.1586274 C201.023752,62.2412776 201.036414,62.3254306 201.048331,62.4080809" id="Fill-25" fill="#000000"></path>
            <path d="M217.552146,41.7315416 C217.552146,43.2057216 217.260919,44.4101612 216.679953,45.3463632 C216.098988,46.2840679 215.55005,46.8498465 215.029415,47.0527153 C214.744891,46.8513492 214.461857,46.6514859 214.177332,46.4501198 C213.880146,46.3824969 213.583705,46.3163767 213.285774,46.2487537 C212.149167,46.2502565 211.327622,46.6605023 210.821139,47.4824966 C210.313912,48.304491 210.059926,49.5870727 210.06067,51.3324958 L210.06067,61.9545564 C210.097167,62.0559908 210.134408,62.1574252 210.17165,62.2581082 L210.17165,62.3587913 C210.31987,62.4594743 210.468091,62.5609087 210.616312,62.6608404 L211.09896,62.6608404 L211.247181,63.1124113 C211.160781,63.397179 211.074381,63.6811953 210.987981,63.965963 C210.381691,64.0831761 209.776146,64.2003892 209.169857,64.3176023 L207.018794,64.3176023 L205.036063,64.3176023 C204.472229,64.2003892 203.909139,64.0831761 203.345305,63.965963 C203.284229,63.8487499 203.223153,63.7315369 203.162077,63.6143238 L203.162077,63.1124113 L203.162077,62.6608404 L203.511401,62.6608404 C203.627594,62.5609087 203.743788,62.4594743 203.860726,62.3587913 C203.899457,62.2250481 203.938932,62.0920563 203.977663,61.9583132 L203.977663,43.6400111 C203.915843,43.2545604 203.854022,42.8706124 203.792201,42.4851616 C203.643236,42.4851616 203.513636,42.410025 203.402657,42.2597519 C203.291677,42.1087273 203.211236,41.9156262 203.162077,41.6827028 C203.162077,41.4813367 203.247732,41.2484133 203.422022,40.9794243 C203.656643,40.7457494 203.891263,40.5113233 204.125884,40.2768971 C205.72056,40.0928124 207.315981,39.9087278 208.909912,39.7246431 C209.470767,39.7261458 209.891594,40.0259409 210.17165,40.6270336 L210.17165,44.3417869 C210.714629,42.5843419 211.413277,41.334069 212.26685,40.5902167 C213.120422,39.845613 214.10285,39.4744382 215.214877,39.4736869 C215.858408,39.4744382 216.37085,39.6577715 216.755181,40.0259409 C217.138022,40.3948615 217.403926,40.9621428 217.552146,41.7315416" id="Fill-27" fill="#000000"></path>
            <path d="M230.791754,42.1086522 C230.791754,42.9043487 230.68152,43.6985425 230.458072,44.4927363 L225.933989,44.4927363 L225.933989,56.0352202 C225.933244,58.1097416 226.66243,59.147378 228.121548,59.147378 C228.690596,59.147378 229.133768,59.0639764 229.457023,58.8964218 C229.740803,58.7792087 230.025327,58.6619956 230.309851,58.5447825 C230.42083,59.7830336 230.53181,61.0212847 230.643534,62.2587844 C230.347092,62.8606286 229.716223,63.4557104 228.752417,64.0410245 C227.787865,64.6263386 226.75032,64.9186199 225.636058,64.9186199 C221.779341,64.9186199 219.851727,62.594645 219.851727,57.9436897 L219.851727,44.4927363 L216.921575,44.4927363 C216.648968,43.7736791 216.51341,43.087682 216.51341,42.4339936 C216.51341,41.6826277 216.59981,40.9643218 216.773354,40.2768219 L218.664472,40.2768219 C219.690099,38.3533251 220.716472,36.4290769 221.742844,34.50558 C222.458623,34.2215637 223.175892,33.936796 223.892417,33.6520283 C224.881548,33.3191732 225.549658,33.1508672 225.896748,33.1508672 C225.908665,33.3342005 225.921327,33.5182852 225.933989,33.7023698 L225.933989,39.724568 C227.44152,39.7087893 228.949796,39.6915079 230.458072,39.6757292 C230.680775,40.5367946 230.791754,41.3467671 230.791754,42.1086522" id="Fill-29" fill="#000000"></path>
            <path d="M263.799087,63.1124113 C263.724604,63.397179 263.650866,63.6811953 263.576383,63.965963 C263.057239,64.0831761 262.538094,64.2003892 262.018204,64.3176023 L260.238066,64.3176023 L258.476549,64.3176023 C257.963363,64.2003892 257.450177,64.0831761 256.935501,63.965963 C256.862508,63.6811953 256.78877,63.397179 256.715032,63.1124113 L256.715032,62.6608404 L256.98317,62.6608404 C257.042011,62.5609087 257.100852,62.4594743 257.160439,62.3587913 L257.160439,61.9583132 L257.160439,50.2137119 C257.160439,46.6680159 256.171308,44.8925382 254.193046,44.8925382 C253.17859,44.8932895 252.393542,45.3208168 251.837156,46.1728658 C251.281514,47.0264175 251.003694,48.3570866 251.003694,50.1641217 L251.003694,61.9583132 L251.003694,62.3587913 C251.08339,62.4594743 251.163087,62.5609087 251.243528,62.6608404 L251.442397,62.6608404 C251.469211,62.8118649 251.49528,62.9621381 251.522839,63.1124113 C251.448356,63.397179 251.373873,63.6811953 251.300135,63.965963 C250.780246,64.0831761 250.261846,64.2003892 249.742701,64.3176023 L247.961818,64.3176023 L246.033459,64.3176023 C245.489735,64.2003892 244.946011,64.0831761 244.402287,63.965963 C244.327804,63.6811953 244.254066,63.397179 244.179583,63.1124113 L244.179583,62.6608404 L244.597432,62.6608404 C244.705432,62.5609087 244.813432,62.4594743 244.921432,62.3587913 L244.921432,61.9583132 L244.921432,50.2137119 C244.921432,46.6680159 243.91368,44.8925382 241.899666,44.8925382 C240.879997,44.8932895 240.095694,45.3148058 239.548246,46.1495734 C239.001542,46.9850924 238.72819,48.3232751 238.72819,50.1641217 L238.72819,61.9583132 C238.790756,62.191988 238.852577,62.4271656 238.915142,62.6608404 L239.064852,62.6608404 C239.078259,62.8118649 239.090177,62.9621381 239.103583,63.1124113 C239.029101,63.397179 238.955363,63.6811953 238.88088,63.965963 C238.608273,64.033586 238.334921,64.0997062 238.063059,64.1673291 C237.839611,64.2176706 237.617652,64.2672608 237.394204,64.3176023 L235.611087,64.3176023 L233.627611,64.3176023 C233.066011,64.2003892 232.503666,64.0831761 231.942066,63.965963 C231.880246,63.8479986 231.81768,63.7315369 231.755859,63.6143238 L231.755859,63.1124113 C231.778949,62.9621381 231.801294,62.8118649 231.824383,62.6608404 L232.138701,62.6608404 C232.219887,62.5609087 232.301073,62.4594743 232.381514,62.3587913 L232.534204,61.9583132 L232.534204,43.6400111 C232.483556,43.2545604 232.432908,42.8706124 232.381514,42.4851616 C232.234783,42.4851616 232.104439,42.410025 231.994204,42.2597519 C231.88397,42.1087273 231.805018,41.9156262 231.755859,41.6827028 C231.755859,41.4813367 231.84077,41.2484133 232.012825,40.9794243 L232.713708,40.2768971 C234.32328,40.0928124 235.932108,39.9087278 237.54168,39.7246431 C238.035501,39.7261458 238.429514,40.0259409 238.72819,40.6270336 L238.72819,43.3875522 C239.200411,42.8195195 239.686039,42.2935633 240.182839,41.8081809 C240.680383,41.3227985 241.177183,40.8629625 241.676218,40.4271703 C242.59608,39.6585229 243.703639,39.2723208 244.997404,39.2723208 C246.414066,39.2723208 247.602811,39.7163781 248.560659,40.6037413 C249.517763,41.4903531 250.258866,42.5693146 250.78099,43.8406258 C251.424521,42.5685633 252.283308,41.4903531 253.358094,40.6037413 C254.433625,39.7156267 255.700577,39.2723208 257.160439,39.2723208 C261.289763,39.2723208 263.35368,42.4340688 263.35368,48.758316 L263.35368,61.9583132 L263.35368,62.3587913 C263.421459,62.4594743 263.488494,62.5609087 263.556273,62.6608404 L263.758121,62.6608404 C263.772273,62.8118649 263.784935,62.9621381 263.799087,63.1124113" id="Fill-31" fill="#000000"></path>
            <path d="M277.446786,48.5026262 C277.446786,46.9503041 277.154814,45.734594 276.575338,44.8562472 C275.992883,43.9779004 275.184745,43.5391027 274.14571,43.5391027 C272.985269,43.539854 272.143614,44.0417665 271.625214,45.0448401 C271.202152,46.0141021 270.895283,47.2711374 270.697159,48.8084321 C271.34069,48.8925851 271.983476,48.9759867 272.625517,49.0593884 L273.62731,49.0593884 L277.113848,49.0593884 C277.335807,49.0601397 277.446786,48.8745523 277.446786,48.5026262 M283.084386,50.6665602 C283.084386,52.3391008 282.799862,53.1761225 282.231559,53.1761225 L270.697159,53.1761225 C270.845379,55.1499608 271.217048,56.7714086 271.810676,58.0434711 C272.402814,59.215602 273.465683,59.7994134 275.000028,59.8001648 C276.062152,59.8001648 276.914979,59.5026238 277.55851,58.907542 C278.200552,58.3139629 278.657131,57.5069958 278.930483,56.4866409 L279.449628,56.4866409 C279.770648,56.4873922 280.018676,56.5046737 280.192221,56.5369824 C280.363531,56.5707939 280.624221,56.6887583 280.969821,56.8886217 C281.51429,57.1568593 282.058014,57.4243456 282.602483,57.6910805 C282.157076,59.9677194 281.155283,61.740943 279.598593,63.0122542 C278.040414,64.2835654 276.112055,64.919221 273.812772,64.919221 C271.068083,64.919221 268.866372,63.7643715 267.211366,61.4561753 C265.552634,59.1479791 264.725876,56.0531027 264.725876,52.1730489 C264.725876,48.2899896 265.603283,45.1785832 267.358841,42.8365755 C268.24891,41.665196 269.276028,40.7785841 270.437214,40.1759886 C271.5984,39.5741445 272.921959,39.2728468 274.405655,39.2728468 C277.001379,39.2728468 279.097324,40.3104831 280.691255,42.3842532 C282.285931,44.459526 283.084386,47.2207959 283.084386,50.6665602" id="Fill-33" fill="#000000"></path>
            <path d="M304.705688,63.1124113 C304.63195,63.397179 304.558212,63.6811953 304.484474,63.965963 C303.940006,64.0831761 303.395537,64.2003892 302.851812,64.3176023 L301.034433,64.3176023 L299.179812,64.3176023 C298.648006,64.2003892 298.116943,64.0831761 297.585137,63.965963 C297.511399,63.6811953 297.436916,63.397179 297.363178,63.1124113 L297.363178,62.6608404 L297.702819,62.6608404 C297.799647,62.5609087 297.89573,62.4594743 297.992557,62.3587913 L297.992557,61.9583132 L297.992557,50.3151463 C297.991812,46.701076 296.931178,44.8925382 294.803206,44.8925382 C293.789495,44.8925382 292.973164,45.3636446 292.355702,46.2990952 C291.737495,47.2368 291.428392,48.6245729 291.428392,50.4661709 L291.428392,61.9583132 L291.428392,62.3587913 C291.495426,62.4594743 291.562461,62.5609087 291.629495,62.6608404 L291.871564,62.6608404 C291.884971,62.8118649 291.898378,62.9621381 291.91104,63.1124113 C291.837302,63.397179 291.762819,63.6811953 291.688337,63.965963 C291.181854,64.0831761 290.674626,64.2003892 290.167399,64.3176023 L288.388006,64.3176023 L286.460392,64.3176023 C285.915178,64.2003892 285.371454,64.0831761 284.82773,63.965963 C284.765909,63.8479986 284.704088,63.7315369 284.642268,63.6143238 L284.605026,63.1124113 L284.670571,62.6608404 L284.93275,62.6608404 C285.008723,62.5609087 285.084695,62.4594743 285.160668,62.3587913 L285.34613,61.9583132 L285.34613,43.6400111 C285.284309,43.2545604 285.222488,42.8706124 285.160668,42.4851616 C285.012447,42.4851616 284.882847,42.410025 284.771123,42.2597519 C284.660143,42.1087273 284.579702,41.9156262 284.529799,41.6827028 C284.529799,41.4813367 284.616943,41.2484133 284.791233,40.9794243 C285.025854,40.7449981 285.260474,40.5113233 285.495095,40.2768971 C287.077854,40.0928124 288.659868,39.9087278 290.242626,39.7246431 C290.735702,39.7261458 291.132695,40.0259409 291.428392,40.6270336 L291.428392,43.3875522 C292.184392,42.6016234 292.941137,41.8156946 293.697881,41.0305171 C295.011757,39.859889 296.228061,39.2723208 297.343068,39.2723208 C299.476254,39.2723208 301.131261,40.0928124 302.308833,41.7315416 C303.485661,43.3725248 304.077054,45.7145325 304.076309,48.758316 L304.076309,61.9583132 L304.076309,62.3587913 C304.167923,62.4594743 304.260281,62.5609087 304.351895,62.6608404 L304.628226,62.6608404 C304.654295,62.8118649 304.680364,62.9621381 304.705688,63.1124113" id="Fill-35" fill="#000000"></path>
            <path d="M318.947611,42.1086522 C318.947611,42.9043487 318.836632,43.6985425 318.613928,44.4927363 L314.089101,44.4927363 L314.089101,56.0352202 C314.088356,58.1097416 314.818287,59.147378 316.277404,59.147378 C316.844963,59.147378 317.29037,59.0639764 317.612135,58.8964218 C317.896659,58.7792087 318.181183,58.6619956 318.465708,58.5447825 C318.576687,59.7830336 318.687666,61.0212847 318.79939,62.2587844 C318.502204,62.8606286 317.87208,63.4557104 316.907528,64.0410245 C315.942977,64.6263386 314.903942,64.9186199 313.792659,64.9186199 C309.934452,64.9186199 308.007583,62.594645 308.006839,57.9436897 L308.006839,44.4927363 L305.076687,44.4927363 C304.80557,43.7736791 304.667777,43.087682 304.668521,42.4339936 C304.667777,41.6826277 304.755666,40.9643218 304.927721,40.2768219 L306.819583,40.2768219 L309.898701,34.50558 C310.615225,34.2215637 311.331749,33.936796 312.049018,33.6520283 C313.037404,33.3191732 313.706259,33.1508672 314.051859,33.1508672 C314.063777,33.3342005 314.076439,33.5182852 314.089101,33.7023698 L314.089101,39.724568 C315.596632,39.7087893 317.104908,39.6915079 318.613928,39.6757292 C318.836632,40.5367946 318.947611,41.3467671 318.947611,42.1086522" id="Fill-37" fill="#000000"></path>
            <g id="Group-41" transform="translate(0.000000, 14.194430)" fill="#0CB294">
                <path d="M6.53504276,11.5360972 C6.53504276,11.5360972 4.86886345,11.6908786 3.31440828,9.58555122 C1.4143531,7.01663101 1.26389793,3.77373553 1.26389793,3.77373553 C1.26389793,3.77373553 0.000670344827,3.72865357 -7.44827589e-05,1.98698728 C-7.44827589e-05,0.309187092 2.43849103,0.263353769 2.43849103,0.263353769 C2.43849103,0.263353769 4.92323586,0.263353769 4.92323586,2.00126323 C4.92323586,3.97284751 3.81493241,3.83459617 3.81493241,3.83459617 C3.81493241,3.83459617 3.73374621,5.27496471 4.66552552,6.53801089 C5.79244966,8.06102969 6.53057379,8.08131657 6.52982897,8.08206794 C108.704532,8.08883023 210.878491,8.09559252 313.053194,8.10310618 C313.555208,9.24668517 314.055732,10.3910155 314.557746,11.5345945 C211.884008,11.5353459 109.209526,11.5353459 6.53504276,11.5360972" id="Fill-39"></path>
            </g>
            <path d="M315.646833,25.7305273 L314.981702,25.7305273 C314.487137,24.5839428 313.993316,23.4373584 313.49875,22.2907739 L314.164626,22.2907739 C314.658447,23.4373584 315.153012,24.5839428 315.646833,25.7305273" id="Fill-42" fill="#000000"></path>
            <path d="M316.721172,25.7305273 L316.056041,25.7305273 C315.561476,24.5839428 315.06691,23.4373584 314.57309,22.2907739 L315.238221,22.2907739 C315.732786,23.4373584 316.226607,24.5839428 316.721172,25.7305273" id="Fill-44" fill="#000000"></path>
            <path d="M317.89152,25.7305273 L317.226389,25.7305273 C316.731823,24.5839428 316.237258,23.4373584 315.742692,22.2907739 L316.407823,22.2907739 C316.902389,23.4373584 317.396954,24.5839428 317.89152,25.7305273" id="Fill-46" fill="#000000"></path>
            <path d="M319.050174,25.7305273 L318.384298,25.7305273 C317.889732,24.5839428 317.395167,23.4373584 316.900601,22.2907739 L317.567222,22.2907739 C318.061788,23.4373584 318.555608,24.5839428 319.050174,25.7305273" id="Fill-48" fill="#000000"></path>
            <path d="M320.124513,25.7305273 L319.458637,25.7305273 C318.964072,24.5839428 318.469506,23.4373584 317.974941,22.2907739 L318.640817,22.2907739 C319.135382,23.4373584 319.629948,24.5839428 320.124513,25.7305273" id="Fill-50" fill="#000000"></path>
            <path d="M321.198852,25.7305273 L320.532232,25.7305273 C320.038411,24.5839428 319.543846,23.4373584 319.050025,22.2907739 L319.715156,22.2907739 C320.209721,23.4373584 320.704287,24.5839428 321.198852,25.7305273" id="Fill-52" fill="#000000"></path>
            <path d="M322.271702,25.7305273 L321.606571,25.7305273 C321.112006,24.5839428 320.618185,23.4373584 320.123619,22.2907739 L320.789495,22.2907739 C321.283316,23.4373584 321.777881,24.5839428 322.271702,25.7305273" id="Fill-54" fill="#000000"></path>
            <path d="M323.347531,25.7305273 L322.68091,25.7305273 C322.18709,24.5839428 321.692524,23.4373584 321.198703,22.2907739 L321.863834,22.2907739 C322.3584,23.4373584 322.852966,24.5839428 323.347531,25.7305273" id="Fill-56" fill="#000000"></path>
        </g>
    </g>
</svg>