<?xml version="1.0" encoding="UTF-8"?>
<svg width="222px" height="88px" viewBox="0 0 222 88" version="1.1" xmlns="http://www.w3.org/2000/svg" xmlns:xlink="http://www.w3.org/1999/xlink">
    <!-- Generator: Sketch 41.2 (35397) - http://www.bohemiancoding.com/sketch -->
    <title>abc</title>
    <desc>Created with Sketch.</desc>
    <defs>
        <polygon id="path-1" points="75.1342809 0.093 0.6774 0.093 0.6774 73.5729997 75.1342809 73.5729997 75.1342809 0.093"></polygon>
    </defs>
    <g id="wireframe" stroke="none" stroke-width="1" fill="none" fill-rule="evenodd">
        <g id="Desktop-HD-Copy" transform="translate(-141.000000, -4373.000000)">
            <g id="commanditaire" transform="translate(0.000000, 3666.000000)">
                <g id="logo" transform="translate(141.000000, 265.000000)">
                    <g id="abc" transform="translate(0.000000, 441.000000)">
                        <path d="M144.4856,68.6766 C140.0916,65.1376 137.6966,59.7316 137.7686,54.0286 C137.7716,53.2296 137.8096,52.4146 137.8946,51.5926 C138.7656,42.1296 143.1666,33.8606 150.5316,27.7586 C157.9196,21.5376 167.2866,18.4666 177.8156,18.4956 C183.8556,18.4956 189.2696,19.4946 193.9406,21.7266 L191.8746,26.0526 L193.9406,21.7266 L197.9476,23.6406 L190.7246,42.3446 L185.7996,39.2486 C183.0306,37.5316 180.4356,36.7816 177.6966,36.7706 C172.7156,36.8076 169.1716,38.1586 166.1116,40.8976 C163.0006,43.7686 161.4066,46.9176 160.9566,51.2546 C160.9356,51.4406 160.9266,51.6156 160.9286,51.8006 C160.9606,53.0416 161.2096,53.6816 162.0386,54.6336 C162.9286,55.5236 163.8466,56.0216 166.1096,56.0686 C169.6196,56.0886 174.6156,54.7886 180.7586,51.7926 L189.8766,47.3716 L184.2846,70.7296 L181.7386,71.5656 C175.8286,73.4986 169.7946,74.4806 163.7066,74.4786 L163.6726,74.4786 C156.0096,74.4786 149.4136,72.7526 144.4856,68.6766" id="Fill-1" fill="#8D8B8C"></path>
                        <path d="M48.9378,55.7977 C49.0078,55.8977 49.9998,56.3867 52.1428,56.3717 C54.1708,56.3377 56.1368,55.5197 58.7528,52.5037 L62.4168,55.6047 L58.7548,52.5037 C60.5968,50.4347 63.2218,44.9537 65.8738,36.6157 C65.6568,36.6117 65.4358,36.6097 65.2208,36.6077 C60.6778,36.6707 57.4988,38.1227 54.3328,41.6647 C51.0758,45.4387 49.3178,49.5217 48.8228,54.4387 C48.7998,54.6177 48.7928,54.7887 48.7928,54.9587 C48.7928,55.4727 48.8718,55.6977 48.8988,55.7507 L48.9128,55.7787 L48.9148,55.7787 C48.9148,55.7787 48.9178,55.7787 48.9378,55.7977 M47.9538,74.4807 C41.2788,74.4807 35.4608,72.9747 31.2068,69.1467 C27.5238,65.9037 25.6328,61.0887 25.6968,56.0977 C25.6888,55.3197 25.7328,54.5257 25.8118,53.7287 C26.7128,44.0317 31.3618,35.4397 39.0868,28.7597 C46.8538,21.9487 56.5048,18.4627 67.1848,18.4937 C76.7918,18.5197 83.7168,19.1327 88.7698,20.8507 L93.2318,22.4037 L82.6778,54.3147 L78.1198,52.8107 L82.6688,54.3397 C82.4628,54.9537 82.2928,55.7347 82.2058,56.7077 C81.9828,58.9467 81.8788,60.8807 81.8788,62.4707 C81.8548,64.9777 82.2098,66.6577 82.3818,66.9917 L85.1658,73.6397 L69.8978,73.6407 C67.7158,73.6777 65.3148,72.8517 63.6318,71.2817 C63.5318,71.1947 63.4318,71.0977 63.3378,71.0017 C58.7418,73.3217 53.5548,74.4807 48.0428,74.4787 C48.0158,74.4807 47.9838,74.4807 47.9538,74.4807" id="Fill-3" fill="#8D8B8C"></path>
                        <g id="Group-7" transform="translate(71.000000, 0.907100)">
                            <mask id="mask-2" fill="white">
                                <use xlink:href="#path-1"></use>
                            </mask>
                            <g id="Clip-6"></g>
                            <path d="M35.1624,55.3349 C40.2834,55.3009 43.9134,53.9449 46.9384,51.2979 C49.8084,48.6799 51.2184,45.8789 51.6374,42.0029 C51.6754,41.5669 51.6974,41.1679 51.6974,40.8129 C51.6244,38.5689 51.1844,38.0189 50.4574,37.3799 C49.6884,36.7389 47.6884,35.9749 44.1724,35.9939 C42.1794,36.0189 40.5894,36.4909 38.9384,37.6529 L33.2564,55.1899 C33.7454,55.2749 34.3804,55.3389 35.1624,55.3349 M22.7874,70.6959 L20.0964,72.7319 L0.6774,72.7329 L4.8734,65.5239 C8.7154,58.9219 11.4184,53.0799 13.0054,48.1189 L28.2184,0.0929 L50.8724,0.0929 L45.3004,17.8669 C46.8324,17.6789 48.4154,17.5869 50.0394,17.5889 C57.7664,17.5539 64.5784,19.7479 69.3194,24.6289 L65.8824,27.9789 L69.3194,24.6339 C73.1864,28.5429 75.1824,33.8729 75.1334,39.5379 C75.1414,40.4479 75.0904,41.3689 75.0014,42.3089 C74.1874,51.1469 69.3954,58.8919 61.6624,64.6989 C53.9324,70.6029 44.7094,73.5929 34.6354,73.5729 L34.5014,73.5729 C30.1284,73.5729 26.0554,72.7329 22.7874,70.6959" id="Fill-5" fill="#8D8B8C" mask="url(#mask-2)"></path>
                        </g>
                        <path d="M146.0159,66.827 C142.1549,63.687 140.1299,59.157 140.1699,54.023 C140.1699,53.304 140.2039,52.572 140.2809,51.824 C141.1219,42.935 145.1469,35.365 152.0719,29.601 C159.0099,23.766 167.7229,20.879 177.8199,20.891 C183.5939,20.891 188.6469,21.856 192.9119,23.892 L191.8739,26.053 L192.9119,23.892 L194.9129,24.846 L189.5369,38.772 L187.0749,37.223 C183.9839,35.29 180.9139,34.376 177.6989,34.372 C172.2459,34.389 168.0049,35.962 164.4969,39.117 C160.9669,42.345 159.0609,46.157 158.5659,51.018 C158.5379,51.276 158.5279,51.535 158.5279,51.801 C158.5419,53.594 159.0739,54.931 160.2889,56.271 C161.6579,57.708 163.3749,58.445 166.1069,58.467 C170.1699,58.477 175.4609,57.032 181.8049,53.953 L186.3629,51.741 L182.2639,68.871 L180.9879,69.287 C175.3129,71.144 169.5409,72.08 163.7059,72.081 C156.3669,72.081 150.3719,70.434 146.0159,66.827" id="Fill-8" fill="#8D8B8C"></path>
                        <path d="M52.5247,40.0877 C48.9547,44.2057 46.9697,48.8217 46.4347,54.1847 C46.4087,54.4527 46.3947,54.7117 46.3917,54.9607 C46.4317,56.5347 46.7917,57.1387 47.4827,57.7057 C48.2027,58.2757 49.7067,58.7747 52.1377,58.7687 C55.0147,58.7517 57.7117,57.4167 60.5907,54.0527 L62.4167,55.6027 L60.5907,54.0527 C63.0517,51.1947 66.0437,44.5547 69.0267,34.5017 C67.7077,34.3047 66.4387,34.2087 65.2207,34.2057 C60.0597,34.2377 56.0457,36.0867 52.5247,40.0877 M47.9477,72.0807 C41.6177,72.0807 36.4487,70.6457 32.8117,67.3637 C29.6597,64.5667 28.0627,60.5747 28.0957,56.0977 C28.0897,55.4007 28.1277,54.6917 28.1957,53.9597 C29.0637,44.8647 33.3277,36.9307 40.6677,30.5667 C48.0197,24.1337 57.0037,20.8767 67.1847,20.8917 C76.6527,20.9057 83.4507,21.5617 87.9837,23.1137 L90.2087,23.8897 L80.3997,53.5667 L78.1197,52.8127 L80.3997,53.5747 C80.1187,54.3977 79.9237,55.3567 79.8177,56.4697 C79.5897,58.7707 79.4777,60.7807 79.4797,62.4657 C79.4667,65.1497 79.7947,67.0537 80.1717,67.9167 L81.5637,71.2397 L69.8987,71.2417 C68.2027,71.2567 66.4937,70.6617 65.2447,69.5057 C64.7347,69.0467 64.3007,68.5207 63.9267,67.9417 C59.2887,70.7037 53.9147,72.0807 48.0067,72.0797 C47.9857,72.0807 47.9667,72.0807 47.9477,72.0807" id="Fill-10" fill="#8D8B8C"></path>
                        <path d="M102.3206,58.0233 C103.1476,58.3853 104.4306,58.6403 106.1576,58.6373 C111.7326,58.6223 116.0496,57.0663 119.5386,53.9923 C122.8176,51.0253 124.5726,47.5573 125.0216,43.1483 L125.0176,43.1483 C125.0726,42.6373 125.0956,42.1673 125.0916,41.7243 C125.0556,38.9943 124.3266,37.5153 122.9366,36.3943 C121.5236,35.2773 118.9806,34.4913 115.1726,34.5023 C112.4416,34.5143 110.1236,35.3193 107.8946,37.0913 L101.3216,57.3833 C101.5646,57.6173 101.8786,57.8203 102.3206,58.0233 M93.7416,68.6263 L90.2826,71.2423 L75.8476,71.2423 L77.9496,67.6383 C81.8536,60.9203 84.6306,54.9373 86.2856,49.7463 L100.9736,3.3993 L118.6066,3.3993 L112.8116,21.8693 C115.3526,21.2113 118.1046,20.8913 121.0376,20.8933 C128.3706,20.8733 134.4116,22.8993 138.5996,27.2113 L136.8826,28.8853 L138.6016,27.2153 C142.0166,30.6913 143.7636,35.2823 143.7396,40.4453 C143.7396,41.2753 143.7016,42.1203 143.6146,42.9823 C142.8436,51.1163 138.5336,58.1633 131.2136,63.6963 C123.8846,69.2763 115.2486,72.0893 105.6316,72.0803 L105.5716,72.0803 C100.7436,72.0803 96.6666,71.0303 93.7416,68.6263" id="Fill-12" fill="#8D8B8C"></path>
                        <path d="M191.8743,26.0526 C188.0183,24.2076 183.3323,23.2926 177.8203,23.2926 C168.1663,23.2926 160.0983,26.0036 153.6123,31.4396 C147.1253,36.8626 143.4763,43.7396 142.6693,52.0566 C142.1383,57.5416 143.7633,61.8586 147.5413,64.9776 C151.3223,68.1126 156.7083,69.6806 163.7063,69.6806 C169.2863,69.6806 174.7983,68.7936 180.2443,67.0076 L182.8523,56.1106 C176.3033,59.2866 170.7293,60.8706 166.1113,60.8706 C162.9073,60.8716 160.3823,59.8816 158.5383,57.9116 C156.7023,55.9316 155.9203,53.5496 156.1753,50.7666 C156.7043,45.3946 158.9373,40.9206 162.8883,37.3426 C166.8363,33.7596 171.7723,31.9726 177.6993,31.9726 C181.3833,31.9726 184.9433,33.0506 188.3453,35.1906 L191.8743,26.0526" id="Fill-14" fill="#FEFEFE"></path>
                        <path d="M127.408,43.3758 C126.929,48.3258 124.845,52.4638 121.141,55.7788 C117.185,59.2848 112.191,61.0378 106.165,61.0358 C102.265,61.0378 99.773,59.9518 98.674,57.7798 L105.827,35.6918 C108.57,33.2948 111.685,32.1028 115.172,32.1048 C124.063,32.1028 128.143,35.8568 127.408,43.3758 M136.883,28.8898 C133.243,25.1538 127.969,23.2928 121.039,23.2948 C116.42,23.2948 112.433,24.1258 109.063,25.7958 L115.346,5.7978 L102.731,5.7958 L88.579,50.4738 C86.838,55.9018 83.991,62.0258 80.017,68.8428 L89.479,68.8428 L93.944,65.4618 C96.258,68.2778 100.153,69.6808 105.629,69.6828 C114.796,69.6808 122.839,67.0518 129.762,61.7858 C136.69,56.5288 140.504,50.1818 141.224,42.7488 C141.779,37.0428 140.329,32.4258 136.883,28.8898" id="Fill-16" fill="#FEFEFE"></path>
                        <path d="M62.4163,55.6024 C59.2843,59.3104 55.8583,61.1654 52.1423,61.1614 C46.2773,61.1614 43.5833,58.7554 44.0463,53.9344 C44.6203,48.1204 46.8383,42.9754 50.7163,38.5114 C54.5983,34.0424 59.4303,31.8094 65.2253,31.8094 C67.3953,31.8114 69.6723,32.0914 72.0653,32.6424 C68.7703,44.2484 65.5503,51.9024 62.4163,55.6024 M78.1243,52.8124 L87.1913,25.3784 C83.1853,23.9854 76.5283,23.2924 67.1883,23.2924 C57.5033,23.2924 49.1883,26.3184 42.2423,32.3744 C35.2953,38.4264 31.4113,45.6984 30.5893,54.1894 C30.1173,59.0594 31.3903,62.8574 34.4163,65.5854 C37.4393,68.3154 41.9553,69.6804 47.9543,69.6804 C54.5353,69.6804 60.1973,67.9204 64.9583,64.3744 C65.8353,67.3534 67.4863,68.8424 69.8963,68.8424 L77.9583,68.8424 C77.0083,66.5654 76.8333,62.3594 77.4313,56.2384 C77.5483,54.9794 77.7793,53.8424 78.1243,52.8124" id="Fill-18" fill="#FEFEFE"></path>
                        <path d="M200.9016,64.4247 C200.9016,64.4247 218.4656,67.2707 221.9216,69.8097 L221.9196,58.3817 C218.4656,55.8447 200.9016,52.9887 200.9016,52.9887 L200.9016,64.4247" id="Fill-20" fill="#8D8B8C"></path>
                        <path d="M21.0242,64.4237 C21.0242,64.4237 3.4552,67.2687 0.0002,69.8077 L0.0002,58.3817 C3.4552,55.8407 21.0262,52.9887 21.0262,52.9887 L21.0242,64.4237" id="Fill-22" fill="#8D8B8C"></path>
                        <path d="M110.9627,50.451 C83.6127,50.451 21.0247,53.624 17.7777,58.707 L17.7797,46.641 C21.0287,41.558 83.6107,38.385 110.9667,38.386 C138.3107,38.386 200.8997,41.561 204.1437,46.641 L204.1437,58.707 C200.9017,53.626 138.3107,50.451 110.9627,50.451" id="Fill-24" fill="#8D8B8C"></path>
                        <path d="M26.5149,48.4198 C26.3629,48.0358 25.6689,47.9158 24.5949,48.0948 C23.0969,48.3548 23.0069,49.2238 23.1579,49.8798 C23.3109,50.5228 23.7809,51.2328 25.2549,50.9868 C26.3539,50.8008 26.9229,50.4668 26.8829,50.0368 L29.6259,49.5798 C29.9199,50.6808 27.7369,51.4588 25.4489,51.8418 C22.5079,52.3378 20.7379,51.7768 20.4019,50.2988 C20.0699,48.8138 21.4669,47.7528 24.4029,47.2428 C26.6889,46.8528 29.0459,46.8408 29.2559,47.9568 L26.5149,48.4198" id="Fill-26" fill="#FEFEFE"></path>
                        <polygon id="Fill-28" fill="#FEFEFE" points="33.9822 48.8915 29.9062 46.4715 32.9702 46.1245 35.3422 47.7635 37.2082 45.6425 39.9282 45.3385 36.6172 48.5945 36.8662 50.2325 34.2222 50.5235"></polygon>
                        <path d="M47.2971,46.1463 C47.1821,45.7493 46.5111,45.5773 45.4191,45.6723 C43.8971,45.8023 43.7191,46.6633 43.7951,47.3283 C43.8741,47.9843 44.2651,48.7213 45.7651,48.5943 C46.8741,48.4973 47.4861,48.2173 47.4841,47.7853 L50.2641,47.5463 C50.4421,48.6723 48.1831,49.2693 45.8651,49.4673 C42.8811,49.7223 41.1861,49.0233 41.0031,47.5233 C40.8311,46.0183 42.3381,45.0733 45.3191,44.7993 C47.6371,44.5993 49.9851,44.7763 50.0741,45.9083 L47.2971,46.1463" id="Fill-30" fill="#FEFEFE"></path>
                        <polygon id="Fill-32" fill="#FEFEFE" points="51.8635 48.8768 51.4275 44.3938 54.0845 44.2058 54.4345 47.8228 58.7735 47.5218 58.8565 48.3908"></polygon>
                        <polygon id="Fill-34" fill="#FEFEFE" points="59.9768 48.3163 59.6178 43.8193 66.9258 43.3833 66.9958 44.2593 62.3478 44.5383 62.4228 45.4623 66.6978 45.2073 66.7658 46.0833 62.4878 46.3343 62.5668 47.2883 67.2208 47.0113 67.2928 47.8793"></polygon>
                        <path d="M73.7673,44.3592 C73.7693,44.1892 73.6403,44.0682 73.3953,43.9812 C73.1623,43.8982 72.8153,43.8672 72.3633,43.8932 C71.7463,43.9222 71.2343,44.1332 71.2513,44.3552 C71.2703,44.6882 72.1253,44.7552 72.8363,44.8032 C74.4563,44.9142 76.8023,44.8782 76.8893,46.0882 C76.9443,47.0352 74.9813,47.5812 72.7673,47.6912 C70.5333,47.8012 68.5443,47.5972 68.4193,46.3802 L71.0813,46.2472 C71.0993,46.6752 71.7763,46.8642 72.7263,46.8182 C73.3403,46.7882 74.1163,46.6032 74.0973,46.3032 C74.0603,45.6942 72.0993,45.9222 69.9833,45.5962 C68.9973,45.4472 68.4933,45.0602 68.4633,44.5722 C68.4973,43.5032 70.4653,43.1052 72.4693,43.0072 C74.4563,42.9172 76.5133,43.1442 76.4283,44.2342 L73.7673,44.3592" id="Fill-36" fill="#FEFEFE"></path>
                        <path d="M86.7424,46.2928 C86.1714,46.3078 85.2574,46.1848 85.2484,45.9038 C85.2344,45.5278 85.7674,45.4178 86.4024,45.2458 L88.2214,46.0058 C87.8834,46.1758 87.2184,46.2758 86.7424,46.2928 M86.8004,43.0958 C87.3584,43.0698 87.8684,43.1478 87.8794,43.4388 C87.8944,43.6558 87.2244,43.9158 86.8364,44.0428 C86.6104,43.9408 85.9304,43.6838 85.9294,43.5068 C85.9114,43.2138 86.4154,43.1048 86.8004,43.0958 M91.5854,45.8858 C92.3844,45.5788 92.8914,44.7678 92.9664,44.3168 L90.6674,44.3958 C90.6824,44.7038 90.3484,44.9838 90.0194,45.2318 L88.6124,44.6468 C89.4514,44.3428 90.5674,43.9158 90.5444,43.3838 C90.5014,42.4888 88.4594,42.3498 86.7654,42.4078 C85.3444,42.4528 83.2254,42.7568 83.2624,43.5838 C83.2814,44.0228 83.9424,44.3938 84.6384,44.6358 C83.4954,44.8828 82.4224,45.2748 82.4524,45.9188 C82.4944,46.9118 84.6214,47.1768 86.4194,47.1188 C87.5794,47.0768 88.7954,46.9408 89.7854,46.6178 L90.3484,46.8968 L93.5874,46.7858 L91.5854,45.8858" id="Fill-38" fill="#FEFEFE"></path>
                        <path d="M104.1223,43.4051 C104.1353,43.2351 104.0103,43.1051 103.7683,43.0091 C103.5463,42.9231 103.1983,42.8761 102.7373,42.8841 C102.1293,42.8921 101.6023,43.0871 101.6063,43.3051 C101.6063,43.6431 102.4633,43.7391 103.1723,43.8151 C104.7873,43.9831 107.1293,44.0231 107.1503,45.2471 C107.1713,46.1931 105.1843,46.6741 102.9543,46.6941 C100.7183,46.7281 98.7443,46.4521 98.6743,45.2301 L101.3433,45.1971 C101.3343,45.6171 102.0083,45.8381 102.9643,45.8301 C103.5783,45.8141 104.3643,45.6621 104.3583,45.3581 C104.3453,44.7441 102.3783,44.9031 100.2823,44.5001 C99.3033,44.3171 98.8183,43.9071 98.8143,43.4201 C98.8953,42.3551 100.8883,42.0351 102.9003,42.0051 C104.8853,41.9791 106.9253,42.2851 106.7873,43.3741 L104.1223,43.4051" id="Fill-40" fill="#FEFEFE"></path>
                        <path d="M112.7542,44.0975 L111.3812,44.0935 L111.3962,42.9445 L112.7602,42.9545 C113.8122,42.9825 114.2582,43.2095 114.2502,43.5455 C114.2462,43.8725 113.8012,44.0895 112.7542,44.0975 M113.1562,42.0835 L108.7382,42.0405 L108.6912,46.5475 L111.3522,46.5765 L111.3712,44.9625 L113.1282,44.9845 C115.4842,45.0005 117.0362,44.6595 117.0442,43.5735 C117.0552,42.4765 115.5142,42.1075 113.1562,42.0835" id="Fill-42" fill="#FEFEFE"></path>
                        <path d="M122.8904,45.9891 C121.0794,45.9401 120.7314,45.1451 120.7524,44.4801 C120.7774,43.7721 121.1734,42.9951 122.9904,43.0421 C124.7984,43.0871 125.1444,43.8871 125.1214,44.5891 C125.0994,45.2541 124.7004,46.0321 122.8904,45.9891 M123.0154,42.1691 C119.8284,42.0861 118.0044,42.9101 117.9604,44.3881 C117.9094,45.8771 119.6774,46.7841 122.8584,46.8561 C126.0414,46.9411 127.8704,46.1231 127.9224,44.6391 C127.9694,43.1591 126.1984,42.2471 123.0154,42.1691" id="Fill-44" fill="#FEFEFE"></path>
                        <path d="M133.075,44.495 L132.034,44.457 L132.087,43.418 L133.124,43.457 C133.974,43.488 134.792,43.577 134.777,44.039 C134.754,44.495 133.927,44.518 133.075,44.495 M137.212,46.148 C137.072,45.447 136.777,45.026 135.073,44.948 L135.073,44.923 C136.422,44.897 137.546,44.584 137.584,43.909 C137.629,42.957 135.538,42.675 133.912,42.614 L129.473,42.449 L129.244,46.943 L131.902,47.045 L131.992,45.333 L132.988,45.362 C134.344,45.413 134.39,45.637 134.463,46.184 C134.512,46.508 134.582,46.826 134.705,47.151 L137.595,47.254 C137.391,46.886 137.255,46.525 137.212,46.148" id="Fill-46" fill="#FEFEFE"></path>
                        <polygon id="Fill-48" fill="#FEFEFE" points="141.2688 43.7938 138.3308 43.6538 138.3808 42.7848 146.9828 43.1798 146.9318 44.0578 143.9268 43.9188 143.7058 47.5378 141.0418 47.4198"></polygon>
                        <path d="M153.1682,44.8563 C153.1912,44.6843 153.0812,44.5423 152.8522,44.4383 C152.6302,44.3343 152.2892,44.2653 151.8342,44.2363 C151.2342,44.2063 150.6782,44.3573 150.6592,44.5843 C150.6372,44.9123 151.4772,45.0663 152.1782,45.1973 C153.7782,45.4773 156.1032,45.6873 156.0142,46.9033 C155.9412,47.8503 153.9172,48.1843 151.6892,48.0543 C149.4642,47.9313 147.5162,47.5123 147.5692,46.2873 L150.2282,46.4423 C150.1832,46.8633 150.8352,47.1343 151.7922,47.1873 C152.3992,47.2193 153.1912,47.1193 153.2172,46.8183 C153.2642,46.2123 151.2902,46.2243 149.2292,45.6793 C148.2792,45.4183 147.8262,44.9883 147.8662,44.4953 C148.0542,43.4373 150.0702,43.2583 152.0762,43.3763 C154.0522,43.4863 156.0672,43.9303 155.8272,45.0013 L153.1682,44.8563" id="Fill-50" fill="#FEFEFE"></path>
                        <polygon id="Fill-52" fill="#FEFEFE" points="161.679 48.5838 162.125 44.0938 164.783 44.2978 164.418 47.9128 168.763 48.2328 168.668 49.1028"></polygon>
                        <polygon id="Fill-54" fill="#FEFEFE" points="172.3699 45.7723 169.4519 45.5133 169.5539 44.6443 178.1259 45.4043 178.0159 46.2733 175.0239 46.0053 174.5879 49.6143 171.9339 49.3803"></polygon>
                        <polygon id="Fill-56" fill="#FEFEFE" points="183.3235 45.4989 181.7685 45.3279 183.2725 44.5839 186.0225 44.8949 186.0135 44.9049"></polygon>
                        <polygon id="Fill-58" fill="#FEFEFE" points="178.5916 49.9862 179.2676 45.5172 186.5266 46.3362 186.3986 47.2072 181.7726 46.6822 181.6326 47.6042 185.8906 48.0782 185.7586 48.9492 181.5086 48.4722 181.3606 49.4172 185.9886 49.9392 185.8606 50.8022"></polygon>
                        <polygon id="Fill-60" fill="#FEFEFE" points="187.3396 50.9833 188.2746 46.5513 195.4806 47.6753 195.2996 48.5303 190.7206 47.8163 190.5206 48.7343 194.7386 49.3953 194.5626 50.2503 190.3386 49.5933 190.1446 50.5253 194.7286 51.2533 194.5516 52.1113"></polygon>
                        <polygon id="Fill-62" fill="#8D8B8C" points="39.2923 88.7987 39.2943 83.5277 43.6043 83.5277 45.2083 87.0917 45.2363 87.0917 46.7853 83.5277 51.0163 83.5277 51.0163 88.7987 48.6383 88.7987 48.6383 84.3937 48.6123 84.3827 46.3133 88.7987 43.8633 88.7987 41.7043 84.3377 41.6723 84.3507 41.6723 88.7987"></polygon>
                        <polygon id="Fill-64" fill="#8D8B8C" points="76.9402 83.5282 80.7482 83.5282 84.0442 87.4552 84.0672 87.4382 84.0652 83.5282 86.5172 83.5282 86.5152 88.7992 82.7452 88.7992 79.4202 84.7622 79.3942 84.7622 79.3922 88.7992 76.9402 88.7992"></polygon>
                        <polygon id="Fill-66" fill="#8D8B8C" points="98.6277 84.5506 95.6207 84.5476 95.6207 83.5286 104.4157 83.5286 104.4117 84.5506 101.3427 84.5506 101.3387 88.7986 98.6277 88.7986"></polygon>
                        <path d="M117.6712,85.7616 L116.6132,85.7616 L116.6152,84.5476 L117.6712,84.5506 C118.5452,84.5476 119.3842,84.6186 119.3842,85.1606 C119.3862,85.6966 118.5452,85.7596 117.6712,85.7616 M121.9832,87.5256 C121.8062,86.7066 121.4812,86.2296 119.7432,86.2106 L119.7432,86.1826 C121.1132,86.0956 122.2382,85.6746 122.2422,84.8886 C122.2382,83.7776 120.0932,83.5286 118.4362,83.5266 L113.8972,83.5306 L113.8972,88.7986 L116.6152,88.7986 L116.6152,86.7856 L117.6332,86.7856 C119.0182,86.7856 119.0742,87.0446 119.1842,87.6806 C119.2542,88.0576 119.3332,88.4376 119.4842,88.7986 L122.4332,88.7986 C122.2042,88.3666 122.0532,87.9596 121.9832,87.5256" id="Fill-68" fill="#8D8B8C"></path>
                        <polygon id="Fill-70" fill="#8D8B8C" points="132.8582 88.7987 132.8582 83.5277 140.3342 83.5297 140.3322 84.5477 135.5722 84.5507 135.5722 85.6387 139.9582 85.6387 139.9532 86.6557 135.5692 86.6557 135.5722 87.7727 140.3342 87.7727 140.3322 88.7987"></polygon>
                        <polygon id="Fill-72" fill="#8D8B8C" points="132.8582 88.7987 132.8582 83.5277 140.3342 83.5297 140.3322 84.5477 135.5722 84.5507 135.5722 85.6387 139.9582 85.6387 139.9532 86.6557 135.5692 86.6557 135.5722 87.7727 140.3342 87.7727 140.3322 88.7987"></polygon>
                        <polygon id="Fill-74" fill="#545758" points="136.9617 82.9872 135.3577 82.9842 136.7677 81.9302 139.5947 81.9302 139.5987 81.9452"></polygon>
                        <polygon id="Fill-76" fill="#8D8B8C" points="169.5857 88.7987 169.5877 83.5297 172.2997 83.5297 172.2997 87.7727 176.7517 87.7727 176.7517 88.7987"></polygon>
                        <polygon id="Fill-78" fill="#8D8B8C" points="169.5857 88.7987 169.5877 83.5297 172.2997 83.5297 172.2997 87.7727 176.7517 87.7727 176.7517 88.7987"></polygon>
                        <path d="M63.4129,88.2137 C61.1859,88.2137 60.8479,86.9397 60.8479,86.1917 C60.8479,85.4127 61.1879,84.1117 63.4089,84.1117 C65.6379,84.1117 65.9689,85.4127 65.9719,86.1887 C65.9689,86.9397 65.6359,88.2137 63.4129,88.2137 M63.4109,83.4207 C60.1619,83.4207 58.3239,84.4297 58.3239,86.1617 C58.3239,87.8977 60.1619,88.9067 63.4129,88.9067 C66.6599,88.9067 68.4939,87.8977 68.4939,86.1627 C68.4939,84.4297 66.6619,83.4207 63.4109,83.4207" id="Fill-80" fill="#8D8B8C"></path>
                        <path d="M153.5003,86.744 L154.8363,84.563 L154.8793,84.563 L156.1263,86.744 L153.5003,86.744 Z M156.6453,83.53 L153.3233,83.528 L149.4503,88.799 L152.1703,88.799 L152.8093,87.765 L156.7913,87.765 L157.4423,88.799 L160.5193,88.803 L156.6453,83.53 Z" id="Fill-82" fill="#8D8B8C"></path>
                    </g>
                </g>
            </g>
        </g>
    </g>
</svg>