<?xml version="1.0" encoding="UTF-8"?>
<svg width="185px" height="78px" viewBox="0 0 185 78" version="1.1" xmlns="http://www.w3.org/2000/svg" xmlns:xlink="http://www.w3.org/1999/xlink">
    <!-- Generator: Sketch 41.2 (35397) - http://www.bohemiancoding.com/sketch -->
    <title>aeets</title>
    <desc>Created with Sketch.</desc>
    <defs>
        <polygon id="path-1" points="7.4e-05 77.2641509 184.95782 77.2641509 184.95782 0.630696226 7.4e-05 0.630696226"></polygon>
        <polygon id="path-3" points="0 77.3693774 184.95782 77.3693774 184.95782 0.735849057 0 0.735849057"></polygon>
    </defs>
    <g id="wireframe" stroke="none" stroke-width="1" fill="none" fill-rule="evenodd">
        <g id="Desktop-HD-Copy" transform="translate(-1112.000000, -3957.000000)">
            <g id="commanditaire" transform="translate(0.000000, 3666.000000)">
                <g id="logo" transform="translate(141.000000, 265.000000)">
                    <g id="aeets" transform="translate(971.000000, 26.000000)">
                        <g id="Group-3" transform="translate(0.000000, 0.105226)">
                            <mask id="mask-2" fill="white">
                                <use xlink:href="#path-1"></use>
                            </mask>
                            <g id="Clip-2"></g>
                            <path d="M109.678434,19.4080925 L109.678434,0.630696226 C109.678434,0.630696226 52.210774,19.4080925 51.955474,19.4080925 L7.4e-05,19.4080925 L7.4e-05,77.2642245 L184.957894,77.2642245 L184.957894,19.4080925 L109.678434,19.4080925 Z" id="Fill-1" fill="#8D8B8C" mask="url(#mask-2)"></path>
                        </g>
                        <mask id="mask-4" fill="white">
                            <use xlink:href="#path-3"></use>
                        </mask>
                        <g id="Clip-4"></g>
                        <path d="M44.0620864,57.7977572 L46.6098472,66.2264151 L54.6450928,66.2264151 L44.4050542,33.3887536 L34.6059742,33.3887536 L24.5129218,66.2264151 L32.254195,66.2264151 L34.6059742,57.7977572 L44.0620864,57.7977572 Z M35.683873,52.2436126 L37.643689,45.2765717 C38.1826384,43.3764696 38.6725924,40.8917208 39.1625464,38.9428981 L39.2605372,38.9428981 C39.7504912,40.8917208 40.338436,43.3277491 40.9263808,45.2765717 L42.9841876,52.2436126 L35.683873,52.2436126 Z M78.7773142,46.2997036 L66.626455,46.2997036 L66.626455,39.4788243 L79.5122452,39.4788243 L79.5122452,33.3887536 L59.1301588,33.3887536 L59.1301588,66.2264151 L80.1981808,66.2264151 L80.1981808,60.1363443 L66.626455,60.1363443 L66.626455,52.3410538 L78.7773142,52.3410538 L78.7773142,46.2997036 Z M105.016338,46.2997036 L92.8654786,46.2997036 L92.8654786,39.4788243 L105.751269,39.4788243 L105.751269,33.3887536 L85.3691824,33.3887536 L85.3691824,66.2264151 L106.437204,66.2264151 L106.437204,60.1363443 L92.8654786,60.1363443 L92.8654786,52.3410538 L105.016338,52.3410538 L105.016338,46.2997036 Z M118.467562,66.2264151 L125.963858,66.2264151 L125.963858,39.624986 L134.979012,39.624986 L134.979012,33.3887536 L109.599395,33.3887536 L109.599395,39.624986 L118.467562,39.624986 L118.467562,66.2264151 Z M136.862422,64.7160775 C138.724247,65.7392094 142.447898,66.7136208 146.220543,66.7136208 C155.284692,66.7136208 159.547292,62.0364464 159.547292,56.5310225 C159.547292,51.9025687 156.80355,48.8818936 150.973097,46.7381887 C146.710497,45.13041 144.848672,44.2047192 144.848672,42.1097349 C144.848672,40.4045151 146.416525,38.9428981 149.650221,38.9428981 C152.883918,38.9428981 155.235697,39.8685889 156.558573,40.5019562 L158.224416,34.5093266 C156.2646,33.6323564 153.520858,32.8528274 149.797208,32.8528274 C142.006939,32.8528274 137.303381,37.1402372 137.303381,42.7431023 C137.303381,47.5177177 140.880045,50.5383928 146.36753,52.4384949 C150.336157,53.8513913 151.90401,55.0206849 151.90401,57.0669487 C151.90401,59.2106536 150.09118,60.62355 146.661502,60.62355 C143.476801,60.62355 140.390091,59.6004181 138.381279,58.5772862 L136.862422,64.7160775 Z" id="AEETS" fill="#FEFEFE" mask="url(#mask-4)"></path>
                    </g>
                </g>
            </g>
        </g>
    </g>
</svg>