<?xml version="1.0" encoding="UTF-8"?>
<svg width="139px" height="110px" viewBox="0 0 139 110" version="1.1" xmlns="http://www.w3.org/2000/svg" xmlns:xlink="http://www.w3.org/1999/xlink">
    <!-- Generator: Sketch 41.2 (35397) - http://www.bohemiancoding.com/sketch -->
    <title>click</title>
    <desc>Created with Sketch.</desc>
    <defs>
        <polygon id="path-1" points="0 109.796 138.682 109.796 138.682 0 0 0"></polygon>
    </defs>
    <g id="wireframe" stroke="none" stroke-width="1" fill="none" fill-rule="evenodd">
        <g id="Desktop-HD-Copy" transform="translate(-812.000000, -4154.000000)">
            <g id="commanditaire" transform="translate(0.000000, 3666.000000)">
                <g id="logo" transform="translate(141.000000, 265.000000)">
                    <g id="click" transform="translate(671.000000, 223.000000)">
                        <path d="M86.4742,29.9845 L86.4742,36.0235 C86.4742,38.6345 86.3392,40.3575 86.0232,41.1365 C85.7042,41.9765 84.9542,42.4495 83.8492,42.4495 C82.7182,42.4495 81.9412,41.9865 81.6132,41.1305 C81.4562,40.7165 81.4192,40.1075 81.4082,39.3555 C81.3982,38.6015 81.4192,37.6345 81.4192,36.4705 L81.4192,12.7465 C81.4192,11.5335 81.3982,10.5295 81.4082,9.7305 C81.4192,8.9535 81.4562,8.3285 81.6132,7.9085 C81.9412,7.0155 82.7492,6.5625 83.9352,6.5625 C84.9822,6.5625 85.7322,6.9395 86.0482,7.7115 C86.3512,8.3795 86.4742,9.9455 86.4742,12.3635 L86.4742,17.4595 L97.7302,17.4595 L97.7302,16.1585 C97.7302,13.9205 97.7532,11.9765 97.6872,10.3225 C97.6222,8.6855 97.4642,7.3575 97.1132,6.3395 C96.4122,4.3005 94.9922,2.9145 92.5172,1.5685 C91.0742,0.7795 89.7472,0.3865 88.3472,0.1955 C86.9152,0.0005 85.4082,0.0005 83.6482,0.0005 C81.0402,0.0005 79.1732,0.1195 76.7532,1.1055 C74.6442,1.9615 73.3672,2.5955 72.2752,4.1115 C71.1522,5.6895 70.3162,7.3165 70.0992,8.9865 C69.8672,10.6995 69.9372,13.2795 69.9372,16.7225 L69.9372,32.1685 C69.9372,36.8795 70.0812,40.3675 70.8162,42.6725 C71.5312,44.8985 73.1152,46.2955 75.3722,47.5885 C76.0422,47.9825 76.7962,48.2815 77.6112,48.5235 L90.4562,48.5235 C91.3862,48.2305 92.3062,47.8475 93.2182,47.2795 C95.5722,45.8395 96.8472,44.3325 97.4922,42.3365 C98.0932,40.5375 97.9582,31.8165 97.9252,29.9845 L86.4742,29.9845 Z M52.3522,41.7985 L43.0482,41.7985 L43.0482,0.5135 L31.1592,0.5135 L31.1592,48.5235 L52.3522,48.5235 L52.3522,41.7985 Z M112.3532,25.4535 L118.4682,48.5315 L130.1672,48.5315 L122.6622,21.1525 L129.5482,0.5055 L118.0622,0.5055 L112.3532,20.2675 L112.3532,0.4805 L100.4582,0.4805 L100.4582,48.5235 L112.3532,48.5235 L112.3532,25.4535 Z M1.3622,42.6725 C2.0782,44.8985 3.6612,46.2955 5.9132,47.5885 C6.5922,47.9825 7.3452,48.2815 8.1592,48.5235 L21.0022,48.5235 C21.9302,48.2305 22.8472,47.8475 23.7602,47.2795 C26.1152,45.8395 27.3932,44.3325 28.0392,42.3365 C28.6362,40.5375 28.5052,31.8165 28.4732,29.9845 L17.0222,29.9845 L17.0222,36.0235 C17.0222,38.6345 16.8822,40.3575 16.5682,41.1365 C16.2472,41.9765 15.5042,42.4495 14.3982,42.4495 C13.2582,42.4495 12.4832,41.9865 12.1622,41.1305 C12.0032,40.7165 11.9672,40.1075 11.9562,39.3555 C11.9462,38.6015 11.9672,37.6345 11.9672,36.4705 L11.9672,12.7465 C11.9672,11.5335 11.9462,10.5295 11.9562,9.7305 C11.9672,8.9535 12.0032,8.3285 12.1622,7.9085 C12.4832,7.0155 13.2962,6.5625 14.4842,6.5625 C15.5322,6.5625 16.2792,6.9395 16.5932,7.7115 C16.8932,8.3795 17.0222,9.9455 17.0222,12.3635 L17.0222,17.4595 L28.2782,17.4595 L28.2782,16.1585 C28.2782,13.9205 28.2982,11.9765 28.2362,10.3225 C28.1632,8.6855 28.0122,7.3575 27.6592,6.3395 C26.9592,4.3005 25.5392,2.9145 23.0652,1.5685 C21.6182,0.7795 20.2932,0.3865 18.8942,0.1955 C17.4572,0.0005 15.9492,0.0005 14.1902,0.0005 C11.5872,0.0005 9.7162,0.1195 7.2962,1.1055 C5.1922,1.9615 3.9072,2.5955 2.8172,4.1115 C1.6992,5.6895 0.8652,7.3165 0.6422,8.9865 C0.4122,10.6995 0.4842,13.2795 0.4842,16.7225 L0.4842,32.1685 C0.4842,36.8795 0.6242,40.3675 1.3622,42.6725 Z M55.3412,48.5235 L67.2282,48.5235 L67.2282,0.5135 L55.3412,0.5135 L55.3412,48.5235 Z M87.2032,86.3615 L81.0502,58.2285 L64.6162,58.2285 L64.6162,108.0935 L75.2242,108.0935 L75.2142,73.2445 L83.5742,108.0935 L97.6652,108.0935 L97.6652,58.2285 L87.2032,58.2285 L87.2032,86.3615 Z M118.0052,93.2305 C118.0052,96.5315 117.7962,98.6645 117.3062,99.5025 C116.7442,100.4475 115.3122,100.8145 113.3722,100.8145 L112.9392,100.8145 L112.9392,64.6365 L113.3722,64.6365 C114.8292,64.6365 115.9392,64.7795 116.5912,65.1585 C117.2422,65.5195 117.6152,66.0685 117.7792,66.7675 C117.9312,67.4375 118.0052,68.9225 118.0052,71.1725 L118.0052,93.2305 Z M130.1522,75.8165 C130.1522,73.4595 130.1792,71.1385 130.1632,69.5545 C130.1462,68.0025 130.0992,66.8225 129.9542,66.0315 C129.6712,64.4665 128.9562,63.0525 127.8242,61.7815 C126.7012,60.5255 125.1462,59.5665 122.9702,59.0075 C120.7852,58.4515 119.7202,58.2285 113.3432,58.2285 L100.5562,58.2285 L100.5562,108.0935 L113.3632,108.0935 C119.7472,108.0935 120.7852,107.8735 122.9702,107.3165 C125.1462,106.7575 126.7012,105.7935 127.8242,104.5395 C128.9562,103.2715 129.6712,101.8495 129.9542,100.2915 C130.0992,99.4945 130.1462,98.3225 130.1632,96.7615 C130.1792,95.1755 130.1522,92.8635 130.1522,90.5095 L130.1522,75.8165 Z M49.7152,93.9515 C49.7152,96.8735 49.5962,99.3495 49.3252,100.1775 C49.0362,101.0865 48.3052,101.6115 47.1702,101.6115 C46.0912,101.6115 45.3542,101.1665 45.0492,100.3415 C44.7932,99.6135 44.6882,97.1995 44.6882,94.3305 L44.6882,70.4705 C44.6882,67.9515 44.8562,66.2985 45.2732,65.6915 C45.7232,65.0545 46.3962,64.7055 47.2632,64.7055 C48.2932,64.7055 48.9822,65.1425 49.2922,65.9295 C49.5922,66.6325 49.7152,68.1665 49.7152,70.4705 L49.7152,93.9515 Z M59.5862,62.0395 C58.0902,60.3185 56.8042,59.4785 54.3742,58.6385 C53.8932,58.4845 53.4412,58.3595 53.0022,58.2365 L41.1382,58.2365 C40.7202,58.3655 40.2932,58.5095 39.8372,58.6895 C37.4552,59.6325 36.1542,60.4295 34.6952,62.1725 C33.1332,64.0275 32.8942,65.6465 32.6452,67.7385 C32.4112,69.8005 32.4212,96.6935 32.6722,98.7405 C32.9202,100.7555 33.5512,102.6055 34.8352,104.2915 C36.0902,105.9535 37.8792,106.8455 40.0262,107.7285 C42.1212,108.5505 44.5022,108.7895 47.2032,108.7895 C50.0502,108.7895 52.4872,108.5135 54.5532,107.6325 C56.7022,106.7145 58.4702,105.8085 59.6642,104.1725 C60.9002,102.5025 61.5022,100.6585 61.7312,98.6215 C61.9842,96.5315 61.9842,69.6305 61.7312,67.5845 C61.4802,65.5355 61.1832,63.8905 59.5862,62.0395 Z M17.6152,77.4255 C17.1542,78.2225 16.1012,78.5565 14.7232,78.5565 C14.4122,78.5565 13.9802,78.5645 13.4212,78.5845 L12.9652,78.5995 L12.9652,64.7205 L13.3992,64.7205 C14.7922,64.7205 15.7642,64.8345 16.3172,65.0295 C16.9622,65.2465 17.4082,65.7595 17.7162,66.4275 C18.0482,67.1215 18.1902,70.3675 18.1902,71.8925 C18.1902,74.8225 18.0162,76.7075 17.6152,77.4255 Z M18.1902,95.7935 C18.1902,97.7715 17.9442,99.1685 17.3042,99.7935 C16.6642,100.4475 15.2822,100.7285 13.4212,100.7875 L12.9652,100.8045 L12.9652,85.0335 L13.4212,85.0415 C15.3582,85.1115 16.7892,85.3495 17.3982,85.9515 C17.9782,86.5075 18.1902,87.9555 18.1902,90.0455 L18.1902,95.7935 Z M30.0302,92.2285 C30.0302,88.9825 29.4982,86.5845 28.4402,85.0255 C27.3782,83.4415 24.4272,82.3105 21.4452,81.6325 C24.1182,81.0175 25.5612,80.5525 27.2692,78.9765 C29.4612,76.9725 29.5792,75.3435 29.5792,72.4315 C29.5792,68.1235 29.4012,64.9965 28.1172,63.0685 C26.8292,61.1135 25.1382,59.8205 23.0322,59.1875 C20.9502,58.5435 17.8792,58.2285 13.8222,58.2285 L0.4992,58.2285 L0.4992,108.1035 L12.1412,108.1035 C17.3272,108.1035 20.7542,107.8045 22.4312,107.2035 C24.1002,106.6135 26.3472,105.6115 27.9372,103.8805 C30.1612,101.4645 30.0302,99.7615 30.0302,96.3925 L30.0302,92.2285 Z" id="Fill-1" fill="#8D8B8C"></path>
                        <mask id="mask-2" fill="white">
                            <use xlink:href="#path-1"></use>
                        </mask>
                        <g id="Clip-4"></g>
                        <polygon id="Fill-3" fill="#8D8B8C" mask="url(#mask-2)" points="0.5 58.237 130.172 58.237 130.172 48.524 0.5 48.524"></polygon>
                        <polygon id="Stroke-5" stroke="#8D8B8C" mask="url(#mask-2)" points="0.5 58.237 130.172 58.237 130.172 48.524 0.5 48.524"></polygon>
                        <text id="R" mask="url(#mask-2)" font-family="Arial-BoldMT, Arial" font-size="4.8293" font-weight="bold" fill="#FEFEFE">
                            <tspan x="132.2842" y="106.582366">R</tspan>
                        </text>
                        <path d="M129.9839,106.2774 C129.9839,104.3864 131.9289,102.8454 134.3339,102.8454 C136.7359,102.8454 138.6809,104.3864 138.6809,106.2774 C138.6809,108.1774 136.7359,109.7114 134.3339,109.7114 C131.9289,109.7114 129.9839,108.1774 129.9839,106.2774" id="Fill-6" fill="#FEFEFE" mask="url(#mask-2)"></path>
                    </g>
                </g>
            </g>
        </g>
    </g>
</svg>