<?xml version="1.0" encoding="UTF-8"?>
<svg width="77px" height="112px" viewBox="0 0 77 112" version="1.1" xmlns="http://www.w3.org/2000/svg" xmlns:xlink="http://www.w3.org/1999/xlink">
    <!-- Generator: Sketch 41.2 (35397) - http://www.bohemiancoding.com/sketch -->
    <title>e2sport</title>
    <desc>Created with Sketch.</desc>
    <defs>
        <polygon id="path-1" points="25.1664075 25.3031422 25.1664075 0.000147112147 0.01447875 0.000147112147 0.01447875 25.3031422 25.1664075 25.3031422"></polygon>
        <polygon id="path-3" points="0.04127175 15.5938876 5.27117175 15.5938876 5.27117175 0.0010003626 0.04127175 0.0010003626"></polygon>
        <polygon id="path-5" points="0.26520975 15.5938876 7.49931975 15.5938876 7.49931975 0.00126516447 0.26520975 0.00126516447"></polygon>
        <polygon id="path-7" points="0.16178175 15.5938876 7.39559925 15.5938876 7.39559925 0.00129458689 0.16178175 0.00129458689 0.16178175 15.5938876"></polygon>
        <polygon id="path-9" points="0.26977275 15.5938876 7.50359025 15.5938876 7.50359025 0.00129458689 0.26977275 0.00129458689"></polygon>
        <polygon id="path-11" points="0.1168245 15.5938876 7.319052 15.5938876 7.319052 0.00129458689 0.1168245 0.00129458689 0.1168245 15.5938876"></polygon>
    </defs>
    <g id="wireframe" stroke="none" stroke-width="1" fill="none" fill-rule="evenodd" opacity="0.5">
        <g id="Desktop-HD-Copy" transform="translate(-1220.000000, -4362.000000)">
            <g id="commanditaire" transform="translate(0.000000, 3666.000000)">
                <g id="logo" transform="translate(141.000000, 265.000000)">
                    <g id="e2sport" transform="translate(1079.000000, 431.000000)">
                        <path d="M0,10.2599836 L0,88.1296796 L67.58037,88.1296796 L67.58037,22.9242799 L63.852165,23.5862846 L57.4490475,20.757318 L54.097875,13.6541551 L54.2175075,10.2599836 L0,10.2599836 Z M5.33871,15.6301654 L53.14023,15.6301654 L56.73096,21.3593009 L62.24166,24.4895532 L62.24166,82.7594977 L5.33871,82.7594977 L5.33871,15.6301654 Z" id="Fill-1" fill="#221F20"></path>
                        <g id="Group-30" transform="translate(0.000000, 0.293930)">
                            <path d="M23.234328,35.8893323 L51.2333055,35.8893323 C51.8498955,35.8893323 52.465023,36.4309992 52.465023,37.1277224 L52.465023,39.6036198 C52.465023,40.2985776 51.8498955,40.8420098 51.2333055,40.8420098 L23.234328,40.8420098 C21.0812355,40.8420098 19.311318,42.6217726 19.311318,44.8649386 C19.311318,47.0310179 21.0812355,48.8113691 23.234328,48.8113691 L51.2333055,48.8113691 C51.8498955,48.8113691 52.465023,49.3515649 52.465023,50.048288 L52.465023,52.5250681 C52.465023,53.221497 51.8498955,53.7634582 51.2333055,53.7634582 L23.234328,53.7634582 C21.0812355,53.7634582 19.311318,55.5423383 19.311318,57.7098886 C19.311318,59.9539373 21.0812355,61.7328174 23.234328,61.7328174 L51.2333055,61.7328174 C51.8498955,61.7328174 52.465023,62.2730132 52.465023,62.9709132 L52.465023,65.4465164 C52.465023,66.066447 51.8498955,66.6849065 51.2333055,66.6849065 L23.234328,66.6849065 C18.3890655,66.6849065 14.389713,62.6619777 14.389713,57.7098886 C14.389713,55.2331085 15.4664055,52.9122673 17.157933,51.2866781 C15.4664055,49.66256 14.389713,47.3402476 14.389713,44.8649386 C14.389713,39.9137322 18.3890655,35.8893323 23.234328,35.8893323" id="Fill-2" fill="#221F20"></path>
                            <g id="Group-6" transform="translate(51.772500, 0.000000)">
                                <mask id="mask-2" fill="white">
                                    <use xlink:href="#path-1"></use>
                                </mask>
                                <g id="Clip-5"></g>
                                <path d="M12.5896387,3.86684279 C7.77538125,3.86684279 3.85792875,7.80738876 3.85792875,12.6512033 C3.85792875,17.4959005 7.77538125,21.4367407 12.5896387,21.4367407 C17.4056512,21.4367407 21.3222262,17.4959005 21.3222262,12.6512033 C21.3222262,7.80738876 17.4056512,3.86684279 12.5896387,3.86684279 M12.5896387,25.3031422 C5.65534125,25.3031422 0.01447875,19.6278498 0.01447875,12.6512033 C0.01447875,5.67543952 5.65534125,0.000147112147 12.5896387,0.000147112147 C19.5251062,0.000147112147 25.1665537,5.67543952 25.1665537,12.6512033 C25.1665537,19.6278498 19.5251062,25.3031422 12.5896387,25.3031422" id="Fill-4" fill="#221F20" mask="url(#mask-2)"></path>
                            </g>
                            <polygon id="Fill-7" fill="#221F20" points="60.3722633 8.18899767 67.8242858 11.6620212 64.7232008 13.4217767 68.4598883 17.0525045 60.8806283 13.6050785 63.9644558 11.8553266"></polygon>
                            <g id="Group-11" transform="translate(0.000000, 95.328671)">
                                <mask id="mask-4" fill="white">
                                    <use xlink:href="#path-3"></use>
                                </mask>
                                <g id="Clip-10"></g>
                                <path d="M2.04577425,2.01731945 L2.04577425,6.77345517 L4.77011925,6.77345517 C5.05179675,6.77345517 5.27117175,6.99412339 5.27117175,7.27775561 L5.27117175,8.28576804 C5.27117175,8.56969448 5.05179675,8.78977426 4.77011925,8.78977426 L2.04577425,8.78977426 L2.04577425,13.5776862 L4.77011925,13.5776862 C5.05179675,13.5776862 5.27117175,13.7980602 5.27117175,14.0816924 L5.27117175,15.0899991 C5.27117175,15.3733371 5.05179675,15.5940053 4.77011925,15.5940053 L1.04308425,15.5940053 C0.47972925,15.5940053 0.04127175,15.1211868 0.04127175,14.5859929 L0.04127175,1.00901279 C0.04127175,0.44204258 0.47972925,0.0010003626 1.04308425,0.0010003626 L4.77011925,0.0010003626 C5.05179675,0.0010003626 5.27117175,0.221668583 5.27117175,0.505300803 L5.27117175,1.51331323 C5.27117175,1.79694545 5.05179675,2.01731945 4.77011925,2.01731945 L2.04577425,2.01731945 Z" id="Fill-9" fill="#010201" mask="url(#mask-4)"></path>
                            </g>
                            <g id="Group-14" transform="translate(7.605000, 95.328671)">
                                <mask id="mask-6" fill="white">
                                    <use xlink:href="#path-5"></use>
                                </mask>
                                <g id="Clip-13"></g>
                                <path d="M7.49931975,14.081663 L7.49931975,15.0899696 C7.49931975,15.3418256 7.28023725,15.5939759 6.99768225,15.5939759 L0.76655475,15.5939759 C0.48458475,15.5939759 0.26520975,15.3418256 0.26520975,15.0899696 L0.26520975,12.0026741 C0.26520975,10.9946617 0.26520975,10.9946617 1.01693475,9.98664926 L5.40121725,4.15924289 C5.49540225,4.03331489 5.49540225,4.03331489 5.49540225,3.6240489 C5.49540225,2.74167024 4.77526725,2.01729003 3.86705475,2.01729003 C2.98955475,2.01729003 2.26971225,2.74167024 2.26971225,3.6240489 L2.26971225,4.72621311 C2.26971225,4.97836333 2.05033725,5.2299251 1.76836725,5.2299251 L0.76655475,5.2299251 C0.48458475,5.2299251 0.26520975,4.97836333 0.26520975,4.72621311 L0.26520975,3.6240489 C0.26520975,1.63921181 1.89355725,0.00126516447 3.86705475,0.00126516447 C5.87155725,0.00126516447 7.49931975,1.63921181 7.49931975,3.6240489 C7.49931975,4.66295488 7.49931975,4.66295488 6.74788725,5.64007376 L2.36360475,11.4989621 C2.26971225,11.5937024 2.26971225,11.5937024 2.26971225,12.0026741 L2.26971225,13.5776568 L6.99768225,13.5776568 C7.28023725,13.5776568 7.49931975,13.7980308 7.49931975,14.081663" id="Fill-12" fill="#010201" mask="url(#mask-6)"></path>
                            </g>
                            <path d="M22.9018432,102.669626 L22.9018432,103.677639 C22.9018432,103.961271 22.6824682,104.181939 22.4010832,104.181939 L17.2650757,104.181939 C16.9836907,104.181939 16.7643157,103.961271 16.7643157,103.677639 L16.7643157,102.669626 C16.7643157,102.41777 16.9836907,102.16562 17.2650757,102.16562 L22.4010832,102.16562 C22.6824682,102.16562 22.9018432,102.41777 22.9018432,102.669626" id="Fill-15" fill="#010201"></path>
                            <path d="M30.386304,100.023314 L30.386304,98.952632 C30.386304,98.0702533 29.6658765,97.3458731 28.789254,97.3458731 C27.9126315,97.3458731 27.1919115,98.0702533 27.1919115,98.952632 C27.1919115,99.361898 27.1919115,99.361898 27.285804,99.4881202 L31.638789,105.284045 C32.390514,106.292351 32.390514,106.292351 32.390514,107.299775 C32.390514,109.284318 30.761874,110.922559 28.789254,110.922559 C26.816634,110.922559 25.1877015,109.284318 25.1877015,107.299775 L25.1877015,106.229093 C25.1877015,105.945461 25.4070765,105.725087 25.6890465,105.725087 L26.690859,105.725087 C26.9731215,105.725087 27.1919115,105.945461 27.1919115,106.229093 L27.1919115,107.299775 C27.1919115,108.18186 27.9126315,108.90624 28.789254,108.90624 C29.6658765,108.90624 30.386304,108.18186 30.386304,107.299775 C30.386304,106.890509 30.386304,106.890509 30.2918265,106.764287 L25.9394265,100.968657 C25.1877015,99.9603502 25.1877015,99.9603502 25.1877015,98.952632 C25.1877015,96.9677949 26.816634,95.3298482 28.789254,95.3298482 C30.761874,95.3298482 32.390514,96.9677949 32.390514,98.952632 L32.390514,100.023314 C32.390514,100.306946 32.171139,100.52732 31.889754,100.52732 L30.887064,100.52732 C30.605679,100.52732 30.386304,100.306946 30.386304,100.023314" id="Fill-17" fill="#010201"></path>
                            <g id="Group-21" transform="translate(34.515000, 95.328671)">
                                <mask id="mask-8" fill="white">
                                    <use xlink:href="#path-7"></use>
                                </mask>
                                <g id="Clip-20"></g>
                                <path d="M5.39138925,3.62407832 C5.39138925,2.74169966 4.67096175,2.01731945 3.79433925,2.01731945 L2.16599175,2.01731945 L2.16599175,6.77345517 L3.79433925,6.77345517 C4.67096175,6.77345517 5.39138925,6.04936918 5.39138925,5.13580275 L5.39138925,3.62407832 Z M7.39559925,3.62407832 L7.39559925,5.13580275 C7.39559925,7.15153339 5.76666675,8.78977426 3.79433925,8.78977426 L2.16599175,8.78977426 L2.16599175,15.0899991 C2.16599175,15.3418551 1.94661675,15.5940053 1.66493925,15.5940053 L0.66254175,15.5940053 C0.41186925,15.5940053 0.16178175,15.3418551 0.16178175,15.0899991 L0.16178175,8.78977426 L0.16178175,6.77345517 L0.16178175,0.505300803 C0.16178175,0.221962808 0.41186925,0.00129458689 0.66254175,0.00129458689 L3.79433925,0.00129458689 C5.76666675,0.00129458689 7.39559925,1.63924123 7.39559925,3.62407832 L7.39559925,3.62407832 Z" id="Fill-19" fill="#010201" mask="url(#mask-8)"></path>
                            </g>
                            <g id="Group-24" transform="translate(43.582500, 95.328671)">
                                <mask id="mask-10" fill="white">
                                    <use xlink:href="#path-9"></use>
                                </mask>
                                <g id="Clip-23"></g>
                                <path d="M5.49938025,3.62407832 C5.49938025,2.74169966 4.77895275,2.01731945 3.90203775,2.01731945 C2.99441025,2.01731945 2.27398275,2.74169966 2.27398275,3.62407832 L2.27398275,11.9397395 C2.27398275,12.853306 2.99441025,13.5776862 3.90203775,13.5776862 C4.77895275,13.5776862 5.49938025,12.853306 5.49938025,11.9397395 L5.49938025,3.62407832 Z M7.50359025,3.62407832 L7.50359025,11.9397395 C7.50359025,13.9554702 5.87524275,15.5940053 3.90203775,15.5940053 C1.89782775,15.5940053 0.26977275,13.9554702 0.26977275,11.9397395 L0.26977275,3.62407832 C0.26977275,1.63924123 1.89782775,0.00129458689 3.90203775,0.00129458689 C5.87524275,0.00129458689 7.50359025,1.63924123 7.50359025,3.62407832 L7.50359025,3.62407832 Z" id="Fill-22" fill="#010201" mask="url(#mask-10)"></path>
                            </g>
                            <g id="Group-27" transform="translate(52.942500, 95.328671)">
                                <mask id="mask-12" fill="white">
                                    <use xlink:href="#path-11"></use>
                                </mask>
                                <g id="Clip-26"></g>
                                <path d="M5.314842,3.62407832 C5.314842,2.74169966 4.5944145,2.01731945 3.7180845,2.01731945 L2.120742,2.01731945 L2.120742,6.77345517 L3.7180845,6.77345517 C4.5944145,6.77345517 5.314842,6.04936918 5.314842,5.13580275 L5.314842,3.62407832 Z M7.319052,5.13580275 C7.319052,6.17529718 6.9115995,7.12034561 6.2230545,7.7814676 C6.9115995,8.44317804 7.319052,9.35674447 7.319052,10.3965331 L7.319052,15.0899991 C7.319052,15.3418551 7.100262,15.5940053 6.8179995,15.5940053 L5.8158945,15.5940053 C5.534217,15.5940053 5.314842,15.3418551 5.314842,15.0899991 L5.314842,10.3965331 C5.314842,9.51415447 4.5944145,8.78977426 3.7180845,8.78977426 L2.120742,8.78977426 L2.120742,15.0899991 C2.120742,15.3418551 1.8700695,15.5940053 1.6191045,15.5940053 L0.6175845,15.5940053 C0.3356145,15.5940053 0.1168245,15.3418551 0.1168245,15.0899991 L0.1168245,1.00901279 C0.1168245,0.442336804 0.5544045,0.00129458689 1.118637,0.00129458689 L3.7180845,0.00129458689 C5.7222945,0.00129458689 7.319052,1.63924123 7.319052,3.62407832 L7.319052,5.13580275 Z" id="Fill-25" fill="#010201" mask="url(#mask-12)"></path>
                            </g>
                            <path d="M67.4333887,95.8340898 L67.4333887,96.8421023 C67.4333887,97.1257345 67.2140137,97.3461085 66.9317512,97.3461085 L65.5230712,97.3461085 L65.5230712,110.418494 C65.5230712,110.670644 65.3036962,110.9225 65.0220187,110.9225 L64.0193287,110.9225 C63.7376512,110.9225 63.5182762,110.670644 63.5182762,110.418494 L63.5182762,97.3461085 L62.1095962,97.3461085 C61.8273337,97.3461085 61.6079587,97.1257345 61.6079587,96.8421023 L61.6079587,95.8340898 C61.6079587,95.5504576 61.8273337,95.3297894 62.1095962,95.3297894 L66.9317512,95.3297894 C67.2140137,95.3297894 67.4333887,95.5504576 67.4333887,95.8340898" id="Fill-28" fill="#010201"></path>
                        </g>
                    </g>
                </g>
            </g>
        </g>
    </g>
</svg>