<?xml version="1.0" encoding="UTF-8"?>
<svg width="200px" height="129px" viewBox="0 0 200 129" version="1.1" xmlns="http://www.w3.org/2000/svg" xmlns:xlink="http://www.w3.org/1999/xlink">
    <!-- Generator: Sketch 41.2 (35397) - http://www.bohemiancoding.com/sketch -->
    <title>fdets</title>
    <desc>Created with Sketch.</desc>
    <defs>
        <polygon id="path-1" points="0 1.08035738e-14 0 94.5700585 3.91543726 94.5700585 3.91543726 0 1.03061043e-20 0"></polygon>
        <polygon id="path-3" points="0 0 0 102.486374 33.9801521 102.486374 33.9801521 0 5.15305215e-21 0"></polygon>
        <polygon id="path-5" points="0 128.916667 199.711787 128.916667 199.711787 0 0 0"></polygon>
    </defs>
    <g id="wireframe" stroke="none" stroke-width="1" fill="none" fill-rule="evenodd">
        <g id="Desktop-HD-Copy" transform="translate(-482.000000, -3931.000000)">
            <g id="commanditaire" transform="translate(0.000000, 3666.000000)">
                <g id="logo" transform="translate(141.000000, 265.000000)">
                    <g id="fdets" transform="translate(341.333333, 0.000000)">
                        <g id="Group-3" transform="translate(0.000000, 34.647661)">
                            <mask id="mask-2" fill="white">
                                <use xlink:href="#path-1"></use>
                            </mask>
                            <g id="Clip-2"></g>
                            <path d="M0,0 L0,94.5700585 L0.00456273764,94.5700585 C0.965019011,91.0889474 2.29657795,87.7925731 3.91558935,84.7075439 L3.8243346,0 L0,0 Z" id="Fill-1" fill="#8D8B8C" mask="url(#mask-2)"></path>
                        </g>
                        <g id="Group-6" transform="translate(0.000000, 8.799708)">
                            <mask id="mask-4" fill="white">
                                <use xlink:href="#path-3"></use>
                            </mask>
                            <g id="Clip-5"></g>
                            <path d="M30.3201521,0 L30.408365,66.6284211 C30.408365,68.1853801 30.1292776,69.2238596 29.661597,70.1597076 C29.1034221,71.7189474 28.0775665,72.445731 27.0501901,72.445731 L18.0022814,72.445731 C16.6965779,72.445731 15.8570342,71.7189474 15.2022814,70.1597076 C14.8288973,69.2238596 14.738403,68.1853801 14.738403,66.6284211 L14.738403,41.7246784 C14.738403,40.3722222 15.0174905,39.0220468 15.3908745,38.0839181 C16.043346,36.5269591 16.8806084,35.8001754 18.0965779,35.8001754 L25.1855513,35.8001754 L25.1855513,0 L0,0 L0,19.1335673 L3.8243346,19.1335673 L3.8243346,9.36608187 C3.8243346,7.90947368 3.91787072,6.66269006 4.38403042,5.72684211 C5.0365019,3.8574269 6.71558935,3.44005848 7.83498099,3.64912281 L17.9809886,3.8574269 L17.9809886,10.6128655 L8.95513308,10.7170175 L8.95513308,19.1335673 L15.18327,19.1335673 L15.18327,25.4754386 L8.95513308,25.4754386 L8.95513308,102.486374 C15.339924,94.568538 24.0904943,89.0644444 33.9802281,87.3980117 L33.9802281,0 L30.3201521,0 Z" id="Fill-4" fill="#8D8B8C" mask="url(#mask-4)"></path>
                        </g>
                        <mask id="mask-6" fill="white">
                            <use xlink:href="#path-5"></use>
                        </mask>
                        <g id="Clip-8"></g>
                        <polygon id="Fill-7" fill="#8D8B8C" mask="url(#mask-6)" points="19.7718631 74.7294737 25.3688213 74.7294737 25.3688213 51.6959064 19.7718631 51.6959064"></polygon>
                        <path d="M45.1939163,6.83754386 L45.1939163,3.56625731 L53.513308,0 L53.513308,3.27052632 L45.1939163,6.83754386 Z M57.1140684,43.9057895 L39.5437262,43.9057895 L39.5437262,8.87116959 L57.1140684,8.87116959 L57.1140684,12.3887719 L43.6357414,12.3887719 L43.6357414,23.685848 L55.3794677,23.685848 L55.3794677,27.2551462 L43.6357414,27.2551462 L43.6357414,40.3380117 L59.026616,40.3380117 L57.1140684,43.9057895 Z" id="Fill-9" fill="#8D8B8C" mask="url(#mask-6)"></path>
                        <polygon id="Fill-10" fill="#8D8B8C" mask="url(#mask-6)" points="77.9330798 44.1095322 73.886692 44.1095322 73.886692 12.6396491 63.878327 12.6396491 63.878327 9.12280702 87.9437262 9.12280702 87.9437262 12.6396491 77.9330798 12.6396491"></polygon>
                        <path d="M91.2547529,38.4936842 C92.4547529,39.3345029 95.6570342,41.5650292 99.3939163,41.5650292 C104.109506,41.5650292 106.288973,38.0968421 106.288973,35.1729825 C106.288973,33.8364912 105.843346,32.4460234 105.130038,31.5040936 C104.109506,30.1189474 102.373384,29.275848 100.818251,28.5832749 L98.7269962,27.5904094 C96.9026616,26.6971345 94.8577947,25.658655 93.3885932,23.6257895 C92.1444867,21.9920468 91.5209125,20.0085965 91.5209125,17.9787719 C91.5209125,12.7240351 95.4365019,8.3625731 101.931559,8.3625731 C104.419772,8.3625731 106.869202,8.95783626 109.135361,10.0966667 L109.135361,14.8032749 C107.979468,13.8134503 105.711027,11.9295906 101.974144,11.9295906 C97.7026616,11.9295906 95.7908745,14.8526901 95.7908745,17.5819298 C95.7908745,21.3960234 99.1277567,22.9818713 101.576426,24.1229825 L103.663118,25.1622222 C106.556654,26.6971345 110.692015,28.9284211 110.692015,34.8742105 C110.692015,40.6253801 106.376426,45.1320468 99.3939163,45.1320468 C95.4365019,45.1320468 92.3201521,43.6967251 91.2547529,43.2010526 L91.2547529,38.4936842 Z" id="Fill-11" fill="#8D8B8C" mask="url(#mask-6)"></path>
                        <polygon id="Fill-12" fill="#8D8B8C" mask="url(#mask-6)" points="43.1984791 72.0093567 40.3041825 72.0093567 40.3041825 54.7368421 49.513308 54.7368421 49.513308 57.1809942 43.1984791 57.1809942 43.1984791 61.9932749 48.6577947 61.9932749 48.6577947 64.4594737 43.1984791 64.4594737"></polygon>
                        <path d="M56.3444867,61.350117 C55.4676806,61.3752047 54.7657795,61.7910526 54.2836502,62.7177778 C53.8007605,63.5988889 53.6920152,64.6244444 53.6920152,65.6492398 C53.6920152,66.6033333 53.8007605,67.7269591 54.304943,68.6057895 C54.8091255,69.4846199 55.5771863,69.8769006 56.3673004,69.8769006 C58.1863118,69.8769006 59.0197719,67.8257895 59.0197719,65.5777778 C59.0197719,63.3548538 58.2745247,61.350117 56.3885932,61.350117 L56.3444867,61.350117 Z M56.3231939,71.9538596 C52.7703422,71.9538596 50.9505703,69.1919298 50.9505703,65.7480702 C50.9505703,62.1316374 53.0121673,59.2982456 56.4547529,59.2982456 C59.5908745,59.2982456 61.7376426,61.7431579 61.7376426,65.5276023 C61.7376426,69.0946199 59.8973384,71.9538596 56.3231939,71.9538596 L56.3231939,71.9538596 Z" id="Fill-13" fill="#8D8B8C" mask="url(#mask-6)"></path>
                        <path d="M64.6387833,59.5924561 L67.2045627,59.5924561 L67.2045627,61.8883626 L68.6076046,59.6905263 C69.4638783,59.3484211 70.38327,59.2982456 70.8007605,59.2982456 C73.9140684,59.2982456 74.5285171,61.4983626 74.5285171,64.0139766 L74.5285171,71.6604094 L71.9627376,71.6604094 L71.9627376,64.7970175 C71.9627376,62.9625731 71.6555133,61.5211696 69.660076,61.5211696 C68.8707224,61.5211696 67.9490494,61.8404678 67.2045627,62.425848 L67.2045627,71.6604094 L64.6387833,71.6604094 L64.6387833,59.5924561 Z" id="Fill-14" fill="#8D8B8C" mask="url(#mask-6)"></path>
                        <path d="M85.5262357,62.5284795 C84.6707224,61.9187719 83.8821293,61.8207018 83.3992395,61.8207018 C83.0045627,61.8207018 82.2806084,61.8944444 81.5794677,62.5049123 C80.6136882,63.358655 80.2851711,64.775731 80.2851711,66.1677193 C80.2851711,66.7059649 80.3292776,67.2449708 80.4828897,67.7581287 C80.8326996,69.075614 81.7764259,70.1254971 83.3764259,70.1254971 C84.1224335,70.1254971 84.8463878,69.9057895 85.5262357,69.540117 L85.5262357,62.5284795 Z M88.113308,71.9835088 L85.5262357,71.9835088 L85.5262357,69.9795322 L84.2752852,71.9835088 C83.9034221,72.1059064 83.3764259,72.2769591 82.6311787,72.2769591 C79.0365019,72.2769591 77.5665399,69.2717544 77.5665399,66.1449123 C77.5665399,62.6752047 79.5178707,59.621345 82.7847909,59.621345 C83.7946768,59.621345 84.6707224,59.8669006 85.5262357,60.427193 L85.5262357,54.7368421 L88.113308,54.7368421 L88.113308,71.9835088 Z" id="Fill-15" fill="#8D8B8C" mask="url(#mask-6)"></path>
                        <path d="M97.313308,62.4007602 C97.0068441,62.0829825 96.2174905,61.3022222 94.9026616,61.3022222 C93.5422053,61.3022222 93.1475285,62.2297076 93.1475285,62.8652632 C93.1475285,63.7699415 93.8714829,64.1105263 94.4859316,64.4047368 L95.5825095,64.8935673 C96.1513308,65.1847368 96.5688213,65.4074854 96.9414449,65.7731579 C97.2707224,66.0909357 97.8844106,66.8473684 97.8844106,68.1663743 C97.8844106,70.1209357 96.4813688,71.9538596 93.78327,71.9538596 C92.8190114,71.9538596 91.7011407,71.7326316 90.4942966,71.122924 L90.4942966,68.7297076 C91.2403042,69.3150877 92.4676806,69.9004678 93.3673004,69.9004678 C94.660076,69.9004678 95.165019,68.9722222 95.165019,68.240117 C95.165019,67.1651462 94.2874525,66.774386 93.6311787,66.4809357 L92.7969582,66.1388304 C92.0730038,65.8446199 90.4942966,65.1376023 90.4942966,63.0119883 C90.4942966,61.1304094 91.8532319,59.2982456 94.4425856,59.2982456 C95.8889734,59.2982456 96.8752852,59.8106433 97.313308,60.0561988 L97.313308,62.4007602 Z" id="Fill-16" fill="#8D8B8C" mask="url(#mask-6)"></path>
                        <path d="M115.944487,62.5284795 C115.088213,61.9187719 114.30038,61.8207018 113.81597,61.8207018 C113.422814,61.8207018 112.698859,61.8944444 111.996198,62.5049123 C111.031179,63.358655 110.703422,64.775731 110.703422,66.1677193 C110.703422,66.7059649 110.746768,67.2449708 110.90038,67.7581287 C111.251711,69.075614 112.193916,70.1254971 113.794677,70.1254971 C114.539924,70.1254971 115.263878,69.9057895 115.944487,69.540117 L115.944487,62.5284795 Z M118.530038,71.9835088 L115.944487,71.9835088 L115.944487,69.9795322 L114.693536,71.9835088 C114.321673,72.1059064 113.794677,72.2769591 113.05019,72.2769591 C109.452471,72.2769591 107.984791,69.2717544 107.984791,66.1449123 C107.984791,62.6752047 109.935361,59.621345 113.202281,59.621345 C114.212167,59.621345 115.088213,59.8669006 115.944487,60.427193 L115.944487,54.7368421 L118.530038,54.7368421 L118.530038,71.9835088 Z" id="Fill-17" fill="#8D8B8C" mask="url(#mask-6)"></path>
                        <path d="M129.149049,64.0132164 C129.127757,63.5722807 129.085171,62.669883 128.513308,61.9849123 C128.119392,61.5219298 127.570342,61.2505263 126.935361,61.2505263 C125.596958,61.2505263 124.743726,62.4243275 124.479087,64.0132164 L129.149049,64.0132164 Z M130.159696,71.5859064 C129.302662,71.8550292 128.425095,71.9781871 127.54981,71.9781871 C123.646388,71.9781871 121.673004,69.338655 121.673004,65.6994152 C121.673004,61.9598246 123.73384,59.2982456 126.889734,59.2982456 C127.658555,59.2982456 128.425095,59.4449708 129.127757,59.8114035 C131.736882,61.1539766 131.758935,64.3553216 131.780228,65.8218129 L124.434981,65.8218129 C124.501141,66.6010526 124.589354,67.8964912 125.488213,68.8505848 C126.23346,69.6328655 127.285932,69.9004678 128.315589,69.9004678 C129.78403,69.9004678 130.968821,69.3645029 131.406844,69.1676023 L130.159696,71.5859064 Z" id="Fill-18" fill="#8D8B8C" mask="url(#mask-6)"></path>
                        <path d="M47.5041825,86.8574854 C46.6486692,86.2470175 45.8593156,86.1489474 45.3771863,86.1489474 C44.981749,86.1489474 44.2577947,86.2226901 43.5574144,86.8331579 C42.5923954,87.6884211 42.2631179,89.1047368 42.2631179,90.4967251 C42.2631179,91.0349708 42.3072243,91.5724561 42.461597,92.085614 C42.8106464,93.4053801 43.7543726,94.4537427 45.3543726,94.4537427 C46.1003802,94.4537427 46.8235741,94.2347953 47.5041825,93.8676023 L47.5041825,86.8574854 Z M50.0904943,96.3125146 L47.5041825,96.3125146 L47.5041825,94.308538 L46.2539924,96.3125146 C45.8813688,96.4326316 45.3543726,96.6059649 44.6098859,96.6059649 C41.0136882,96.6059649 39.5437262,93.6 39.5437262,90.4731579 C39.5437262,87.0042105 41.495057,83.9503509 44.7619772,83.9503509 C45.7718631,83.9503509 46.6486692,84.1959064 47.5041825,84.7561988 L47.5041825,79.0643275 L50.0904943,79.0643275 L50.0904943,96.3125146 Z" id="Fill-19" fill="#8D8B8C" mask="url(#mask-6)"></path>
                        <path d="M56.7406844,83.0707602 L56.7406844,80.9945614 L61.2790875,79.0643275 L61.2790875,81.1177193 L56.7406844,83.0707602 Z M60.7087452,88.8143275 C60.686692,88.3718713 60.643346,87.4679532 60.0722433,86.7845029 C59.6790875,86.32 59.1307985,86.050117 58.4942966,86.050117 C57.1574144,86.050117 56.3011407,87.2239181 56.0387833,88.8143275 L60.7087452,88.8143275 Z M61.7178707,96.3854971 C60.8623574,96.6530994 59.9855513,96.7770175 59.1087452,96.7770175 C55.2053232,96.7770175 53.2319392,94.1367251 53.2319392,90.4974854 C53.2319392,86.758655 55.2942966,84.0978363 58.4494297,84.0978363 C59.2174905,84.0978363 59.9855513,84.2438012 60.686692,84.6094737 C63.295057,85.9535673 63.3186312,89.1526316 63.339924,90.6206433 L55.9946768,90.6206433 C56.0608365,91.399883 56.148289,92.6953216 57.0463878,93.6494152 C57.7931559,94.4301754 58.8448669,94.7000585 59.8768061,94.7000585 C61.3452471,94.7000585 62.5285171,94.1618129 62.9673004,93.9664327 L61.7178707,96.3854971 Z" id="Fill-20" fill="#8D8B8C" mask="url(#mask-6)"></path>
                        <polygon id="Fill-21" fill="#8D8B8C" mask="url(#mask-6)" points="71.5239544 96.4554386 68.78327 96.4554386 64.6387833 84.3859649 67.4456274 84.3859649 70.2524715 93.5490643 72.9498099 84.3859649 75.6030418 84.3859649"></polygon>
                        <path d="M84.2828897,88.3422222 C84.261597,87.8997661 84.2174905,86.995848 83.6471483,86.3123977 C83.2532319,85.848655 82.704943,85.5780117 82.0676806,85.5780117 C80.7315589,85.5780117 79.8760456,86.7518129 79.6129278,88.3422222 L84.2828897,88.3422222 Z M85.2920152,95.9133918 C84.4372624,96.1817544 83.5589354,96.3056725 82.6828897,96.3056725 C78.7794677,96.3056725 76.8060837,93.6646199 76.8060837,90.0253801 C76.8060837,86.2865497 78.8676806,83.625731 82.0235741,83.625731 C82.791635,83.625731 83.5589354,83.7716959 84.261597,84.1381287 C86.8692015,85.481462 86.8927757,88.6805263 86.9140684,90.148538 L79.5688213,90.148538 C79.634981,90.9277778 79.7231939,92.2232164 80.6212928,93.1773099 C81.3673004,93.9588304 82.4190114,94.2279532 83.4501901,94.2279532 C84.9178707,94.2279532 86.1034221,93.6897076 86.5414449,93.4943275 L85.2920152,95.9133918 Z" id="Fill-22" fill="#8D8B8C" mask="url(#mask-6)"></path>
                        <polygon id="Fill-23" fill="#8D8B8C" mask="url(#mask-6)" points="89.7338403 96.3117544 92.2996198 96.3117544 92.2996198 79.0643275 89.7338403 79.0643275"></polygon>
                        <path d="M100.450951,85.6768421 C99.5741445,85.7026901 98.8714829,86.118538 98.3908745,87.0452632 C97.9079848,87.925614 97.7984791,88.9511696 97.7984791,89.9767251 C97.7984791,90.9308187 97.9079848,92.0544444 98.4121673,92.9332749 C98.9163498,93.8121053 99.6836502,94.204386 100.473004,94.204386 C102.292015,94.204386 103.125475,92.1532749 103.125475,89.9045029 C103.125475,87.6815789 102.380228,85.6768421 100.495057,85.6768421 L100.450951,85.6768421 Z M100.429658,96.281345 C96.8768061,96.281345 95.0570342,93.5178947 95.0570342,90.0732749 C95.0570342,86.4591228 97.1193916,83.625731 100.561217,83.625731 C103.697338,83.625731 105.844106,86.0683626 105.844106,89.8550877 C105.844106,93.421345 104.003042,96.281345 100.429658,96.281345 L100.429658,96.281345 Z" id="Fill-24" fill="#8D8B8C" mask="url(#mask-6)"></path>
                        <path d="M111.331559,93.3491228 C111.594677,93.5429825 112.318631,94.0819883 113.459316,94.0819883 C115.563498,94.0819883 116.596198,92.1532749 116.596198,89.7821053 C116.596198,88.5368421 116.287452,87.5591813 115.848669,86.9479532 C115.434221,86.3610526 114.664639,85.7521053 113.459316,85.7521053 C112.714068,85.7521053 111.990875,85.9710526 111.331559,86.3374854 L111.331559,93.3491228 Z M112.581749,83.9427485 C113.020532,83.7724561 113.438023,83.625731 114.270722,83.625731 C117.44943,83.625731 119.291255,86.0942105 119.291255,89.7083626 C119.291255,93.6661404 117.120152,96.281345 114.028897,96.281345 C112.735361,96.281345 111.902662,95.8160819 111.331559,95.4983041 L111.331559,101.091345 L108.745247,101.091345 L108.745247,83.9184211 L111.331559,83.9184211 L111.331559,85.9452047 L112.581749,83.9427485 Z" id="Fill-25" fill="#8D8B8C" mask="url(#mask-6)"></path>
                        <path d="M125.019011,93.3491228 C125.28289,93.5429825 126.006844,94.0819883 127.147529,94.0819883 C129.251711,94.0819883 130.284411,92.1532749 130.284411,89.7821053 C130.284411,88.5368421 129.975665,87.5591813 129.536882,86.9479532 C129.122433,86.3610526 128.352852,85.7521053 127.147529,85.7521053 C126.402281,85.7521053 125.678327,85.9710526 125.019011,86.3374854 L125.019011,93.3491228 Z M126.269962,83.9427485 C126.707985,83.7724561 127.126236,83.625731 127.958935,83.625731 C131.137643,83.625731 132.978707,86.0942105 132.978707,89.7083626 C132.978707,93.6661404 130.808365,96.281345 127.71711,96.281345 C126.423574,96.281345 125.590875,95.8160819 125.019011,95.4983041 L125.019011,101.091345 L122.43346,101.091345 L122.43346,83.9184211 L125.019011,83.9184211 L125.019011,85.9452047 L126.269962,83.9427485 Z" id="Fill-26" fill="#8D8B8C" mask="url(#mask-6)"></path>
                        <path d="M142.838783,88.3422222 C142.819011,87.8997661 142.772624,86.995848 142.203802,86.3123977 C141.809886,85.848655 141.260837,85.5780117 140.623574,85.5780117 C139.288973,85.5780117 138.431939,86.7518129 138.168061,88.3422222 L142.838783,88.3422222 Z M143.847909,95.9133918 C142.992395,96.1817544 142.115589,96.3056725 141.237262,96.3056725 C137.335361,96.3056725 135.361217,93.6646199 135.361217,90.0253801 C135.361217,86.2865497 137.422814,83.625731 140.580228,83.625731 C141.348289,83.625731 142.115589,83.7716959 142.819011,84.1381287 C145.426616,85.481462 145.44943,88.6805263 145.470722,90.148538 L138.124715,90.148538 C138.192395,90.9277778 138.279848,92.2232164 139.176426,93.1773099 C139.923954,93.9588304 140.974144,94.2279532 142.006844,94.2279532 C143.475285,94.2279532 144.658555,93.6897076 145.098859,93.4943275 L143.847909,95.9133918 Z" id="Fill-27" fill="#8D8B8C" mask="url(#mask-6)"></path>
                        <path d="M147.528517,83.8948538 L150.114829,83.8948538 L150.114829,86.0440351 L151.365019,84.0917544 C152.109506,83.7975439 152.790875,83.625731 153.580228,83.625731 C155.092776,83.625731 156.606844,84.3335088 157.044867,86.1915205 L158.404563,84.0659064 C158.73384,83.9184211 159.49962,83.625731 160.618251,83.625731 C161.144487,83.625731 162.636502,83.6766667 163.536882,84.8960819 C164.236502,85.848655 164.259316,86.9228655 164.259316,88.1947368 L164.259316,95.9878947 L161.672243,95.9878947 L161.672243,88.8287719 C161.672243,87.1197661 161.319392,85.848655 159.587072,85.848655 C158.514068,85.848655 157.571103,86.4842105 157.132319,86.7784211 C157.153612,87.0703509 157.175665,87.3638012 157.175665,88.3422222 L157.175665,95.9878947 L154.610646,95.9878947 L154.610646,88.8546199 C154.590114,87.1935088 154.279848,85.848655 152.485171,85.848655 C151.519392,85.848655 150.662357,86.3382456 150.114829,86.6552632 L150.114829,95.9878947 L147.528517,95.9878947 L147.528517,83.8948538 Z" id="Fill-28" fill="#8D8B8C" mask="url(#mask-6)"></path>
                        <path d="M174.777947,88.3422222 C174.756654,87.8997661 174.711787,86.995848 174.142966,86.3123977 C173.748289,85.848655 173.197719,85.5780117 172.562738,85.5780117 C171.225856,85.5780117 170.370342,86.7518129 170.105703,88.3422222 L174.777947,88.3422222 Z M175.787072,95.9133918 C174.931559,96.1817544 174.054753,96.3056725 173.176426,96.3056725 C169.273764,96.3056725 167.30038,93.6646199 167.30038,90.0253801 C167.30038,86.2865497 169.361217,83.625731 172.519392,83.625731 C173.285932,83.625731 174.054753,83.7716959 174.756654,84.1381287 C177.363498,85.481462 177.388593,88.6805263 177.409886,90.148538 L170.064639,90.148538 C170.130798,90.9277778 170.218251,92.2232164 171.114829,93.1773099 C171.861597,93.9588304 172.913308,94.2279532 173.945247,94.2279532 C175.412928,94.2279532 176.597719,93.6897076 177.035741,93.4943275 L175.787072,95.9133918 Z" id="Fill-29" fill="#8D8B8C" mask="url(#mask-6)"></path>
                        <path d="M180.228137,83.9184211 L182.793916,83.9184211 L182.793916,86.2150877 L184.198479,84.0164912 C185.052471,83.6766667 185.974144,83.625731 186.390875,83.625731 C189.504183,83.625731 190.117871,85.8250877 190.117871,88.341462 L190.117871,95.9878947 L187.553612,95.9878947 L187.553612,89.1229825 C187.553612,87.2900585 187.244106,85.848655 185.24943,85.848655 C184.461597,85.848655 183.538403,86.167193 182.793916,86.7518129 L182.793916,95.9878947 L180.228137,95.9878947 L180.228137,83.9184211 Z" id="Fill-30" fill="#8D8B8C" mask="url(#mask-6)"></path>
                        <path d="M197.853232,96.7085965 C197.549049,96.7846199 197.155133,96.8826901 196.561217,96.8826901 C195.947529,96.8826901 195.070722,96.7846199 194.390875,95.9521637 C193.732319,95.1212281 193.732319,94.2667251 193.755133,93.1925146 L193.798479,86.5716374 L192.395437,86.5716374 L193.558935,84.4954386 L193.843346,84.4954386 L193.843346,82.2215789 L196.385551,81.3450292 L196.385551,84.4954386 L198.819772,84.4954386 L198.819772,86.5716374 L196.342966,86.5716374 L196.298099,91.8484211 C196.298099,93.1681871 196.298099,93.6821053 196.561217,94.1192398 C196.758175,94.4377778 197.174905,94.779883 197.89962,94.779883 C198.380989,94.779883 198.885171,94.6331579 199.346768,94.464386 L197.853232,96.7085965 Z" id="Fill-31" fill="#8D8B8C" mask="url(#mask-6)"></path>
                    </g>
                </g>
            </g>
        </g>
    </g>
</svg>