<?xml version="1.0" encoding="utf-8"?>
<!-- Generator: Adobe Illustrator 21.1.0, SVG Export Plug-In . SVG Version: 6.00 Build 0)  -->
<svg version="1.1" id="Layer_1" xmlns="http://www.w3.org/2000/svg" xmlns:xlink="http://www.w3.org/1999/xlink" x="0px" y="0px"
	 viewBox="0 0 421.3 101.1" style="enable-background:new 0 0 421.3 101.1;" xml:space="preserve">
<style type="text/css">
	.st0{fill:#8D8B8C;}
</style>
<g id="wireframe">
	<g id="Desktop-HD-Copy" transform="translate(-849.000000, -5370.000000)">
		<g id="Group-12" transform="translate(849.000000, 5370.000000)">
			<path id="FLEXPIPE" class="st0" d="M135.2,31.5h29.3v8.2h-17.4v6.7h14.8v7.8h-14.8v15.7h-11.9V31.5z M170.9,31.5h11.8v28.9h18.5
				v9.5h-30.3V31.5z M206.5,31.5h31.7v8.2h-19.9v6.1h18.4v7.8h-18.4v7.6h20.4v8.7h-32.3V31.5z M242.6,31.5h13l6.8,11.8l6.6-11.8
				h12.9L270,50.1l13,19.8h-13.3l-7.6-12.3l-7.6,12.3h-13.2l13.2-20L242.6,31.5z M286.8,31.5h19.7c4.3,0,7.5,1,9.6,3.1
				s3.2,4.9,3.2,8.7c0,3.9-1.2,6.9-3.5,9.1c-2.3,2.2-5.9,3.3-10.7,3.3h-6.5v14.2h-11.9V31.5z M298.7,47.9h2.9c2.3,0,3.9-0.4,4.8-1.2
				c0.9-0.8,1.4-1.8,1.4-3.1c0-1.2-0.4-2.2-1.2-3.1c-0.8-0.8-2.3-1.3-4.5-1.3h-3.4V47.9z M326,31.5h11.9v38.4H326V31.5z M346.3,31.5
				H366c4.3,0,7.5,1,9.6,3.1s3.2,4.9,3.2,8.7c0,3.9-1.2,6.9-3.5,9.1c-2.3,2.2-5.9,3.3-10.7,3.3h-6.5v14.2h-11.9V31.5z M358.2,47.9
				h2.9c2.3,0,3.9-0.4,4.8-1.2c0.9-0.8,1.4-1.8,1.4-3.1c0-1.2-0.4-2.2-1.2-3.1c-0.8-0.8-2.3-1.3-4.5-1.3h-3.4V47.9z M385,31.5h31.7
				v8.2h-19.9v6.1h18.4v7.8h-18.4v7.6h20.4v8.7H385V31.5z"/>
			<path id="ASSEMBLEZ-CE-QUI-VOU" class="st0" d="M148.3,94.5h-2.2l-0.9-2.3h-4l-0.8,2.3h-2.2l3.9-10.1h2.1L148.3,94.5z
				 M144.6,90.6l-1.4-3.7l-1.4,3.7H144.6z M148.9,91.3l2-0.2c0.1,0.7,0.4,1.2,0.7,1.5c0.4,0.3,0.9,0.5,1.5,0.5
				c0.7,0,1.1-0.1,1.5-0.4c0.3-0.3,0.5-0.6,0.5-1c0-0.2-0.1-0.4-0.2-0.6c-0.1-0.2-0.4-0.3-0.7-0.4c-0.2-0.1-0.8-0.2-1.6-0.4
				c-1.1-0.3-1.9-0.6-2.3-1c-0.6-0.6-0.9-1.2-0.9-2c0-0.5,0.1-1,0.4-1.4c0.3-0.4,0.7-0.8,1.3-1c0.5-0.2,1.2-0.4,2-0.4
				c1.3,0,2.2,0.3,2.8,0.8c0.6,0.6,1,1.3,1,2.2l-2,0.1c-0.1-0.5-0.3-0.9-0.6-1.1c-0.3-0.2-0.7-0.3-1.3-0.3c-0.6,0-1.1,0.1-1.4,0.4
				c-0.2,0.2-0.3,0.4-0.3,0.6c0,0.2,0.1,0.4,0.3,0.6c0.3,0.2,0.9,0.4,1.9,0.7c1,0.2,1.7,0.5,2.2,0.7c0.5,0.2,0.8,0.6,1.1,1
				c0.3,0.4,0.4,1,0.4,1.6c0,0.6-0.2,1.1-0.5,1.6c-0.3,0.5-0.8,0.9-1.4,1.1s-1.3,0.4-2.2,0.4c-1.3,0-2.2-0.3-2.9-0.9
				S149,92.4,148.9,91.3z M158.3,91.3l2-0.2c0.1,0.7,0.4,1.2,0.7,1.5c0.4,0.3,0.9,0.5,1.5,0.5c0.7,0,1.1-0.1,1.5-0.4
				c0.3-0.3,0.5-0.6,0.5-1c0-0.2-0.1-0.4-0.2-0.6c-0.1-0.2-0.4-0.3-0.7-0.4c-0.2-0.1-0.8-0.2-1.6-0.4c-1.1-0.3-1.9-0.6-2.3-1
				c-0.6-0.6-0.9-1.2-0.9-2c0-0.5,0.1-1,0.4-1.4c0.3-0.4,0.7-0.8,1.3-1c0.5-0.2,1.2-0.4,2-0.4c1.3,0,2.2,0.3,2.8,0.8
				c0.6,0.6,1,1.3,1,2.2l-2,0.1c-0.1-0.5-0.3-0.9-0.6-1.1c-0.3-0.2-0.7-0.3-1.3-0.3c-0.6,0-1.1,0.1-1.4,0.4
				c-0.2,0.2-0.3,0.4-0.3,0.6c0,0.2,0.1,0.4,0.3,0.6c0.3,0.2,0.9,0.4,1.9,0.7c1,0.2,1.7,0.5,2.2,0.7c0.5,0.2,0.8,0.6,1.1,1
				c0.3,0.4,0.4,1,0.4,1.6c0,0.6-0.2,1.1-0.5,1.6c-0.3,0.5-0.8,0.9-1.4,1.1s-1.3,0.4-2.2,0.4c-1.3,0-2.2-0.3-2.9-0.9
				S158.4,92.4,158.3,91.3z M168.1,94.5V84.5h7.5v1.7h-5.4v2.2h5v1.7h-5v2.7h5.6v1.7H168.1z M177.5,94.5V84.5h3l1.8,6.9l1.8-6.9h3
				v10.1h-1.9v-7.9l-2,7.9h-2l-2-7.9v7.9H177.5z M189.2,84.5h4c0.8,0,1.4,0,1.8,0.1c0.4,0.1,0.7,0.2,1,0.4c0.3,0.2,0.6,0.5,0.8,0.8
				c0.2,0.4,0.3,0.7,0.3,1.2c0,0.5-0.1,0.9-0.4,1.3c-0.3,0.4-0.6,0.7-1,0.9c0.6,0.2,1.1,0.5,1.4,0.9c0.3,0.4,0.5,0.9,0.5,1.5
				c0,0.5-0.1,0.9-0.3,1.3c-0.2,0.4-0.5,0.8-0.9,1c-0.4,0.3-0.8,0.4-1.4,0.5c-0.3,0-1.2,0.1-2.4,0.1h-3.4V84.5z M191.2,86.1v2.3h1.3
				c0.8,0,1.3,0,1.5,0c0.3,0,0.6-0.2,0.8-0.4c0.2-0.2,0.3-0.5,0.3-0.8c0-0.3-0.1-0.6-0.3-0.8c-0.2-0.2-0.4-0.3-0.8-0.4
				c-0.2,0-0.8,0-1.7,0H191.2z M191.2,90.1v2.7h1.9c0.7,0,1.2,0,1.4-0.1c0.3-0.1,0.5-0.2,0.7-0.4c0.2-0.2,0.3-0.5,0.3-0.9
				c0-0.3-0.1-0.6-0.2-0.8c-0.1-0.2-0.4-0.4-0.6-0.5c-0.3-0.1-0.9-0.1-1.8-0.1H191.2z M199.4,94.5v-10h2v8.3h5v1.7H199.4z
				 M207.9,94.5V84.5h7.5v1.7h-5.4v2.2h5v1.7h-5v2.7h5.6v1.7H207.9z M216.4,94.5v-1.8l5.3-6.5H217v-1.7h7.4V86l-5.5,6.8h5.7v1.7
				H216.4z M236.2,90.8l2,0.6c-0.3,1.1-0.8,1.9-1.5,2.4c-0.7,0.5-1.6,0.8-2.7,0.8c-1.3,0-2.4-0.5-3.3-1.4s-1.3-2.2-1.3-3.7
				c0-1.7,0.4-3,1.3-3.9c0.9-0.9,2-1.4,3.4-1.4c1.2,0,2.2,0.4,3,1.1c0.5,0.4,0.8,1,1,1.9l-2,0.5c-0.1-0.5-0.4-0.9-0.7-1.2
				S234.5,86,234,86c-0.7,0-1.3,0.3-1.8,0.8c-0.5,0.5-0.7,1.4-0.7,2.6c0,1.3,0.2,2.2,0.7,2.7c0.5,0.5,1.1,0.8,1.8,0.8
				c0.5,0,1-0.2,1.4-0.5C235.7,92.1,236,91.6,236.2,90.8z M239.9,94.5V84.5h7.5v1.7h-5.4v2.2h5v1.7h-5v2.7h5.6v1.7H239.9z
				 M261.3,93.3c0.5,0.4,1,0.6,1.6,0.9l-0.7,1.4c-0.3-0.1-0.6-0.2-0.9-0.4c-0.1,0-0.5-0.3-1.4-0.9c-0.7,0.3-1.4,0.4-2.2,0.4
				c-1.5,0-2.8-0.5-3.6-1.4c-0.9-0.9-1.3-2.2-1.3-3.8c0-1.6,0.4-2.9,1.3-3.8c0.9-0.9,2.1-1.4,3.6-1.4c1.5,0,2.7,0.5,3.5,1.4
				s1.3,2.2,1.3,3.8c0,0.9-0.1,1.6-0.4,2.3C261.9,92.3,261.7,92.8,261.3,93.3z M259.6,92.1c0.3-0.3,0.5-0.7,0.6-1.1
				c0.1-0.4,0.2-0.9,0.2-1.5c0-1.2-0.3-2-0.8-2.6c-0.5-0.6-1.2-0.9-2-0.9s-1.5,0.3-2,0.9c-0.5,0.6-0.8,1.4-0.8,2.6
				c0,1.2,0.3,2.1,0.8,2.6c0.5,0.6,1.2,0.9,2,0.9c0.3,0,0.6,0,0.8-0.1c-0.4-0.3-0.8-0.5-1.3-0.6l0.6-1.2
				C258.4,91.3,259,91.7,259.6,92.1z M264.1,84.5h2v5.5c0,0.9,0,1.4,0.1,1.7c0.1,0.4,0.3,0.7,0.6,1c0.3,0.2,0.8,0.4,1.3,0.4
				c0.6,0,1-0.1,1.3-0.4c0.3-0.2,0.5-0.5,0.5-0.9c0.1-0.3,0.1-0.9,0.1-1.7v-5.6h2v5.3c0,1.2-0.1,2.1-0.2,2.6
				c-0.1,0.5-0.3,0.9-0.6,1.3c-0.3,0.3-0.7,0.6-1.2,0.8c-0.5,0.2-1.1,0.3-1.9,0.3c-1,0-1.7-0.1-2.2-0.3c-0.5-0.2-0.9-0.5-1.2-0.9
				c-0.3-0.4-0.5-0.7-0.6-1.1c-0.1-0.6-0.2-1.4-0.2-2.6V84.5z M274.2,94.5V84.5h2v10.1H274.2z M284.6,94.5L281,84.5h2.2l2.5,7.5
				l2.5-7.5h2.2l-3.6,10.1H284.6z M291,89.6c0-1,0.2-1.9,0.5-2.6c0.2-0.5,0.5-1,0.9-1.4c0.4-0.4,0.8-0.7,1.3-0.9
				c0.6-0.3,1.3-0.4,2.2-0.4c1.5,0,2.7,0.5,3.6,1.4c0.9,0.9,1.3,2.2,1.3,3.8c0,1.6-0.4,2.9-1.3,3.8s-2.1,1.4-3.5,1.4
				c-1.5,0-2.7-0.5-3.6-1.4C291.4,92.4,291,91.2,291,89.6z M293.1,89.5c0,1.1,0.3,2,0.8,2.6c0.5,0.6,1.2,0.9,2,0.9
				c0.8,0,1.5-0.3,2-0.9c0.5-0.6,0.8-1.5,0.8-2.6c0-1.2-0.3-2-0.8-2.6c-0.5-0.6-1.2-0.9-2-0.9s-1.5,0.3-2,0.9
				C293.3,87.5,293.1,88.3,293.1,89.5z M302.3,84.5h2v5.5c0,0.9,0,1.4,0.1,1.7c0.1,0.4,0.3,0.7,0.6,1c0.3,0.2,0.8,0.4,1.3,0.4
				c0.6,0,1-0.1,1.3-0.4c0.3-0.2,0.5-0.5,0.5-0.9c0.1-0.3,0.1-0.9,0.1-1.7v-5.6h2v5.3c0,1.2-0.1,2.1-0.2,2.6
				c-0.1,0.5-0.3,0.9-0.6,1.3s-0.7,0.6-1.2,0.8c-0.5,0.2-1.1,0.3-1.9,0.3c-1,0-1.7-0.1-2.2-0.3c-0.5-0.2-0.9-0.5-1.2-0.9
				c-0.3-0.4-0.5-0.7-0.6-1.1c-0.1-0.6-0.2-1.4-0.2-2.6V84.5z M311.9,91.3l2-0.2c0.1,0.7,0.4,1.2,0.7,1.5c0.4,0.3,0.9,0.5,1.5,0.5
				c0.7,0,1.1-0.1,1.5-0.4s0.5-0.6,0.5-1c0-0.2-0.1-0.4-0.2-0.6c-0.1-0.2-0.4-0.3-0.7-0.4c-0.2-0.1-0.8-0.2-1.6-0.4
				c-1.1-0.3-1.9-0.6-2.3-1c-0.6-0.6-0.9-1.2-0.9-2c0-0.5,0.1-1,0.4-1.4c0.3-0.4,0.7-0.8,1.3-1c0.5-0.2,1.2-0.4,2-0.4
				c1.3,0,2.2,0.3,2.8,0.8c0.6,0.6,1,1.3,1,2.2l-2,0.1c-0.1-0.5-0.3-0.9-0.6-1.1c-0.3-0.2-0.7-0.3-1.3-0.3c-0.6,0-1.1,0.1-1.4,0.4
				c-0.2,0.2-0.3,0.4-0.3,0.6c0,0.2,0.1,0.4,0.3,0.6c0.3,0.2,0.9,0.4,1.9,0.7c1,0.2,1.7,0.5,2.2,0.7c0.5,0.2,0.8,0.6,1.1,1
				c0.3,0.4,0.4,1,0.4,1.6c0,0.6-0.2,1.1-0.5,1.6c-0.3,0.5-0.8,0.9-1.4,1.1s-1.3,0.4-2.2,0.4c-1.3,0-2.2-0.3-2.9-0.9
				S312.1,92.4,311.9,91.3z M325.7,94.5V84.5h4.3c1.1,0,1.9,0.1,2.3,0.3c0.5,0.2,0.9,0.5,1.2,1c0.3,0.5,0.4,1,0.4,1.6
				c0,0.8-0.2,1.4-0.7,1.9s-1.1,0.8-2,0.9c0.4,0.3,0.8,0.5,1.1,0.8s0.7,0.9,1.2,1.6l1.2,2h-2.4l-1.5-2.2c-0.5-0.8-0.9-1.3-1.1-1.5
				c-0.2-0.2-0.4-0.3-0.6-0.4c-0.2-0.1-0.6-0.1-1-0.1h-0.4v4.2H325.7z M327.8,88.7h1.5c1,0,1.6,0,1.8-0.1c0.2-0.1,0.4-0.2,0.6-0.4
				c0.1-0.2,0.2-0.5,0.2-0.8c0-0.3-0.1-0.6-0.3-0.8c-0.2-0.2-0.4-0.3-0.8-0.4c-0.2,0-0.7,0-1.5,0h-1.6V88.7z M335.9,94.5V84.5h7.5
				v1.7h-5.4v2.2h5v1.7h-5v2.7h5.6v1.7H335.9z M344.7,91.3l2-0.2c0.1,0.7,0.4,1.2,0.7,1.5c0.4,0.3,0.9,0.5,1.5,0.5
				c0.7,0,1.1-0.1,1.5-0.4s0.5-0.6,0.5-1c0-0.2-0.1-0.4-0.2-0.6c-0.1-0.2-0.4-0.3-0.7-0.4c-0.2-0.1-0.8-0.2-1.6-0.4
				c-1.1-0.3-1.9-0.6-2.3-1c-0.6-0.6-0.9-1.2-0.9-2c0-0.5,0.1-1,0.4-1.4c0.3-0.4,0.7-0.8,1.3-1c0.5-0.2,1.2-0.4,2-0.4
				c1.3,0,2.2,0.3,2.8,0.8c0.6,0.6,1,1.3,1,2.2l-2,0.1c-0.1-0.5-0.3-0.9-0.6-1.1c-0.3-0.2-0.7-0.3-1.3-0.3c-0.6,0-1.1,0.1-1.4,0.4
				c-0.2,0.2-0.3,0.4-0.3,0.6c0,0.2,0.1,0.4,0.3,0.6c0.3,0.2,0.9,0.4,1.9,0.7c1,0.2,1.7,0.5,2.2,0.7c0.5,0.2,0.8,0.6,1.1,1
				c0.3,0.4,0.4,1,0.4,1.6c0,0.6-0.2,1.1-0.5,1.6c-0.3,0.5-0.8,0.9-1.4,1.1s-1.3,0.4-2.2,0.4c-1.3,0-2.2-0.3-2.9-0.9
				C345.2,93.2,344.8,92.4,344.7,91.3z M354.1,91.3l2-0.2c0.1,0.7,0.4,1.2,0.7,1.5c0.4,0.3,0.9,0.5,1.5,0.5c0.7,0,1.1-0.1,1.5-0.4
				s0.5-0.6,0.5-1c0-0.2-0.1-0.4-0.2-0.6c-0.1-0.2-0.4-0.3-0.7-0.4c-0.2-0.1-0.8-0.2-1.6-0.4c-1.1-0.3-1.9-0.6-2.3-1
				c-0.6-0.6-0.9-1.2-0.9-2c0-0.5,0.1-1,0.4-1.4c0.3-0.4,0.7-0.8,1.3-1c0.5-0.2,1.2-0.4,2-0.4c1.3,0,2.2,0.3,2.8,0.8
				c0.6,0.6,1,1.3,1,2.2l-2,0.1c-0.1-0.5-0.3-0.9-0.6-1.1c-0.3-0.2-0.7-0.3-1.3-0.3c-0.6,0-1.1,0.1-1.4,0.4
				c-0.2,0.2-0.3,0.4-0.3,0.6c0,0.2,0.1,0.4,0.3,0.6c0.3,0.2,0.9,0.4,1.9,0.7c1,0.2,1.7,0.5,2.2,0.7c0.5,0.2,0.8,0.6,1.1,1
				c0.3,0.4,0.4,1,0.4,1.6c0,0.6-0.2,1.1-0.5,1.6c-0.3,0.5-0.8,0.9-1.4,1.1c-0.6,0.2-1.3,0.4-2.2,0.4c-1.3,0-2.2-0.3-2.9-0.9
				C354.6,93.2,354.2,92.4,354.1,91.3z M363.9,94.5V84.5h7.5v1.7H366v2.2h5v1.7h-5v2.7h5.6v1.7H363.9z M373.3,94.5V84.5h3l1.8,6.9
				l1.8-6.9h3v10.1h-1.9v-7.9l-2,7.9h-2l-2-7.9v7.9H373.3z M385,84.5h4c0.8,0,1.4,0,1.8,0.1c0.4,0.1,0.7,0.2,1,0.4
				c0.3,0.2,0.6,0.5,0.8,0.8c0.2,0.4,0.3,0.7,0.3,1.2c0,0.5-0.1,0.9-0.4,1.3c-0.3,0.4-0.6,0.7-1,0.9c0.6,0.2,1.1,0.5,1.4,0.9
				c0.3,0.4,0.5,0.9,0.5,1.5c0,0.5-0.1,0.9-0.3,1.3c-0.2,0.4-0.5,0.8-0.9,1s-0.8,0.4-1.4,0.5c-0.3,0-1.2,0.1-2.4,0.1H385V84.5z
				 M387,86.1v2.3h1.3c0.8,0,1.3,0,1.5,0c0.3,0,0.6-0.2,0.8-0.4c0.2-0.2,0.3-0.5,0.3-0.8c0-0.3-0.1-0.6-0.3-0.8s-0.4-0.3-0.8-0.4
				c-0.2,0-0.8,0-1.7,0H387z M387,90.1v2.7h1.9c0.7,0,1.2,0,1.4-0.1c0.3-0.1,0.5-0.2,0.7-0.4c0.2-0.2,0.3-0.5,0.3-0.9
				c0-0.3-0.1-0.6-0.2-0.8c-0.1-0.2-0.4-0.4-0.6-0.5c-0.3-0.1-0.9-0.1-1.8-0.1H387z M395.2,94.5v-10h2v8.3h5v1.7H395.2z M403.7,94.5
				V84.5h7.5v1.7h-5.4v2.2h5v1.7h-5v2.7h5.6v1.7H403.7z"/>
			<g id="_x2B_">
				<rect id="Rectangle-8" x="41.7" y="4.9" class="st0" width="18.4" height="90.6"/>
				<rect id="Rectangle-8-Copy" x="5.7" y="40.9" class="st0" width="90.6" height="18.4"/>
				<rect id="Rectangle-8-Copy-2" x="68.9" y="4.9" class="st0" width="28.1" height="18.4"/>
			</g>
		</g>
	</g>
</g>
</svg>
