<?xml version="1.0" encoding="UTF-8"?>
<svg width="202px" height="48px" viewBox="0 0 202 48" version="1.1" xmlns="http://www.w3.org/2000/svg" xmlns:xlink="http://www.w3.org/1999/xlink">
    <!-- Generator: Sketch 41.2 (35397) - http://www.bohemiancoding.com/sketch -->
    <title>loctite</title>
    <desc>Created with Sketch.</desc>
    <defs></defs>
    <g id="wireframe" stroke="none" stroke-width="1" fill="none" fill-rule="evenodd">
        <g id="Desktop-HD-Copy" transform="translate(-1095.000000, -4186.000000)" fill="#8D8B8C">
            <g id="commanditaire" transform="translate(0.000000, 3666.000000)">
                <g id="logo" transform="translate(141.000000, 265.000000)">
                    <g id="loctite" transform="translate(954.000000, 254.000000)">
                        <polygon id="Fill-1" points="100.9967 2.8714 129.4407 2.8714 126.0597 14.2694 117.6507 14.2694 108.0867 46.5754 96.7077 46.5754 106.2747 14.2694 97.6167 14.2694"></polygon>
                        <polygon id="Fill-2" points="133.5641 2.9739 144.6961 2.9739 131.5841 46.5759 120.4521 46.5759"></polygon>
                        <polygon id="Fill-3" points="179.982 2.9738 166.872 46.5748 188.222 46.5748 191.775 34.7808 181.714 34.7808 183.775 28.1448 193.834 28.1448 195.727 21.8008 185.674 21.8008 187.729 15.0618 197.705 15.0618 201.253 2.9738"></polygon>
                        <polygon id="Fill-4" points="148.65 2.8714 177.014 2.8714 173.633 14.2694 165.223 14.2694 155.658 46.5754 144.365 46.5754 153.844 14.2694 145.19 14.2694"></polygon>
                        <polygon id="Fill-5" points="91.5973 12.7816 92.5863 9.2156 91.3523 8.8186 90.2783 12.0896"></polygon>
                        <polygon id="Fill-6" points="84.6695 43.1077 85.6615 39.4407 84.4265 39.1427 83.3545 42.4147"></polygon>
                        <g id="Group-15" transform="translate(0.000000, 0.828800)">
                            <path d="M12.6964,1.9449 L27.7824,1.9449 L19.1244,31.5769 L30.0924,31.5769 L25.7214,45.6469 L0.0004,45.6469 C0.7414,42.8719 11.2114,6.9979 12.6964,1.9449 L12.6964,1.9449 Z M17.5594,8.9799 L19.1244,8.9799 C16.4054,18.3949 10.6354,37.9179 10.6354,37.9179 L23.0004,37.9179 L22.5904,39.5029 L8.4924,39.5029 L17.5594,8.9799 Z" id="Fill-7"></path>
                            <path d="M49.3854,0.358 C70.8214,-1.917 72.9654,40.098 50.2084,46.937 C47.4884,47.729 44.7674,47.528 42.0464,46.439 C23.3314,38.512 30.7534,2.44 49.3854,0.358 M49.9614,6.803 C56.6404,6.803 61.3404,15.521 60.1044,24.639 C58.9484,33.952 52.7654,40.692 46.5794,40.692 C39.9024,40.692 35.8644,32.466 36.7714,23.253 C37.6764,14.034 43.3654,6.803 49.9614,6.803 M49.9614,8.485 C44.2734,8.485 38.9954,14.828 38.1724,23.449 C37.2654,32.169 41.1404,39.008 46.5794,39.008 C51.9414,39.008 57.6304,33.06 58.7824,24.441 C59.8554,15.817 55.4854,8.485 49.9614,8.485 M49.6324,15.718 C54.7424,15.718 51.6124,32.169 46.4994,32.169 C41.3874,32.169 44.6864,15.718 49.6324,15.718" id="Fill-9"></path>
                            <path d="M90.358,0.358 C93.659,0.953 96.297,2.145 98.029,4.719 L93.33,19.586 C91.928,17.8 89.784,17.208 88.135,17.208 C84.426,17.208 81.292,20.773 81.292,25.332 C81.292,29.792 84.26,32.963 87.888,32.963 C88.713,32.963 89.868,32.764 90.691,32.568 C90.856,32.466 91.103,32.369 91.432,32.268 L91.597,32.268 C90.115,36.827 88.713,41.881 87.228,46.439 C86.402,46.837 85.744,47.132 84.67,47.431 C83.848,47.629 83.27,47.826 82.365,47.925 C81.375,48.025 80.796,48.025 79.808,47.925 C78.571,47.729 77.911,47.431 76.758,46.937 C71.808,44.954 68.429,39.008 67.439,31.773 C67.357,30.88 67.276,30.384 67.276,29.394 C67.192,28.205 67.192,27.513 67.276,26.322 C67.276,25.332 67.276,25.133 67.439,23.846 C67.525,23.153 67.604,22.558 67.768,21.766 C68.429,18.594 69.089,16.314 70.162,13.934 C71.565,10.866 73.377,8.089 75.852,5.611 C77.664,3.826 81.704,0.953 85.991,0.358 C87.723,0.161 88.713,0.062 90.358,0.358 L90.358,0.358 Z M90.774,10.369 L90.527,10.269 C87.147,9.278 84.34,9.972 81.457,12.646 C75.852,17.503 73.295,27.116 76.84,34.547 C78.158,37.224 81.457,39.601 84.093,39.106 L84.34,40.792 C81.126,41.286 77.253,38.71 75.684,35.441 C71.726,27.216 74.449,16.713 80.631,11.26 C82.939,9.178 85.25,8.286 87.476,8.186 C89.206,8.186 91.103,8.686 91.352,8.879 L90.774,10.369 Z" id="Fill-11"></path>
                            <path d="M199.6861,41.0885 C199.6861,43.3685 198.3721,44.8555 196.7161,44.8555 C194.9031,44.8555 193.7471,43.1665 193.7471,41.0885 C193.7471,38.8095 195.0701,37.2245 196.7161,37.2245 C198.3721,37.2245 199.6861,38.8095 199.6861,41.0885 L199.6861,41.0885 Z M200.5111,41.0885 C200.5111,38.2155 198.7811,36.4305 196.7161,36.4305 C194.6591,36.4305 192.9271,38.2155 192.9271,41.0885 C192.9271,43.6655 194.4941,45.6475 196.7161,45.6475 C198.7811,45.6475 200.5111,43.8625 200.5111,41.0885 L200.5111,41.0885 Z M195.9731,40.7915 L195.9731,39.3065 L196.7991,39.3065 C197.2121,39.3065 197.7051,39.4045 197.7051,39.9985 C197.7051,40.6925 197.2921,40.7915 196.7161,40.7915 L195.9731,40.7915 Z M195.9731,41.4845 L196.6341,41.4845 L197.7051,43.6655 L198.5301,43.6655 L197.2921,41.4845 C197.9521,41.3865 198.4471,40.9875 198.4471,39.9985 C198.4471,39.0085 197.8741,38.6115 196.8791,38.6115 L195.2331,38.6115 L195.2331,43.6655 L195.9731,43.6655 L195.9731,41.4845 Z" id="Fill-13"></path>
                        </g>
                    </g>
                </g>
            </g>
        </g>
    </g>
</svg>