<?xml version="1.0" encoding="UTF-8"?>
<svg width="181px" height="107px" viewBox="0 0 181 107" version="1.1" xmlns="http://www.w3.org/2000/svg" xmlns:xlink="http://www.w3.org/1999/xlink">
    <!-- Generator: Sketch 41.2 (35397) - http://www.bohemiancoding.com/sketch -->
    <title>logo ets</title>
    <desc>Created with Sketch.</desc>
    <defs>
        <polygon id="path-1" points="24.0953725 0.124453901 0.37737364 0.124453901 0.37737364 11.0338248 24.0953725 11.0338248 24.0953725 0.124453901"></polygon>
        <polygon id="path-3" points="0.00477112971 12.9007092 8.23004958 12.9007092 8.23004958 0.478311735 0.00477112971 0.478311735"></polygon>
    </defs>
    <g id="wireframe" stroke="none" stroke-width="1" fill="none" fill-rule="evenodd">
        <g id="Desktop-HD-Copy" transform="translate(-141.000000, -3943.000000)">
            <g id="commanditaire" transform="translate(0.000000, 3666.000000)">
                <g id="logo" transform="translate(141.000000, 265.000000)">
                    <g id="logo-ets" transform="translate(0.000000, 12.000000)">
                        <path d="M12.139723,44.4002191 C12.3502586,48.5754957 20.9276895,52.3387085 34.2459573,53.9937936 C37.4426142,54.4491128 39.6077983,54.5652191 43.1952335,54.7564532 C44.8204469,54.8429638 49.496154,55.0068787 49.496154,55.0068787 L49.5393213,54.0689213 C49.5393213,54.0689213 44.0911456,53.8549213 42.4719908,53.7919355 C40.2189573,53.7031482 38.5899573,53.6394035 35.8704134,53.2698362 C21.1457983,51.564666 13.4347439,47.4804532 13.2772209,44.3440631 L12.139723,44.4002191 Z" id="Fill-1" fill="#8D8B8C"></path>
                        <path d="M167.558289,34.7699156 C167.362142,30.808639 159.230017,27.9833837 143.391381,26.365483 C135.740912,25.5830929 126.738623,25.188483 116.632159,25.1960716 C107.866912,25.2036603 98.4889916,25.5110007 88.7611883,26.1150574 C71.8766904,27.1622915 54.5506736,29.3432702 39.9744937,32.2573128 C38.778682,32.4963553 37.6131632,32.7816887 36.4862678,33.0586745 C35.8501172,33.213483 35.2222971,33.3675326 34.6012929,33.5109582 C24.2259791,35.8877241 11.9066192,39.7048163 12.1398745,44.3999156 L13.2773724,44.3437596 C13.1266653,41.3257525 21.1966904,37.6543624 34.8663556,34.5225255 C35.9175188,34.2819652 36.9883724,34.0854191 38.120569,33.8782489 C38.8248787,33.748483 39.5344895,33.6179582 40.252431,33.4752915 C53.0526904,30.9171567 69.8591841,28.9425894 88.8566109,27.7655894 C97.5976234,27.2222418 106.245485,26.9444972 114.558611,26.9384262 C125.1899,26.9308376 134.800318,27.3580787 143.119502,28.2087667 C158.936176,29.8281851 164.688038,32.762717 164.798607,34.9528021 L167.558289,34.7699156 Z" id="Fill-3" fill="#8D8B8C"></path>
                        <polygon id="Fill-5" fill="#8D8B8C" points="71.257428 15.8879823 34.9847251 15.9145426 18.8128674 77.2771454 55.3809259 77.2505851 57.8475243 67.7101312 33.5079469 67.728344 38.1662356 50.1226702 58.9804782 50.1074929 61.4894866 40.6543085 40.5866372 40.668727 44.5837837 25.4466489 68.6545117 25.4276773"></polygon>
                        <g id="Group-9" transform="translate(46.953975, 0.634411)">
                            <mask id="mask-2" fill="white">
                                <use xlink:href="#path-1"></use>
                            </mask>
                            <g id="Clip-8"></g>
                            <path d="M20.6599762,0.124378014 L20.6599762,0.124378014 C19.197587,0.125895745 17.7791226,0.866548227 15.2011979,2.20973972 L14.9800598,2.32660496 L2.15632343,9.5843922 L0.37737364,10.5929241 L2.44410586,10.7742929 L5.21969163,11.0201652 L5.35373766,11.0338248 L5.48551172,10.9951227 L20.1124322,6.72650567 C21.8058046,6.32734255 23.4961477,5.78778936 23.995223,4.03860496 C24.2103025,3.29795248 24.0754992,2.44498794 23.6241351,1.70585319 C23.1788297,0.973548227 22.4926958,0.457519858 21.6906916,0.254902837 C21.3445954,0.166874468 21.0083444,0.123619149 20.6599762,0.124378014" id="Fill-7" fill="#8D8B8C" mask="url(#mask-2)"></path>
                        </g>
                        <path d="M90.4696314,55.3452567 C89.2609452,55.434044 86.9571711,55.5903702 84.1762841,55.7724979 C83.5787569,55.8104411 82.9706272,55.8499021 82.3344766,55.8923986 L78.5531669,70.3169092 L90.654418,70.3093206 L94.6674682,55.0090794 C93.2694515,55.1236681 91.874464,55.2412922 90.4696314,55.3452567" id="Fill-10" fill="#8D8B8C"></path>
                        <path d="M76.4155494,8.97001489 L73.9095703,18.5066745 L92.1375577,18.4937738 L91.7316331,20.0403411 L83.499541,51.4406674 C84.1432649,51.3989298 84.7551812,51.3579511 85.3428632,51.3200078 C87.4497335,51.1796177 89.1658255,51.0635113 90.1571603,50.9906603 C92.0656121,50.8502702 93.9574029,50.6947028 95.8385912,50.5345823 L104.239566,18.4854262 L121.374738,18.4725255 L123.475549,10.4801567 L123.881474,8.93434823 L76.4155494,8.97001489 Z" id="Fill-12" fill="#8D8B8C"></path>
                        <path id="Fill-14" fill="#8D8B8C"></path>
                        <path d="M161.062964,8.69727872 C155.098294,5.32336383 149.394901,4.61610142 145.659788,4.61913688 C139.392947,4.62444894 134.039436,6.5883922 130.172549,10.3000021 C126.729763,13.6056191 124.75921,18.162605 124.763754,22.803066 C124.767541,28.220605 127.29321,32.0946121 130.314169,35.1892645 C131.793976,36.7077539 133.388897,38.0410801 134.870976,39.2712007 C136.244759,40.4831085 137.640503,41.7147468 138.775729,43.1194064 C139.08093,43.4950447 139.364169,43.8851014 139.625445,44.2888177 C139.692846,44.2751582 139.757976,44.2584631 139.825378,44.2448035 C141.149934,43.9541582 142.452528,43.6597184 143.703625,43.3576901 C146.589779,42.6618106 149.206328,41.949995 151.564629,41.2283142 C150.92242,40.0877397 150.174943,39.0678248 149.385056,38.1329028 C148.223323,36.7563213 146.964654,35.5626262 145.80065,34.4622716 L145.748395,34.4159809 L143.808135,32.6986688 C142.765303,31.8570872 141.705809,30.9639028 140.737951,30.005456 C138.594729,27.8798745 136.911202,25.4249454 136.908173,22.4532291 C136.905144,18.3121014 140.236604,13.9046121 146.420897,13.9008177 C148.70498,13.8985411 153.237554,14.513222 157.913261,18.6535908 L158.761462,19.4041085 L159.040913,18.3379028 L161.315909,9.62385319 L161.374223,9.40150567 L161.495395,8.94163333 L161.062964,8.69727872 Z" id="Fill-16" fill="#8D8B8C"></path>
                        <path d="M153.16947,45.3095674 C150.7006,46.0798156 147.948491,46.8386809 144.878307,47.5793333 C143.999813,47.7918156 143.091784,48.0005035 142.17391,48.2069149 C141.839931,48.2828014 141.508223,48.3579291 141.168186,48.4330567 C141.218926,48.8337376 141.253763,49.2435248 141.254521,49.6730426 C141.258307,54.6064255 137.932148,59.5853404 130.491458,59.5898936 C125.483286,59.5936879 120.747751,57.5978723 116.412838,53.6563262 L115.562366,52.8838014 L115.27837,53.9636667 L112.780721,63.4934965 L112.661064,63.9457801 L113.081378,64.1924113 C113.461554,64.4177943 113.847031,64.6295177 114.237809,64.8382057 C119.286119,67.5405248 125.081148,68.9626383 131.084441,68.9573262 C145.910537,68.9467021 153.659458,59.1140851 153.651885,49.4097163 C153.65037,47.913234 153.473156,46.5571418 153.16947,45.3095674" id="Fill-18" fill="#8D8B8C"></path>
                        <path d="M164.79891,34.9529539 C164.88373,36.309805 160.622278,39.9432518 143.872583,43.9826915 C129.643257,47.4188333 110.585244,50.1355709 90.2102485,51.6335709 C85.8102067,51.9560887 67.1952276,53.1459894 62.7224828,53.3448121 L62.4377297,53.3577128 L62.0295331,56.5153511 L62.4263699,56.4994149 C66.8135372,56.3051454 85.6966084,55.0492234 90.4154828,54.702422 C104.848529,53.6407695 118.853688,51.9469823 130.921617,49.8016702 C135.882077,48.9229043 140.520675,47.9652163 144.70791,46.9536489 C160.364031,43.1767766 167.839558,39.1942518 167.558592,34.7700674 L164.79891,34.9529539 Z" id="Fill-20" fill="#8D8B8C"></path>
                        <polygon id="Fill-22" fill="#8D8B8C" points="7.26075063 103.260464 0.0101481172 103.265776 0.00030292887 91.0715702 1.66641172 91.0708113 1.67474226 102.038691 8.01049958 102.033379"></polygon>
                        <path d="M14.6701636,97.7631681 C14.6512305,97.3989128 14.5967033,96.7424943 14.0832389,96.2257071 C13.7886406,95.9487213 13.2948665,95.6740121 12.5807117,95.6747709 C11.5015276,95.6747709 10.5677494,96.3486433 10.2383142,97.7662035 L14.6701636,97.7631681 Z M15.2063477,103.18526 C14.9117494,103.27253 14.2536364,103.463764 13.2289795,103.464523 C10.5185234,103.46604 8.46618033,101.999154 8.46466569,99.0107426 C8.46239372,96.3509199 10.1996908,94.5190191 12.6163059,94.5167426 C13.7878833,94.5159837 14.8322305,94.9295652 15.5289669,95.8098489 C16.2984063,96.8100333 16.3362724,98.1926858 16.3552054,98.8840121 L10.1300172,98.8893241 C10.1307745,99.4243241 10.1512222,100.547445 10.9380799,101.356395 C11.6166406,102.031026 12.604946,102.270828 13.5940088,102.270069 C14.6913686,102.26931 15.5895527,101.959693 16.065151,101.785913 L15.2063477,103.18526 Z" id="Fill-24" fill="#8D8B8C"></path>
                        <path d="M29.2423297,95.954944 C28.8008109,95.8001355 28.1055891,95.645327 27.4277858,95.6460858 C25.5973381,95.6476035 24.2803548,96.8230858 24.2811121,98.7566745 C24.2833841,100.795745 25.5481121,101.761022 27.1218276,101.759504 C28.1101331,101.758745 28.9522753,101.396008 29.245359,101.257894 L29.2423297,95.954944 Z M28.4221498,102.726299 C28.0745389,102.813568 27.5625891,102.916774 26.847677,102.917533 C24.175087,102.919809 22.5809238,101.212362 22.5786519,98.9145184 C22.5771372,96.7031851 24.0773925,94.490334 27.4444469,94.4880574 C27.9586686,94.4872986 29.4399908,94.5389014 30.7955975,95.1596532 L30.8024134,102.138178 C30.8031707,103.105731 30.8046854,103.899504 30.2738025,104.763093 C29.5248109,105.990178 28.114677,106.733866 26.302405,106.735384 C25.7525891,106.736143 24.287928,106.667086 23.0065389,105.943128 L23.0050243,104.441334 C23.2428234,104.631809 23.4987983,104.836703 24.0486142,105.060568 C24.7809448,105.354249 25.6056686,105.509057 26.302405,105.508299 C27.545928,105.508299 28.589518,105.040838 29.0098318,103.901022 C29.2468736,103.26054 29.2468736,102.621575 29.245359,101.567511 L28.4221498,102.726299 Z" id="Fill-26" fill="#8D8B8C"></path>
                        <path d="M35.4258653,93.584173 L35.4251079,92.4276624 L38.8482042,91.1816057 L38.8489615,92.3206624 L35.4258653,93.584173 Z M38.7073423,97.7450312 C38.6884092,97.3815348 38.6323674,96.7258752 38.1196603,96.2075702 C37.8258192,95.9313433 37.3312879,95.6551163 36.6186477,95.6558752 C35.537949,95.656634 34.6041707,96.3312652 34.2770075,97.7473078 L38.7073423,97.7450312 Z M39.2420117,103.167882 C38.948928,103.253634 38.2900577,103.444868 37.2654008,103.445627 C34.5564594,103.447904 32.5026017,101.980258 32.501087,98.9926057 C32.4980577,96.3320241 34.2361121,94.5008823 36.6534845,94.4986057 C37.8250619,94.4978468 38.8694092,94.9121872 39.5661456,95.7917121 C40.3348276,96.7934142 40.3726937,98.1753078 40.3916268,98.866634 L34.1664385,98.8704284 C34.1679531,99.4054284 34.1868862,100.52779 34.9745013,101.339776 C35.6523046,102.01213 36.6413674,102.254209 37.6304301,102.25345 C38.7293046,102.251932 39.6267314,101.941556 40.1008151,101.767776 L39.2420117,103.167882 Z" id="Fill-28" fill="#8D8B8C"></path>
                        <path d="M41.8412929,103.23527 L41.8337197,94.7018298 L43.3900167,94.7010709 L43.3915314,96.0829645 L44.3434854,94.7868227 C45.1470042,94.509078 46.0073222,94.492383 46.2829874,94.4916241 C46.7775188,94.4916241 47.7484059,94.5591631 48.5541967,95.1981277 C49.4697992,95.9402979 49.4887322,96.8380355 49.4887322,97.6333262 L49.4940335,103.229199 L47.9210753,103.229957 L47.9157741,98.2381418 C47.9142594,96.7697376 47.6385941,95.6997376 45.7892134,95.7004965 C45.0758159,95.7004965 44.1594561,95.9258794 43.3922887,96.4107943 L43.39759,103.234511 L41.8412929,103.23527 Z" id="Fill-30" fill="#8D8B8C"></path>
                        <path d="M53.3197979,103.226391 L51.7635008,103.227909 L51.7559276,94.6952277 L53.312982,94.6937099 L53.3197979,103.226391 Z M53.4015887,91.6711496 C53.4015887,92.1545468 52.9986933,92.5180433 52.523095,92.5180433 C52.0285636,92.5180433 51.6430866,92.1211567 51.6430866,91.6726674 C51.6430866,91.224178 52.0088732,90.8250149 52.5215803,90.8250149 C52.997936,90.8250149 53.4000741,91.1885113 53.4015887,91.6711496 L53.4015887,91.6711496 Z" id="Fill-32" fill="#8D8B8C"></path>
                        <path d="M61.2058695,97.7283362 C61.1869364,97.3648397 61.1324092,96.7091801 60.6189448,96.1901163 C60.3251038,95.9146482 59.8298151,95.6384213 59.1164176,95.6391801 C58.0364762,95.6406979 57.1034552,96.3145702 56.7755347,97.7321305 L61.2058695,97.7283362 Z M61.7412962,103.151187 C61.4474552,103.236939 60.7893423,103.427414 59.7646854,103.428932 C57.0549866,103.43045 55.0018862,101.963563 54.9996142,98.9759106 C54.9973423,96.3160879 56.7353967,94.4841872 59.152769,94.4826695 C60.3235891,94.4811518 61.3679364,94.8954922 62.0646728,95.7757759 C62.8341121,96.7767191 62.8719782,98.157095 62.8909113,98.849939 L56.6649657,98.8537333 C56.6664803,99.3887333 56.6854134,100.511854 57.4745431,101.323081 C58.1523464,101.996194 59.1414092,102.236755 60.130472,102.235237 C61.2278318,102.235237 62.1252586,101.924102 62.6008569,101.75184 L61.7412962,103.151187 Z" id="Fill-34" fill="#8D8B8C"></path>
                        <g id="Group-38" transform="translate(69.673640, 93.974837)">
                            <mask id="mask-4" fill="white">
                                <use xlink:href="#path-3"></use>
                            </mask>
                            <g id="Clip-37"></g>
                            <path d="M1.5678841,7.7011922 C1.823859,7.85524184 2.50090502,8.25212837 3.58160377,8.25212837 C5.63243222,8.24985177 6.56318117,6.67672411 6.56318117,4.84785887 C6.56166653,3.79379504 6.25040711,3.06831986 5.86493013,2.61907163 C5.31511423,1.96265319 4.51008075,1.67049007 3.63082971,1.67124894 C2.67887573,1.6720078 1.94730251,1.98314255 1.56258285,2.15616383 L1.5678841,7.7011922 Z M2.42214351,0.705213475 C2.71446987,0.618702837 3.19082552,0.479071631 3.90422301,0.478312766 C6.59726067,0.476795035 8.22701799,2.15085177 8.23004728,4.79397943 C8.23231925,7.45380213 6.54879205,9.44127021 3.80198452,9.44354681 C2.70462469,9.44430567 2.04423975,9.16883759 1.56864142,8.94497234 L1.57167071,12.8994191 L0.0153736402,12.9009369 L0.00477112971,0.689277305 L1.56182552,0.68851844 L1.56182552,1.91484468 L2.42214351,0.705213475 Z" id="Fill-36" fill="#8D8B8C" mask="url(#mask-4)"></path>
                        </g>
                        <path d="M85.7926368,98.9177057 C85.7918795,97.3817624 85.1307372,95.6196773 83.2631808,95.6219539 C81.7068837,95.6227128 80.7011598,96.9021596 80.7026745,98.9738617 C80.7034318,99.6128262 80.7776494,100.562167 81.3092895,101.270947 C81.8038209,101.943301 82.5369088,102.255195 83.2321305,102.254436 C85.0444025,102.25216 85.7941515,100.489316 85.7926368,98.9177057 M83.2154695,103.411706 C80.6693523,103.413982 79.0388377,101.755103 79.0365657,99.079344 C79.0342937,96.4703652 80.6436033,94.466961 83.3351264,94.4646844 C85.7888502,94.4624078 87.4367833,96.2055213 87.4398126,98.882039 C87.4420845,101.559316 85.8327749,103.409429 83.2154695,103.411706" id="Fill-39" fill="#8D8B8C"></path>
                        <path d="M96.7993301,103.19376 L95.2430331,103.195277 L95.2415184,101.813384 L94.2910791,103.108767 C93.4663552,103.386511 92.5696858,103.403206 92.3508197,103.403206 C89.951623,103.406242 89.1458322,102.025107 89.1443176,100.332079 L89.1390163,94.6496957 L90.7134891,94.6489369 L90.7180331,99.795561 C90.7187904,101.144065 91.0126314,102.195093 92.8438364,102.195093 C93.5754096,102.194334 94.5099452,101.951497 95.2415184,101.485554 L95.2354598,94.6451426 L96.7925142,94.6443837 L96.7993301,103.19376 Z" id="Fill-41" fill="#8D8B8C"></path>
                        <path d="M100.660992,103.191559 L99.0683431,103.192318 L99.0615272,94.6596369 L100.653418,94.658878 L100.654933,95.9352894 L101.496318,94.7962326 C101.715941,94.7089631 102.283933,94.4835801 103.106385,94.4828213 C103.601674,94.4828213 103.821297,94.551878 104.114381,94.6558426 L104.115895,96.0377362 C103.748594,95.8814099 103.329038,95.7099064 102.686828,95.7106652 C101.808335,95.7114241 101.076004,96.1090695 100.654933,96.3845376 L100.660992,103.191559 Z" id="Fill-43" fill="#8D8B8C"></path>
                        <polygon id="Fill-45" fill="#8D8B8C" points="112.066642 103.18268 110.510345 103.184198 110.5005 90.9892333 112.05604 90.9884745"></polygon>
                        <polygon id="Fill-47" fill="#8D8B8C" points="114.547554 94.1814759 113.503964 94.1829936 114.856541 90.9851355 116.339378 90.9843766"></polygon>
                        <path d="M119.681668,103.176002 L118.125371,103.178279 L118.117798,94.6455979 L119.674852,94.644839 L119.681668,103.176002 Z M119.763459,91.6215199 C119.763459,92.104917 119.361321,92.4684135 118.885723,92.4684135 C118.391191,92.4691723 118.007229,92.0722858 118.007229,91.6230376 C118.005714,91.1753071 118.372258,90.776144 118.883451,90.7753851 C119.361321,90.7753851 119.763459,91.1381227 119.763459,91.6215199 L119.763459,91.6215199 Z" id="Fill-49" fill="#8D8B8C"></path>
                        <path d="M121.933263,103.175243 L121.92569,94.6425624 L123.482744,94.6410447 L123.483501,96.0229383 L124.434698,94.7260376 C125.239731,94.4505695 126.099292,94.4323567 126.374957,94.4323567 C126.869489,94.4315979 127.838861,94.4998957 128.644652,95.1388603 C129.561012,95.8810305 129.580702,96.7780092 129.582217,97.5725411 L129.585246,103.169172 L128.011531,103.169931 L128.007744,98.1796333 C128.006229,96.7104702 127.730564,95.6389525 125.881941,95.6419879 C125.167786,95.6419879 124.252941,95.8666121 123.483501,96.351527 L123.48956,103.173726 L121.933263,103.175243 Z" id="Fill-51" fill="#8D8B8C"></path>
                        <path d="M137.946159,96.1683369 C137.322882,95.8405071 136.628418,95.6333369 135.89533,95.6340957 C135.565138,95.6340957 134.852497,95.6690035 134.158033,96.2055213 C133.259849,96.8793936 132.950104,98.0017553 132.950862,99.107422 C132.952376,101.059223 134.106535,102.180826 135.865037,102.180067 C136.816991,102.179309 137.603849,101.868174 137.95146,101.711848 L137.946159,96.1683369 Z M139.507757,103.162039 L137.952217,103.163557 L137.95146,101.971379 L137.110832,103.164316 C136.762464,103.266762 136.378502,103.371486 135.700698,103.372245 C132.734267,103.374521 131.286267,101.544138 131.283995,99.056578 C131.281723,96.6395922 132.836506,94.4275 135.657531,94.4252234 C136.114196,94.4252234 137.06615,94.4920035 137.945401,94.9420106 L137.942372,90.9693511 L139.498669,90.9670745 L139.507757,103.162039 Z" id="Fill-53" fill="#8D8B8C"></path>
                        <path d="M149.431328,103.155209 L147.875031,103.155968 L147.874274,101.773316 L146.923077,103.069457 C146.098353,103.346443 145.202441,103.364656 144.98206,103.364656 C142.583621,103.366174 141.77783,101.985039 141.776315,100.29277 L141.771772,94.6096277 L143.345487,94.6081099 L143.350788,99.7562518 C143.352303,101.103996 143.645387,102.156543 145.475834,102.155025 C146.208922,102.155025 147.141943,101.912188 147.873516,101.445486 L147.867458,94.6058333 L149.423755,94.6050745 L149.431328,103.155209 Z" id="Fill-55" fill="#8D8B8C"></path>
                        <path d="M154.937439,98.3833887 C155.780338,98.7628213 156.878456,99.2621546 156.87997,100.730559 C156.880728,102.146601 155.710665,103.356991 153.715121,103.359268 C152.854803,103.359268 152.030836,103.136162 151.243221,102.806814 L151.241707,101.443133 C151.462087,101.582006 151.699887,101.718601 152.120958,101.890864 C152.52461,102.046431 153.035803,102.201999 153.549267,102.20124 C154.739778,102.200481 155.232795,101.440857 155.232795,100.817828 C155.23128,99.9193319 154.408071,99.608956 153.821146,99.3850908 L153.199385,99.1794383 C152.539,98.9199064 151.276544,98.438027 151.275029,96.9354738 C151.274272,95.4678284 152.572322,94.4130057 154.348242,94.4107291 C155.39259,94.4107291 156.161272,94.7552539 156.436179,94.8918496 L156.436179,96.2062043 C155.92423,95.7744099 155.264602,95.5330908 154.56938,95.5330908 C153.360694,95.5338496 152.904029,96.2259348 152.904029,96.8474454 C152.904786,97.5554667 153.545481,97.8316936 154.094539,98.0548 L154.937439,98.3833887 Z" id="Fill-57" fill="#8D8B8C"></path>
                        <path d="M161.679424,103.248626 C161.423449,103.300228 161.167474,103.353349 160.873633,103.353349 C160.252629,103.354108 159.61042,103.164391 159.224943,102.69693 C158.784938,102.198356 158.784938,101.7142 158.783424,100.79825 L158.780395,95.6865333 L157.718629,95.6872922 L158.57819,94.5975617 L158.780395,94.5975617 L158.777365,92.9402 L160.351081,92.4734979 L160.35411,94.5968028 L162.220909,94.5952851 L162.221667,95.682739 L160.35411,95.6842567 L160.357897,100.105406 C160.358654,101.03881 160.358654,101.142016 160.395763,101.332491 C160.541926,102.143718 161.203068,102.212774 161.512056,102.212774 C161.696842,102.212774 162.081562,102.177108 162.611687,101.969938 L161.679424,103.248626 Z" id="Fill-59" fill="#8D8B8C"></path>
                        <path d="M165.120241,103.143371 L163.526836,103.14413 L163.52002,94.6114489 L165.113426,94.6099312 L165.114183,95.8871014 L165.956325,94.7480447 C166.175191,94.6607752 166.742426,94.4353922 167.565635,94.4346333 C168.060923,94.4346333 168.280547,94.5036901 168.572873,94.6084135 L168.574388,95.9895482 C168.207844,95.8339809 167.78753,95.6624773 167.146836,95.6624773 C166.268342,95.6632362 165.535254,96.0601227 165.114183,96.3371085 L165.120241,103.143371 Z" id="Fill-61" fill="#8D8B8C"></path>
                        <path d="M171.180333,103.138211 L169.623279,103.139728 L169.616463,94.6078064 L171.173518,94.6055298 L171.180333,103.138211 Z M171.262124,91.5822106 C171.262124,92.0663667 170.860744,92.430622 170.383631,92.4313809 C169.889856,92.4313809 169.505137,92.0337355 169.505137,91.5844872 C169.503622,91.1359979 169.870923,90.7375936 170.382116,90.7375936 C170.858472,90.7368348 171.261367,91.0988135 171.262124,91.5822106 L171.262124,91.5822106 Z" id="Fill-63" fill="#8D8B8C"></path>
                        <path d="M179.065648,97.640156 C179.048987,97.2766596 178.992187,96.621 178.478723,96.102695 C178.185639,95.827227 177.691865,95.551 176.97771,95.551 C175.896254,95.5525177 174.962476,96.2263901 174.63607,97.6431915 L179.065648,97.640156 Z M179.601832,103.063007 C179.309505,103.148759 178.649878,103.339993 177.624464,103.340752 C174.915522,103.34227 172.863179,101.875383 172.859392,98.8884894 C172.857878,96.2279078 174.595175,94.396766 177.013305,94.3937305 C178.184882,94.3937305 179.228472,94.8073121 179.925208,95.6875957 C180.695405,96.688539 180.732514,98.0696738 180.75069,98.7617589 L174.526259,98.7655532 C174.526259,99.3005532 174.546706,100.424433 175.333564,101.234142 C176.012125,101.908773 177.00043,102.148574 177.989493,102.147816 C179.088367,102.146298 179.984279,101.835922 180.460635,101.66366 L179.601832,103.063007 Z" id="Fill-65" fill="#8D8B8C"></path>
                    </g>
                </g>
            </g>
        </g>
    </g>
</svg>