<?xml version="1.0" encoding="UTF-8"?>
<svg width="248px" height="84px" viewBox="0 0 248 84" version="1.1" xmlns="http://www.w3.org/2000/svg" xmlns:xlink="http://www.w3.org/1999/xlink">
    <!-- Generator: Sketch 41.2 (35397) - http://www.bohemiancoding.com/sketch -->
    <title>pico</title>
    <desc>Created with Sketch.</desc>
    <defs>
        <polygon id="path-1" points="48.265 49.2695026 48.265 0.0350364351 0.815229612 0.0350364351 0.815229612 49.2695026 48.265 49.2695026"></polygon>
    </defs>
    <g id="wireframe" stroke="none" stroke-width="1" fill="none" fill-rule="evenodd">
        <g id="Desktop-HD-Copy" transform="translate(-476.000000, -4375.000000)">
            <g id="commanditaire" transform="translate(0.000000, 3666.000000)">
                <g id="logo" transform="translate(141.000000, 265.000000)">
                    <g id="pico" transform="translate(335.000000, 443.000000)">
                        <g id="Group-3" transform="translate(0.000000, 0.443700)" fill="#8D8B8C">
                            <path d="M39.8335,6.736 C27.4195,23.184 15.2975,39.246 3.1165,55.387 C14.5975,63.263 25.8495,70.877 36.9555,78.681 C39.4025,80.401 41.1915,80.484 43.4965,78.629 C45.6825,76.869 48.1785,75.468 50.5295,73.896 C59.1805,68.108 67.8265,62.315 76.5965,56.443 C64.3025,39.821 52.1945,23.449 39.8335,6.736 M41.8795,0.556 C55.9575,19.602 69.7245,38.227 83.7035,57.14 C79.6065,59.917 75.7055,62.588 71.7755,65.218 C62.6455,71.33 53.5315,77.463 44.3165,83.453 C43.4235,84.034 41.4865,84.217 40.6895,83.682 C27.1445,74.591 13.7025,65.359 0.0005,55.995 C13.9495,37.529 27.7845,19.215 41.8795,0.556" id="Fill-1"></path>
                        </g>
                        <g id="Group-6" transform="translate(199.000000, 22.443700)">
                            <mask id="mask-2" fill="white">
                                <use xlink:href="#path-1"></use>
                            </mask>
                            <g id="Clip-5"></g>
                            <path d="M40.7129,24.9225 C39.7479,20.6465 39.1039,15.9075 37.5639,11.4565 C35.6739,5.9915 31.3999,2.7415 25.2449,2.4785 C19.3239,2.2245 14.7479,4.5735 12.1869,9.8675 C7.5019,19.5565 7.7519,29.4045 12.0639,39.0525 C14.4209,44.3235 18.9959,47.2435 25.1769,46.8755 C31.6829,46.4875 36.1359,42.9895 38.1659,37.1975 C39.4799,33.4495 39.8249,29.3875 40.7129,24.9225 M0.8869,26.1935 C-0.1091,12.2335 9.3639,1.0495 23.8159,0.0885 C32.8149,-0.5105 41.5839,3.9015 46.2329,14.4525 C50.4219,23.9615 48.2319,37.2815 38.7609,44.4815 C25.6429,54.4505 5.8749,48.0915 1.8769,32.4435 C1.3559,30.4045 1.2079,28.2785 0.8869,26.1935" id="Fill-4" fill="#8D8B8C" mask="url(#mask-2)"></path>
                        </g>
                        <path d="M101.8247,27.0752 C101.8247,33.1762 101.7857,39.0972 101.8787,45.0172 C101.8887,45.6652 102.4947,46.6192 103.0907,46.8892 C106.3557,48.3692 111.6907,47.1602 114.0337,44.5642 C117.1767,41.0802 117.5857,34.4832 114.8977,30.6152 C112.0137,26.4642 107.7247,25.2382 101.8247,27.0752 M101.9017,48.8062 C101.9017,54.6472 101.7897,60.1622 101.9557,65.6692 C102.0237,67.9452 103.6587,69.2612 106.0357,69.5782 C106.8487,69.6872 107.6677,69.7502 108.4597,70.4642 L88.1747,70.4642 C88.2477,70.1952 88.2687,69.8732 88.3507,69.8582 C94.5337,68.7322 95.0287,68.1592 95.0337,61.9032 C95.0417,51.7962 95.0747,41.6872 95.0187,31.5802 C94.9897,26.1282 94.3917,25.5632 88.7977,24.7732 C88.5497,24.7382 88.3397,24.4502 87.6687,23.9472 C88.6817,23.7972 89.2447,23.6292 89.8037,23.6412 C97.6367,23.8132 105.4997,23.6702 113.2907,24.3152 C118.6997,24.7632 122.9077,27.9052 124.2677,33.1302 C125.5517,38.0632 124.7817,42.8682 120.3017,46.4342 C116.8687,49.1672 112.8027,49.7232 108.5637,49.5392 C106.4847,49.4482 104.4187,49.0932 101.9017,48.8062" id="Fill-7" fill="#8D8B8C"></path>
                        <path d="M195.5083,59.8457 C192.7983,64.9237 188.9583,68.9067 183.1063,70.7367 C167.7683,75.5317 152.5063,64.9227 152.3453,49.4107 C152.2153,36.8167 157.6103,28.0897 168.2293,24.0517 C173.8753,21.9057 179.5533,21.9457 185.2503,24.2187 C189.9353,26.0877 189.9883,25.9637 193.5713,22.2307 C193.9663,27.8287 194.3283,32.9697 194.6903,38.1107 C194.4183,38.1937 194.1453,38.2757 193.8723,38.3587 C193.4393,37.3897 192.9903,36.4267 192.5743,35.4507 C189.5103,28.2587 184.0233,24.6247 176.6023,24.8837 C169.8093,25.1197 164.2253,29.5267 161.9463,36.6807 C161.2103,38.9917 160.6883,41.4177 160.4793,43.8247 C159.9003,50.4807 160.1903,57.1397 164.6993,62.6327 C171.7963,71.2777 184.7963,70.9497 192.1743,62.1957 C193.0383,61.1697 193.8893,60.1327 194.7463,59.1007 C195.0003,59.3497 195.2543,59.5977 195.5083,59.8457" id="Fill-9" fill="#8D8B8C"></path>
                        <path d="M148.7212,70.4033 L128.5742,70.4033 C128.5462,70.2603 128.5172,70.1183 128.4892,69.9753 C129.1332,69.8443 129.7722,69.6673 130.4242,69.5903 C133.3822,69.2413 135.0622,67.7003 135.0702,64.7923 C135.1042,52.9963 135.1042,41.2003 135.0752,29.4053 C135.0682,26.7913 133.5752,25.2973 130.9082,24.8883 C130.0922,24.7633 129.2692,24.6853 128.4712,23.9873 L148.9472,23.9873 C148.2332,24.3493 147.7862,24.7423 147.2962,24.7993 C142.9152,25.3093 141.7982,26.1873 141.7552,30.3503 C141.6382,41.6133 141.6432,52.8793 141.7542,64.1413 C141.7942,68.1183 142.8262,68.8083 148.7212,70.4033" id="Fill-11" fill="#8D8B8C"></path>
                        <path d="M48.5854,59.3916 C46.7884,58.0176 45.6834,56.5216 44.6704,56.5776 C43.5954,56.6346 41.6664,58.3226 41.7914,59.0196 C42.0044,60.2066 43.3704,61.7206 44.5634,62.0496 C45.3714,62.2716 46.7124,60.6986 48.5854,59.3916 M44.8704,26.6586 C44.4384,26.6706 44.0064,26.6846 43.5744,26.6976 C42.9144,27.9486 41.7064,29.2266 41.7734,30.4406 C41.8234,31.3456 43.5224,32.1656 44.4864,33.0236 C45.4554,31.9546 47.0374,30.9626 47.1974,29.7906 C47.3244,28.8616 45.7104,27.7106 44.8704,26.6586 M37.0254,44.9606 C29.6814,40.7996 27.1474,35.5986 29.3804,29.2666 C31.8674,22.2146 42.4774,19.5286 48.3314,24.4686 C51.2094,26.8976 51.9504,31.7366 49.8844,34.6026 C48.0164,37.1946 43.5104,38.1326 40.3594,36.5866 C37.0834,34.9786 36.0664,31.3216 37.7874,26.6636 C34.1584,27.8636 32.8084,30.5006 32.3534,33.5866 C31.5484,39.0386 34.6394,42.3176 39.9434,44.6406 C35.0994,47.3256 31.3314,50.4856 32.3504,56.2066 C32.8664,59.1086 34.0914,61.6796 37.6014,62.9646 C37.3084,62.1056 37.0394,61.4906 36.8884,60.8486 C36.0214,57.1556 38.0744,53.5346 41.6084,52.4786 C45.3134,51.3716 49.1334,52.9076 50.5174,56.0606 C52.0704,59.5976 50.4984,64.2036 47.1054,66.0616 C41.1264,69.3346 32.7004,67.1816 29.9784,61.6846 C26.5964,54.8556 29.6434,47.6256 37.0254,44.9606" id="Fill-13" fill="#8D8B8C"></path>
                        <path d="M45.3433,48.5879 C44.5003,47.3739 42.9373,46.1079 43.0273,44.9619 C43.1093,43.9209 45.1823,42.0899 46.0303,42.2549 C47.3313,42.5089 48.9273,44.0319 49.2573,45.2929 C49.4753,46.1289 47.7003,47.4469 46.8183,48.5499 L45.3433,48.5879 Z" id="Fill-15" fill="#8D8B8C"></path>
                    </g>
                </g>
            </g>
        </g>
    </g>
</svg>