<?xml version="1.0" encoding="UTF-8"?>
<svg width="158px" height="55px" viewBox="0 0 158 55" version="1.1" xmlns="http://www.w3.org/2000/svg" xmlns:xlink="http://www.w3.org/1999/xlink">
    <!-- Generator: Sketch 41.2 (35397) - http://www.bohemiancoding.com/sketch -->
    <title>sae</title>
    <desc>Created with Sketch.</desc>
    <defs>
        <polygon id="path-1" points="54.018 23.8975 54.018 0.2325 0.9363 0.2325 0.9363 23.8975 54.018 23.8975"></polygon>
    </defs>
    <g id="wireframe" stroke="none" stroke-width="1" fill="none" fill-rule="evenodd">
        <g id="Desktop-HD-Copy" transform="translate(-153.000000, -4182.000000)">
            <g id="commanditaire" transform="translate(0.000000, 3666.000000)">
                <g id="logo" transform="translate(141.000000, 265.000000)">
                    <g id="sae" transform="translate(12.000000, 250.000000)">
                        <polygon id="Fill-1" fill="#8D8B8C" points="81.8045 15.7035 82.7245 25.5845 98.0935 25.5845 93.9975 1.9195 74.6885 1.9195 60.0125 25.5845 76.5375 25.5845"></polygon>
                        <g id="Group-9" transform="translate(0.000000, 0.686500)">
                            <path d="M42.4241,23.7514 C39.6291,22.3714 36.0731,20.9954 31.7531,19.3844 C28.1991,18.2364 25.9121,17.3174 25.1501,16.3964 C24.1341,15.7074 23.6271,15.0174 23.6271,14.0994 C23.6271,12.9494 24.1341,12.0324 25.4021,11.1134 C26.6741,10.4234 28.1991,9.9624 30.2301,9.9624 C35.5631,9.9624 38.3591,12.2634 38.8691,16.8564 L55.6361,15.9394 C54.6181,5.6004 46.2331,0.3144 30.4831,0.3144 C25.4021,0.3144 21.3391,1.0024 17.7821,2.3794 C13.9711,3.7644 11.4321,5.8294 9.3991,8.3554 C7.6231,10.8864 6.6041,13.6384 6.6041,16.6274 C6.6041,19.7484 7.8021,22.4344 9.9631,24.8974 L44.4701,24.8974 C43.8261,24.4904 43.1411,24.1044 42.4241,23.7514" id="Fill-2" fill="#8D8B8C"></path>
                            <path d="M100.992,41.6449 L98.888,29.4969 L83.151,29.4969 L83.58,34.0899 L71.639,34.0899 L74.089,29.4969 L57.162,29.4969 L51.789,38.1579 C51.809,37.8769 51.827,37.5939 51.827,37.3059 C51.827,34.0869 50.929,31.6709 49.362,29.4969 L17.587,29.4969 C20.011,30.5299 22.944,31.6039 26.419,32.7109 C29.978,34.0899 32.519,35.0069 33.278,35.9299 C34.293,36.8479 34.803,37.7649 34.803,38.9149 C34.803,40.2909 34.041,41.6699 32.519,42.8209 C30.993,43.9709 28.96,44.4269 25.912,44.4269 C23.117,44.4269 21.084,43.7429 19.308,42.3639 C17.782,40.9839 17.021,38.6839 17.021,35.4689 L0,36.3869 L0,37.7649 C0,42.8209 2.029,46.9559 5.842,50.1729 C9.651,53.3909 16.257,54.9999 25.402,54.9999 C32.008,54.9999 37.089,54.0809 40.647,52.2419 C41.993,51.6329 43.231,50.9249 44.359,50.1449 L41.915,54.0809 L61.226,54.0809 L65.799,45.3489 L84.85,45.3489 L85.613,54.0809 L147.859,54.0809 L150.906,42.1299 L118.896,42.1299 L121.432,33.1709 L149.635,33.1709 L150.4,29.4969 L103.852,29.4969 L100.992,41.6449 Z" id="Fill-4" fill="#8D8B8C"></path>
                            <g id="Group-8" transform="translate(104.000000, 1.000000)">
                                <mask id="mask-2" fill="white">
                                    <use xlink:href="#path-1"></use>
                                </mask>
                                <g id="Clip-7"></g>
                                <polygon id="Fill-6" fill="#8D8B8C" mask="url(#mask-2)" points="51.4793 11.4945 54.0183 0.2325 6.5103 0.2325 0.9363 23.8975 47.3603 23.8975 48.1733 19.9955 19.7243 19.9955 21.7523 11.4945"></polygon>
                            </g>
                        </g>
                    </g>
                </g>
            </g>
        </g>
    </g>
</svg>