<?xml version="1.0" encoding="UTF-8"?>
<svg width="212px" height="84px" viewBox="0 0 212 84" version="1.1" xmlns="http://www.w3.org/2000/svg" xmlns:xlink="http://www.w3.org/1999/xlink">
    <!-- Generator: Sketch 41.2 (35397) - http://www.bohemiancoding.com/sketch -->
    <title>sandvik</title>
    <desc>Created with Sketch.</desc>
    <defs>
        <polygon id="path-1" points="0 83.4545455 211.295663 83.4545455 211.295663 0.419590909 0 0.419590909"></polygon>
    </defs>
    <g id="wireframe" stroke="none" stroke-width="1" fill="none" fill-rule="evenodd">
        <g id="Desktop-HD-Copy" transform="translate(-456.000000, -4167.000000)">
            <g id="commanditaire" transform="translate(0.000000, 3666.000000)">
                <g id="logo" transform="translate(141.000000, 265.000000)">
                    <g id="sandvik" transform="translate(315.000000, 236.000000)">
                        <polygon id="Fill-1" fill="#8D8B8C" points="0 83.8076818 211.294886 83.8076818 211.294886 0.7735 0 0.7735"></polygon>
                        <g id="Group-21" transform="translate(0.000000, 0.353136)">
                            <path d="M35.1627238,10.9194091 C36.0479985,12.6503182 36.0479985,14.8124091 36.1287604,16.8895 L29.2849656,16.8895 C29.2849656,15.1585909 28.8819326,13.6015455 27.7551487,12.3033636 C25.7353245,9.55090909 22.3596322,9.96818182 19.4607458,10.2270455 C18.0124674,10.5732273 16.3956762,11.4386818 15.668819,12.9084091 C15.02583,13.9477273 15.02583,15.5055455 15.3481011,16.6298636 C16.9004381,20.6642727 22.1942256,19.8459545 26.8108557,20.4602727 C29.0333612,20.7554545 33.4053758,21.5250909 35.5657568,25.2813182 C36.8532879,28.4827273 36.8532879,33.4142727 34.9212147,36.3568182 C29.4255223,43.4960455 18.2928044,41.7102727 14.5498007,39.9894091 C10.805244,38.2693182 8.75202784,34.799 8.34899487,31.0806364 C8.26900952,30.2144091 8.26900952,29.2624091 8.26900952,28.3104091 L15.1019326,28.3104091 C15.1019326,30.1263182 15.353537,31.9468636 16.3203502,33.2419545 C17.9317055,35.3182727 20.8290388,36.3568182 23.7287018,36.1821818 C25.9822696,36.0106364 28.3189289,35.3182727 29.3649509,32.8942273 C29.8479692,31.4252727 29.7571121,29.7121364 29.1032513,28.3451818 C28.4478374,26.9728182 26.1437934,26.2333182 24.3724674,26.061 C18.8969656,25.0224545 11.8116615,26.4056364 9.07352234,19.9178182 C7.78599121,16.5788636 8.00963956,12.1325909 9.55731722,9.88163636 C13.8097421,3.69286364 25.7353245,4.14259091 30.5724967,6.41981818 C33.1397934,7.62913636 34.3566579,8.92963636 35.1627238,10.9194091 Z" id="Fill-2" fill="#FEFEFE"></path>
                            <polygon id="Fill-4" fill="#FEFEFE" points="137.391764 5.87481364 146.121815 33.5886773 154.858856 5.87481364 161.541127 5.87481364 150.760966 40.8592682 141.339002 40.8561773 130.630284 5.87481364"></polygon>
                            <mask id="mask-2" fill="white">
                                <use xlink:href="#path-1"></use>
                            </mask>
                            <g id="Clip-7"></g>
                            <polygon id="Fill-6" fill="#FEFEFE" mask="url(#mask-2)" points="163.823194 40.8556364 170.42781 40.8556364 170.42781 5.87427273 163.823194 5.87427273"></polygon>
                            <polygon id="Fill-8" fill="#FEFEFE" mask="url(#mask-2)" points="182.834391 5.87481364 182.861571 19.22445 195.558274 5.90031364 204.494889 5.90031364 188.953659 22.6870409 205.731944 40.8561773 196.602743 40.8523136 182.855358 26.2601318 182.834391 40.8561773 175.990596 40.8561773 175.990596 5.87481364"></polygon>
                            <path d="M80.1256718,5.90046818 C83.9106095,14.1207409 87.4532615,22.3402409 91.3189612,30.5597409 L91.3150784,5.87110455 L97.7597231,5.90046818 L97.7597231,40.8555591 L89.5460821,40.8555591 L76.5830198,13.7745591 L76.55817,40.8555591 L70.0607194,40.8555591 L70.0607194,5.90046818 L80.1256718,5.90046818 Z" id="Fill-9" fill="#FEFEFE" mask="url(#mask-2)"></path>
                            <path d="M110.559631,12.1313545 L110.559631,35.0581727 C110.559631,35.0581727 116.208305,35.0852182 116.208305,35.0929455 C118.732114,35.0929455 121.095953,34.6810818 122.799719,32.2918091 C125.295572,27.9653091 124.892539,21.0416727 123.362722,16.3697636 C122.111689,12.7147636 119.244642,12.1321273 116.152393,12.1112636 C116.208305,12.1027636 110.559631,12.1313545 110.559631,12.1313545 L110.559631,12.1313545 Z M116.207528,5.8854 C121.016744,5.88462727 125.418268,7.04062727 128.515953,11.9574909 C132.139367,18.4468545 132.058605,28.6553545 128.595938,35.2312636 C125.725008,40.0268091 121.240393,40.8520818 116.208305,40.8397182 C116.208305,40.8520818 103.957345,40.8559455 103.957345,40.8559455 L103.957345,5.90085455 L116.207528,5.8854 Z" id="Fill-10" fill="#FEFEFE" mask="url(#mask-2)"></path>
                            <path d="M56.7667663,26.6660455 L52.208378,12.4772273 L47.6608615,26.6660455 L56.7667663,26.6660455 Z M68.3118359,40.8595 L61.3274842,40.8556364 L58.7516454,32.8084545 L45.7078212,32.8084545 L43.1273231,40.8633636 L36.1856821,40.8595 L47.3246125,5.87118182 L57.200085,5.87118182 L68.3118359,40.8595 Z" id="Fill-11" fill="#FEFEFE" mask="url(#mask-2)"></path>
                            <polygon id="Fill-12" fill="#8D8B8C" mask="url(#mask-2)" points="5.60829304 77.4543182 205.703678 77.4543182 205.703678 44.9232727 5.60829304 44.9232727"></polygon>
                            <path d="M61.1815692,56.6892045 C60.6364264,53.7288864 58.4271223,52.2359773 55.7262579,52.2359773 C51.0894374,52.2359773 49.1255253,56.3407045 49.1255253,60.7066136 C49.1255253,65.4836136 51.0894374,69.4677955 55.7542139,69.4677955 C59.1632982,69.4677955 61.1272103,66.8892045 61.3726022,63.43125 L63.9639722,63.43125 C63.4731883,68.6487045 60.4453934,71.8130227 55.5352249,71.8130227 C49.4804117,71.8130227 46.5349319,67.0066591 46.5349319,60.9121591 C46.5349319,54.8454773 49.7529832,49.8915227 55.7542139,49.8915227 C59.8179355,49.8915227 63.1718842,52.2359773 63.7721626,56.6892045 L61.1815692,56.6892045 Z" id="Fill-13" fill="#FEFEFE" mask="url(#mask-2)"></path>
                            <path d="M72.8883179,69.4678727 C75.316611,69.4678727 77.2805231,67.4186 77.2805231,63.7543273 C77.2805231,60.0630091 75.316611,58.0067818 72.8883179,58.0067818 C70.461578,58.0067818 68.4976659,60.0630091 68.4976659,63.7543273 C68.4976659,67.4186 70.461578,69.4678727 72.8883179,69.4678727 M72.8883179,55.8114636 C77.3620615,55.8114636 79.735219,59.2987818 79.735219,63.7543273 C79.735219,68.1805091 77.3620615,71.6662818 72.8883179,71.6662818 C68.4161275,71.6662818 66.04297,68.1805091 66.04297,63.7543273 C66.04297,59.2987818 68.4161275,55.8114636 72.8883179,55.8114636" id="Fill-14" fill="#FEFEFE" mask="url(#mask-2)"></path>
                            <path d="M82.3866945,56.1639818 L84.568819,56.1639818 L84.568819,59.3599818 L84.623178,59.3599818 C85.7414198,56.9243455 87.296863,55.7235273 89.8059179,55.8116182 L89.8059179,58.4497091 C86.0699033,58.4497091 84.705493,60.7354364 84.705493,64.5751182 L84.705493,71.3148455 L82.3866945,71.3148455 L82.3866945,56.1639818 Z" id="Fill-15" fill="#FEFEFE" mask="url(#mask-2)"></path>
                            <path d="M97.6315912,69.4678727 C100.058331,69.4678727 102.02302,67.4186 102.02302,63.7543273 C102.02302,60.0630091 100.058331,58.0067818 97.6315912,58.0067818 C95.2040747,58.0067818 93.2401626,60.0630091 93.2401626,63.7543273 C93.2401626,67.4186 95.2040747,69.4678727 97.6315912,69.4678727 M97.6315912,55.8114636 C102.104558,55.8114636 104.477716,59.2987818 104.477716,63.7543273 C104.477716,68.1805091 102.104558,71.6662818 97.6315912,71.6662818 C93.1578476,71.6662818 90.7854667,68.1805091 90.7854667,63.7543273 C90.7854667,59.2987818 93.1578476,55.8114636 97.6315912,55.8114636" id="Fill-16" fill="#FEFEFE" mask="url(#mask-2)"></path>
                            <path d="M107.211118,56.1639818 L109.394019,56.1639818 L109.394019,58.3902091 L109.447601,58.3902091 C110.483528,56.6894364 112.066151,55.8116182 114.002884,55.8116182 C115.721404,55.8116182 117.30325,56.5433909 117.876349,58.3902091 C118.830737,56.7775273 120.494898,55.8116182 122.293404,55.8116182 C125.103763,55.8116182 126.986136,57.0727091 126.986136,60.2084364 L126.986136,71.3148455 L124.667338,71.3148455 L124.667338,61.3791182 C124.667338,59.5052545 124.203733,58.0069364 121.94007,58.0069364 C119.70281,58.0069364 118.258415,59.5361636 118.258415,61.8775273 L118.258415,71.3148455 L115.93884,71.3148455 L115.93884,61.3791182 C115.93884,59.4171636 115.366517,58.0069364 113.293887,58.0069364 C110.53944,58.0069364 109.529916,60.7354364 109.529916,61.8775273 L109.529916,71.3148455 L107.211118,71.3148455 L107.211118,56.1639818 Z" id="Fill-17" fill="#FEFEFE" mask="url(#mask-2)"></path>
                            <path d="M139.210305,63.4905955 C138.307946,64.1937773 136.563023,64.2223682 135.008356,64.51755 C133.480869,64.8088682 132.172371,65.3953682 132.172371,67.2414136 C132.172371,68.8834591 133.480869,69.4676409 134.899638,69.4676409 C137.953059,69.4676409 139.210305,67.4183682 139.210305,66.0405955 L139.210305,63.4905955 Z M142.972722,71.25805 C142.564253,71.5223227 142.045514,71.66605 141.307008,71.66605 C140.108781,71.66605 139.346202,70.9628682 139.346202,69.3231409 C138.064107,70.9358227 136.345587,71.66605 134.381675,71.66605 C131.816708,71.66605 129.717675,70.4374136 129.717675,67.4183682 C129.717675,63.9890045 132.090056,63.2549136 134.490393,62.7572773 C137.056136,62.2295045 139.235155,62.4064591 139.235155,60.5302773 C139.235155,58.3612318 137.5741,58.00655 136.098642,58.00655 C134.135506,58.00655 132.690334,58.6548682 132.58084,60.8834136 L130.263594,60.8834136 C130.399492,57.1318227 133.098803,55.8112318 136.235316,55.8112318 C138.77155,55.8112318 141.528327,56.4286409 141.528327,59.9731409 L141.528327,67.7707318 C141.528327,68.9414136 141.528327,69.4676409 142.262949,69.4676409 C142.455536,69.4676409 142.672971,69.4398227 142.972722,69.3231409 L142.972722,71.25805 Z" id="Fill-18" fill="#FEFEFE" mask="url(#mask-2)"></path>
                            <path d="M145.130075,56.1639818 L147.312976,56.1639818 L147.312976,58.5663909 L147.365782,58.5663909 C148.350456,56.6894364 149.932302,55.8116182 151.950573,55.8116182 C155.657078,55.8116182 156.805606,58.0950273 156.805606,61.3505273 L156.805606,71.3148455 L154.487584,71.3148455 L154.487584,61.0576636 C154.487584,59.2100727 153.396522,58.0069364 151.624419,58.0069364 C148.81406,58.0069364 147.448097,60.0322545 147.448097,62.7568909 L147.448097,71.3148455 L145.130075,71.3148455 L145.130075,56.1639818 Z" id="Fill-19" fill="#FEFEFE" mask="url(#mask-2)"></path>
                            <path d="M163.516765,56.1639818 L166.327124,56.1639818 L166.327124,58.3616182 L163.516765,58.3616182 L163.516765,67.7711182 C163.516765,68.9124364 163.818069,69.1195273 165.264018,69.1195273 L166.327124,69.1195273 L166.327124,71.3148455 L164.554245,71.3148455 C162.154684,71.3148455 161.198743,70.7863 161.198743,68.0044818 L161.198743,58.3616182 L158.799182,58.3616182 L158.799182,56.1639818 L161.198743,56.1639818 L161.198743,51.6195727 L163.516765,51.6195727 L163.516765,56.1639818 Z" id="Fill-20" fill="#FEFEFE" mask="url(#mask-2)"></path>
                        </g>
                    </g>
                </g>
            </g>
        </g>
    </g>
</svg>