<?xml version="1.0" encoding="UTF-8"?>
<svg width="110px" height="124px" viewBox="0 0 110 124" version="1.1" xmlns="http://www.w3.org/2000/svg" xmlns:xlink="http://www.w3.org/1999/xlink">
    <!-- Generator: Sketch 41.2 (35397) - http://www.bohemiancoding.com/sketch -->
    <title>shell</title>
    <desc>Created with Sketch.</desc>
    <defs>
        <polygon id="path-1" points="0 123.702539 108.604526 123.702539 108.604526 0 0 0"></polygon>
    </defs>
    <g id="wireframe" stroke="none" stroke-width="1" fill="none" fill-rule="evenodd">
        <g id="Desktop-HD-Copy" transform="translate(-842.000000, -3934.000000)">
            <g id="commanditaire" transform="translate(0.000000, 3666.000000)">
                <g id="logo" transform="translate(141.000000, 265.000000)">
                    <g id="shell" transform="translate(701.666667, 3.000000)">
                        <path d="M21.4379942,95.9432584 L18.9624365,76.2760225 C12.5384237,71.739573 7.55167372,67.9840449 1.58392372,63.6113034 C-1.20116603,42.9457978 3.96725064,31.6973258 11.6279942,21.0465618 C21.1459301,8.99975281 36.3961481,0 54.6843917,0 C72.9915006,0.164404494 88.3325519,9.34458427 97.3404237,21.4283146 C105.802597,32.8404944 110.315616,47.2098652 107.02186,64.2111011 L90.5705455,76.2760225 L88.1138532,95.9432584 L61.9825006,95.9432584 C60.3992058,97.2494382 58.1968468,98.4107191 54.6843917,98.5193933 C51.2809365,98.4107191 49.1163083,97.2494382 47.3499494,95.9432584 L21.4379942,95.9432584 Z" id="Fill-1" fill="#8D8B8C"></path>
                        <path d="M51.7903019,9.6162 C49.8080391,9.14458202 47.0781481,9.2894809 44.7849558,9.67053708 C42.4554301,10.379009 40.7813019,10.9767169 38.8521417,12.0836607 C42.4190968,29.5202899 46.5862506,51.6724022 50.0994045,68.9460202 C45.3124878,52.1809416 38.8521417,31.0988517 34.0484558,14.3699978 C31.7915968,14.8235034 29.5536032,16.1115708 27.8976417,17.4365596 C26.2046481,18.797773 25.1677506,19.7765371 23.6026224,22.1903573 C30.5353019,36.9407843 38.8521417,55.7372337 45.8225519,70.3789865 C37.7600455,57.0434135 27.933975,39.5169191 19.835834,26.2719079 C18.2525391,27.6512337 17.0703083,28.6495034 15.5037827,31.2980876 C14.1580519,33.4388292 13.5019558,35.9613236 13.2119878,38.4099753 C22.0738276,49.1875258 32.6642955,62.1420427 41.6001994,72.9014809 C32.3198276,63.9748742 20.8363981,52.452627 11.6279942,43.4897955 C10.7007955,45.3045146 10.1362314,46.8287393 9.88189808,49.8402674 C9.53603269,52.743818 10.0998981,56.2095483 10.7007955,58.2952562 L28.7347058,71.6301326 L30.6261353,86.4355933 L50.4627378,86.5804921 C51.8825327,88.2503124 52.3366994,89.1210989 54.6843917,89.229773 C56.9405519,89.1210989 58.2513468,87.7431663 58.8159109,86.5804921 L78.5784494,86.5804921 L80.5614109,71.7395034 L98.4136545,58.4770764 C99.1235519,56.2819978 99.5239173,52.9437506 99.3059173,50.0039753 C99.0138532,46.883773 98.4136545,45.3045146 97.6499558,43.6535034 C88.4045199,52.544582 76.9050199,64.0835483 67.6777506,73.0094584 C76.6492891,62.3419753 87.1496224,49.3324247 96.1211609,38.4643124 C95.6655968,36.014964 95.0835647,33.5482 93.6644686,31.4074584 C92.0078083,28.7581775 91.0261096,27.7599079 89.496616,26.3262449 C81.3258083,39.5169191 71.4082058,57.2071213 63.3463981,70.4333236 C70.4803083,55.7372337 78.6329494,36.9407843 85.6578596,22.3526719 C84.1290647,20.0126944 83.0188019,18.8521101 81.4900071,17.5814584 C79.6705455,16.2216382 77.4318532,14.9321775 75.2301929,14.4250315 C70.2078083,31.0988517 64.0569942,52.3446494 59.1792442,68.9996607 C62.5820006,51.727436 66.8050519,29.7202225 70.2078083,12.3567393 C68.4966481,11.1411213 66.8050519,10.4876831 64.5663596,9.85305393 C61.9825006,9.34521124 59.4713083,9.2894809 57.4876481,9.6162 C56.1223532,27.9055034 56.0671545,50.4393685 54.6843917,68.6917506 C53.3197955,50.3662225 52.9375968,27.7599079 51.7903019,9.6162 Z" id="Fill-3" fill="#F8F8F8"></path>
                        <path d="M0.00013974359,116.916953 L9.22601154,116.916953 C9.11701154,118.94902 10.1001077,119.438751 10.5920051,119.766166 C11.1188385,119.965402 14.9764603,120.147222 16.8699859,119.81911 C17.6246013,119.670031 18.3624474,119.399043 18.3624474,117.055582 C18.3624474,116.060099 18.1199923,114.962211 16.9608192,114.725357 C12.9033641,114.397942 8.93604359,114.829155 4.89535769,114.412571 C0.819037179,113.542481 0.218139744,112.489874 0.00013974359,109.278413 C0.272639744,104.851335 1.81960128,103.600189 6.36895385,103.436481 C11.1188385,103.308998 15.8498577,103.308998 20.545941,103.436481 C25.3859603,103.436481 26.8595564,105.286728 26.8595564,109.332751 L18.3624474,109.332751 C18.3624474,107.354324 17.97955,106.593604 16.9775885,106.484234 C14.922659,106.338638 12.8838,106.338638 10.7555051,106.484234 C9.99110769,106.484234 8.98914615,106.882009 8.98914615,108.676526 C8.98914615,110.378391 9.44191538,110.818661 10.5920051,110.965649 C14.0848962,111.074324 17.5973513,111.129357 21.0553064,111.365515 C26.7505564,111.728458 26.9699538,114.231447 27.1697872,116.916953 C27.2242872,120.689897 25.8778577,122.05111 24.8765949,122.650211 C23.8941974,123.103717 19.2533128,123.629672 18.3624474,123.629672 L9.17151154,123.629672 C7.13335128,123.629672 4.54949231,123.376099 2.29263333,122.704548 C0.218139744,122.159784 0.00013974359,119.348189 0.00013974359,116.916953" id="Fill-5" fill="#8D8B8C"></path>
                        <mask id="mask-2" fill="white">
                            <use xlink:href="#path-1"></use>
                        </mask>
                        <g id="Clip-8"></g>
                        <polygon id="Fill-7" fill="#8D8B8C" mask="url(#mask-2)" points="87.0406923 123.702539 95.1388333 123.702539 95.1388333 103.544876 87.0406923 103.544876"></polygon>
                        <polygon id="Fill-9" fill="#8D8B8C" mask="url(#mask-2)" points="100.561583 123.702539 108.604526 123.702539 108.604526 103.544876 100.561583 103.544876"></polygon>
                        <path d="M74.5743064,114.521663 L67.3139282,114.521663 C67.3139282,113.940674 67.4054603,113.469753 67.5507936,113.124921 C68.0783256,111.873775 69.4065885,111.818742 70.84455,111.72818 C73.0098769,111.72818 73.9922744,112.254135 74.3744731,113.124921 C74.5568385,113.523393 74.5931718,113.996404 74.5743064,114.521663 M82.2727808,113.124921 C82.1449154,112.507708 81.9814154,111.891191 81.7082167,111.29209 C80.3254538,109.042674 75.5755692,109.042674 70.9353833,108.934 C67.4229282,108.934 62.2181782,109.042674 60.7082487,110.511865 C60.0898833,111.201528 59.7433192,112.162876 59.5616526,113.124921 C59.3436526,114.340539 59.3618192,115.555461 59.3618192,116.154562 C59.3618192,117.207169 59.4708192,121.235079 61.4181462,122.286989 C63.236909,123.466382 68.7148577,123.629393 70.84455,123.629393 C73.1007103,123.629393 79.3060244,123.376517 80.2164538,122.342022 C81.7997487,121.742921 82.2001141,119.765888 82.5278128,118.186629 L74.5743064,118.186629 C74.5743064,119.765888 73.3368769,120.689618 70.84455,120.58164 C68.6058577,120.689618 67.3139282,120.199888 67.3139282,117.37018 L82.5278128,117.424517 C82.5278128,116.064 82.5634474,114.576697 82.2727808,113.124921" id="Fill-10" fill="#8D8B8C" mask="url(#mask-2)"></path>
                        <path d="M31.9006667,123.70233 L39.8534744,123.70233 L39.8534744,115.120555 C40.0540064,113.977387 40.3446731,112.997926 43.2380641,112.997926 C46.0224551,112.943589 46.7505192,113.705701 46.7505192,115.120555 L46.7505192,123.70233 L54.6844615,123.70233 L54.6844615,115.120555 C54.6844615,112.344488 54.6292628,110.802151 52.8461346,109.986398 C51.2272051,108.934488 48.8802115,109.096106 46.6960192,109.096106 C44.3846603,109.096106 41.8001026,109.387297 39.8534744,110.31242 L39.8534744,103.544667 L31.9006667,103.544667 L31.9006667,123.70233 Z" id="Fill-11" fill="#8D8B8C" mask="url(#mask-2)"></path>
                    </g>
                </g>
            </g>
        </g>
    </g>
</svg>