<?xml version="1.0" encoding="UTF-8"?>
<svg width="249px" height="55px" viewBox="0 0 249 55" version="1.1" xmlns="http://www.w3.org/2000/svg" xmlns:xlink="http://www.w3.org/1999/xlink">
    <!-- Generator: Sketch 41.2 (35397) - http://www.bohemiancoding.com/sketch -->
    <title>velocity</title>
    <desc>Created with Sketch.</desc>
    <defs>
        <polygon id="path-1" points="30.1547976 0.60525538 0.0312385215 0.60525538 0.0312385215 41.1984194 30.1547976 41.1984194 30.1547976 0.60525538"></polygon>
    </defs>
    <g id="wireframe" stroke="none" stroke-width="1" fill="none" fill-rule="evenodd">
        <g id="Desktop-HD-Copy" transform="translate(-582.000000, -4576.000000)">
            <g id="commanditaire" transform="translate(0.000000, 3666.000000)">
                <g id="logo" transform="translate(141.000000, 265.000000)">
                    <g id="velocity" transform="translate(441.000000, 645.000000)">
                        <polygon id="Fill-1" fill="#8D8B8C" points="60.7086001 0.81133429 43.1089965 0.877863702 42.1579752 3.66317432 52.4634248 3.53822884 21.6498451 32.4801456 33.4381049 0.81133429 7.75400459 0.81133429 6.80216766 4.0436901 14.730064 3.91712195 -0.000163125439 43.300911 14.730064 43.300911"></polygon>
                        <g id="Group-22" transform="translate(35.887596, 0.206403)">
                            <path d="M20.2228237,27.4818396 L16.7352019,37.6494809 L33.6986162,37.6494809 C33.6986162,37.6494809 31.9548053,41.1982571 28.4671834,41.1950118 L0.404714213,41.1982571 L9.2828162,17.641166 C9.2828162,17.641166 10.7101638,13.969067 15.4660859,13.4619831 L42.7365811,13.4619831 L39.089912,24.0993869 C39.089912,24.0993869 37.8216117,27.4242349 33.6986162,27.4818396 L20.2228237,27.4818396 Z M21.6509054,24.4797405 L23.870227,18.5756608 C23.870227,18.5756608 24.6630166,16.4629463 26.7241065,16.4629463 L38.3843129,16.4629463 L35.9203031,22.6720877 C35.9203031,22.6720877 35.2857452,24.5990066 33.0664236,24.4797405 L21.6509054,24.4797405 Z" id="Combined-Shape" fill="#8D8B8C"></path>
                            <g id="Group-6" transform="translate(35.887596, 0.000000)">
                                <mask id="mask-2" fill="white">
                                    <use xlink:href="#path-1"></use>
                                </mask>
                                <g id="Clip-5"></g>
                                <path d="M0.0312385215,41.1984194 L13.82431,4.34355925 C13.82431,4.34355925 15.0926103,0.604930846 20.8003694,0.604930846 L30.1547976,0.604930846 L16.3609105,37.0168024 C16.3609105,37.0168024 15.0926103,40.4414445 10.6539671,41.1984194 L0.0312385215,41.1984194 Z" id="Fill-4" fill="#8D8B8C" mask="url(#mask-2)"></path>
                            </g>
                            <path d="M69.3718659,13.4617397 L97.434335,13.4617397 L88.5831487,36.635881 C88.5831487,36.635881 86.4951431,41.198825 83.4031004,41.198825 L54.3104941,41.198825 L63.3476434,17.2612181 C63.3476434,17.2612181 64.6151281,13.4617397 69.3718659,13.4617397 Z M80.1530708,16.6199395 L91.8858679,16.6199395 L84.5925296,35.6230113 C84.5925296,35.6230113 83.79974,37.3957767 82.5314397,37.5231562 L81.2631394,37.6497243 L70.0066685,37.6497243 L77.9337492,17.7671662 C77.9337492,17.7671662 78.5674915,16.6199395 80.1530708,16.6199395 Z" id="Combined-Shape" fill="#8D8B8C"></path>
                            <path d="M131.839448,13.4617397 L104.886231,13.4617397 C104.886231,13.4617397 100.60582,13.4617397 99.1784722,16.6202641 L90.1413229,41.198825 L118.680118,41.198825 C118.680118,41.198825 121.69223,40.9416321 123.595088,37.6492375 L105.679021,37.6492375 L113.289638,18.2745747 C113.289638,18.2745747 113.764333,16.8644757 115.191681,16.6202641 L130.729379,16.6202641 L131.839448,13.4617397 Z" id="Fill-11" fill="#8D8B8C"></path>
                            <path d="M149.279025,13.4617397 L138.498065,13.4617397 C138.498065,13.4617397 134.534932,13.6986493 133.424864,16.6202641 L124.387714,41.198825 L135.010443,41.198825 C135.010443,41.198825 140.24106,40.9416321 141.034665,36.2569879 L149.279025,13.4617397 Z" id="Fill-13" fill="#8D8B8C"></path>
                            <polygon id="Fill-15" fill="#8D8B8C" points="137.863833 11.3090264 149.913094 11.2222136 153.401531 3.07722869"></polygon>
                            <g id="Group-19" transform="translate(145.181640, 3.245337)" fill="#8D8B8C">
                                <path d="M6.000243,10.2164025 L5.20745337,13.3749269 L9.64691218,13.3749269 L0.451531214,37.9534879 L11.2324914,37.9534879 C11.2324914,37.9534879 15.0373923,37.5697268 16.4647399,34.4039004 L23.9171255,13.3749269 L30.4168586,13.3749269 L36.7583601,33.7710596 L19.0005248,51.1141414 L25.0255629,51.1141414 L67.8720906,10.2164025 L53.72259,10.2164025 L50.7104788,13.3749269 L58.0038172,13.3749269 L47.697552,22.8797081 L43.0998615,10.2164025 L25.3428419,10.2164025 L29.0775988,0.545297776 L18.8422932,0.464975681 C18.8422932,0.464975681 14.8791606,0.844680129 13.1345341,3.75818156 L10.5979335,10.2164025 L6.000243,10.2164025 Z" id="Fill-17"></path>
                            </g>
                        </g>
                    </g>
                </g>
            </g>
        </g>
    </g>
</svg>