<?xml version="1.0" encoding="UTF-8"?>
<svg width="271px" height="65px" viewBox="0 0 271 65" version="1.1" xmlns="http://www.w3.org/2000/svg" xmlns:xlink="http://www.w3.org/1999/xlink">
    <!-- Generator: Sketch 41.2 (35397) - http://www.bohemiancoding.com/sketch -->
    <title>weirdmuller</title>
    <desc>Created with Sketch.</desc>
    <defs>
        <polygon id="path-1" points="132.66195 18 0 18 0 0.532 265.3239 0.532 265.3239 18"></polygon>
    </defs>
    <g id="wireframe" stroke="none" stroke-width="1" fill="none" fill-rule="evenodd">
        <g id="Desktop-HD-Copy" transform="translate(-837.000000, -4384.000000)">
            <g id="commanditaire" transform="translate(0.000000, 3666.000000)">
                <g id="logo" transform="translate(141.000000, 265.000000)">
                    <g id="weirdmuller" transform="translate(696.000000, 453.000000)">
                        <path d="M4.1926,36.08 L10.7116,36.08 L17.4006,19.208 C17.6036,18.703 17.7446,17.831 17.9096,16.638 C17.8816,17.257 17.8336,17.693 17.8316,17.969 C17.8286,18.312 17.8246,18.703 17.8656,19.116 L18.6886,36.08 L25.1856,36.08 L35.5956,8.121 L28.7456,8.121 L23.5886,24.143 C23.4746,24.58 23.2686,25.314 23.1486,26.438 C23.1986,25.773 23.2026,25.337 23.2046,25.153 L23.2146,23.982 L22.4476,8.121 L15.5536,8.121 L8.9806,24.304 C8.7996,24.763 8.7056,25.451 8.6306,26.438 C8.6396,25.383 8.5576,24.648 8.5626,24.143 L8.7256,8.121 L2.3396,8.121 L4.1926,36.08 Z" id="Fill-1" fill="#8D8B8C"></path>
                        <path d="M46.1393,29.9511 C45.5433,31.2361 44.3933,31.9021 42.9573,31.9021 C40.9463,31.9021 39.7973,30.6851 39.7973,28.3441 L39.7973,27.6551 L53.7193,27.6551 C53.8953,26.4841 54.0063,25.4741 54.0063,24.5111 C54.0063,18.3581 50.6033,14.7551 44.5933,14.7551 C37.9413,14.7551 33.3453,20.1031 33.3453,26.8291 C33.3453,32.8201 36.9033,36.6531 42.9133,36.6531 C47.8853,36.6531 51.8403,33.9441 53.0343,29.9511 L46.1393,29.9511 Z M40.2623,23.4541 C40.6813,20.7001 42.3383,19.1391 44.5483,19.1391 C46.5153,19.1391 47.6643,20.4711 47.6643,22.8811 C47.6643,23.0641 47.6193,23.2481 47.6193,23.4541 L40.2623,23.4541 Z M55.4863,36.0801 L62.0713,36.0801 L66.3583,15.4431 L59.7953,15.4431 L55.4863,36.0801 Z M60.2593,13.1941 L66.8223,13.1941 L67.9273,7.9371 L61.3203,7.9371 L60.2593,13.1941 Z M92.4553,8.1431 L85.8703,8.1431 L83.6393,18.9101 C82.5343,16.1331 80.5893,14.7551 77.8933,14.7551 C72.1033,14.7551 67.7063,20.3791 67.7063,28.2291 C67.7063,33.7161 70.4023,36.7681 74.6893,36.7681 C77.2083,36.7681 79.3293,35.6671 80.9653,33.4171 L80.3903,36.0801 L86.6223,36.0801 L92.4553,8.1431 Z M77.3853,31.5811 C75.4623,31.5811 74.4023,30.2491 74.4023,27.7701 C74.4023,23.5001 76.5233,20.3331 79.1753,20.3331 C81.1633,20.3331 82.3793,21.7331 82.3793,24.2351 C82.3793,28.3441 80.2133,31.5811 77.3853,31.5811 L77.3853,31.5811 Z M91.3723,36.0801 L98.1123,36.0801 L100.3223,25.3141 C101.0293,21.8931 102.3993,20.1951 104.6533,20.1951 C105.9793,20.1951 106.6643,20.9751 106.6643,22.5591 C106.6643,22.8351 106.6193,23.7761 106.3323,25.1531 L104.0353,36.0801 L110.0003,36.0801 L112.2103,25.3141 C112.9403,21.8931 114.4643,20.1951 116.7403,20.1951 C118.0663,20.1951 118.8403,20.9751 118.8403,22.3981 C118.8403,22.8811 118.7523,23.8451 118.4863,25.1531 L116.2103,36.0801 L122.3973,36.0801 L124.8063,24.6481 C125.0713,23.2941 125.2253,21.8931 125.2253,20.7001 C125.2253,17.0271 123.2373,14.8921 119.7903,14.8921 C117.2043,14.8921 115.1713,16.1091 112.8293,18.5191 C111.9013,16.0171 110.2663,14.8241 107.7693,14.8241 C105.4493,14.8241 103.2833,15.9941 101.2283,18.3581 L101.8473,15.4431 L95.6813,15.4431 L91.3723,36.0801 Z M150.8813,15.4431 L144.2963,15.4431 L142.0633,26.1861 C141.3793,29.4921 139.5893,31.3501 137.2683,31.3501 C135.7443,31.3501 135.0153,30.5711 135.0153,28.9861 C135.0153,28.7341 135.1033,27.8161 135.4133,26.3241 L137.6443,15.4431 L131.0813,15.4431 L128.7183,26.8751 C128.3643,28.4351 128.2313,29.7441 128.2313,30.8001 C128.2313,34.4961 130.3083,36.6311 134.1093,36.6311 C136.6283,36.6311 138.9043,35.4601 141.0693,33.1411 L140.4293,36.0801 L146.5723,36.0801 L150.8813,15.4431 Z M136.2303,12.0691 L140.8713,12.0691 L141.9533,6.9281 L137.3133,6.9281 L136.2303,12.0691 Z M142.9703,12.0691 L147.6103,12.0691 L148.6713,6.9281 L144.0313,6.9281 L142.9703,12.0691 Z M151.5883,36.0801 L158.0183,36.0801 L163.8073,8.1431 L157.4223,8.1431 L151.5883,36.0801 Z M162.9683,36.0801 L169.3983,36.0801 L175.1663,8.1431 L168.7793,8.1431 L162.9683,36.0801 Z M188.1383,29.9511 C187.5183,31.2361 186.3913,31.9021 184.9323,31.9021 C182.9223,31.9021 181.7963,30.6851 181.7963,28.3441 L181.7963,27.6551 L195.6943,27.6551 C195.8933,26.4841 196.0043,25.4741 196.0043,24.5111 C196.0043,18.3581 192.5793,14.7551 186.5683,14.7551 C179.9173,14.7551 175.3203,20.1031 175.3203,26.8291 C175.3203,32.8201 178.9003,36.6531 184.9113,36.6531 C189.8833,36.6531 193.8393,33.9441 195.0103,29.9511 L188.1383,29.9511 Z M182.2373,23.4541 C182.6573,20.7001 184.3373,19.1391 186.5463,19.1391 C188.5133,19.1391 189.6623,20.4711 189.6623,22.8811 C189.6623,23.0641 189.6183,23.2481 189.6183,23.4541 L182.2373,23.4541 Z M197.5063,36.0801 L204.0693,36.0801 L205.4833,29.2851 C206.5443,24.1201 207.6493,21.3201 211.4943,21.3201 C212.0683,21.3201 212.7093,21.4341 213.3503,21.7101 L214.7203,14.9381 C214.3893,14.8921 214.1893,14.8921 214.1243,14.8921 C210.6543,14.8921 208.4443,16.5681 206.8973,20.3091 L207.8703,15.4431 L201.7933,15.4431 L197.5063,36.0801 Z" id="Fill-3" fill="#8D8B8C"></path>
                        <g id="Group-7" transform="translate(0.000000, 46.061100)">
                            <mask id="mask-2" fill="white">
                                <use xlink:href="#path-1"></use>
                            </mask>
                            <g id="Clip-6"></g>
                            <path d="M258.0539,17.679 L259.4679,17.679 L260.6839,11.527 C261.3249,8.268 262.3189,6.615 264.2189,6.615 C264.4169,6.615 264.6599,6.637 265.0149,6.683 L265.3239,5.306 C264.9919,5.192 264.6829,5.122 264.3729,5.122 C263.3129,5.122 262.4499,5.788 261.4119,7.028 L261.7219,5.421 L260.4849,5.421 L258.0539,17.679 Z M244.7949,10.425 C245.4809,7.717 246.9159,6.339 249.1039,6.339 C251.0709,6.339 252.2419,7.694 252.2419,9.828 C252.2419,9.966 252.2419,10.15 252.2199,10.425 L244.7949,10.425 Z M251.5569,13.937 C250.9829,15.774 249.6789,16.761 247.8889,16.761 C245.7669,16.761 244.4859,15.383 244.4859,13.111 C244.4859,12.721 244.5079,12.284 244.5519,11.734 L253.5239,11.734 C253.5679,11.159 253.6129,10.7 253.6129,10.311 C253.6129,7.028 251.9329,5.146 248.9929,5.146 C245.5909,5.146 243.0939,8.29 243.0939,12.743 C243.0939,16.141 244.7949,17.977 247.7789,17.977 C250.4079,17.977 252.2419,16.554 252.9049,13.937 L251.5569,13.937 Z M227.2719,17.679 L228.6419,17.679 L229.9019,11.55 C230.6089,8.153 232.0449,6.385 234.5859,6.385 C236.0229,6.385 236.8399,7.074 236.8399,8.336 C236.8399,8.612 236.8189,9.025 236.7069,9.53 L235.0289,17.679 L236.3539,17.679 L237.9899,9.737 C238.1209,9.186 238.1649,8.727 238.1649,8.314 C238.1649,6.363 236.9289,5.168 234.8509,5.168 C233.3489,5.168 231.9789,5.88 230.6979,7.303 L231.0509,5.421 L229.7909,5.421 L227.2719,17.679 Z M222.4329,17.679 L222.6759,16.462 C222.1669,16.623 221.7469,16.715 221.3709,16.715 C220.5989,16.715 220.3559,16.485 220.3559,15.796 C220.3559,15.658 220.3999,15.337 220.4879,14.81 L222.1229,6.546 L224.3559,6.546 L224.5759,5.421 L222.4099,5.421 L223.1169,2.024 L221.7699,2.024 L221.0629,5.421 L219.2729,5.421 L219.0299,6.546 L220.7969,6.546 L219.2289,14.327 C219.0509,15.062 218.9629,15.682 218.9629,16.187 C218.9629,17.358 219.6699,17.931 221.0849,17.931 C221.5489,17.931 221.9689,17.817 222.4329,17.679 L222.4329,17.679 Z M208.6659,17.679 L210.0799,17.679 L211.2949,11.527 C211.9369,8.268 212.9309,6.615 214.8309,6.615 C215.0299,6.615 215.2739,6.637 215.6259,6.683 L215.9359,5.306 C215.6049,5.192 215.2949,5.122 214.9639,5.122 C213.9249,5.122 213.0639,5.788 212.0249,7.028 L212.3339,5.421 L211.0749,5.421 L208.6659,17.679 Z M201.2629,16.301 C201.2629,17.38 201.7929,17.885 202.8319,17.885 C203.1859,17.885 203.4729,17.839 203.7599,17.679 L204.0029,16.554 C203.6719,16.669 203.4069,16.715 203.1419,16.715 C202.7429,16.715 202.5449,16.508 202.5449,16.049 C202.5449,15.934 202.5449,15.728 202.6119,15.452 L203.7599,9.828 C203.9149,9.186 203.9589,8.681 203.9589,8.36 C203.9589,6.385 202.5669,5.192 200.0259,5.192 C197.0649,5.192 195.4079,6.363 195.0319,8.841 L196.2909,8.841 C196.5339,7.119 197.6839,6.339 199.8049,6.339 C201.7269,6.339 202.6559,7.051 202.6559,8.474 C202.6559,10.379 201.7489,10.333 199.2309,10.563 C197.6399,10.678 196.3799,10.746 195.3639,11.389 C194.2139,12.101 193.5949,13.226 193.5949,14.603 C193.5949,16.554 194.9649,18 197.2409,18 C198.7439,18 200.0039,17.472 201.2629,16.301 L201.2629,16.301 Z M202.1029,11.389 C201.6389,14.992 200.1149,16.783 197.4619,16.783 C196.0039,16.783 195.0539,15.911 195.0539,14.557 C195.0539,13.202 195.8269,12.353 197.3079,12.032 C198.9209,11.711 200.6219,11.94 202.1029,11.389 L202.1029,11.389 Z M180.6019,9.002 L181.9499,2.092 L184.8669,2.092 C187.4299,2.092 188.6679,2.965 188.6679,5.1 C188.6679,7.877 187.1429,9.002 184.1589,9.002 L180.6019,9.002 Z M177.4199,17.679 L178.9669,17.679 L180.2919,10.402 L182.9889,10.402 C185.0879,10.402 186.7009,10.379 188.0279,9.53 C189.5079,8.588 190.1489,7.119 190.1489,4.962 C190.1489,3.516 189.5299,2.207 188.4689,1.473 C187.4299,0.739 186.1929,0.693 184.6909,0.693 L180.7119,0.693 L177.4199,17.679 Z M153.3559,10.425 C154.0409,7.717 155.4989,6.339 157.6869,6.339 C159.6539,6.339 160.8249,7.694 160.8249,9.828 C160.8249,9.966 160.8249,10.15 160.8029,10.425 L153.3559,10.425 Z M160.1399,13.937 C159.5429,15.774 158.2619,16.761 156.4499,16.761 C154.3509,16.761 153.0689,15.383 153.0689,13.111 C153.0689,12.721 153.0909,12.284 153.1349,11.734 L162.1069,11.734 C162.1509,11.159 162.1959,10.7 162.1959,10.311 C162.1959,7.028 160.5159,5.146 157.5759,5.146 C154.1519,5.146 151.6549,8.29 151.6549,12.743 C151.6549,16.141 153.3559,17.977 156.3389,17.977 C158.9909,17.977 160.8249,16.554 161.4879,13.937 L160.1399,13.937 Z M145.1359,13.593 C144.6059,15.567 143.0809,16.761 141.2909,16.761 C139.0149,16.761 137.7109,15.223 137.7109,12.698 C137.7109,9.208 139.6559,6.317 142.3519,6.317 C144.3189,6.317 145.5779,7.533 145.6439,9.507 L146.9479,9.507 C146.9259,6.776 145.2239,5.168 142.3079,5.168 C138.7719,5.168 136.2969,8.45 136.2969,12.721 C136.2969,16.049 138.1529,18 141.2469,18 C143.8989,18 145.9319,16.393 146.5939,13.593 L145.1359,13.593 Z M128.4749,16.301 C128.4749,17.38 129.0049,17.885 130.0429,17.885 C130.3969,17.885 130.6849,17.839 130.9709,17.679 L131.2149,16.554 C130.8829,16.669 130.6179,16.715 130.3529,16.715 C129.9549,16.715 129.7559,16.508 129.7559,16.049 C129.7559,15.934 129.7559,15.728 129.8229,15.452 L130.9709,9.828 C131.1259,9.186 131.1699,8.681 131.1699,8.36 C131.1699,6.385 129.7789,5.192 127.2369,5.192 C124.2759,5.192 122.6179,6.363 122.2429,8.841 L123.5029,8.841 C123.7449,7.119 124.8729,6.339 127.0159,6.339 C128.9389,6.339 129.8669,7.051 129.8669,8.474 C129.8669,10.379 128.9599,10.333 126.4189,10.563 C124.8499,10.678 123.5909,10.746 122.5529,11.389 C121.4249,12.101 120.8069,13.226 120.8069,14.603 C120.8069,16.554 122.1769,18 124.4529,18 C125.9549,18 127.1929,17.472 128.4749,16.301 L128.4749,16.301 Z M129.3149,11.389 C128.8499,14.992 127.3249,16.783 124.6739,16.783 C123.2149,16.783 122.2649,15.911 122.2649,14.557 C122.2649,13.202 123.0379,12.353 124.5189,12.032 C126.1319,11.711 127.8339,11.94 129.3149,11.389 L129.3149,11.389 Z M112.6969,17.679 L114.0449,17.679 L116.3209,6.546 L118.3539,6.546 L118.5749,5.421 L116.5419,5.421 L116.9169,3.584 C117.1599,2.323 117.3599,1.772 118.2869,1.772 C118.5079,1.772 118.8179,1.818 119.2599,1.909 L119.4809,0.715 C118.9729,0.601 118.5529,0.532 118.1549,0.532 C116.4749,0.532 115.9899,1.587 115.5919,3.562 L115.1939,5.421 L113.3819,5.421 L113.1389,6.546 L114.9729,6.546 L112.6969,17.679 Z M102.5979,17.679 L104.0119,17.679 L105.2279,11.527 C105.8689,8.268 106.8629,6.615 108.7859,6.615 C108.9619,6.615 109.2059,6.637 109.5809,6.683 L109.8679,5.306 C109.5589,5.192 109.2279,5.122 108.9179,5.122 C107.8579,5.122 106.9959,5.788 105.9569,7.028 L106.2669,5.421 L105.0289,5.421 L102.5979,17.679 Z M89.3399,10.425 C90.0249,7.717 91.4839,6.339 93.6489,6.339 C95.6159,6.339 96.7869,7.694 96.7869,9.828 C96.7869,9.966 96.7869,10.15 96.7649,10.425 L89.3399,10.425 Z M96.1239,13.937 C95.5269,15.774 94.2229,16.761 92.4339,16.761 C90.3119,16.761 89.0309,15.383 89.0309,13.111 C89.0309,12.721 89.0529,12.284 89.1189,11.734 L98.0679,11.734 C98.1129,11.159 98.1569,10.7 98.1569,10.311 C98.1569,7.028 96.4769,5.146 93.5379,5.146 C90.1359,5.146 87.6379,8.29 87.6379,12.743 C87.6379,16.141 89.3399,17.977 92.3229,17.977 C94.9529,17.977 96.7869,16.554 97.4499,13.937 L96.1239,13.937 Z M82.2689,17.679 L82.5119,16.462 C82.0259,16.623 81.5839,16.715 81.2299,16.715 C80.4569,16.715 80.1919,16.485 80.1919,15.796 C80.1919,15.658 80.2359,15.337 80.3459,14.81 L81.9819,6.546 L84.2129,6.546 L84.4339,5.421 L82.2459,5.421 L82.9539,2.024 L81.6059,2.024 L80.8989,5.421 L79.1089,5.421 L78.8879,6.546 L80.6339,6.546 L79.0649,14.327 C78.9099,15.062 78.8219,15.682 78.8219,16.187 C78.8219,17.358 79.5289,17.931 80.9209,17.931 C81.3849,17.931 81.8269,17.817 82.2689,17.679 L82.2689,17.679 Z M62.8229,17.679 L64.1929,17.679 L65.4519,11.55 C66.1599,8.153 67.5959,6.385 70.1369,6.385 C71.5739,6.385 72.3909,7.074 72.3909,8.336 C72.3909,8.612 72.3689,9.025 72.2589,9.53 L70.5569,17.679 L71.9059,17.679 L73.5399,9.737 C73.6509,9.186 73.6949,8.727 73.6949,8.314 C73.6949,6.363 72.4799,5.168 70.4029,5.168 C68.8999,5.168 67.5079,5.88 66.2479,7.303 L66.6019,5.421 L65.3419,5.421 L62.8229,17.679 Z M54.7359,17.679 L56.2599,17.679 L59.7069,0.693 L58.1599,0.693 L54.7359,17.679 Z M30.6489,10.425 C31.3339,7.717 32.7929,6.339 34.9809,6.339 C36.9249,6.339 38.1179,7.694 38.1179,9.828 C38.1179,9.966 38.1179,10.15 38.0959,10.425 L30.6489,10.425 Z M37.4329,13.937 C36.8359,15.774 35.5329,16.761 33.7429,16.761 C31.6209,16.761 30.3619,15.383 30.3619,13.111 C30.3619,12.721 30.3839,12.284 30.4289,11.734 L39.3779,11.734 C39.4219,11.159 39.4659,10.7 39.4659,10.311 C39.4659,7.028 37.7859,5.146 34.8479,5.146 C31.4449,5.146 28.9479,8.29 28.9479,12.743 C28.9479,16.141 30.6489,17.977 33.6329,17.977 C36.2619,17.977 38.1179,16.554 38.7809,13.937 L37.4329,13.937 Z M13.1699,17.679 L14.5179,17.679 L15.7559,11.55 C16.4629,8.175 17.8989,6.385 20.4399,6.385 C21.8539,6.385 22.6939,7.074 22.6939,8.336 C22.6939,8.588 22.6499,9.002 22.5389,9.53 L20.8819,17.679 L22.2519,17.679 L23.8659,9.737 C23.9759,9.186 24.0199,8.727 24.0199,8.314 C24.0199,6.363 22.8039,5.168 20.7499,5.168 C19.2909,5.168 17.9429,5.834 16.6609,7.165 L17.9879,0.693 L16.6169,0.693 L13.1699,17.679 Z M1.7679,17.679 L3.3149,17.679 L6.5189,2.07 L10.9599,2.07 L11.2479,0.693 L0.2869,0.693 L-0.0001,2.07 L4.9719,2.07 L1.7679,17.679 Z" id="Fill-5" fill="#8D8B8C" mask="url(#mask-2)"></path>
                        </g>
                        <path d="M232.3986,15.535 L242.3206,15.535 L252.6396,1.418 C253.1926,0.683 254.0766,0.386 254.9156,0.546 C255.0476,0.523 255.1806,0.5 255.3356,0.5 L267.2236,0.5 C268.6376,0.5 269.8096,1.717 269.8096,3.185 C269.8096,4.655 268.6376,5.872 267.2236,5.872 L255.8436,5.872 L246.8946,18.106 L255.8436,30.364 L267.2236,30.364 C268.6376,30.364 269.8096,31.581 269.8096,33.05 C269.8096,34.518 268.6376,35.735 267.2236,35.735 L255.0476,35.735 C254.9606,35.735 254.8716,35.713 254.7836,35.713 C253.9646,35.805 253.1476,35.506 252.6396,34.817 L242.4746,20.884 L232.3986,20.884 C230.9836,20.884 229.8356,19.69 229.8356,18.198 C229.8356,16.729 230.9836,15.535 232.3986,15.535" id="Fill-8" fill="#8D8B8C"></path>
                        <path d="M232.3986,15.535 L242.3206,15.535 L252.6396,1.418 C253.1926,0.683 254.0766,0.386 254.9156,0.546 C255.0476,0.523 255.1806,0.5 255.3356,0.5 L267.2236,0.5 C268.6376,0.5 269.8096,1.717 269.8096,3.185 C269.8096,4.655 268.6376,5.872 267.2236,5.872 L255.8436,5.872 L246.8946,18.106 L255.8436,30.364 L267.2236,30.364 C268.6376,30.364 269.8096,31.581 269.8096,33.05 C269.8096,34.518 268.6376,35.735 267.2236,35.735 L255.0476,35.735 C254.9606,35.735 254.8716,35.713 254.7836,35.713 C253.9646,35.805 253.1476,35.506 252.6396,34.817 L242.4746,20.884 L232.3986,20.884 C230.9836,20.884 229.8356,19.69 229.8356,18.198 C229.8356,16.729 230.9836,15.535 232.3986,15.535 Z" id="Stroke-10" stroke="#8D8B8C"></path>
                        <path d="M267.2463,20.7001 L257.3243,20.7001 L247.0053,34.8171 C246.4523,35.5521 245.5683,35.8491 244.7283,35.6891 C244.5963,35.7131 244.4643,35.7351 244.3093,35.7351 L232.4203,35.7351 C231.0063,35.7351 229.8353,34.5181 229.8353,33.0501 C229.8353,31.5811 231.0063,30.3641 232.4203,30.3641 L243.8013,30.3641 L252.7503,18.1301 L243.8013,5.8721 L232.4203,5.8721 C231.0063,5.8721 229.8353,4.6551 229.8353,3.1851 C229.8353,1.7171 231.0063,0.5001 232.4203,0.5001 L244.5963,0.5001 C244.6843,0.5001 244.7723,0.5231 244.8613,0.5231 C245.6793,0.4311 246.4963,0.7291 247.0053,1.4181 L257.1693,15.3511 L267.2463,15.3511 C268.6603,15.3511 269.8093,16.5451 269.8093,18.0371 C269.8093,19.5071 268.6603,20.7001 267.2463,20.7001" id="Fill-12" fill="#8D8B8C"></path>
                        <polygon id="Fill-14" fill="#8D8B8C" points="244.6848 12.3221 250.7618 3.9891 255.0478 3.9891 255.0478 6.9731 249.3468 14.7551 244.6848 14.7551"></polygon>
                    </g>
                </g>
            </g>
        </g>
    </g>
</svg>