<?xml version="1.0" encoding="UTF-8"?>
<svg width="324px" height="73px" viewBox="0 0 324 73" version="1.1" xmlns="http://www.w3.org/2000/svg" xmlns:xlink="http://www.w3.org/1999/xlink">
    <!-- Generator: Sketch 41.2 (35397) - http://www.bohemiancoding.com/sketch -->
    <title>wheel</title>
    <desc>Created with Sketch.</desc>
    <defs>
        <polygon id="path-1" points="11.19528 0.0811938776 0.609790345 0.0811938776 0.609790345 18.4544 11.19528 18.4544 11.19528 0.0811938776"></polygon>
    </defs>
    <g id="wireframe" stroke="none" stroke-width="1" fill="none" fill-rule="evenodd">
        <g id="Desktop-HD-Copy" transform="translate(-141.000000, -4555.000000)">
            <g id="commanditaire" transform="translate(0.000000, 3666.000000)">
                <g id="logo" transform="translate(141.000000, 265.000000)">
                    <g id="wheel" transform="translate(0.000000, 624.000000)">
                        <path d="M14.2986041,7.65181531 C14.2986041,8.06150918 14.2405076,8.47343776 14.1250593,8.88164184 L11.7684248,8.88164184 L11.7684248,14.8423153 C11.7684248,15.9149684 12.1482869,16.4498051 12.9072662,16.45055 C13.2037076,16.4498051 13.435349,16.4073459 13.6029352,16.3209378 C13.7519007,16.260601 13.8993766,16.2002643 14.0475972,16.1399276 C14.1056938,16.7783051 14.1637903,17.4166827 14.2211421,18.05655 C14.0669628,18.3671724 13.7384938,18.6748153 13.2357352,18.9757541 C12.7337214,19.2781827 12.1929766,19.4293969 11.6135007,19.4293969 C9.60395586,19.4293969 8.6006731,18.2293663 8.6006731,15.8270704 L8.6006731,8.88164184 L7.07452138,8.88164184 C6.93225931,8.51217245 6.86150069,8.15760102 6.86150069,7.81941735 C6.86150069,7.43281531 6.90693517,7.06036633 6.99705931,6.70505 C7.32552828,6.7057949 7.65399724,6.7057949 7.98246621,6.70505 C8.51650759,5.71210102 9.05054897,4.71840714 9.58533517,3.72545816 C9.95849379,3.57871327 10.3323972,3.43196837 10.7055559,3.28522347 C11.2202317,3.11240714 11.5680662,3.02599898 11.7490593,3.02599898 C11.7550179,3.12060102 11.7617214,3.21594796 11.7684248,3.3112949 L11.7684248,6.42198878 C12.5542179,6.41305 13.3392662,6.40411122 14.1250593,6.39517245 C14.2405076,6.83913163 14.2986041,7.25999898 14.2986041,7.65181531" id="Fill-1" fill="#8D8B8C"></path>
                        <g id="Group-5" transform="translate(14.151724, 0.664077)">
                            <mask id="mask-2" fill="white">
                                <use xlink:href="#path-1"></use>
                            </mask>
                            <g id="Clip-4"></g>
                            <path d="M11.19528,17.8324102 C11.1632524,17.9791551 11.1312248,18.1259 11.0984524,18.2726449 C10.8027559,18.3329816 10.5063145,18.3940633 10.2098731,18.4544 L9.24457655,18.4544 L8.27853517,18.4544 C8.00220414,18.3940633 7.72512828,18.3329816 7.44805241,18.2726449 C7.40932138,18.1259 7.37059034,17.9791551 7.33185931,17.8324102 L7.33185931,17.5985122 L7.50838345,17.5985122 C7.55903172,17.5463694 7.60968,17.4957163 7.66032828,17.4443184 L7.66032828,17.2372367 L7.66032828,11.2244204 C7.66032828,9.35845102 7.11288,8.42658367 6.01872828,8.42583878 C5.51596966,8.42658367 5.10110069,8.6716551 4.7718869,9.16477755 C4.44490759,9.6564102 4.28030069,10.3685327 4.28030069,11.3011449 L4.28030069,17.2372367 L4.28030069,17.4443184 C4.31679724,17.4957163 4.35329379,17.5463694 4.39053517,17.5985122 L4.54471448,17.5985122 C4.55961103,17.6759816 4.57450759,17.7549408 4.58865931,17.8324102 C4.5506731,17.9791551 4.51194207,18.1259 4.47321103,18.2726449 C4.20283862,18.3329816 3.93246621,18.3940633 3.66209379,18.4544 L2.69679724,18.4544 L1.69202483,18.4544 C1.40824552,18.3940633 1.12521103,18.3329816 0.842176552,18.2726449 C0.809404138,18.2123082 0.777376552,18.1519714 0.745348966,18.0916347 C0.738645517,18.0052265 0.732686897,17.9188184 0.725983448,17.8324102 C0.738645517,17.7549408 0.752052414,17.6759816 0.764714483,17.5985122 L0.919638621,17.5985122 C0.964328276,17.5463694 1.00901793,17.4957163 1.05445241,17.4443184 C1.07381793,17.3757878 1.09318345,17.3065122 1.11254897,17.2372367 C1.11180414,12.183849 1.11180414,7.13120612 1.11254897,2.07781837 C1.07381793,1.87893061 1.0350869,1.67929796 0.996355862,1.4811551 C0.752052414,1.4103898 0.623197241,1.27407347 0.609790345,1.06550204 C0.609790345,0.807022449 0.777376552,0.574614286 1.11254897,0.366787755 L3.65762483,0.0807469388 C3.83861793,0.0807469388 3.97566621,0.107563265 4.06653517,0.158961224 C4.15665931,0.21184898 4.26019034,0.340716327 4.37638345,0.548542857 L4.28030069,2.1024 L4.28030069,7.64742041 C4.67952828,7.24145102 5.07875586,6.83548163 5.47798345,6.42951224 C6.16024552,5.8261449 6.78515586,5.52446122 7.35122483,5.52446122 C8.44612138,5.52520612 9.29894897,5.94681837 9.91119724,6.79376735 C10.5234455,7.64071633 10.82808,8.84819592 10.8288248,10.4214204 L10.8288248,17.2372367 L10.8288248,17.4443184 C10.8787283,17.4957163 10.9293766,17.5463694 10.9800248,17.5985122 L11.1744248,17.5985122 C11.1811283,17.6759816 11.1885766,17.7549408 11.19528,17.8324102" id="Fill-3" fill="#8D8B8C" mask="url(#mask-2)"></path>
                        </g>
                        <path d="M32.667989,10.9529796 C32.667989,10.1514694 32.5160441,9.52277551 32.2136441,9.07136735 C31.9112441,8.61623469 31.4889269,8.39127551 30.9481821,8.39053061 C30.3433821,8.39127551 29.9054234,8.6505 29.635051,9.16820408 C29.4160717,9.66952041 29.255189,10.3175816 29.1524028,11.1116429 C29.4875752,11.1548469 29.8227476,11.198051 30.1571752,11.2412551 L30.6785545,11.2412551 L32.4944441,11.2412551 C32.6091476,11.2412551 32.667989,11.1451633 32.667989,10.9529796 M35.6040993,12.0695816 C35.6040993,12.9344082 35.4558786,13.3657041 35.1601821,13.3657041 C33.1573407,13.366449 31.1552441,13.366449 29.1524028,13.3657041 C29.2298648,14.3862143 29.4227752,15.2227347 29.7318786,15.8789898 C30.0409821,16.4845918 30.594389,16.7870204 31.393589,16.7870204 C31.946251,16.7862755 32.3909131,16.6335714 32.7253407,16.3266735 C33.0605131,16.0197755 33.2981131,15.6018878 33.4403752,15.0767347 L33.7114924,15.0767347 C33.877589,15.0767347 34.0064441,15.0856735 34.0973131,15.1020612 C34.1874372,15.1199388 34.322251,15.1787857 34.5024993,15.2838163 C34.7862786,15.4223673 35.0700579,15.5601735 35.3530924,15.6979796 C35.1207062,16.8719388 34.5993269,17.7889082 33.7882097,18.4459082 C32.9770924,19.1014184 31.97232,19.4291735 30.7746372,19.4291735 C29.3460579,19.4291735 28.1990234,18.834 27.3372579,17.6414184 C26.4732579,16.4503265 26.0420028,14.8502857 26.0420028,12.8472551 C26.0427476,10.8442245 26.4985821,9.23747959 27.41472,8.02702041 C27.8765131,7.42290816 28.4120441,6.96479592 29.017589,6.65417347 C29.622389,6.34355102 30.3120993,6.18861224 31.0844855,6.18861224 C32.4356028,6.18861224 33.52752,6.72344898 34.3587476,7.79461224 C35.1884855,8.86503061 35.6040993,10.2900204 35.6040993,12.0695816" id="Fill-6" fill="#8D8B8C"></path>
                        <path d="M39.7565876,40.2287357 C39.7565876,40.6607765 39.6322014,40.9267051 39.3856634,41.0242867 C39.16296,41.058552 38.9402566,41.2082765 38.7175531,41.4719704 C38.5574152,41.7215112 38.3972772,41.9703071 38.2363945,42.219848 C36.2707945,49.1019602 34.3051945,55.9848173 32.3388497,62.8684194 C31.3750428,63.462848 30.4350703,63.7645316 29.5204221,63.7637867 C28.6296083,63.7637867 27.7402841,63.4635929 26.8502152,62.8684194 C25.5028221,57.8589806 24.1546841,52.8495418 22.807291,47.8415929 C21.4099945,52.8495418 20.0126979,57.8589806 18.6161462,62.8684194 C17.7260772,63.462848 16.7987669,63.7645316 15.83496,63.7637867 C14.9687255,63.7637867 14.0913186,63.4658276 13.2019945,62.871399 C11.186491,56.0190827 9.17173241,49.1667663 7.15697379,42.31445 C7.05791172,41.818348 6.78604966,41.4548378 6.34064276,41.2239194 C6.22891862,41.0935622 6.11793931,40.96395 6.00621517,40.8343378 C5.98238069,40.6488582 5.95780138,40.4626337 5.93322207,40.2771541 C5.98238069,40.212348 6.01962207,40.1624398 6.04420138,40.1289194 C6.16784276,39.963552 6.34064276,39.8138276 6.56334621,39.6819806 C6.78604966,39.5493888 7.08249103,39.4495724 7.45267034,39.3825316 L12.8683117,39.3825316 C13.61016,39.3825316 13.9803393,39.6663378 13.9810841,40.2287357 C13.9803393,40.6607765 13.8194566,40.9267051 13.4991807,41.0242867 C14.6462152,45.5763582 15.7932497,50.1284296 16.9402841,54.6797561 C18.0106014,50.5127969 19.0801738,46.344348 20.1497462,42.1766439 C20.1363393,42.0418173 20.1229324,41.9062459 20.1095255,41.7706745 C20.1095255,41.6030724 19.9583255,41.4213173 19.6559255,41.2239194 C19.5322841,41.0935622 19.4086428,40.96395 19.2842566,40.8343378 L19.2842566,40.2771541 C19.3334152,40.212348 19.3706566,40.1624398 19.3952359,40.1289194 C19.5188772,39.963552 19.6924221,39.8138276 19.9151255,39.6819806 C20.137829,39.5493888 20.4335255,39.4495724 20.8044497,39.3825316 L26.5902703,39.3825316 C27.3313738,39.3825316 27.7022979,39.6663378 27.7022979,40.2287357 C27.7022979,40.6607765 27.5294979,40.9267051 27.1838979,41.0242867 L27.1838979,41.2239194 L27.1838979,41.4734602 C27.2583807,41.672348 27.3328634,41.8712357 27.4073462,42.0708684 C28.4098841,46.2408071 29.4124221,50.4114908 30.41496,54.5814296 C31.4547393,50.4777867 32.4945186,46.3748888 33.5342979,42.2712459 L33.8069048,41.5948786 C33.8240359,41.4876133 33.8411669,41.380348 33.8582979,41.2730827 C33.7100772,41.1077153 33.5626014,40.9416031 33.4143807,40.7762357 L33.4143807,40.2771541 C33.5626014,40.0469806 33.69816,39.8801235 33.8225462,39.7803071 C34.0936634,39.5158684 34.4526703,39.3832765 34.8980772,39.3825316 L38.6430703,39.3825316 C39.3856634,39.3825316 39.7565876,39.6663378 39.7565876,40.2287357" id="Fill-8" fill="#8D8B8C"></path>
                        <path d="M59.7832883,62.5691194 C59.7214676,62.8514357 59.6596469,63.1330071 59.5978262,63.4153235 C59.0295228,63.5315276 58.4604745,63.6477316 57.8914262,63.7639357 L56.0375503,63.7639357 L54.1836745,63.7639357 C53.6526124,63.6477316 53.1208055,63.5315276 52.5889986,63.4153235 C52.5145159,63.1330071 52.4407779,62.8514357 52.3662952,62.5691194 L52.3662952,62.1214357 L52.7051917,62.1214357 C52.8020193,62.0223643 52.8995917,61.9218031 52.9964193,61.8219867 L52.9964193,61.4249561 L52.9964193,49.8820173 C52.9964193,46.2990582 51.9454676,44.5060888 49.844309,44.5060888 C48.8797572,44.5068337 48.0820469,44.9813337 47.4519228,45.9251194 C46.8217986,46.8711398 46.5059917,48.2402622 46.5059917,50.0317418 L46.5059917,61.4249561 L46.5059917,61.8219867 C46.5774952,61.9218031 46.647509,62.0223643 46.7182676,62.1214357 L47.014709,62.1214357 C47.0437572,62.2711602 47.0713159,62.4201398 47.0996193,62.5691194 C47.0258814,62.8514357 46.9513986,63.1330071 46.8769159,63.4153235 C46.357771,63.5315276 45.8386262,63.6477316 45.3202262,63.7639357 L43.4648607,63.7639357 L41.5357572,63.7639357 C40.9920331,63.6477316 40.448309,63.5315276 39.9045848,63.4153235 C39.8427641,63.2983745 39.7809434,63.1829153 39.7191228,63.0667112 L39.6818814,62.5691194 C39.7064607,62.4201398 39.7317848,62.2711602 39.7563641,62.1214357 L40.0528055,62.1214357 C40.1392055,62.0223643 40.2256055,61.9218031 40.3127503,61.8219867 L40.4237297,61.4249561 L40.4237297,32.3180684 C40.3492469,31.9366806 40.275509,31.554548 40.2002814,31.1739051 C39.7317848,31.0413133 39.4837572,30.7738949 39.4591779,30.3776092 C39.4591779,29.8785276 39.7809434,29.4308439 40.4237297,29.0330684 C42.0534124,28.8505684 43.6823503,28.6680684 45.3120331,28.4855684 C45.6598676,28.4855684 45.9198124,28.5354765 46.0948469,28.6352929 C46.2683917,28.7351092 46.4680055,28.9839051 46.6914538,29.3816806 C46.6296331,30.3768643 46.5678124,31.372048 46.5059917,32.3664867 L46.5059917,43.0140582 C47.2731641,42.2348949 48.0388469,41.4557316 48.8052745,40.6773133 C50.116171,39.5167622 51.3145986,38.934252 52.4027917,38.934252 C54.5039503,38.934252 56.1418262,39.7476806 57.3171641,41.3723031 C58.4917572,42.9991602 59.0786814,45.3210071 59.0786814,48.3385888 L59.0786814,61.4249561 L59.0786814,61.8219867 C59.175509,61.9218031 59.2723366,62.0223643 59.3691641,62.1214357 L59.7415779,62.1214357 L59.7832883,62.5691194 Z" id="Fill-10" fill="#8D8B8C"></path>
                        <path d="M73.8390041,48.0851 C73.8390041,46.5461408 73.5485214,45.3408959 72.9683007,44.4701102 C72.3858455,43.5993245 71.5769628,43.1643041 70.5386731,43.1643041 C69.3759972,43.165049 68.5358317,43.6626408 68.0166869,44.6570796 C67.5958593,45.617998 67.2867559,46.8642122 67.0893766,48.3882735 C67.7321628,48.471702 68.374949,48.5543857 69.0177352,48.6370694 L70.0202731,48.6370694 L73.5053214,48.6370694 C73.7287697,48.6378143 73.8390041,48.4538245 73.8390041,48.0851 M79.4766041,50.2304061 C79.4766041,51.888549 79.1928248,52.7183653 78.6237766,52.7183653 L67.0893766,52.7183653 C67.2383421,54.6752122 67.6092662,56.282702 68.202149,57.5438143 C68.7957766,58.7058551 69.8579007,59.2846408 71.3915007,59.2853857 C72.4543697,59.2853857 73.3079421,58.9904061 73.9507283,58.4004469 C74.5935145,57.8119776 75.049349,57.0119571 75.3227007,56.0003857 L75.8418455,56.0003857 C76.1628662,56.0011306 76.4108938,56.0182633 76.5836938,56.0502939 C76.7564938,56.0838143 77.0171834,56.2007633 77.3620386,56.3989061 C77.9065076,56.6648347 78.4509766,56.9300184 78.9947007,57.1944571 C78.5500386,59.451498 77.5475007,61.2094571 75.990811,62.4698245 C74.4326317,63.7301918 72.5035283,64.3603755 70.2049903,64.3603755 C67.4610455,64.3603755 65.2593352,63.2154673 63.6035834,60.9271408 C61.9463421,58.6388143 61.1180938,55.5705796 61.1180938,51.7239265 C61.1180938,47.8742939 61.9955007,44.7896714 63.7510593,42.4678245 C64.6411283,41.3065286 65.6675007,40.427549 66.8301766,39.8301408 C67.9921076,39.2334776 69.3149214,38.9347735 70.7986179,38.9347735 C73.3943421,38.9347735 75.4895421,39.9634776 77.0849628,42.0193959 C78.6788938,44.0768041 79.4766041,46.8143041 79.4766041,50.2304061" id="Fill-12" fill="#8D8B8C"></path>
                        <path d="M93.0135476,48.0851 C93.0135476,46.5461408 92.72232,45.3408959 92.1420993,44.4701102 C91.560389,43.5993245 90.7507614,43.1643041 89.7124717,43.1643041 C88.5505407,43.165049 87.7103752,43.6626408 87.1904855,44.6570796 C86.7704028,45.617998 86.4605545,46.8642122 86.2631752,48.3882735 C86.9067062,48.471702 87.5494924,48.5543857 88.1915338,48.6370694 L89.1940717,48.6370694 L92.6798648,48.6370694 C92.9025683,48.6378143 93.0135476,48.4538245 93.0135476,48.0851 M98.6504028,50.2304061 C98.6504028,51.888549 98.3658786,52.7183653 97.79832,52.7183653 L86.2631752,52.7183653 C86.4121407,54.6752122 86.7830648,56.282702 87.3766924,57.5438143 C87.97032,58.7058551 89.0324441,59.2846408 90.5660441,59.2853857 C91.6281683,59.2853857 92.4817407,58.9904061 93.1252717,58.4004469 C93.7673131,57.8119776 94.2246372,57.0119571 94.4972441,56.0003857 L95.0156441,56.0003857 C95.3366648,56.0011306 95.5846924,56.0182633 95.7582372,56.0502939 C95.9310372,56.0838143 96.1902372,56.2007633 96.5365821,56.3989061 C97.081051,56.6648347 97.6247752,56.9300184 98.1684993,57.1944571 C97.7238372,59.451498 96.7220441,61.2094571 95.1653545,62.4698245 C93.6071752,63.7301918 91.6788166,64.3603755 89.3795338,64.3603755 C86.6348441,64.3603755 84.4331338,63.2154673 82.7766372,60.9271408 C81.1208855,58.6388143 80.2926372,55.5705796 80.2926372,51.7239265 C80.2918924,47.8742939 81.1700441,44.7896714 82.9256028,42.4678245 C83.8156717,41.3065286 84.8412993,40.427549 86.0039752,39.8301408 C87.1651614,39.2334776 88.4894648,38.9347735 89.9724166,38.9347735 C92.5688855,38.9347735 94.6640855,39.9634776 96.2580166,42.0193959 C97.8541821,44.0768041 98.6511476,46.8143041 98.6504028,50.2304061" id="Fill-14" fill="#8D8B8C"></path>
                        <path d="M108.034113,62.5691194 C107.95963,62.8514357 107.885148,63.1330071 107.81141,63.4153235 C107.255023,63.5315276 106.698637,63.6477316 106.141506,63.7639357 L104.213892,63.7639357 L102.248292,63.7639357 C101.679244,63.6477316 101.110941,63.5315276 100.541892,63.4153235 C100.46741,63.2983745 100.393672,63.1829153 100.319189,63.0667112 L100.319189,62.5691194 C100.344513,62.4201398 100.369092,62.2711602 100.393672,62.1214357 L100.764596,62.1214357 C100.863658,62.0223643 100.96272,61.9218031 101.061782,61.8219867 C101.098279,61.6893949 101.13552,61.557548 101.172761,61.4249561 L101.172761,32.3180684 C101.098279,31.9366806 101.024541,31.554548 100.950803,31.1739051 C100.480072,31.0740888 100.232044,30.8074153 100.208954,30.3776092 C100.208954,29.8785276 100.529975,29.4308439 101.172761,29.0330684 C102.804679,28.8505684 104.435851,28.6680684 106.067768,28.4855684 C106.389534,28.4855684 106.630113,28.5354765 106.791741,28.6352929 C106.952623,28.7351092 107.167879,28.9839051 107.440486,29.3816806 C107.378665,30.3768643 107.316844,31.372048 107.255023,32.3664867 L107.255023,61.4249561 L107.255023,61.8219867 C107.364513,61.9218031 107.474003,62.0223643 107.583492,62.1214357 L107.952182,62.1214357 L108.034113,62.5691194 Z" id="Fill-16" fill="#8D8B8C"></path>
                        <path d="M133.735059,51.7237776 L133.735059,50.3285837 C133.735059,48.2063694 133.43117,46.5392878 132.82637,45.3280837 C132.22008,44.1191143 131.336714,43.5127673 130.174039,43.5127673 C128.962949,43.5127673 128.023721,44.2353184 127.356356,45.6774408 C126.688246,47.1203082 126.354563,49.1523898 126.354563,51.771451 C126.354563,54.2266347 126.67037,56.1179306 127.300494,57.4453388 C127.931363,58.7712571 128.876549,59.4349612 130.137542,59.4349612 C131.347887,59.4342163 132.251363,58.728798 132.844246,57.3201959 C133.438618,55.910849 133.735059,54.0448796 133.735059,51.7237776 L133.735059,51.7237776 Z M140.596411,62.4696755 C140.53459,62.6186551 140.47277,62.7676347 140.410949,62.9166143 C139.818066,63.1497673 138.884052,63.356849 137.610397,63.5386041 C136.336742,63.7203592 135.255997,63.8127265 134.365183,63.8127265 C134.278783,63.5646755 134.192383,63.3158796 134.105983,63.0670837 C134.068742,62.7676347 134.031501,62.4696755 133.995004,62.1702265 L133.995004,61.0260633 C133.945101,60.8279204 133.895197,60.6290327 133.846039,60.4301449 C133.253156,61.5251449 132.393625,62.4540327 131.26819,63.2153184 C130.143501,63.9803286 129.062011,64.3602265 128.023721,64.3602265 C125.625377,64.3602265 123.665735,63.1661551 122.145542,60.7787571 C120.625349,58.3891245 119.86488,55.3700531 119.864135,51.7237776 C119.864135,47.9411857 120.64248,44.8640122 122.201404,42.493002 C123.758839,40.1219918 125.822756,38.9346245 128.394646,38.9346245 C129.557321,38.9338796 130.649983,39.2675939 131.677101,39.9305531 C132.702728,40.5942571 133.388714,41.2736041 133.735059,41.9708286 L133.735059,32.3176959 C133.661321,31.9370531 133.586839,31.5549204 133.513101,31.1735327 C132.993956,31.0074204 132.733266,30.7429816 132.734011,30.3779816 C132.734011,29.8789 133.10419,29.4304714 133.846039,29.0326959 C135.428052,28.8509408 137.010811,28.6684408 138.592825,28.4859408 C139.013652,28.4203898 139.310094,28.4859408 139.484383,28.6855735 C139.655694,28.8189102 139.830728,29.0513184 140.003528,29.3820531 C139.941708,30.3772367 139.879887,31.3724204 139.818066,32.3668592 L139.818066,57.5935735 L139.818066,59.6830122 L140.186756,61.5244 C140.378177,61.6912571 140.51448,61.9400531 140.596411,62.2707878 L140.596411,62.4696755 Z" id="Fill-18" fill="#8D8B8C"></path>
                        <path d="M154.429498,48.0851 C154.429498,46.5461408 154.139015,45.3408959 153.55805,44.4701102 C152.976339,43.5993245 152.168946,43.1643041 151.128422,43.1643041 C149.965746,43.165049 149.125581,43.6626408 148.606436,44.6570796 C148.185608,45.617998 147.877994,46.8642122 147.67987,48.3882735 C148.322657,48.471702 148.965443,48.5543857 149.608229,48.6370694 L150.610022,48.6370694 L154.095815,48.6370694 C154.318519,48.6378143 154.429498,48.4538245 154.429498,48.0851 M160.066353,50.2304061 C160.066353,51.888549 159.782574,52.7183653 159.21427,52.7183653 L147.67987,52.7183653 C147.828091,54.6752122 148.19827,56.282702 148.792643,57.5438143 C149.38627,58.7058551 150.44765,59.2846408 151.981994,59.2853857 C153.044119,59.2853857 153.898436,58.9904061 154.540477,58.4004469 C155.184008,57.8119776 155.640588,57.0119571 155.913194,56.0003857 L156.431594,56.0003857 C156.75336,56.0011306 156.999898,56.0182633 157.174188,56.0502939 C157.346988,56.0838143 157.606188,56.2007633 157.952532,56.3989061 C158.497001,56.6648347 159.04147,56.9300184 159.585939,57.1944571 C159.139043,59.451498 158.137994,61.2094571 156.581305,62.4698245 C155.023126,63.7301918 153.094767,64.3603755 150.794739,64.3603755 C148.050794,64.3603755 145.850574,63.2154673 144.193332,60.9271408 C142.536836,58.6388143 141.708588,55.5705796 141.708588,51.7239265 C141.708588,47.8742939 142.58525,44.7896714 144.341553,42.4678245 C145.232367,41.3065286 146.25725,40.427549 147.419926,39.8301408 C148.581857,39.2334776 149.90467,38.9347735 151.388367,38.9347735 C153.984836,38.9347735 156.079291,39.9634776 157.674712,42.0193959 C159.269388,44.0768041 160.066353,46.8143041 160.066353,50.2304061" id="Fill-20" fill="#8D8B8C"></path>
                        <g id="Group-24" transform="translate(160.882759, 38.653872)" fill="#8D8B8C">
                            <path d="M14.8721214,13.216799 C14.8721214,8.17532959 13.60368,5.6553398 11.0690317,5.6553398 C9.95104552,5.6545949 9.10566621,6.28477857 8.53438345,7.54589082 C7.96235586,8.80625816 7.6770869,10.76385 7.6770869,13.4171765 L7.6770869,14.5613398 C7.67634207,16.5517071 7.95043862,18.0601255 8.49714207,19.0895745 C9.06842483,20.0519827 9.87581793,20.5316969 10.920811,20.5316969 C12.1885076,20.5316969 13.1634869,19.8940643 13.8472386,18.6158194 C14.5295007,17.3390643 14.8721214,15.5386459 14.8721214,13.216799 M21.3618041,12.9680031 C21.3610593,16.6835541 20.5775007,19.735401 19.0074041,22.1250337 C17.4365628,24.5131765 15.4158455,25.7065031 12.9437628,25.7065031 C11.8794041,25.7057582 10.81728,25.3735337 9.75366621,24.7113194 C8.73921103,24.0148398 8.04875586,23.6498398 7.6770869,23.6170643 L7.6770869,31.9249112 L7.6770869,32.3234316 C7.79774897,32.423248 7.91990069,32.5230643 8.04056276,32.6221357 L8.44574897,32.6221357 C8.48671448,32.7666459 8.52693517,32.9111561 8.56715586,33.0564112 C8.54183172,33.2180541 8.51725241,33.3782071 8.49192828,33.5391051 C8.44276966,33.7014929 8.38243862,33.8124827 8.30795586,33.8772888 C7.70166621,33.9584827 7.09612138,34.0389316 6.49057655,34.1201255 C5.87236966,34.1685439 5.25416276,34.2169622 4.63595586,34.2653806 C3.9186869,34.2147276 3.20216276,34.1655643 2.48563862,34.1156561 L0.96470069,33.8668602 L0.779238621,33.5197378 C0.766576552,33.3536255 0.753914483,33.1890031 0.741997241,33.0236357 C0.779238621,32.8739112 0.815735172,32.7241867 0.852976552,32.575952 L1.18665931,32.575952 C1.28572138,32.4753908 1.38478345,32.3763194 1.48310069,32.2757582 C1.52034207,32.1439112 1.55758345,32.0120643 1.59408,31.8809622 L1.59408,4.60726837 C1.52257655,4.22737041 1.4510731,3.84598265 1.38031448,3.4653398 C1.25518345,3.4653398 1.09281103,3.36552347 0.893197241,3.16589082 C0.806052414,2.99977857 0.718907586,2.83441122 0.631017931,2.66978878 C0.631017931,2.4046051 0.712204138,2.15580918 0.88128,1.92340102 C1.11888,1.70812551 1.35648,1.4921051 1.59408,1.27682959 C3.21333517,1.09432959 4.83259034,0.911084694 6.45184552,0.728584694 C6.97918345,0.73007449 7.38660414,1.02803367 7.6770869,1.62395204 L7.6770869,4.01358469 C8.26848,3.08395204 9.10045241,2.23104388 10.1730041,1.45113571 C11.2463007,0.671227551 12.3613076,0.28090102 13.521749,0.28090102 C15.8880662,0.28090102 17.7873766,1.42506429 19.2167007,3.71413571 C20.6467697,6.00320714 21.3618041,9.08782959 21.3618041,12.9680031" id="Fill-22"></path>
                        </g>
                        <path d="M194.3352,54.2326684 L194.3352,53.0214643 C194.075255,52.8866378 193.816055,52.7525561 193.556855,52.6177296 L192.480579,52.6177296 C191.318648,52.6177296 190.397297,52.958148 189.717269,53.6389847 C189.037986,54.3183316 188.698345,55.2390255 188.698345,56.3988316 C188.698345,57.294199 188.920303,58.0927296 189.364966,58.7877194 C189.834952,59.4179031 190.465821,59.7337398 191.256828,59.7329949 C193.309572,59.7329949 194.3352,57.899801 194.3352,54.2326684 M201.048331,61.870852 C201.036414,61.987801 201.023752,62.1040051 201.01109,62.2209541 C200.763807,62.3863214 200.331062,62.6187296 199.712855,62.9166888 C199.391834,63.0842908 199.058152,63.2332704 198.711807,63.3651173 C197.722676,63.6951071 196.881766,63.8627092 196.190566,63.8627092 C195.818897,63.8627092 195.522455,63.5640051 195.299752,62.9680867 C195.077793,62.2209541 194.85509,61.4745663 194.632386,60.7274337 C194.113241,61.7233622 193.363945,62.5770153 192.388221,63.2898827 C191.411752,64.0034949 190.378676,64.360301 189.291972,64.360301 C187.339034,64.360301 185.786814,63.7040459 184.6368,62.3952602 C183.487531,61.0849847 182.912524,59.4015153 182.912524,57.344852 C182.912524,54.8248622 183.705766,52.8017194 185.293738,51.2731888 C186.086979,50.5461684 187.03589,49.9800459 188.140469,49.5830153 C189.243559,49.1852398 190.515724,48.9856071 191.954731,48.9856071 L193.070483,48.9856071 C193.49131,48.986352 193.914372,48.8031071 194.3352,48.438852 L194.3352,47.2440357 C194.3352,44.4253418 193.454814,43.0137602 191.692552,43.0137602 C190.947724,43.0130153 190.333241,43.3057602 189.850593,43.8860357 C189.366455,44.4670561 189.049159,45.2380255 188.901683,46.1996888 C188.032469,46.8641378 187.126759,47.1948724 186.183807,47.1956173 C185.216276,47.1956173 184.472193,46.8641378 183.950814,46.1996888 C183.950814,44.2085765 184.717241,42.5012704 186.250841,41.0747908 C187.016524,40.3783112 187.900634,39.8479439 188.902428,39.4814541 C189.903476,39.1179439 191.034869,38.9339541 192.295117,38.934699 C194.792524,38.9339541 196.739503,39.6237296 198.1368,40.9995561 C199.533352,42.3768724 200.231255,44.3910765 200.232,47.0444031 L200.232,56.8964235 C200.232,58.257352 200.268497,59.3344745 200.342979,60.1315153 C200.418207,60.9263214 200.553021,61.3427194 200.751145,61.37475 C200.899366,61.4738214 200.985766,61.5579949 201.01109,61.6235459 C201.023752,61.7054847 201.036414,61.7889133 201.048331,61.870852" id="Fill-25" fill="#8D8B8C"></path>
                        <path d="M217.552146,41.3723031 C217.552146,42.8337929 217.260919,44.0278643 216.679953,44.9560071 C216.098988,45.8856398 215.55005,46.446548 215.029415,46.6476704 C214.744891,46.4480378 214.461857,46.2498949 214.177332,46.0502622 C213.880146,45.9832214 213.583705,45.9176704 213.285774,45.8506296 C212.149167,45.8521194 211.327622,46.2588337 210.821139,47.073752 C210.313912,47.8886704 210.059926,49.1602112 210.06067,50.8906092 L210.06067,61.4212316 C210.097167,61.5217929 210.134408,61.6223541 210.17165,61.7221704 L210.17165,61.8219867 C210.31987,61.9218031 210.468091,62.0223643 210.616312,62.1214357 L211.09896,62.1214357 L211.247181,62.5691194 C211.160781,62.8514357 211.074381,63.1330071 210.987981,63.4153235 C210.381691,63.5315276 209.776146,63.6477316 209.169857,63.7639357 L207.018794,63.7639357 L205.036063,63.7639357 C204.472229,63.6477316 203.909139,63.5315276 203.345305,63.4153235 C203.284229,63.2991194 203.223153,63.1829153 203.162077,63.0667112 L203.162077,62.5691194 L203.162077,62.1214357 L203.511401,62.1214357 C203.627594,62.0223643 203.743788,61.9218031 203.860726,61.8219867 C203.899457,61.6893949 203.938932,61.557548 203.977663,61.4249561 L203.977663,43.2643439 C203.915843,42.8822112 203.854022,42.5015684 203.792201,42.1194357 C203.643236,42.1194357 203.513636,42.0449459 203.402657,41.8959663 C203.291677,41.7462418 203.211236,41.5548031 203.162077,41.3238847 C203.162077,41.124252 203.247732,40.8933337 203.422022,40.6266602 C203.656643,40.3949969 203.891263,40.1625888 204.125884,39.9301806 C205.72056,39.7476806 207.315981,39.5651806 208.909912,39.3826806 C209.470767,39.3841704 209.891594,39.6813847 210.17165,40.2773031 L210.17165,43.9600786 C210.714629,42.2177622 211.413277,40.978252 212.26685,40.2408031 C213.120422,39.5026092 214.10285,39.1346296 215.214877,39.1338847 C215.858408,39.1346296 216.37085,39.3163847 216.755181,39.6813847 C217.138022,40.0471296 217.403926,40.6095276 217.552146,41.3723031" id="Fill-27" fill="#8D8B8C"></path>
                        <path d="M230.791754,41.7461673 C230.791754,42.5350143 230.68152,43.3223714 230.458072,44.1097286 L225.933989,44.1097286 L225.933989,55.552851 C225.933244,57.6095143 226.66243,58.6382184 228.121548,58.6382184 C228.690596,58.6382184 229.133768,58.5555347 229.457023,58.3894224 C229.740803,58.2732184 230.025327,58.1570143 230.309851,58.0408102 C230.42083,59.268402 230.53181,60.4959939 230.643534,61.7228408 C230.347092,62.3195041 229.716223,62.9094633 228.752417,63.4897388 C227.787865,64.0700143 226.75032,64.3597796 225.636058,64.3597796 C221.779341,64.3597796 219.851727,62.0558102 219.851727,57.4448918 L219.851727,44.1097286 L216.921575,44.1097286 C216.648968,43.3968612 216.51341,42.7167694 216.51341,42.0687082 C216.51341,41.3238102 216.59981,40.6116878 216.773354,39.9301061 L218.664472,39.9301061 C219.690099,38.0231673 220.716472,36.1154837 221.742844,34.2085449 C222.458623,33.9269735 223.175892,33.6446571 223.892417,33.3623408 C224.881548,33.032351 225.549658,32.8654939 225.896748,32.8654939 C225.908665,33.047249 225.921327,33.229749 225.933989,33.412249 L225.933989,39.3826061 C227.44152,39.3669633 228.949796,39.3498306 230.458072,39.3341878 C230.680775,40.1878408 230.791754,40.9908408 230.791754,41.7461673" id="Fill-29" fill="#8D8B8C"></path>
                        <path d="M263.799087,62.5691194 C263.724604,62.8514357 263.650866,63.1330071 263.576383,63.4153235 C263.057239,63.5315276 262.538094,63.6477316 262.018204,63.7639357 L260.238066,63.7639357 L258.476549,63.7639357 C257.963363,63.6477316 257.450177,63.5315276 256.935501,63.4153235 C256.862508,63.1330071 256.78877,62.8514357 256.715032,62.5691194 L256.715032,62.1214357 L256.98317,62.1214357 C257.042011,62.0223643 257.100852,61.9218031 257.160439,61.8219867 L257.160439,61.4249561 L257.160439,49.7814561 C257.160439,46.2662827 256.171308,44.5060888 254.193046,44.5060888 C253.17859,44.5068337 252.393542,44.9306806 251.837156,45.7753949 C251.281514,46.621599 251.003694,47.9408133 251.003694,49.7322929 L251.003694,61.4249561 L251.003694,61.8219867 C251.08339,61.9218031 251.163087,62.0223643 251.243528,62.1214357 L251.442397,62.1214357 C251.469211,62.2711602 251.49528,62.4201398 251.522839,62.5691194 C251.448356,62.8514357 251.373873,63.1330071 251.300135,63.4153235 C250.780246,63.5315276 250.261846,63.6477316 249.742701,63.7639357 L247.961818,63.7639357 L246.033459,63.7639357 C245.489735,63.6477316 244.946011,63.5315276 244.402287,63.4153235 C244.327804,63.1330071 244.254066,62.8514357 244.179583,62.5691194 L244.179583,62.1214357 L244.597432,62.1214357 C244.705432,62.0223643 244.813432,61.9218031 244.921432,61.8219867 L244.921432,61.4249561 L244.921432,49.7814561 C244.921432,46.2662827 243.91368,44.5060888 241.899666,44.5060888 C240.879997,44.5068337 240.095694,44.9247214 239.548246,45.7523031 C239.001542,46.5806296 238.72819,47.9072929 238.72819,49.7322929 L238.72819,61.4249561 C238.790756,61.6566194 238.852577,61.8897724 238.915142,62.1214357 L239.064852,62.1214357 C239.078259,62.2711602 239.090177,62.4201398 239.103583,62.5691194 C239.029101,62.8514357 238.955363,63.1330071 238.88088,63.4153235 C238.608273,63.4823643 238.334921,63.5479153 238.063059,63.6149561 C237.839611,63.6648643 237.617652,63.7140276 237.394204,63.7639357 L235.611087,63.7639357 L233.627611,63.7639357 C233.066011,63.6477316 232.503666,63.5315276 231.942066,63.4153235 C231.880246,63.2983745 231.81768,63.1829153 231.755859,63.0667112 L231.755859,62.5691194 C231.778949,62.4201398 231.801294,62.2711602 231.824383,62.1214357 L232.138701,62.1214357 C232.219887,62.0223643 232.301073,61.9218031 232.381514,61.8219867 L232.534204,61.4249561 L232.534204,43.2643439 C232.483556,42.8822112 232.432908,42.5015684 232.381514,42.1194357 C232.234783,42.1194357 232.104439,42.0449459 231.994204,41.8959663 C231.88397,41.7462418 231.805018,41.5548031 231.755859,41.3238847 C231.755859,41.124252 231.84077,40.8933337 232.012825,40.6266602 L232.713708,39.9301806 C234.32328,39.7476806 235.932108,39.5651806 237.54168,39.3826806 C238.035501,39.3841704 238.429514,39.6813847 238.72819,40.2773031 L238.72819,43.0140582 C239.200411,42.4509153 239.686039,41.9294867 240.182839,41.4482827 C240.680383,40.9670786 241.177183,40.511201 241.676218,40.0791602 C242.59608,39.3171296 243.703639,38.934252 244.997404,38.934252 C246.414066,38.934252 247.602811,39.3744867 248.560659,40.2542112 C249.517763,41.1331908 250.258866,42.2028643 250.78099,43.4632316 C251.424521,42.2021194 252.283308,41.1331908 253.358094,40.2542112 C254.433625,39.3737418 255.700577,38.934252 257.160439,38.934252 C261.289763,38.934252 263.35368,42.0687827 263.35368,48.3385888 L263.35368,61.4249561 L263.35368,61.8219867 C263.421459,61.9218031 263.488494,62.0223643 263.556273,62.1214357 L263.758121,62.1214357 C263.772273,62.2711602 263.784935,62.4201398 263.799087,62.5691194" id="Fill-31" fill="#8D8B8C"></path>
                        <path d="M277.446786,48.0851 C277.446786,46.5461408 277.154814,45.3408959 276.575338,44.4701102 C275.992883,43.5993245 275.184745,43.1643041 274.14571,43.1643041 C272.985269,43.165049 272.143614,43.6626408 271.625214,44.6570796 C271.202152,45.617998 270.895283,46.8642122 270.697159,48.3882735 C271.34069,48.471702 271.983476,48.5543857 272.625517,48.6370694 L273.62731,48.6370694 L277.113848,48.6370694 C277.335807,48.6378143 277.446786,48.4538245 277.446786,48.0851 M283.084386,50.2304061 C283.084386,51.888549 282.799862,52.7183653 282.231559,52.7183653 L270.697159,52.7183653 C270.845379,54.6752122 271.217048,56.282702 271.810676,57.5438143 C272.402814,58.7058551 273.465683,59.2846408 275.000028,59.2853857 C276.062152,59.2853857 276.914979,58.9904061 277.55851,58.4004469 C278.200552,57.8119776 278.657131,57.0119571 278.930483,56.0003857 L279.449628,56.0003857 C279.770648,56.0011306 280.018676,56.0182633 280.192221,56.0502939 C280.363531,56.0838143 280.624221,56.2007633 280.969821,56.3989061 C281.51429,56.6648347 282.058014,56.9300184 282.602483,57.1944571 C282.157076,59.451498 281.155283,61.2094571 279.598593,62.4698245 C278.040414,63.7301918 276.112055,64.3603755 273.812772,64.3603755 C271.068083,64.3603755 268.866372,63.2154673 267.211366,60.9271408 C265.552634,58.6388143 264.725876,55.5705796 264.725876,51.7239265 C264.725876,47.8742939 265.603283,44.7896714 267.358841,42.4678245 C268.24891,41.3065286 269.276028,40.427549 270.437214,39.8301408 C271.5984,39.2334776 272.921959,38.9347735 274.405655,38.9347735 C277.001379,38.9347735 279.097324,39.9634776 280.691255,42.0193959 C282.285931,44.0768041 283.084386,46.8143041 283.084386,50.2304061" id="Fill-33" fill="#8D8B8C"></path>
                        <path d="M304.705688,62.5691194 C304.63195,62.8514357 304.558212,63.1330071 304.484474,63.4153235 C303.940006,63.5315276 303.395537,63.6477316 302.851812,63.7639357 L301.034433,63.7639357 L299.179812,63.7639357 C298.648006,63.6477316 298.116943,63.5315276 297.585137,63.4153235 C297.511399,63.1330071 297.436916,62.8514357 297.363178,62.5691194 L297.363178,62.1214357 L297.702819,62.1214357 C297.799647,62.0223643 297.89573,61.9218031 297.992557,61.8219867 L297.992557,61.4249561 L297.992557,49.8820173 C297.991812,46.2990582 296.931178,44.5060888 294.803206,44.5060888 C293.789495,44.5060888 292.973164,44.9731398 292.355702,45.9005378 C291.737495,46.8301704 291.428392,48.2059969 291.428392,50.0317418 L291.428392,61.4249561 L291.428392,61.8219867 C291.495426,61.9218031 291.562461,62.0223643 291.629495,62.1214357 L291.871564,62.1214357 C291.884971,62.2711602 291.898378,62.4201398 291.91104,62.5691194 C291.837302,62.8514357 291.762819,63.1330071 291.688337,63.4153235 C291.181854,63.5315276 290.674626,63.6477316 290.167399,63.7639357 L288.388006,63.7639357 L286.460392,63.7639357 C285.915178,63.6477316 285.371454,63.5315276 284.82773,63.4153235 C284.765909,63.2983745 284.704088,63.1829153 284.642268,63.0667112 L284.605026,62.5691194 L284.670571,62.1214357 L284.93275,62.1214357 C285.008723,62.0223643 285.084695,61.9218031 285.160668,61.8219867 L285.34613,61.4249561 L285.34613,43.2643439 C285.284309,42.8822112 285.222488,42.5015684 285.160668,42.1194357 C285.012447,42.1194357 284.882847,42.0449459 284.771123,41.8959663 C284.660143,41.7462418 284.579702,41.5548031 284.529799,41.3238847 C284.529799,41.124252 284.616943,40.8933337 284.791233,40.6266602 C285.025854,40.394252 285.260474,40.1625888 285.495095,39.9301806 C287.077854,39.7476806 288.659868,39.5651806 290.242626,39.3826806 C290.735702,39.3841704 291.132695,39.6813847 291.428392,40.2773031 L291.428392,43.0140582 C292.184392,42.2348949 292.941137,41.4557316 293.697881,40.6773133 C295.011757,39.5167622 296.228061,38.934252 297.343068,38.934252 C299.476254,38.934252 301.131261,39.7476806 302.308833,41.3723031 C303.485661,42.9991602 304.077054,45.3210071 304.076309,48.3385888 L304.076309,61.4249561 L304.076309,61.8219867 C304.167923,61.9218031 304.260281,62.0223643 304.351895,62.1214357 L304.628226,62.1214357 C304.654295,62.2711602 304.680364,62.4201398 304.705688,62.5691194" id="Fill-35" fill="#8D8B8C"></path>
                        <path d="M318.947611,41.7461673 C318.947611,42.5350143 318.836632,43.3223714 318.613928,44.1097286 L314.089101,44.1097286 L314.089101,55.552851 C314.088356,57.6095143 314.818287,58.6382184 316.277404,58.6382184 C316.844963,58.6382184 317.29037,58.5555347 317.612135,58.3894224 C317.896659,58.2732184 318.181183,58.1570143 318.465708,58.0408102 C318.576687,59.268402 318.687666,60.4959939 318.79939,61.7228408 C318.502204,62.3195041 317.87208,62.9094633 316.907528,63.4897388 C315.942977,64.0700143 314.903942,64.3597796 313.792659,64.3597796 C309.934452,64.3597796 308.007583,62.0558102 308.006839,57.4448918 L308.006839,44.1097286 L305.076687,44.1097286 C304.80557,43.3968612 304.667777,42.7167694 304.668521,42.0687082 C304.667777,41.3238102 304.755666,40.6116878 304.927721,39.9301061 L306.819583,39.9301061 L309.898701,34.2085449 C310.615225,33.9269735 311.331749,33.6446571 312.049018,33.3623408 C313.037404,33.032351 313.706259,32.8654939 314.051859,32.8654939 C314.063777,33.047249 314.076439,33.229749 314.089101,33.412249 L314.089101,39.3826061 C315.596632,39.3669633 317.104908,39.3498306 318.613928,39.3341878 C318.836632,40.1878408 318.947611,40.9908408 318.947611,41.7461673" id="Fill-37" fill="#8D8B8C"></path>
                        <g id="Group-41" transform="translate(0.000000, 14.072240)" fill="#8D8B8C">
                            <path d="M6.53504276,11.4367908 C6.53504276,11.4367908 4.86886345,11.5902398 3.31440828,9.50303571 C1.4143531,6.95622959 1.26389793,3.74125 1.26389793,3.74125 C1.26389793,3.74125 0.000670344827,3.69655612 -7.44827589e-05,1.96988265 C-7.44827589e-05,0.30652551 2.43849103,0.261086735 2.43849103,0.261086735 C2.43849103,0.261086735 4.92323586,0.261086735 4.92323586,1.98403571 C4.92323586,3.93864796 3.81493241,3.80158673 3.81493241,3.80158673 C3.81493241,3.80158673 3.73374621,5.22955612 4.66552552,6.48172959 C5.79244966,7.99163776 6.53057379,8.01175 6.52982897,8.0124949 C108.704532,8.01919898 210.878491,8.02590306 313.053194,8.03335204 C313.555208,9.16708673 314.055732,10.3015663 314.557746,11.435301 C211.884008,11.4360459 109.209526,11.4360459 6.53504276,11.4367908" id="Fill-39"></path>
                        </g>
                        <path d="M315.646833,25.5090306 L314.981702,25.5090306 C314.487137,24.3723163 313.993316,23.235602 313.49875,22.0988878 L314.164626,22.0988878 C314.658447,23.235602 315.153012,24.3723163 315.646833,25.5090306" id="Fill-42" fill="#8D8B8C"></path>
                        <path d="M316.721172,25.5090306 L316.056041,25.5090306 C315.561476,24.3723163 315.06691,23.235602 314.57309,22.0988878 L315.238221,22.0988878 C315.732786,23.235602 316.226607,24.3723163 316.721172,25.5090306" id="Fill-44" fill="#8D8B8C"></path>
                        <path d="M317.89152,25.5090306 L317.226389,25.5090306 C316.731823,24.3723163 316.237258,23.235602 315.742692,22.0988878 L316.407823,22.0988878 C316.902389,23.235602 317.396954,24.3723163 317.89152,25.5090306" id="Fill-46" fill="#8D8B8C"></path>
                        <path d="M319.050174,25.5090306 L318.384298,25.5090306 C317.889732,24.3723163 317.395167,23.235602 316.900601,22.0988878 L317.567222,22.0988878 C318.061788,23.235602 318.555608,24.3723163 319.050174,25.5090306" id="Fill-48" fill="#8D8B8C"></path>
                        <path d="M320.124513,25.5090306 L319.458637,25.5090306 C318.964072,24.3723163 318.469506,23.235602 317.974941,22.0988878 L318.640817,22.0988878 C319.135382,23.235602 319.629948,24.3723163 320.124513,25.5090306" id="Fill-50" fill="#8D8B8C"></path>
                        <path d="M321.198852,25.5090306 L320.532232,25.5090306 C320.038411,24.3723163 319.543846,23.235602 319.050025,22.0988878 L319.715156,22.0988878 C320.209721,23.235602 320.704287,24.3723163 321.198852,25.5090306" id="Fill-52" fill="#8D8B8C"></path>
                        <path d="M322.271702,25.5090306 L321.606571,25.5090306 C321.112006,24.3723163 320.618185,23.235602 320.123619,22.0988878 L320.789495,22.0988878 C321.283316,23.235602 321.777881,24.3723163 322.271702,25.5090306" id="Fill-54" fill="#8D8B8C"></path>
                        <path d="M323.347531,25.5090306 L322.68091,25.5090306 C322.18709,24.3723163 321.692524,23.235602 321.198703,22.0988878 L321.863834,22.0988878 C322.3584,23.235602 322.852966,24.3723163 323.347531,25.5090306" id="Fill-56" fill="#8D8B8C"></path>
                    </g>
                </g>
            </g>
        </g>
    </g>
</svg>